<svg width="487" height="367" viewBox="0 0 487 367" fill="none" xmlns="http://www.w3.org/2000/svg">
<path d="M297.519 366.52C290.399 366.52 283.299 365.52 276.439 363.54C266.469 360.66 257.599 355.79 250.049 349.02C245.069 346.9 240.409 344.2 236.109 340.96C231.839 344.07 227.109 346.75 222.179 348.84C212.679 352.86 202.319 354.89 191.379 354.89C183.699 354.89 176.039 353.87 168.599 351.85C156.589 348.6 145.249 342.72 135.699 334.8C125.989 330.21 117.379 324 110.079 316.34C107.339 313.46 102.729 308.21 98.5789 301.55C94.5789 301.16 90.6289 300.54 86.7789 299.72C73.2689 296.81 60.3489 290.52 49.3289 281.49C16.2389 265.68 -3.75115 231.61 0.588853 198.08C5.06885 163.49 34.0589 137.03 68.9989 134.8C67.7589 121.2 70.4889 107.61 77.0589 95.9C83.9689 83.57 97.2889 69.3 114.369 65.18C121.169 61.57 128.489 60 134.769 59.41C158.719 22.61 200.029 0 244.159 0C274.149 0 303.409 10.42 326.589 29.36C342.089 39.95 355.209 53.85 364.879 69.9C365.469 69.89 366.059 69.88 366.659 69.88C386.019 69.88 405.859 75.64 421.079 85.7C423.639 87.39 426.119 89.24 428.459 91.23C432.339 93.07 436.009 95.12 439.389 97.35C457.569 109.35 468.579 126.93 469.609 145.57C470.079 154.07 469.089 165.69 458.989 182.91C468.799 189.18 476.729 198.49 481.569 209.71C497.989 247.77 471.629 289.87 436.709 305.32C425.569 310.24 413.169 312.85 400.869 312.85C390.859 312.85 381.209 311.18 372.309 307.96C370.029 316.45 366.339 324.7 361.429 332.13C347.169 353.67 323.279 366.52 297.519 366.52Z" fill="white"/>
<path d="M464.958 220.99C460.598 209.09 450.778 203.64 440.628 199.67C435.808 197.78 430.858 196.54 425.798 195.52C425.788 195.52 425.768 195.52 425.758 195.51C429.738 191.92 433.128 187.38 435.738 182.95C442.038 172.26 447.148 159.59 447.778 147.07C448.508 132.67 440.468 119.8 428.158 112.96C422.618 109.88 416.408 107.72 410.328 105.99C403.858 104.16 398.718 101.52 391.958 101.02C389.208 100.82 386.858 101.54 384.968 102.85C374.338 102.39 363.498 104.85 353.478 108.66C350.068 109.96 346.278 111.69 342.618 113.82C340.738 109.54 338.648 105.35 336.638 101.2C332.638 92.94 328.368 84.72 323.188 77.14C312.208 61.06 296.528 45.08 276.788 41.05C257.288 37.07 235.518 41.3 218.168 51.01C201.158 60.54 190.608 76.83 186.038 95.61C184.318 95.07 182.598 94.49 180.908 93.86C177.528 92.6 171.978 90.26 167.008 90.06C166.068 90.02 165.128 90.05 164.198 90.14C157.758 83.5 144.658 86.04 137.158 90.26C128.258 95.27 120.608 103.54 116.248 112.84C111.358 123.27 109.208 134.83 110.128 146.36C110.598 152.18 111.508 158.03 112.968 163.68C113.208 164.59 113.478 165.48 113.748 166.38C112.478 166.39 111.198 166.4 109.928 166.43C102.438 166.57 95.0082 167.07 87.6082 168.27C75.1382 170.28 63.2382 175.63 54.0482 184.51C44.9582 193.3 39.1882 206.06 40.2782 218.9C40.3982 220.29 40.5882 221.64 40.8182 222.98C40.4182 224.31 40.2282 225.69 40.3282 227.08C41.1882 238.91 44.8782 250.92 54.2082 260.62C63.1482 269.92 75.6582 275.22 88.0682 277.69C99.9282 280.05 112.438 281.43 124.538 280.96C124.838 280.95 125.138 280.93 125.428 280.92C128.188 290.53 133.438 299.74 139.148 307.3C148.208 319.29 160.878 328.68 175.818 331.44C191.258 334.29 206.228 332.26 220.208 324.96C226.358 321.75 232.098 317.39 237.168 312.65C237.268 312.56 237.358 312.46 237.458 312.36C241.428 315.19 245.708 317.7 249.368 320.33C255.528 324.76 261.178 329.9 267.248 334.46C280.608 344.49 297.088 349.81 313.438 344.24C328.448 339.13 340.878 327.83 348.288 313.76C352.068 306.58 354.978 298.65 356.588 290.67C357.268 287.32 357.788 283.87 358.178 280.43C359.888 281.53 361.648 282.56 363.368 283.48C372.238 288.23 381.688 291.13 391.668 292.12C411.378 294.09 431.128 286.82 445.788 273.61C459.538 261.28 471.908 239.99 464.958 220.99ZM170.808 265.61C169.318 267.01 169.748 266.3 170.808 265.61V265.61ZM152.938 274.38C152.988 274.63 153.038 274.87 153.088 275.12C152.978 274.91 152.858 274.7 152.748 274.48C152.808 274.46 152.878 274.42 152.938 274.38Z" fill="#D0CFCD"/>
<path d="M128.86 287.71C129.58 293.68 132.73 298.09 135.98 303.01C139.27 307.98 142.861 312.3 147.381 316.2C156.291 323.9 166.661 329.83 178.111 332.81C188.541 335.53 200.67 336.22 210.97 332.65C221.94 328.85 230.34 322.25 237.44 313.21C239.03 311.19 239.72 308.69 238.33 306.32C237.47 304.85 236.451 304.31 234.931 303.71C233.021 302.96 230.81 303.91 229.4 305.17C217.73 315.62 196.25 317.47 181.76 313.26C173.8 310.94 166.221 306.64 159.801 301.41C156.121 298.41 152.401 295.22 148.971 291.93C145.491 288.59 143.03 284.54 138.87 281.96C134.94 279.52 128.24 282.62 128.86 287.71Z" fill="#D0CFCD"/>
<path d="M285.171 346C289.581 346.71 292.911 348.6 297.581 348.31C302.041 348.03 306.611 346.96 310.851 345.58C320.041 342.59 328.101 337.47 335.011 330.7C342.131 323.72 347.201 314.54 350.921 305.38C352.731 300.94 354.191 296.36 355.281 291.7C356.551 286.27 355.741 282 354.761 276.64C353.671 270.71 344.531 269.75 341.861 274.95C339.791 278.99 337.731 282.06 336.541 286.53C335.611 290.01 334.541 293.45 333.201 296.79C330.291 304.07 326.191 310.72 321.331 316.85C316.931 322.4 311.641 327.47 305.871 331.59C302.851 333.75 299.631 335.57 296.261 337.12C292.761 338.74 288.821 341.71 285.161 342.55C283.531 342.95 283.401 345.72 285.171 346Z" fill="#D0CFCD"/>
<path d="M369.97 286.63C375.47 291.76 380.99 294.84 388.52 295.77C396.15 296.71 404.4 294.9 411.88 293.35C427.65 290.07 440.66 283.47 448.46 268.83C456.04 254.61 463.2 240.3 460.63 223.74C459.53 216.65 455.93 209.64 450.44 204.9C445.4 200.55 438.99 200.06 433.78 196.55C433.03 197.52 432.28 198.49 431.53 199.47C433.91 202.45 437.49 203.86 440.53 206.11C443.61 208.4 446.38 211.01 448.64 214.13C453.13 220.33 455.31 227.55 454.71 235.21C454.12 242.73 451.87 249.76 447.82 256.1C443.61 262.69 437.37 267.68 432.29 273.56C429.75 276.5 431.1 282.85 435.9 282.28C457.06 279.76 471.44 254.15 468.67 234.09C467.35 224.55 462.84 215.3 456.55 208.03C451.45 202.13 440.79 193.12 432.36 196.36C430.93 196.91 430.44 198.89 431.92 199.75C436.47 202.42 437.07 208.85 438.39 213.62C439.67 218.25 440.98 223.12 441.48 227.91C442.61 238.83 437.36 251 432.51 260.53C430.05 265.38 427.23 269.26 422.39 271.92C417.47 274.63 411.9 275.87 406.56 277.49C400.58 279.3 394.64 280.54 388.53 281.78C382.85 282.94 376.89 284.58 371.07 283.97C369.71 283.85 369.04 285.77 369.97 286.63Z" fill="#D0CFCD"/>
<path d="M143.08 272.49C139.68 272.05 136.78 271.06 133.31 270.83C130.31 270.63 127.36 270.3 124.36 270.22C118.05 270.06 111.78 269.51 105.55 268.54C94.5201 266.83 83.5801 264.37 73.7601 258.87C55.5301 248.67 42.2201 231.17 44.4601 209.63C44.6701 207.63 41.9401 207.34 41.0001 208.69C34.2401 218.47 33.9701 231.39 36.9601 242.57C40.5201 255.91 49.4801 266.3 61.3701 273.09C73.5101 280.03 87.4801 283.59 101.33 284.87C108.6 285.54 116.06 285.25 123.27 284.19C127.29 283.6 130.94 282.62 134.7 281.08C138.75 279.42 140.39 277.69 143.79 275.08C144.92 274.22 144.5 272.68 143.08 272.49Z" fill="#D0CFCD"/>
<path d="M263.1 42.6003C270.31 46.3003 278.5 47.6503 285.5 51.7803C291.75 55.4703 298.01 60.7703 302.44 66.5603C313.22 80.6303 316.42 98.9303 326.48 113.45C333.11 123.02 346.38 114.87 341.85 104.47C333.87 86.1503 328.46 65.8303 313.7 51.4903C301.91 40.0303 279.15 29.2203 263.1 37.5303C261.18 38.5103 261.17 41.6103 263.1 42.6003Z" fill="#D0CFCD"/>
<path d="M128.641 95.8306C117.211 101.141 108.911 113.891 104.851 125.551C102.591 132.051 101.991 139.131 102.341 145.971C102.741 153.811 102.611 162.971 105.771 170.171C108.381 176.111 117.551 174.021 119.061 168.431C120.821 161.931 119.151 154.561 118.901 147.891C118.681 142.091 118.901 136.291 119.861 130.561C120.771 125.121 121.581 120.021 124.021 115.021C126.581 109.791 129.661 104.761 132.451 99.6405C133.851 97.0605 131.101 94.6806 128.641 95.8306Z" fill="#D0CFCD"/>
<path d="M398 104.1C402.11 108.19 407.93 109.91 412.83 112.87C417.89 115.93 422.52 120.03 425.76 125C431.74 134.16 436.06 150.08 432.86 160.83C429.74 171.3 415.51 173.9 417.68 186.52C419.79 198.77 435.2 200.73 437.61 212.33C439.37 220.82 452.3 217.22 450.59 208.75C449.36 202.62 445.67 197.4 440.96 193.38C438.74 191.48 436.13 189.98 434 187.98C431.77 185.88 431.22 185.46 433.69 184.07C446.12 177.11 450.9 164.93 449.38 151C447.93 137.64 443.18 124.48 433.7 114.71C429.43 110.31 424.43 106.81 418.81 104.38C413.13 101.92 406.23 99.1005 399.96 99.3505C397.61 99.4405 396.24 102.35 398 104.1Z" fill="#D0CFCD"/>
<path d="M330.4 124.14C337.4 120.64 343.52 115.62 350.53 112.03C356.66 108.89 362.93 106.37 369.68 104.91C380.73 102.52 392.34 103.05 403.28 105.73C421.44 110.19 441.38 120.78 446.68 140.21C451.62 158.31 438.66 175.24 428.36 188.75C425.87 192.02 429.35 195.94 432.64 196.2C448.78 197.47 461.59 211.62 464.29 227.11C467.36 244.79 458.32 262.74 445.43 274.35C432.07 286.39 413.66 292.76 395.71 291.24C378.58 289.79 362.51 280.63 350.51 268.61C348.04 266.14 343.64 269.35 345.59 272.41C363.79 300.98 402.1 307.5 431.84 294.34C460.97 281.45 484.27 246.29 470.53 214.46C463.84 198.95 449.64 187.63 432.64 186.3C434.07 188.78 435.49 191.27 436.92 193.75C447.32 180.11 458.61 164.28 457.62 146.23C456.72 129.95 446 116.1 432.77 107.36C415.67 96.0704 392.82 91.4204 372.71 94.4204C355.93 96.9304 335.87 105.72 327.65 121.39C326.69 123.21 328.6 125.04 330.4 124.14Z" fill="#D0CFCD"/>
<path d="M146.419 88.0105C129.489 85.2705 113.569 99.6005 105.829 113.42C96.2291 130.54 97.0791 152.06 106.569 168.98C108.429 166.56 110.299 164.13 112.159 161.71C75.9791 149.06 35.7491 172.96 30.7891 211.28C26.0691 247.72 54.7891 280.56 89.2891 287.99C110.309 292.52 133.949 289.73 152.859 279.34C157.169 276.97 154.229 269.38 149.429 271.21C133.559 277.24 117.479 281.37 100.369 279.76C84.5491 278.27 69.3991 271.75 58.1791 260.41C36.2791 238.27 33.3091 202.54 57.4891 180.8C71.6091 168.1 91.8591 165.08 109.529 171.26C113.759 172.74 117.119 167.55 115.119 163.99C106.999 149.51 107.009 132.33 114.709 117.69C117.949 111.52 122.139 105.96 127.599 101.58C133.299 97.0105 140.359 94.3605 146.819 91.0705C148.029 90.4305 147.839 88.2305 146.419 88.0105Z" fill="#D0CFCD"/>
<path d="M119.998 283.91C118.828 296.57 128.798 311.04 137.058 319.72C146.458 329.59 158.578 336.71 171.728 340.28C186.628 344.32 203.198 343.83 217.488 337.79C229.578 332.68 243.158 321.83 244.758 307.96C245.258 303.6 239.428 303.25 237.408 305.97C233.738 310.9 231.018 316.18 226.468 320.44C221.668 324.93 215.778 328.2 209.528 330.18C197.208 334.1 183.688 333.47 171.488 329.42C160.828 325.88 150.888 319.57 143.188 311.41C139.268 307.26 136.018 302.56 133.508 297.43C131.038 292.36 130.138 286.86 127.928 281.76C126.068 277.47 120.348 280.22 119.998 283.91Z" fill="#D0CFCD"/>
<path d="M231.65 297.4C234.18 309.05 242.5 320.91 249.39 330.42C257.08 341.04 267.05 348.35 279.76 352.01C306.88 359.83 335.9 348.96 351.41 325.52C359.79 312.86 364.49 296.4 362.52 281.22C361.74 275.2 352.46 274.78 352.77 281.22C353.52 296.7 350.02 311.59 340.28 323.97C330.43 336.5 315.61 343.94 299.67 344.37C285.12 344.76 269.88 339.64 260.29 328.34C255.61 322.82 251.77 316.54 248.06 310.35C244.77 304.87 241.63 298.75 236.84 294.4C234.5 292.28 230.99 294.35 231.65 297.4Z" fill="#D0CFCD"/>
<path d="M134.518 94.7199C145.068 93.1399 154.558 90.4099 165.408 91.7199C176.028 92.9999 185.098 97.5899 193.788 103.59C197.788 106.35 202.508 100.15 198.968 96.8799C190.038 88.6099 177.968 84.3199 165.988 83.0599C155.058 81.9199 140.978 83.6199 132.588 91.4099C130.978 92.8899 132.728 94.9899 134.518 94.7199Z" fill="#D0CFCD"/>
<path d="M188.999 93.1C192.989 85.4 195.209 77.18 200.449 70.07C205.889 62.69 213.159 56.61 221.029 51.97C236.529 42.81 255.449 39.31 273.219 42.16C290.539 44.94 306.129 53.36 317.929 66.33C323.689 72.67 328.379 79.99 331.859 87.81C335.349 95.64 336.969 104.05 339.809 112.1C341.059 115.65 347.449 116.7 348.119 112.1C350.289 97.09 343.489 81.42 335.219 69.16C326.459 56.19 314.449 45.2 300.269 38.44C270.829 24.4 233.529 28.24 207.989 48.78C196.249 58.22 181.529 76.31 185.299 92.61C185.689 94.27 188.209 94.63 188.999 93.1Z" fill="#D0CFCD"/>
<path d="M446.648 209.34C442.288 197.44 432.468 191.99 422.318 188.02C417.498 186.13 412.548 184.89 407.488 183.87C407.478 183.87 407.458 183.87 407.448 183.86C411.428 180.27 414.818 175.73 417.428 171.3C423.728 160.61 428.838 147.94 429.468 135.42C430.198 121.02 422.158 108.15 409.848 101.31C404.308 98.2296 398.098 96.0696 392.018 94.3396C385.548 92.5096 380.408 89.8696 373.648 89.3696C370.898 89.1696 368.548 89.8896 366.658 91.1996C356.028 90.7396 345.188 93.1996 335.168 97.0096C331.758 98.3096 327.968 100.04 324.308 102.17C322.428 97.8896 320.338 93.6996 318.328 89.5496C314.328 81.2896 310.058 73.0696 304.878 65.4896C293.898 49.4096 278.218 33.4296 258.478 29.3996C238.978 25.4196 217.208 29.6496 199.858 39.3596C182.848 48.8896 172.298 65.1796 167.728 83.9596C166.008 83.4196 164.288 82.8396 162.598 82.2096C159.218 80.9496 153.668 78.6096 148.698 78.4096C147.758 78.3696 146.818 78.3996 145.888 78.4896C139.448 71.8496 126.348 74.3896 118.848 78.6096C109.948 83.6196 102.298 91.8896 97.9377 101.19C93.0477 111.62 90.8977 123.18 91.8177 134.71C92.2877 140.53 93.1977 146.38 94.6577 152.03C94.8977 152.94 95.1677 153.83 95.4377 154.73C94.1677 154.74 92.8877 154.75 91.6177 154.78C84.1277 154.92 76.6977 155.42 69.2977 156.62C56.8277 158.63 44.9277 163.98 35.7377 172.86C26.6477 181.65 20.8777 194.41 21.9677 207.25C22.0877 208.64 22.2777 209.99 22.5077 211.33C22.1077 212.66 21.9177 214.04 22.0177 215.43C22.8777 227.26 26.5677 239.27 35.8977 248.97C44.8377 258.27 57.3477 263.57 69.7577 266.04C81.6177 268.4 94.1277 269.78 106.228 269.31C106.528 269.3 106.828 269.28 107.118 269.27C109.878 278.88 115.128 288.09 120.838 295.65C129.898 307.64 142.568 317.03 157.508 319.79C172.948 322.64 187.918 320.61 201.898 313.31C208.048 310.1 213.788 305.74 218.858 301C218.958 300.91 219.048 300.81 219.148 300.71C223.118 303.54 227.398 306.05 231.058 308.68C237.218 313.11 242.868 318.25 248.938 322.81C262.298 332.84 278.778 338.16 295.128 332.59C310.138 327.48 322.568 316.18 329.978 302.11C333.758 294.93 336.668 287 338.278 279.02C338.958 275.67 339.478 272.22 339.868 268.78C341.578 269.88 343.338 270.91 345.058 271.83C353.928 276.58 363.378 279.48 373.358 280.47C393.068 282.44 412.818 275.17 427.478 261.96C441.228 249.63 453.598 228.33 446.648 209.34ZM152.498 253.96C151.008 255.36 151.438 254.65 152.498 253.96V253.96ZM134.628 262.73C134.678 262.98 134.728 263.22 134.778 263.47C134.668 263.26 134.548 263.05 134.438 262.83C134.498 262.8 134.568 262.77 134.628 262.73Z" fill="white"/>
<path d="M110.55 276.059C111.27 282.029 114.42 286.439 117.67 291.359C120.96 296.329 124.55 300.649 129.07 304.549C137.98 312.249 148.35 318.179 159.8 321.159C170.23 323.879 182.36 324.569 192.66 320.999C203.63 317.199 212.03 310.599 219.13 301.559C220.72 299.539 221.41 297.039 220.02 294.669C219.16 293.199 218.14 292.659 216.62 292.059C214.71 291.309 212.5 292.259 211.09 293.519C199.42 303.969 177.94 305.819 163.45 301.609C155.49 299.289 147.91 294.989 141.49 289.759C137.81 286.759 134.09 283.569 130.66 280.279C127.18 276.939 124.72 272.889 120.56 270.309C116.63 267.869 109.93 270.959 110.55 276.059Z" fill="#D0CFCD"/>
<path d="M266.86 334.349C271.27 335.059 274.6 336.949 279.27 336.659C283.73 336.379 288.3 335.309 292.54 333.929C301.73 330.939 309.79 325.819 316.7 319.049C323.82 312.069 328.89 302.889 332.61 293.729C334.42 289.289 335.88 284.709 336.97 280.049C338.24 274.619 337.43 270.349 336.45 264.989C335.36 259.059 326.22 258.099 323.55 263.299C321.48 267.339 319.42 270.409 318.23 274.879C317.3 278.359 316.23 281.799 314.89 285.139C311.98 292.419 307.88 299.069 303.02 305.199C298.62 310.749 293.33 315.819 287.56 319.939C284.54 322.099 281.32 323.919 277.95 325.469C274.45 327.089 270.51 330.059 266.85 330.899C265.22 331.299 265.09 334.069 266.86 334.349Z" fill="#D0CFCD"/>
<path d="M351.66 274.979C357.16 280.109 362.68 283.189 370.21 284.119C377.84 285.059 386.09 283.249 393.57 281.699C409.34 278.419 422.35 271.819 430.15 257.179C437.73 242.959 444.89 228.649 442.32 212.089C441.22 204.999 437.62 197.989 432.13 193.249C427.09 188.899 420.68 188.409 415.47 184.899C414.72 185.869 413.97 186.839 413.22 187.819C415.6 190.799 419.18 192.209 422.22 194.459C425.3 196.749 428.07 199.359 430.33 202.479C434.82 208.679 437 215.899 436.4 223.559C435.81 231.079 433.56 238.109 429.51 244.449C425.3 251.039 419.06 256.029 413.98 261.909C411.44 264.849 412.79 271.199 417.59 270.629C438.75 268.109 453.13 242.499 450.36 222.439C449.04 212.899 444.53 203.649 438.24 196.379C433.14 190.479 422.48 181.469 414.05 184.709C412.62 185.259 412.13 187.239 413.61 188.099C418.16 190.769 418.76 197.199 420.08 201.969C421.36 206.599 422.67 211.469 423.17 216.259C424.3 227.179 419.05 239.349 414.2 248.879C411.74 253.729 408.92 257.609 404.08 260.269C399.16 262.979 393.59 264.219 388.25 265.839C382.27 267.649 376.33 268.889 370.22 270.129C364.54 271.289 358.58 272.929 352.76 272.319C351.4 272.199 350.73 274.119 351.66 274.979Z" fill="#D0CFCD"/>
<path d="M124.77 260.84C121.37 260.4 118.47 259.41 115 259.18C112 258.98 109.05 258.65 106.05 258.57C99.7396 258.41 93.4696 257.86 87.2396 256.89C76.2096 255.18 65.2696 252.72 55.4496 247.22C37.2196 237.02 23.9096 219.52 26.1496 197.98C26.3596 195.98 23.6296 195.69 22.6896 197.04C15.9296 206.82 15.6596 219.74 18.6496 230.92C22.2096 244.26 31.1696 254.65 43.0596 261.44C55.1996 268.38 69.1696 271.94 83.0196 273.22C90.2896 273.89 97.7496 273.6 104.96 272.54C108.98 271.95 112.63 270.97 116.39 269.43C120.44 267.77 122.08 266.04 125.48 263.43C126.61 262.57 126.19 261.02 124.77 260.84Z" fill="#D0CFCD"/>
<path d="M110.33 84.1792C98.9002 89.4892 90.6002 102.239 86.5402 113.899C84.2802 120.399 83.6802 127.479 84.0302 134.319C84.4302 142.159 84.3002 151.319 87.4602 158.519C90.0702 164.459 99.2402 162.369 100.75 156.779C102.51 150.279 100.84 142.909 100.59 136.239C100.37 130.439 100.59 124.639 101.55 118.909C102.46 113.469 103.27 108.369 105.71 103.369C108.27 98.1392 111.35 93.1092 114.14 87.9892C115.54 85.4092 112.79 83.0292 110.33 84.1792Z" fill="#D0CFCD"/>
<path d="M379.689 92.4491C383.799 96.5391 389.619 98.2591 394.519 101.219C399.579 104.279 404.209 108.379 407.449 113.349C413.429 122.509 417.749 138.429 414.549 149.179C411.429 159.649 397.199 162.249 399.369 174.869C401.479 187.119 416.889 189.079 419.299 200.679C421.059 209.169 433.989 205.569 432.279 197.099C431.049 190.969 427.359 185.749 422.649 181.729C420.429 179.829 417.819 178.329 415.689 176.329C413.459 174.229 412.909 173.809 415.379 172.419C427.809 165.459 432.589 153.279 431.069 139.349C429.619 125.989 424.869 112.829 415.389 103.059C411.119 98.6591 406.119 95.1591 400.499 92.7291C394.819 90.2691 387.919 87.4491 381.649 87.6991C379.299 87.7891 377.929 90.6891 379.689 92.4491Z" fill="#D0CFCD"/>
<path d="M312.089 112.479C319.089 108.979 325.209 103.959 332.219 100.369C338.349 97.2293 344.619 94.7092 351.369 93.2492C362.419 90.8592 374.029 91.3893 384.969 94.0693C403.129 98.5293 423.069 109.119 428.369 128.549C433.309 146.649 420.349 163.579 410.049 177.089C407.559 180.359 411.039 184.279 414.329 184.539C430.469 185.809 443.279 199.959 445.979 215.449C449.049 233.129 440.009 251.079 427.119 262.689C413.759 274.729 395.349 281.099 377.399 279.579C360.269 278.129 344.199 268.969 332.199 256.949C329.729 254.479 325.329 257.689 327.279 260.749C345.479 289.319 383.789 295.839 413.529 282.679C442.659 269.789 465.959 234.629 452.219 202.799C445.529 187.289 431.329 175.969 414.329 174.639C415.759 177.119 417.179 179.609 418.609 182.089C429.009 168.449 440.299 152.619 439.309 134.569C438.409 118.289 427.689 104.439 414.459 95.6993C397.359 84.4093 374.509 79.7593 354.399 82.7593C337.619 85.2693 317.559 94.0593 309.339 109.729C308.379 111.559 310.289 113.389 312.089 112.479Z" fill="#39404A"/>
<path d="M128.109 76.3493C111.179 73.6093 95.2586 87.9393 87.5186 101.759C77.9186 118.879 78.7686 140.399 88.2586 157.319C90.1186 154.899 91.9886 152.469 93.8486 150.049C57.6686 137.399 17.4386 161.299 12.4786 199.619C7.75859 236.059 36.4786 268.899 70.9786 276.329C91.9986 280.859 115.639 278.069 134.549 267.679C138.859 265.309 135.919 257.719 131.119 259.549C115.249 265.579 99.1686 269.709 82.0586 268.099C66.2386 266.609 51.0886 260.089 39.8686 248.749C17.9686 226.609 14.9986 190.879 39.1786 169.139C53.2986 156.439 73.5486 153.419 91.2186 159.599C95.4486 161.079 98.8086 155.889 96.8086 152.329C88.6886 137.849 88.6986 120.669 96.3986 106.029C99.6386 99.8593 103.829 94.2993 109.289 89.9193C114.989 85.3493 122.049 82.6993 128.509 79.4093C129.719 78.7793 129.529 76.5793 128.109 76.3493Z" fill="#39404A"/>
<path d="M101.688 272.259C100.518 284.919 110.488 299.389 118.748 308.069C128.148 317.939 140.268 325.059 153.418 328.629C168.318 332.669 184.888 332.179 199.178 326.139C211.268 321.029 224.848 310.179 226.448 296.309C226.948 291.949 221.118 291.599 219.098 294.319C215.428 299.249 212.708 304.529 208.158 308.789C203.358 313.279 197.468 316.549 191.218 318.529C178.898 322.449 165.378 321.819 153.178 317.769C142.518 314.229 132.578 307.919 124.878 299.759C120.958 295.609 117.708 290.909 115.198 285.779C112.728 280.709 111.828 275.209 109.618 270.109C107.758 265.819 102.028 268.569 101.688 272.259Z" fill="#39404A"/>
<path d="M213.339 285.749C215.869 297.399 224.189 309.259 231.079 318.769C238.769 329.389 248.739 336.699 261.449 340.359C288.569 348.179 317.589 337.309 333.099 313.869C341.479 301.209 346.179 284.749 344.209 269.569C343.429 263.549 334.149 263.129 334.459 269.569C335.209 285.049 331.709 299.939 321.969 312.319C312.119 324.849 297.299 332.289 281.359 332.719C266.809 333.109 251.569 327.989 241.979 316.689C237.299 311.169 233.459 304.889 229.749 298.699C226.459 293.219 223.319 287.099 218.529 282.749C216.189 280.629 212.679 282.699 213.339 285.749Z" fill="#39404A"/>
<path d="M116.208 83.0695C126.758 81.4895 136.248 78.7595 147.098 80.0695C157.718 81.3495 166.788 85.9395 175.478 91.9395C179.478 94.6995 184.198 88.4995 180.658 85.2295C171.728 76.9595 159.658 72.6695 147.678 71.4095C136.748 70.2695 122.668 71.9695 114.278 79.7595C112.668 81.2395 114.418 83.3395 116.208 83.0695Z" fill="#39404A"/>
<path d="M170.688 81.4496C174.678 73.7496 176.898 65.5296 182.138 58.4196C187.578 51.0396 194.848 44.9596 202.718 40.3196C218.218 31.1596 237.138 27.6596 254.908 30.5096C272.228 33.2896 287.818 41.7096 299.618 54.6796C305.378 61.0196 310.068 68.3396 313.548 76.1596C317.038 83.9896 318.658 92.3996 321.498 100.45C322.748 104 329.138 105.05 329.808 100.45C331.978 85.4396 325.178 69.7696 316.908 57.5096C308.148 44.5396 296.138 33.5496 281.958 26.7896C252.518 12.7496 215.218 16.5896 189.678 37.1296C177.938 46.5696 163.218 64.6596 166.988 80.9596C167.378 82.6196 169.898 82.9796 170.688 81.4496Z" fill="#39404A"/>
<path d="M250.128 20.6992C184.738 20.6992 131.738 73.7092 131.738 139.089C131.738 204.479 184.748 257.479 250.128 257.479C315.518 257.479 368.518 204.469 368.518 139.089C368.518 73.7092 315.508 20.6992 250.128 20.6992Z" fill="#D0CFCD" stroke="#D0CFCD" stroke-width="1.7661" stroke-miterlimit="10"/>
<path d="M244.148 11.9893C178.758 11.9893 125.758 64.9993 125.758 130.379C125.758 195.759 178.768 248.769 244.148 248.769C309.538 248.769 362.538 195.759 362.538 130.379C362.538 64.9993 309.538 11.9893 244.148 11.9893Z" fill="white" stroke="#39404A" stroke-width="5.8582" stroke-miterlimit="10"/>
<path d="M299.788 195.119C296.118 191.669 292.488 188.159 288.908 184.619C292.328 181.369 295.787 178.159 299.297 174.999C297.777 173.179 296.108 170.679 294.658 168.799C290.888 172.209 287.158 175.669 283.478 179.179C280.218 175.859 276.998 172.499 273.818 169.099C272.028 170.649 269.548 172.359 267.688 173.839C271.057 177.449 274.477 181.009 277.938 184.519C274.648 187.749 271.387 191.009 268.177 194.319C269.437 196.409 271.198 198.689 272.818 200.519C276.288 196.949 279.807 193.429 283.367 189.949C286.757 193.299 290.188 196.599 293.658 199.859C295.738 198.569 297.988 196.759 299.788 195.119Z" fill="#D0CFCD"/>
<path d="M300.388 194.519C298.558 192.789 296.728 191.059 294.908 189.299C293.808 188.239 290.808 186.239 290.818 184.669C290.828 182.149 297.948 177.349 299.888 175.589C300.258 175.259 300.158 174.729 299.888 174.389C298.318 172.429 296.888 170.369 295.388 168.359C295.048 167.909 294.488 167.789 294.048 168.189C292.168 169.899 290.288 171.609 288.428 173.339C287.268 174.409 285.168 177.309 283.558 177.289C280.968 177.259 276.258 170.449 274.418 168.489C274.078 168.129 273.558 168.199 273.218 168.489C271.278 170.089 269.248 171.559 267.268 173.099C266.828 173.439 266.688 173.999 267.098 174.439C268.788 176.239 270.478 178.029 272.188 179.819C273.058 180.729 275.908 182.749 276.048 183.809C276.478 186.909 269.578 191.679 267.588 193.729C267.328 193.989 267.248 194.439 267.458 194.759C268.898 197.019 270.488 199.099 272.228 201.139C272.528 201.489 273.128 201.449 273.428 201.139C275.378 199.139 280.628 191.869 283.348 191.849C285.928 191.829 291.078 198.609 293.068 200.479C293.328 200.729 293.778 200.819 294.098 200.609C296.328 199.139 298.388 197.509 300.398 195.739C301.218 195.009 300.018 193.819 299.198 194.539C296.068 197.309 294.508 199.529 291.038 196.209C288.668 193.949 286.328 191.659 283.988 189.369C283.658 189.049 283.118 189.049 282.788 189.369C281.008 191.109 279.238 192.859 277.478 194.619C276.618 195.479 275.788 196.499 274.848 197.269C273.148 198.659 273.368 199.259 271.548 197.629C268.838 195.179 270.118 193.579 272.258 191.409C274.338 189.299 276.448 187.209 278.558 185.139C278.888 184.819 278.878 184.259 278.558 183.939C275.098 180.419 271.678 176.859 268.308 173.259C268.248 173.709 268.198 174.149 268.138 174.599C269.308 173.699 270.548 172.449 271.868 171.779C273.728 170.829 273.318 170.369 275.028 171.639C277.878 173.759 280.408 177.269 282.898 179.809C283.228 180.139 283.768 180.119 284.098 179.809C287.788 176.309 291.508 172.839 295.278 169.429C294.828 169.369 294.388 169.319 293.938 169.259C295.578 171.459 298.658 173.769 296.738 176.219C294.498 179.069 290.948 181.559 288.318 184.059C287.988 184.369 287.998 184.949 288.318 185.259C291.908 188.799 295.528 192.309 299.198 195.759C299.988 196.469 301.188 195.269 300.388 194.519Z" fill="#D0CFCD"/>
<path d="M186.879 128.179C183.209 124.729 179.579 121.219 175.999 117.679C179.419 114.429 182.879 111.219 186.389 108.059C184.869 106.239 183.199 103.739 181.749 101.859C177.979 105.269 174.249 108.729 170.569 112.239C167.309 108.919 164.089 105.559 160.909 102.159C159.119 103.709 156.639 105.419 154.779 106.899C158.149 110.509 161.569 114.069 165.029 117.579C161.739 120.809 158.479 124.069 155.269 127.379C156.529 129.469 158.289 131.749 159.909 133.579C163.379 130.009 166.899 126.489 170.459 123.009C173.849 126.359 177.279 129.659 180.749 132.919C182.819 131.619 185.069 129.819 186.879 128.179Z" fill="#D0CFCD"/>
<path d="M187.479 127.569C185.649 125.839 183.819 124.109 181.999 122.349C180.899 121.289 177.899 119.289 177.909 117.719C177.919 115.199 185.039 110.399 186.979 108.639C187.349 108.309 187.259 107.779 186.979 107.439C185.409 105.479 183.979 103.419 182.479 101.409C182.139 100.959 181.579 100.839 181.139 101.239C179.259 102.949 177.379 104.659 175.519 106.389C174.359 107.459 172.259 110.359 170.649 110.339C168.059 110.309 163.349 103.499 161.509 101.539C161.169 101.179 160.649 101.249 160.309 101.539C158.369 103.139 156.339 104.609 154.359 106.149C153.919 106.489 153.779 107.049 154.189 107.489C155.879 109.289 157.569 111.079 159.279 112.869C160.149 113.779 162.999 115.799 163.139 116.859C163.569 119.959 156.669 124.729 154.679 126.779C154.419 127.039 154.339 127.489 154.549 127.809C155.989 130.069 157.579 132.149 159.319 134.189C159.619 134.539 160.219 134.499 160.519 134.189C162.469 132.189 167.719 124.919 170.439 124.899C173.019 124.879 178.169 131.659 180.159 133.529C180.419 133.779 180.869 133.869 181.189 133.659C183.419 132.189 185.479 130.559 187.489 128.789C188.309 128.059 187.109 126.869 186.289 127.589C183.159 130.359 181.599 132.579 178.129 129.259C175.759 126.999 173.419 124.709 171.079 122.419C170.749 122.099 170.209 122.099 169.879 122.419C168.099 124.159 166.329 125.909 164.569 127.669C163.709 128.529 162.879 129.549 161.939 130.319C160.239 131.709 160.459 132.309 158.639 130.679C155.929 128.229 157.209 126.629 159.349 124.459C161.429 122.349 163.539 120.259 165.649 118.189C165.979 117.869 165.969 117.309 165.649 116.989C162.189 113.469 158.769 109.909 155.399 106.309C155.339 106.759 155.289 107.199 155.229 107.649C156.399 106.749 157.639 105.499 158.959 104.829C160.819 103.879 160.409 103.419 162.119 104.689C164.969 106.809 167.499 110.319 169.989 112.859C170.319 113.189 170.859 113.169 171.189 112.859C174.879 109.359 178.599 105.889 182.369 102.479C181.919 102.419 181.479 102.369 181.029 102.309C182.669 104.509 185.749 106.819 183.829 109.269C181.589 112.119 178.039 114.609 175.409 117.109C175.079 117.419 175.089 117.999 175.409 118.309C178.999 121.849 182.619 125.359 186.289 128.809C187.069 129.529 188.269 128.329 187.479 127.569Z" fill="#D0CFCD"/>
<path d="M224.528 81.9391C220.858 78.4891 217.228 74.9791 213.648 71.4391C217.068 68.1891 220.528 64.9791 224.038 61.8191C222.518 59.9991 220.848 57.4991 219.398 55.6191C215.628 59.0291 211.898 62.4891 208.218 65.9991C204.958 62.6791 201.738 59.3191 198.558 55.9191C196.768 57.4691 194.288 59.1791 192.428 60.6591C195.798 64.2691 199.218 67.8291 202.678 71.3391C199.388 74.5691 196.128 77.8291 192.918 81.1391C194.178 83.2291 195.938 85.5091 197.558 87.3391C201.028 83.7691 204.548 80.2491 208.108 76.7691C211.498 80.1191 214.928 83.4191 218.398 86.6791C220.478 85.3891 222.718 83.5791 224.528 81.9391Z" fill="#D0CFCD"/>
<path d="M225.128 81.3395C223.298 79.6095 221.468 77.8795 219.648 76.1195C218.548 75.0595 215.548 73.0595 215.558 71.4895C215.568 68.9695 222.688 64.1695 224.628 62.4095C224.998 62.0795 224.898 61.5495 224.628 61.2095C223.058 59.2495 221.628 57.1895 220.128 55.1795C219.788 54.7295 219.228 54.6095 218.788 55.0095C216.908 56.7195 215.028 58.4295 213.168 60.1595C212.008 61.2295 209.908 64.1295 208.298 64.1095C205.708 64.0795 200.998 57.2695 199.158 55.3095C198.818 54.9495 198.298 55.0195 197.958 55.3095C196.018 56.9095 193.988 58.3795 192.008 59.9195C191.568 60.2595 191.428 60.8195 191.838 61.2595C193.528 63.0595 195.218 64.8495 196.928 66.6395C197.798 67.5495 200.648 69.5695 200.788 70.6295C201.218 73.7295 194.318 78.4995 192.328 80.5495C192.068 80.8095 191.988 81.2595 192.198 81.5795C193.638 83.8395 195.228 85.9195 196.968 87.9595C197.268 88.3095 197.868 88.2695 198.168 87.9595C200.118 85.9595 205.368 78.6895 208.088 78.6695C210.668 78.6495 215.818 85.4295 217.808 87.2995C218.068 87.5495 218.518 87.6395 218.838 87.4295C221.068 85.9595 223.128 84.3295 225.138 82.5595C225.958 81.8295 224.758 80.6395 223.938 81.3595C220.808 84.1295 219.248 86.3495 215.778 83.0295C213.408 80.7695 211.068 78.4795 208.728 76.1895C208.398 75.8695 207.858 75.8695 207.528 76.1895C205.748 77.9295 203.978 79.6795 202.218 81.4395C201.358 82.2995 200.528 83.3195 199.588 84.0895C197.888 85.4795 198.108 86.0795 196.288 84.4495C193.578 81.9995 194.858 80.3995 196.998 78.2295C199.078 76.1195 201.188 74.0295 203.298 71.9595C203.628 71.6395 203.618 71.0795 203.298 70.7595C199.838 67.2395 196.418 63.6795 193.048 60.0795C192.988 60.5295 192.938 60.9695 192.878 61.4195C194.048 60.5195 195.288 59.2695 196.608 58.5995C198.468 57.6495 198.058 57.1895 199.768 58.4595C202.618 60.5795 205.148 64.0895 207.638 66.6295C207.968 66.9595 208.508 66.9395 208.838 66.6295C212.528 63.1295 216.248 59.6595 220.018 56.2495C219.568 56.1895 219.128 56.1395 218.678 56.0795C220.318 58.2795 223.398 60.5895 221.478 63.0395C219.238 65.8895 215.688 68.3795 213.058 70.8795C212.728 71.1895 212.738 71.7695 213.058 72.0795C216.648 75.6195 220.268 79.1295 223.938 82.5795C224.728 83.2895 225.928 82.0895 225.128 81.3395Z" fill="#D0CFCD"/>
<path d="M289.898 36.6499C283.978 34.3799 276.908 35.4099 271.888 39.2899C266.868 43.1699 264.078 49.7399 264.778 56.0499C265.598 63.4799 271.338 70.1099 278.568 71.9899C285.798 73.8799 294.038 70.8999 298.408 64.8399C302.768 58.7799 302.978 50.0199 298.908 43.7499C294.838 37.4799 286.758 34.1099 279.438 35.6099" fill="#D0CFCD"/>
<path d="M290.279 36.0195C279.769 28.7695 265.739 39.0595 263.349 49.7595C260.759 61.3595 269.459 73.3295 281.319 74.3995C294.039 75.5495 304.769 64.8095 303.709 52.1295C302.689 39.9495 290.859 31.1995 279.039 34.1695C277.439 34.5695 277.719 37.2495 279.439 37.1095C289.039 36.3595 298.789 41.7995 299.789 52.1295C300.779 62.3795 292.339 71.2095 282.019 70.5795C271.919 69.9595 264.629 59.7395 267.009 50.0095C268.219 45.0295 271.669 40.7695 276.329 38.6495C280.819 36.5995 285.169 37.1795 289.909 37.3895C290.689 37.4295 290.839 36.4095 290.279 36.0195Z" fill="#D0CFCD"/>
<path d="M285.84 34.7798C279.92 32.5098 272.85 33.5398 267.83 37.4198C262.81 41.2998 260.02 47.8698 260.72 54.1798C261.54 61.6098 267.28 68.2398 274.51 70.1198C281.74 71.9998 289.98 69.0298 294.35 62.9698C298.71 56.9098 298.92 48.1498 294.85 41.8798C290.78 35.6098 282.7 32.2398 275.38 33.7398" fill="#168BBD"/>
<path d="M286.209 34.1396C275.699 26.8896 261.669 37.1796 259.279 47.8796C256.689 59.4796 265.389 71.4496 277.249 72.5196C289.969 73.6696 300.699 62.9296 299.639 50.2496C298.619 38.0696 286.789 29.3196 274.969 32.2896C273.369 32.6896 273.649 35.3696 275.369 35.2296C284.969 34.4796 294.719 39.9196 295.719 50.2496C296.709 60.4996 288.269 69.3296 277.949 68.6996C267.849 68.0796 260.559 57.8596 262.939 48.1296C264.149 43.1496 267.599 38.8896 272.259 36.7696C276.749 34.7196 281.099 35.2996 285.839 35.5096C286.619 35.5496 286.769 34.5296 286.209 34.1396Z" fill="#51ABD0"/>
<path d="M246.787 199.879C240.867 197.609 233.797 198.639 228.777 202.519C223.757 206.399 220.967 212.969 221.667 219.279C222.487 226.709 228.227 233.339 235.457 235.219C242.687 237.099 250.927 234.129 255.297 228.069C259.657 222.009 259.867 213.249 255.797 206.979C251.727 200.709 243.647 197.339 236.327 198.839" fill="#D0CFCD"/>
<path d="M247.168 199.239C236.658 191.989 222.628 202.279 220.238 212.979C217.648 224.579 226.348 236.549 238.208 237.619C250.928 238.769 261.658 228.029 260.598 215.349C259.578 203.169 247.748 194.419 235.928 197.389C234.328 197.789 234.608 200.469 236.328 200.329C245.928 199.579 255.678 205.019 256.678 215.349C257.668 225.599 249.228 234.429 238.908 233.799C228.808 233.179 221.518 222.959 223.898 213.229C225.108 208.249 228.558 203.989 233.218 201.869C237.708 199.819 242.058 200.399 246.798 200.609C247.578 200.649 247.728 199.629 247.168 199.239Z" fill="#D0CFCD"/>
<path d="M242.717 198C236.797 195.73 229.727 196.76 224.707 200.64C219.687 204.52 216.897 211.09 217.597 217.4C218.417 224.83 224.157 231.46 231.387 233.34C238.617 235.22 246.857 232.25 251.227 226.19C255.587 220.13 255.797 211.37 251.727 205.1C247.657 198.83 239.577 195.46 232.257 196.96" fill="#168BBD"/>
<path d="M243.098 197.359C232.588 190.109 218.558 200.399 216.168 211.099C213.578 222.699 222.278 234.669 234.138 235.739C246.858 236.889 257.588 226.149 256.528 213.469C255.508 201.289 243.678 192.539 231.858 195.509C230.258 195.909 230.538 198.589 232.258 198.449C241.858 197.699 251.608 203.139 252.608 213.469C253.598 223.719 245.158 232.549 234.838 231.919C224.738 231.299 217.448 221.079 219.828 211.349C221.038 206.369 224.488 202.109 229.148 199.989C233.638 197.939 237.988 198.519 242.728 198.729C243.508 198.769 243.658 197.749 243.098 197.359Z" fill="#51ABD0"/>
<path d="M251.268 153.459C251.178 149.729 250.958 146.039 250.408 142.349C256.878 143.009 263.598 141.639 269.118 138.189C274.638 134.749 278.878 129.189 280.418 122.869C281.868 116.939 282.638 109.579 281.698 103.549C278.018 107.019 273.288 112.209 269.408 115.459C267.698 114.229 264.758 111.169 263.208 109.749C270.418 101.769 278.048 92.0295 285.908 84.6895C294.888 91.6695 302.938 101.779 310.018 110.679C308.268 112.189 304.348 114.709 302.258 115.699C301.598 114.799 294.728 106.189 291.518 103.469C291.488 104.699 291.348 106.189 291.378 107.419C291.828 130.779 285.158 140.029 279.458 144.959C271.068 152.219 261.008 154.009 251.268 153.459Z" fill="#D0CFCD"/>
<path d="M251.768 153.599C252.908 149.879 252.328 146.169 251.848 142.349C251.368 142.829 250.888 143.309 250.408 143.789C260.478 144.629 270.648 141.269 277.068 133.179C283.388 125.229 284.618 113.319 283.358 103.549C283.178 102.169 281.648 101.289 280.518 102.369C276.398 106.319 272.538 110.529 268.208 114.249C269.008 114.249 269.808 114.249 270.598 114.249C268.388 112.499 266.448 110.449 264.408 108.529C264.408 109.329 264.408 110.139 264.408 110.939C271.948 102.559 278.948 93.6791 287.128 85.9091C286.308 85.9091 285.478 85.9091 284.658 85.9091C293.948 93.3291 301.378 102.659 308.748 111.919C308.748 111.079 308.748 110.239 308.748 109.399C306.468 111.239 303.948 112.799 301.348 114.139C302.168 114.349 302.978 114.569 303.798 114.779C300.468 110.379 296.908 105.859 292.788 102.169C291.608 101.109 289.778 101.849 289.708 103.449C289.198 115.139 289.878 127.609 283.208 137.869C276.088 148.829 263.508 151.529 251.258 151.759C249.028 151.799 249.128 154.929 251.258 155.159C264.008 156.499 277.838 151.679 285.478 141.059C293.378 130.089 292.778 116.299 293.308 103.459C292.278 103.889 291.258 104.309 290.228 104.739C294.118 108.209 297.548 112.449 300.698 116.599C301.308 117.399 302.198 117.729 303.148 117.239C306.028 115.749 308.738 113.969 311.268 111.929C312.068 111.279 311.818 110.099 311.268 109.409C303.888 100.159 296.438 90.8491 287.138 83.4491C286.388 82.8491 285.418 82.7391 284.668 83.4491C276.498 91.2391 269.508 100.129 261.998 108.539C261.398 109.209 261.298 110.289 261.998 110.949C264.048 112.869 265.998 114.909 268.208 116.649C268.968 117.249 269.838 117.309 270.598 116.649C274.918 112.919 278.758 108.679 282.868 104.719C281.918 104.329 280.978 103.939 280.028 103.539C281.148 111.969 280.508 122.269 275.718 129.549C270.108 138.059 260.268 141.559 250.398 140.899C249.368 140.829 248.888 141.869 249.008 142.719C249.528 146.389 249.448 150.089 250.758 153.579C250.948 154.059 251.608 154.109 251.768 153.599Z" fill="#D0CFCD"/>
<path d="M249.579 151.719C249.489 147.989 249.269 144.299 248.719 140.609C255.189 141.269 261.909 139.899 267.429 136.449C272.949 132.999 277.189 127.449 278.729 121.129C280.179 115.199 280.949 107.839 280.009 101.809C276.329 105.279 271.599 110.469 267.719 113.719C266.009 112.489 263.069 109.429 261.519 108.009C268.729 100.029 276.359 90.2892 284.219 82.9492C293.199 89.9292 301.249 100.039 308.329 108.939C306.579 110.449 302.659 112.969 300.569 113.959C299.909 113.059 293.039 104.449 289.829 101.729C289.799 102.959 289.659 104.449 289.689 105.679C290.139 129.039 283.469 138.289 277.769 143.219C269.379 150.479 259.319 152.269 249.579 151.719Z" fill="#22A7E0"/>
<path d="M250.139 151.88C251.459 148.19 250.829 144.44 250.349 140.61C249.809 141.15 249.259 141.7 248.719 142.24C258.859 143.1 269.089 139.7 275.549 131.57C281.899 123.58 283.159 111.64 281.889 101.81C281.689 100.25 279.949 99.2495 278.669 100.48C274.549 104.43 270.689 108.64 266.359 112.36C267.259 112.36 268.169 112.36 269.069 112.36C266.859 110.61 264.919 108.56 262.879 106.63C262.879 107.54 262.879 108.46 262.879 109.37C270.419 100.99 277.419 92.1095 285.609 84.3395C284.679 84.3395 283.739 84.3395 282.809 84.3395C292.099 91.7595 299.529 101.09 306.889 110.35C306.889 109.4 306.889 108.45 306.889 107.49C304.629 109.31 302.119 110.86 299.529 112.19C300.459 112.43 301.379 112.68 302.309 112.92C298.969 108.5 295.399 103.96 291.269 100.26C289.929 99.0595 287.859 99.8995 287.779 101.71C287.269 113.35 287.959 125.79 281.309 136.01C274.209 146.92 261.739 149.46 249.569 149.79C247.039 149.86 247.159 153.37 249.569 153.64C262.379 155.09 276.339 150.09 283.999 139.44C291.919 128.43 291.329 114.59 291.859 101.71C290.699 102.19 289.529 102.67 288.369 103.16C292.249 106.62 295.659 110.84 298.799 114.97C299.489 115.88 300.499 116.25 301.579 115.7C304.479 114.2 307.209 112.41 309.739 110.35C310.649 109.61 310.359 108.27 309.739 107.49C302.359 98.2495 294.909 88.9395 285.599 81.5295C284.749 80.8495 283.649 80.7195 282.799 81.5295C274.629 89.3195 267.639 98.2095 260.129 106.62C259.449 107.38 259.329 108.61 260.129 109.36C262.179 111.28 264.129 113.32 266.339 115.06C267.199 115.74 268.189 115.81 269.049 115.06C273.369 111.32 277.209 107.09 281.319 103.13C280.249 102.69 279.169 102.24 278.099 101.8C279.209 110.19 278.599 120.46 273.819 127.7C268.249 136.15 258.489 139.61 248.689 138.96C247.519 138.88 246.979 140.06 247.119 141.03C247.659 144.82 247.539 148.46 249.049 152C249.289 152.52 249.989 152.29 250.139 151.88Z" fill="#22A7E0"/>
<path d="M233.978 147.089C233.938 145.799 232.748 145.019 231.518 145.309C230.098 145.639 229.528 147.109 229.948 148.409C230.778 150.999 234.678 150.849 235.538 148.389C236.408 145.899 233.988 143.459 231.498 144.249C228.848 145.099 228.398 148.549 230.448 150.249C232.508 151.959 235.648 150.769 236.258 148.199C236.868 145.589 234.378 143.239 231.838 143.709C229.438 144.149 227.988 146.709 228.798 148.999C229.648 151.419 232.578 152.629 234.828 151.279C237.578 149.639 237.108 145.669 234.508 144.139C233.238 143.389 231.628 143.349 230.378 144.159C228.958 145.069 228.538 146.709 229.278 148.199C229.578 148.809 230.368 149.119 230.998 149.019C231.738 148.909 232.158 148.449 232.438 147.779C232.248 148.249 232.328 148.029 232.568 147.689C232.518 147.759 232.758 147.569 232.688 147.569C232.658 147.569 232.488 147.689 232.468 147.629C232.478 147.649 232.818 148.129 232.848 147.909C232.828 148.059 232.578 147.939 232.558 147.909C232.438 147.769 232.448 147.519 232.438 147.609C232.408 147.809 232.568 147.369 232.468 147.519C232.588 147.329 232.758 147.489 232.538 147.439C232.388 147.409 232.738 147.479 232.618 147.529C232.598 147.539 232.568 147.369 232.588 147.369C232.678 147.349 232.898 147.249 232.988 147.379C233.078 147.499 233.008 147.799 232.938 147.889C232.748 148.119 232.428 148.039 232.198 147.899C231.818 147.669 231.838 147.179 232.148 146.849C232.558 146.429 233.508 146.649 233.458 147.329C233.378 147.639 233.288 147.939 233.208 148.249C233.388 147.909 233.248 147.989 232.768 148.499C233.208 148.319 233.288 148.289 232.998 148.389C233.538 148.229 233.988 147.689 233.978 147.089Z" fill="#39404A"/>
<path d="M214.799 146.5C214.759 145.21 213.569 144.43 212.339 144.72C210.919 145.05 210.349 146.52 210.769 147.82C211.599 150.41 215.499 150.26 216.359 147.8C217.229 145.31 214.809 142.87 212.319 143.66C209.669 144.51 209.219 147.96 211.269 149.66C213.329 151.37 216.469 150.18 217.079 147.61C217.689 145 215.199 142.65 212.659 143.12C210.259 143.56 208.809 146.12 209.619 148.41C210.469 150.83 213.399 152.04 215.649 150.69C218.399 149.05 217.929 145.08 215.329 143.55C214.059 142.8 212.449 142.76 211.199 143.57C209.779 144.48 209.359 146.12 210.099 147.61C210.399 148.22 211.189 148.53 211.819 148.43C212.559 148.32 212.979 147.86 213.259 147.19C213.069 147.66 213.149 147.44 213.389 147.1C213.339 147.17 213.579 146.98 213.509 146.98C213.479 146.98 213.309 147.1 213.289 147.04C213.299 147.06 213.639 147.54 213.669 147.32C213.649 147.47 213.399 147.35 213.379 147.32C213.259 147.18 213.269 146.93 213.259 147.02C213.229 147.22 213.389 146.78 213.289 146.93C213.409 146.74 213.579 146.9 213.359 146.85C213.209 146.82 213.559 146.89 213.439 146.94C213.419 146.95 213.389 146.78 213.409 146.78C213.499 146.76 213.719 146.66 213.809 146.79C213.899 146.91 213.829 147.21 213.759 147.3C213.569 147.53 213.249 147.45 213.019 147.31C212.639 147.08 212.659 146.59 212.969 146.26C213.379 145.84 214.329 146.06 214.279 146.74C214.199 147.04 214.109 147.35 214.029 147.66C214.209 147.32 214.069 147.4 213.589 147.91C214.029 147.73 214.109 147.7 213.819 147.8C214.359 147.65 214.809 147.1 214.799 146.5Z" fill="#39404A"/>
<path d="M204.59 158.059C204.55 156.769 203.36 155.989 202.13 156.279C200.71 156.609 200.14 158.079 200.56 159.379C201.39 161.969 205.29 161.819 206.15 159.359C207.02 156.869 204.6 154.429 202.11 155.219C199.46 156.069 199.01 159.519 201.06 161.219C203.12 162.929 206.26 161.739 206.87 159.169C207.48 156.559 204.99 154.209 202.45 154.679C200.05 155.119 198.6 157.679 199.41 159.969C200.26 162.389 203.19 163.599 205.44 162.249C208.19 160.609 207.72 156.639 205.12 155.109C203.85 154.359 202.24 154.319 200.99 155.129C199.57 156.039 199.15 157.679 199.89 159.169C200.19 159.779 200.98 160.089 201.61 159.989C202.35 159.879 202.77 159.419 203.05 158.749C202.86 159.219 202.94 158.999 203.18 158.659C203.13 158.729 203.37 158.539 203.3 158.539C203.27 158.539 203.1 158.659 203.08 158.599C203.09 158.619 203.43 159.099 203.46 158.879C203.44 159.029 203.19 158.909 203.17 158.879C203.05 158.739 203.06 158.489 203.05 158.579C203.02 158.779 203.18 158.339 203.08 158.489C203.2 158.299 203.37 158.459 203.15 158.409C203 158.379 203.35 158.449 203.23 158.499C203.21 158.509 203.18 158.339 203.2 158.339C203.29 158.319 203.51 158.219 203.6 158.349C203.69 158.469 203.62 158.769 203.55 158.859C203.36 159.089 203.04 159.009 202.81 158.869C202.43 158.639 202.45 158.149 202.76 157.819C203.17 157.399 204.12 157.619 204.07 158.299C203.99 158.599 203.9 158.909 203.82 159.219C204 158.879 203.86 158.959 203.38 159.469C203.82 159.289 203.9 159.259 203.61 159.359C204.16 159.199 204.61 158.659 204.59 158.059Z" fill="#39404A"/>
<path d="M204.59 177.469C204.55 176.179 203.36 175.399 202.13 175.689C200.71 176.019 200.14 177.489 200.56 178.789C201.39 181.379 205.29 181.229 206.15 178.769C207.02 176.279 204.6 173.839 202.11 174.629C199.46 175.479 199.01 178.929 201.06 180.629C203.12 182.339 206.26 181.149 206.87 178.579C207.48 175.969 204.99 173.619 202.45 174.089C200.05 174.529 198.6 177.089 199.41 179.379C200.26 181.799 203.19 183.009 205.44 181.659C208.19 180.019 207.72 176.049 205.12 174.519C203.85 173.769 202.24 173.729 200.99 174.539C199.57 175.449 199.15 177.089 199.89 178.579C200.19 179.189 200.98 179.499 201.61 179.399C202.35 179.289 202.77 178.829 203.05 178.159C202.86 178.629 202.94 178.409 203.18 178.069C203.13 178.139 203.37 177.949 203.3 177.949C203.27 177.949 203.1 178.069 203.08 178.009C203.09 178.029 203.43 178.509 203.46 178.289C203.44 178.439 203.19 178.319 203.17 178.289C203.05 178.149 203.06 177.899 203.05 177.989C203.02 178.189 203.18 177.749 203.08 177.899C203.2 177.709 203.37 177.869 203.15 177.819C203 177.789 203.35 177.859 203.23 177.909C203.21 177.919 203.18 177.749 203.2 177.749C203.29 177.729 203.51 177.629 203.6 177.759C203.69 177.879 203.62 178.179 203.55 178.269C203.36 178.499 203.04 178.419 202.81 178.279C202.43 178.049 202.45 177.559 202.76 177.229C203.17 176.809 204.12 177.029 204.07 177.709C203.99 178.019 203.9 178.319 203.82 178.629C204 178.289 203.86 178.369 203.38 178.879C203.82 178.699 203.9 178.669 203.61 178.769C204.16 178.609 204.61 178.059 204.59 177.469Z" fill="#39404A"/>
<path d="M209.849 193.089C209.809 191.799 208.619 191.019 207.389 191.309C205.969 191.639 205.399 193.109 205.819 194.409C206.649 196.999 210.549 196.849 211.409 194.389C212.279 191.899 209.859 189.459 207.369 190.249C204.719 191.099 204.269 194.549 206.319 196.249C208.379 197.959 211.519 196.769 212.129 194.199C212.739 191.589 210.249 189.239 207.709 189.709C205.309 190.149 203.859 192.709 204.669 194.999C205.519 197.419 208.449 198.629 210.699 197.279C213.449 195.639 212.979 191.669 210.379 190.139C209.109 189.389 207.499 189.349 206.249 190.159C204.829 191.069 204.409 192.709 205.149 194.199C205.449 194.809 206.239 195.119 206.869 195.019C207.609 194.909 208.029 194.449 208.309 193.779C208.119 194.249 208.199 194.029 208.439 193.689C208.389 193.759 208.629 193.569 208.559 193.569C208.529 193.569 208.359 193.689 208.339 193.629C208.349 193.649 208.689 194.129 208.719 193.909C208.699 194.059 208.449 193.939 208.429 193.909C208.309 193.769 208.319 193.519 208.309 193.609C208.279 193.809 208.439 193.369 208.339 193.519C208.459 193.329 208.629 193.489 208.409 193.439C208.259 193.409 208.609 193.479 208.489 193.529C208.469 193.539 208.439 193.369 208.459 193.369C208.549 193.349 208.769 193.249 208.859 193.379C208.949 193.499 208.879 193.799 208.809 193.889C208.619 194.119 208.299 194.039 208.069 193.899C207.689 193.669 207.709 193.179 208.019 192.849C208.429 192.429 209.379 192.649 209.329 193.329C209.249 193.629 209.159 193.939 209.079 194.249C209.259 193.909 209.119 193.989 208.639 194.499C209.079 194.319 209.159 194.289 208.869 194.389C209.419 194.229 209.869 193.689 209.849 193.089Z" fill="#39404A"/>
<path d="M298.799 193.549C295.129 190.099 291.499 186.589 287.919 183.049C291.339 179.799 294.799 176.589 298.309 173.429C296.789 171.609 295.119 169.109 293.669 167.229C289.899 170.639 286.169 174.099 282.489 177.609C279.229 174.289 276.009 170.929 272.829 167.529C271.039 169.079 268.559 170.789 266.699 172.269C270.069 175.879 273.489 179.439 276.949 182.949C273.659 186.179 270.399 189.439 267.189 192.749C268.449 194.839 270.209 197.119 271.829 198.949C275.299 195.379 278.819 191.859 282.379 188.379C285.769 191.729 289.199 195.029 292.669 198.289C294.749 196.999 296.989 195.189 298.799 193.549Z" fill="#22A7E0"/>
<path d="M299.299 193.04C297.469 191.31 295.639 189.58 293.819 187.82C292.639 186.68 289.729 184.78 289.729 183.09C289.739 180.46 296.789 175.74 298.799 173.91C299.109 173.63 299.029 173.19 298.799 172.9C297.229 170.93 295.779 168.86 294.279 166.84C293.999 166.46 293.529 166.36 293.159 166.7C291.279 168.41 289.399 170.12 287.539 171.85C286.309 172.99 284.299 175.82 282.569 175.8C279.869 175.77 275.239 169.03 273.339 167C273.059 166.7 272.619 166.76 272.329 167C270.389 168.61 268.339 170.09 266.349 171.63C265.979 171.91 265.859 172.38 266.209 172.75C267.899 174.55 269.589 176.34 271.299 178.13C272.189 179.06 274.979 181.02 275.159 182.12C275.709 185.35 268.749 190.13 266.699 192.23C266.489 192.45 266.419 192.83 266.589 193.09C268.019 195.34 269.609 197.41 271.339 199.44C271.589 199.73 272.099 199.7 272.349 199.44C274.369 197.37 279.529 190.17 282.359 190.15C285.049 190.13 290.119 196.85 292.169 198.78C292.389 198.99 292.769 199.07 293.029 198.89C295.259 197.42 297.299 195.81 299.299 194.04C299.989 193.43 298.979 192.43 298.289 193.03C295.119 195.83 293.459 198.07 289.929 194.7C287.559 192.44 285.219 190.15 282.879 187.86C282.599 187.59 282.149 187.59 281.869 187.86C280.089 189.6 278.319 191.35 276.559 193.11C275.699 193.97 274.879 195 273.929 195.76C272.189 197.16 272.289 197.78 270.429 196.1C267.689 193.63 268.979 191.89 271.149 189.7C273.229 187.59 275.339 185.5 277.449 183.43C277.729 183.16 277.719 182.7 277.449 182.42C275.289 180.22 273.139 178.01 271.009 175.77C268.569 173.22 267.099 172.06 270.779 170.03C273.079 168.76 273.479 169.26 275.299 171.18C277.499 173.5 279.729 175.8 281.969 178.09C282.239 178.37 282.699 178.35 282.979 178.09C285.279 175.9 287.599 173.72 289.929 171.57C292.589 169.11 293.739 167.61 295.799 171.35C297.059 173.64 296.629 173.95 294.509 175.89C292.119 178.08 289.749 180.3 287.389 182.53C287.109 182.79 287.119 183.27 287.389 183.54C290.979 187.08 294.599 190.59 298.269 194.04C298.959 194.68 299.969 193.67 299.299 193.04Z" fill="#39404A"/>
<path d="M185.879 126.599C182.209 123.149 178.579 119.639 174.999 116.099C178.419 112.849 181.879 109.639 185.389 106.479C183.869 104.659 182.199 102.159 180.749 100.279C176.979 103.689 173.249 107.149 169.569 110.659C166.309 107.339 163.089 103.979 159.909 100.579C158.119 102.129 155.639 103.839 153.779 105.319C157.149 108.929 160.569 112.489 164.029 115.999C160.739 119.229 157.479 122.489 154.269 125.799C155.529 127.889 157.289 130.169 158.909 131.999C162.379 128.429 165.899 124.909 169.459 121.429C172.849 124.779 176.279 128.079 179.749 131.339C181.829 130.049 184.069 128.249 185.879 126.599Z" fill="#22A7E0"/>
<path d="M186.388 126.099C184.558 124.369 182.728 122.639 180.908 120.879C179.728 119.739 176.818 117.839 176.818 116.149C176.828 113.519 183.878 108.799 185.888 106.969C186.198 106.689 186.118 106.249 185.888 105.959C184.318 103.989 182.868 101.919 181.368 99.8992C181.088 99.5192 180.618 99.4192 180.248 99.7592C178.368 101.469 176.488 103.179 174.628 104.909C173.398 106.049 171.388 108.879 169.658 108.859C166.958 108.829 162.328 102.089 160.428 100.059C160.148 99.7592 159.708 99.8192 159.418 100.059C157.478 101.669 155.428 103.149 153.438 104.689C153.068 104.969 152.948 105.439 153.298 105.809C154.988 107.609 156.678 109.399 158.388 111.189C159.278 112.119 162.068 114.079 162.248 115.179C162.798 118.409 155.838 123.189 153.788 125.289C153.578 125.509 153.508 125.889 153.678 126.149C155.108 128.399 156.698 130.469 158.428 132.499C158.678 132.789 159.188 132.759 159.438 132.499C161.458 130.429 166.618 123.229 169.448 123.209C172.138 123.189 177.208 129.909 179.258 131.839C179.478 132.049 179.858 132.129 180.118 131.949C182.348 130.479 184.388 128.869 186.388 127.099C187.078 126.489 186.068 125.489 185.378 126.089C182.208 128.889 180.548 131.129 177.018 127.759C174.648 125.499 172.308 123.209 169.968 120.919C169.688 120.649 169.238 120.649 168.958 120.919C167.178 122.659 165.408 124.409 163.648 126.169C162.788 127.029 161.968 128.059 161.018 128.819C159.278 130.219 159.378 130.839 157.518 129.159C154.778 126.689 156.068 124.949 158.238 122.759C160.318 120.649 162.428 118.559 164.538 116.489C164.818 116.219 164.808 115.759 164.538 115.479C162.378 113.279 160.228 111.069 158.098 108.829C155.658 106.279 154.188 105.119 157.868 103.089C160.168 101.819 160.568 102.319 162.388 104.239C164.588 106.559 166.818 108.859 169.058 111.149C169.328 111.429 169.788 111.409 170.068 111.149C172.368 108.959 174.688 106.779 177.018 104.629C179.678 102.169 180.828 100.669 182.888 104.409C184.148 106.699 183.718 107.009 181.598 108.949C179.208 111.139 176.838 113.359 174.478 115.589C174.198 115.849 174.208 116.329 174.478 116.599C178.068 120.139 181.688 123.649 185.358 127.099C186.038 127.739 187.048 126.729 186.388 126.099Z" fill="#39404A"/>
<path d="M223.539 80.3688C219.869 76.9188 216.239 73.4088 212.659 69.8688C216.079 66.6188 219.539 63.4088 223.049 60.2488C221.529 58.4288 219.859 55.9288 218.409 54.0488C214.639 57.4588 210.909 60.9188 207.229 64.4288C203.969 61.1088 200.749 57.7488 197.569 54.3488C195.779 55.8988 193.299 57.6088 191.439 59.0888C194.809 62.6988 198.229 66.2588 201.689 69.7688C198.399 72.9988 195.139 76.2588 191.929 79.5688C193.189 81.6588 194.949 83.9388 196.569 85.7688C200.039 82.1988 203.559 78.6788 207.119 75.1988C210.509 78.5488 213.939 81.8488 217.409 85.1088C219.479 83.8088 221.729 82.0088 223.539 80.3688Z" fill="#22A7E0"/>
<path d="M224.039 79.8589C222.209 78.1289 220.379 76.3989 218.559 74.6389C217.379 73.4989 214.469 71.5989 214.469 69.9089C214.479 67.2789 221.529 62.5589 223.539 60.7289C223.849 60.4489 223.769 60.0089 223.539 59.7189C221.969 57.7489 220.519 55.6789 219.019 53.6589C218.739 53.2789 218.269 53.1789 217.899 53.5189C216.019 55.2289 214.139 56.9389 212.279 58.6689C211.049 59.8089 209.039 62.6389 207.309 62.6189C204.609 62.5889 199.979 55.8489 198.079 53.8189C197.799 53.5189 197.359 53.5789 197.069 53.8189C195.129 55.4289 193.079 56.9089 191.089 58.4489C190.719 58.7289 190.599 59.1989 190.949 59.5689C192.639 61.3689 194.329 63.1589 196.039 64.9489C196.929 65.8789 199.719 67.8389 199.899 68.9389C200.449 72.1689 193.489 76.9489 191.439 79.0489C191.229 79.2689 191.159 79.6489 191.329 79.9089C192.759 82.1589 194.349 84.2289 196.079 86.2589C196.329 86.5489 196.839 86.5189 197.089 86.2589C199.109 84.1889 204.269 76.9889 207.099 76.9689C209.789 76.9489 214.859 83.6689 216.909 85.5989C217.129 85.8089 217.509 85.8889 217.769 85.7089C219.999 84.2389 222.039 82.6289 224.039 80.8589C224.729 80.2489 223.719 79.2489 223.029 79.8489C219.859 82.6489 218.199 84.8889 214.669 81.5189C212.299 79.2589 209.959 76.9689 207.619 74.6789C207.339 74.4089 206.889 74.4089 206.609 74.6789C204.829 76.4189 203.059 78.1689 201.299 79.9289C200.439 80.7889 199.619 81.8189 198.669 82.5789C196.929 83.9789 197.029 84.5989 195.169 82.9189C192.429 80.4489 193.719 78.7089 195.889 76.5189C197.969 74.4089 200.079 72.3189 202.189 70.2489C202.469 69.9789 202.459 69.5189 202.189 69.2389C200.029 67.0389 197.879 64.8289 195.749 62.5889C193.309 60.0389 191.839 58.8789 195.519 56.8489C197.819 55.5789 198.219 56.0789 200.039 57.9989C202.239 60.3189 204.469 62.6189 206.709 64.9089C206.979 65.1889 207.439 65.1689 207.719 64.9089C210.019 62.7189 212.339 60.5389 214.669 58.3889C217.329 55.9289 218.479 54.4289 220.539 58.1689C221.799 60.4589 221.369 60.7689 219.249 62.7089C216.859 64.8989 214.489 67.1189 212.129 69.3489C211.849 69.6089 211.859 70.0889 212.129 70.3589C215.719 73.8989 219.339 77.4089 223.009 80.8589C223.699 81.4989 224.709 80.4889 224.039 79.8589Z" fill="#39404A"/>
<path d="M271.509 278.58L239.899 264.93L171.509 267.91L155.709 228.57L122.799 202.3L131.899 178.43C131.899 178.43 156.799 195.41 169.019 214.86C181.239 234.31 171.319 235.44 190.499 234.7C209.679 233.96 231.949 232.76 261.679 245.31C291.399 257.86 279.589 262.52 279.589 262.52L271.509 278.58Z" fill="white"/>
<path d="M185.918 259.819C175.898 226.099 154.548 197.049 125.368 177.409C122.258 175.309 125.928 170.769 129.038 172.859C158.948 192.989 181.078 223.119 191.348 257.679C192.418 261.259 186.998 263.429 185.918 259.819Z" fill="#39404A"/>
<path d="M280.648 256.909C248.758 243.749 216.268 234.879 181.498 238.249C177.758 238.609 177.058 232.809 180.808 232.449C216.598 228.979 250.138 237.999 282.978 251.549C286.448 252.979 284.118 258.339 280.648 256.909Z" fill="#39404A"/>
</svg>
