<svg id="Layer_1" xmlns="http://www.w3.org/2000/svg" viewBox="0 0 500 500">
      <style type="text/css">
        .st000{fill:#FFFFFF;}
        .st001{fill:#D0CFCD;}
        .st002{fill:#39404a;}
        .st003{fill:#D0CFCD;stroke:#D0CFCD;stroke-width:1.7661;stroke-miterlimit:10;}
        .st004{fill:#FFFFFF;stroke:#39404a;stroke-width:5.8582;stroke-miterlimit:10;}
        .st005{fill:#93D500;}
        .st006{fill:#e3136d;}
      </style>
      <path class="st000" d="M304.55,446.67c-7.12,0-14.22-1-21.08-2.98c-9.97-2.88-18.84-7.75-26.39-14.52c-4.98-2.12-9.64-4.82-13.94-8.06&#10;        c-4.27,3.11-9,5.79-13.93,7.88c-9.5,4.02-19.86,6.05-30.8,6.05c-7.68,0-15.34-1.02-22.78-3.04c-12.01-3.25-23.35-9.13-32.9-17.05&#10;        c-9.71-4.59-18.32-10.8-25.62-18.46c-2.74-2.88-7.35-8.13-11.5-14.79c-4-0.39-7.95-1.01-11.8-1.83&#10;        c-13.51-2.91-26.43-9.2-37.45-18.23c-33.09-15.81-53.08-49.88-48.74-83.41c4.48-34.59,33.47-61.05,68.41-63.28&#10;        c-1.24-13.6,1.49-27.19,8.06-38.9c6.91-12.33,20.23-26.6,37.31-30.72c6.8-3.61,14.12-5.18,20.4-5.77&#10;        c23.95-36.8,65.26-59.41,109.39-59.41c29.99,0,59.25,10.42,82.43,29.36c15.5,10.59,28.62,24.49,38.29,40.54&#10;        c0.59-0.01,1.18-0.02,1.78-0.02c19.36,0,39.2,5.76,54.42,15.82c2.56,1.69,5.04,3.54,7.38,5.53c3.88,1.84,7.55,3.89,10.93,6.12&#10;        c18.18,12,29.19,29.58,30.22,48.22c0.47,8.5-0.52,20.12-10.62,37.34c9.81,6.27,17.74,15.58,22.58,26.8&#10;        c16.42,38.06-9.94,80.16-44.86,95.61C432.6,390.39,420.2,393,407.9,393c0,0,0,0,0,0c-10.01,0-19.66-1.67-28.56-4.89&#10;        c-2.28,8.49-5.97,16.74-10.88,24.17C354.2,433.82,330.31,446.67,304.55,446.67z"/>
      <g>
        <g>
          <g>
            <g>
              <g>
                <g>
                  <g>
                    <path class="st001" d="M471.99,301.14c-4.36-11.9-14.18-17.35-24.33-21.32c-4.82-1.89-9.77-3.13-14.83-4.15&#10;                      c-0.01,0-0.03,0-0.04-0.01c3.98-3.59,7.37-8.13,9.98-12.56c6.3-10.69,11.41-23.36,12.04-35.88&#10;                      c0.73-14.4-7.31-27.27-19.62-34.11c-5.54-3.08-11.75-5.24-17.83-6.97c-6.47-1.83-11.61-4.47-18.37-4.97&#10;                      c-2.75-0.2-5.1,0.52-6.99,1.83c-10.63-0.46-21.47,2-31.49,5.81c-3.41,1.3-7.2,3.03-10.86,5.16&#10;                      c-1.88-4.28-3.97-8.47-5.98-12.62c-4-8.26-8.27-16.48-13.45-24.06c-10.98-16.08-26.66-32.06-46.4-36.09&#10;                      c-19.5-3.98-41.27,0.25-58.62,9.96c-17.01,9.53-27.56,25.82-32.13,44.6c-1.72-0.54-3.44-1.12-5.13-1.75&#10;                      c-3.38-1.26-8.93-3.6-13.9-3.8c-0.94-0.04-1.88-0.01-2.81,0.08c-6.44-6.64-19.54-4.1-27.04,0.12&#10;                      c-8.9,5.01-16.55,13.28-20.91,22.58c-4.89,10.43-7.04,21.99-6.12,33.52c0.47,5.82,1.38,11.67,2.84,17.32&#10;                      c0.24,0.91,0.51,1.8,0.78,2.7c-1.27,0.01-2.55,0.02-3.82,0.05c-7.49,0.14-14.92,0.64-22.32,1.84&#10;                      c-12.47,2.01-24.37,7.36-33.56,16.24c-9.09,8.79-14.86,21.55-13.77,34.39c0.12,1.39,0.31,2.74,0.54,4.08&#10;                      c-0.4,1.33-0.59,2.71-0.49,4.1c0.86,11.83,4.55,23.84,13.88,33.54c8.94,9.3,21.45,14.6,33.86,17.07&#10;                      c11.86,2.36,24.37,3.74,36.47,3.27c0.3-0.01,0.6-0.03,0.89-0.04c2.76,9.61,8.01,18.82,13.72,26.38&#10;                      c9.06,11.99,21.73,21.38,36.67,24.14c15.44,2.85,30.41,0.82,44.39-6.48c6.15-3.21,11.89-7.57,16.96-12.31&#10;                      c0.1-0.09,0.19-0.19,0.29-0.29c3.97,2.83,8.25,5.34,11.91,7.97c6.16,4.43,11.81,9.57,17.88,14.13&#10;                      c13.36,10.03,29.84,15.35,46.19,9.78c15.01-5.11,27.44-16.41,34.85-30.48c3.78-7.18,6.69-15.11,8.3-23.09&#10;                      c0.68-3.35,1.2-6.8,1.59-10.24c1.71,1.1,3.47,2.13,5.19,3.05c8.87,4.75,18.32,7.65,28.3,8.64&#10;                      c19.71,1.97,39.46-5.3,54.12-18.51C466.57,341.43,478.94,320.14,471.99,301.14z M177.84,345.76&#10;                      C176.35,347.16,176.78,346.45,177.84,345.76L177.84,345.76z M159.97,354.53c0.05,0.25,0.1,0.49,0.15,0.74&#10;                      c-0.11-0.21-0.23-0.42-0.34-0.64C159.84,354.61,159.91,354.57,159.97,354.53z"/>
                    <g>
                      <path class="st001" d="M135.89,367.86c0.72,5.97,3.87,10.38,7.12,15.3c3.29,4.97,6.88,9.29,11.4,13.19&#10;                        c8.91,7.7,19.28,13.63,30.73,16.61c10.43,2.72,22.56,3.41,32.86-0.16c10.97-3.8,19.37-10.4,26.47-19.44&#10;                        c1.59-2.02,2.28-4.52,0.89-6.89c-0.86-1.47-1.88-2.01-3.4-2.61c-1.91-0.75-4.12,0.2-5.53,1.46&#10;                        c-11.67,10.45-33.15,12.3-47.64,8.09c-7.96-2.32-15.54-6.62-21.96-11.85c-3.68-3-7.4-6.19-10.83-9.48&#10;                        c-3.48-3.34-5.94-7.39-10.1-9.97C141.97,359.67,135.27,362.77,135.89,367.86L135.89,367.86z"/>
                      <path class="st001" d="M292.2,426.15c4.41,0.71,7.74,2.6,12.41,2.31c4.46-0.28,9.03-1.35,13.27-2.73&#10;                        c9.19-2.99,17.25-8.11,24.16-14.88c7.12-6.98,12.19-16.16,15.91-25.32c1.81-4.44,3.27-9.02,4.36-13.68&#10;                        c1.27-5.43,0.46-9.7-0.52-15.06c-1.09-5.93-10.23-6.89-12.9-1.69c-2.07,4.04-4.13,7.11-5.32,11.58&#10;                        c-0.93,3.48-2,6.92-3.34,10.26c-2.91,7.28-7.01,13.93-11.87,20.06c-4.4,5.55-9.69,10.62-15.46,14.74&#10;                        c-3.02,2.16-6.24,3.98-9.61,5.53c-3.5,1.62-7.44,4.59-11.1,5.43C290.56,423.1,290.43,425.87,292.2,426.15L292.2,426.15z"/>
                      <path class="st001" d="M377,366.78c5.5,5.13,11.02,8.21,18.55,9.14c7.63,0.94,15.88-0.87,23.36-2.42&#10;                        c15.77-3.28,28.78-9.88,36.58-24.52c7.58-14.22,14.74-28.53,12.17-45.09c-1.1-7.09-4.7-14.1-10.19-18.84&#10;                        c-5.04-4.35-11.45-4.84-16.66-8.35c-0.75,0.97-1.5,1.94-2.25,2.92c2.38,2.98,5.96,4.39,9,6.64c3.08,2.29,5.85,4.9,8.11,8.02&#10;                        c4.49,6.2,6.67,13.42,6.07,21.08c-0.59,7.52-2.84,14.55-6.89,20.89c-4.21,6.59-10.45,11.58-15.53,17.46&#10;                        c-2.54,2.94-1.19,9.29,3.61,8.72c21.16-2.52,35.54-28.13,32.77-48.19c-1.32-9.54-5.83-18.79-12.12-26.06&#10;                        c-5.1-5.9-15.76-14.91-24.19-11.67c-1.43,0.55-1.92,2.53-0.44,3.39c4.55,2.67,5.15,9.1,6.47,13.87&#10;                        c1.28,4.63,2.59,9.5,3.09,14.29c1.13,10.92-4.12,23.09-8.97,32.62c-2.46,4.85-5.28,8.73-10.12,11.39&#10;                        c-4.92,2.71-10.49,3.95-15.83,5.57c-5.98,1.81-11.92,3.05-18.03,4.29c-5.68,1.16-11.64,2.8-17.46,2.19&#10;                        C376.74,364,376.07,365.92,377,366.78L377,366.78z"/>
                      <path class="st001" d="M150.11,352.64c-3.4-0.44-6.3-1.43-9.77-1.66c-3-0.2-5.95-0.53-8.95-0.61&#10;                        c-6.31-0.16-12.58-0.71-18.81-1.68c-11.03-1.71-21.97-4.17-31.79-9.67c-18.23-10.2-31.54-27.7-29.3-49.24&#10;                        c0.21-2-2.52-2.29-3.46-0.94c-6.76,9.78-7.03,22.7-4.04,33.88c3.56,13.34,12.52,23.73,24.41,30.52&#10;                        c12.14,6.94,26.11,10.5,39.96,11.78c7.27,0.67,14.73,0.38,21.94-0.68c4.02-0.59,7.67-1.57,11.43-3.11&#10;                        c4.05-1.66,5.69-3.39,9.09-6C151.95,354.37,151.53,352.83,150.11,352.64L150.11,352.64z"/>
                      <path class="st001" d="M270.13,122.75c7.21,3.7,15.4,5.05,22.4,9.18c6.25,3.69,12.51,8.99,16.94,14.78&#10;                        c10.78,14.07,13.98,32.37,24.04,46.89c6.63,9.57,19.9,1.42,15.37-8.98c-7.98-18.32-13.39-38.64-28.15-52.98&#10;                        c-11.79-11.46-34.55-22.27-50.6-13.96C268.21,118.66,268.2,121.76,270.13,122.75L270.13,122.75z"/>
                      <path class="st001" d="M135.67,175.98c-11.43,5.31-19.73,18.06-23.79,29.72c-2.26,6.5-2.86,13.58-2.51,20.42&#10;                        c0.4,7.84,0.27,17,3.43,24.2c2.61,5.94,11.78,3.85,13.29-1.74c1.76-6.5,0.09-13.87-0.16-20.54c-0.22-5.8,0-11.6,0.96-17.33&#10;                        c0.91-5.44,1.72-10.54,4.16-15.54c2.56-5.23,5.64-10.26,8.43-15.38C140.88,177.21,138.13,174.83,135.67,175.98&#10;                        L135.67,175.98z"/>
                      <path class="st001" d="M405.03,184.25c4.11,4.09,9.93,5.81,14.83,8.77c5.06,3.06,9.69,7.16,12.93,12.13&#10;                        c5.98,9.16,10.3,25.08,7.1,35.83c-3.12,10.47-17.35,13.07-15.18,25.69c2.11,12.25,17.52,14.21,19.93,25.81&#10;                        c1.76,8.49,14.69,4.89,12.98-3.58c-1.23-6.13-4.92-11.35-9.63-15.37c-2.22-1.9-4.83-3.4-6.96-5.4&#10;                        c-2.23-2.1-2.78-2.52-0.31-3.91c12.43-6.96,17.21-19.14,15.69-33.07c-1.45-13.36-6.2-26.52-15.68-36.29&#10;                        c-4.27-4.4-9.27-7.9-14.89-10.33c-5.68-2.46-12.58-5.28-18.85-5.03C404.64,179.59,403.27,182.5,405.03,184.25L405.03,184.25&#10;                        z"/>
                    </g>
                    <g>
                      <path class="st001" d="M337.43,204.29c7-3.5,13.12-8.52,20.13-12.11c6.13-3.14,12.4-5.66,19.15-7.12&#10;                        c11.05-2.39,22.66-1.86,33.6,0.82c18.16,4.46,38.1,15.05,43.4,34.48c4.94,18.1-8.02,35.03-18.32,48.54&#10;                        c-2.49,3.27,0.99,7.19,4.28,7.45c16.14,1.27,28.95,15.42,31.65,30.91c3.07,17.68-5.97,35.63-18.86,47.24&#10;                        c-13.36,12.04-31.77,18.41-49.72,16.89c-17.13-1.45-33.2-10.61-45.2-22.63c-2.47-2.47-6.87,0.74-4.92,3.8&#10;                        c18.2,28.57,56.51,35.09,86.25,21.93c29.13-12.89,52.43-48.05,38.69-79.88c-6.69-15.51-20.89-26.83-37.89-28.16&#10;                        c1.43,2.48,2.85,4.97,4.28,7.45c10.4-13.64,21.69-29.47,20.7-47.52c-0.9-16.28-11.62-30.13-24.85-38.87&#10;                        c-17.1-11.29-39.95-15.94-60.06-12.94c-16.78,2.51-36.84,11.3-45.06,26.97C333.72,203.36,335.63,205.19,337.43,204.29&#10;                        L337.43,204.29z"/>
                      <path class="st001" d="M153.45,168.16c-16.93-2.74-32.85,11.59-40.59,25.41c-9.6,17.12-8.75,38.64,0.74,55.56&#10;                        c1.86-2.42,3.73-4.85,5.59-7.27c-36.18-12.65-76.41,11.25-81.37,49.57c-4.72,36.44,24,69.28,58.5,76.71&#10;                        c21.02,4.53,44.66,1.74,63.57-8.65c4.31-2.37,1.37-9.96-3.43-8.13c-15.87,6.03-31.95,10.16-49.06,8.55&#10;                        c-15.82-1.49-30.97-8.01-42.19-19.35c-21.9-22.14-24.87-57.87-0.69-79.61c14.12-12.7,34.37-15.72,52.04-9.54&#10;                        c4.23,1.48,7.59-3.71,5.59-7.27c-8.12-14.48-8.11-31.66-0.41-46.3c3.24-6.17,7.43-11.73,12.89-16.11&#10;                        c5.7-4.57,12.76-7.22,19.22-10.51C155.06,170.58,154.87,168.38,153.45,168.16L153.45,168.16z"/>
                      <path class="st001" d="M127.03,364.06c-1.17,12.66,8.8,27.13,17.06,35.81c9.4,9.87,21.52,16.99,34.67,20.56&#10;                        c14.9,4.04,31.47,3.55,45.76-2.49c12.09-5.11,25.67-15.96,27.27-29.83c0.5-4.36-5.33-4.71-7.35-1.99&#10;                        c-3.67,4.93-6.39,10.21-10.94,14.47c-4.8,4.49-10.69,7.76-16.94,9.74c-12.32,3.92-25.84,3.29-38.04-0.76&#10;                        c-10.66-3.54-20.6-9.85-28.3-18.01c-3.92-4.15-7.17-8.85-9.68-13.98c-2.47-5.07-3.37-10.57-5.58-15.67&#10;                        C133.1,357.62,127.38,360.37,127.03,364.06L127.03,364.06z"/>
                      <path class="st001" d="M238.68,377.55c2.53,11.65,10.85,23.51,17.74,33.02c7.69,10.62,17.66,17.93,30.37,21.59&#10;                        c27.12,7.82,56.14-3.05,71.65-26.49c8.38-12.66,13.08-29.12,11.11-44.3c-0.78-6.02-10.06-6.44-9.75,0&#10;                        c0.75,15.48-2.75,30.37-12.49,42.75c-9.85,12.53-24.67,19.97-40.61,20.4c-14.55,0.39-29.79-4.73-39.38-16.03&#10;                        c-4.68-5.52-8.52-11.8-12.23-17.99c-3.29-5.48-6.43-11.6-11.22-15.95C241.53,372.43,238.02,374.5,238.68,377.55&#10;                        L238.68,377.55z"/>
                      <path class="st001" d="M141.55,174.87c10.55-1.58,20.04-4.31,30.89-3c10.62,1.28,19.69,5.87,28.38,11.87&#10;                        c4,2.76,8.72-3.44,5.18-6.71c-8.93-8.27-21-12.56-32.98-13.82c-10.93-1.14-25.01,0.56-33.4,8.35&#10;                        C138.01,173.04,139.76,175.14,141.55,174.87L141.55,174.87z"/>
                      <path class="st001" d="M196.03,173.25c3.99-7.7,6.21-15.92,11.45-23.03c5.44-7.38,12.71-13.46,20.58-18.1&#10;                        c15.5-9.16,34.42-12.66,52.19-9.81c17.32,2.78,32.91,11.2,44.71,24.17c5.76,6.34,10.45,13.66,13.93,21.48&#10;                        c3.49,7.83,5.11,16.24,7.95,24.29c1.25,3.55,7.64,4.6,8.31,0c2.17-15.01-4.63-30.68-12.9-42.94&#10;                        c-8.76-12.97-20.77-23.96-34.95-30.72c-29.44-14.04-66.74-10.2-92.28,10.34c-11.74,9.44-26.46,27.53-22.69,43.83&#10;                        C192.72,174.42,195.24,174.78,196.03,173.25L196.03,173.25z"/>
                    </g>
                  </g>
                </g>
                <g>
                  <g>
                    <path class="st000" d="M453.68,289.49c-4.36-11.9-14.18-17.35-24.33-21.32c-4.82-1.89-9.77-3.13-14.83-4.15&#10;                      c-0.01,0-0.03,0-0.04-0.01c3.98-3.59,7.37-8.13,9.98-12.56c6.3-10.69,11.41-23.36,12.04-35.88&#10;                      c0.73-14.4-7.31-27.27-19.62-34.11c-5.54-3.08-11.75-5.24-17.83-6.97c-6.47-1.83-11.61-4.47-18.37-4.97&#10;                      c-2.75-0.2-5.1,0.52-6.99,1.83c-10.63-0.46-21.47,2-31.49,5.81c-3.41,1.3-7.2,3.03-10.86,5.16&#10;                      c-1.88-4.28-3.97-8.47-5.98-12.62c-4-8.26-8.27-16.48-13.45-24.06c-10.98-16.08-26.66-32.06-46.4-36.09&#10;                      c-19.5-3.98-41.27,0.25-58.62,9.96c-17.01,9.53-27.56,25.82-32.13,44.6c-1.72-0.54-3.44-1.12-5.13-1.75&#10;                      c-3.38-1.26-8.93-3.6-13.9-3.8c-0.94-0.04-1.88-0.01-2.81,0.08c-6.44-6.64-19.54-4.1-27.04,0.12&#10;                      c-8.9,5.01-16.55,13.28-20.91,22.58c-4.89,10.43-7.04,21.99-6.12,33.52c0.47,5.82,1.38,11.67,2.84,17.32&#10;                      c0.24,0.91,0.51,1.8,0.78,2.7c-1.27,0.01-2.55,0.02-3.82,0.05c-7.49,0.14-14.92,0.64-22.32,1.84&#10;                      c-12.47,2.01-24.37,7.36-33.56,16.24c-9.09,8.79-14.86,21.55-13.77,34.39c0.12,1.39,0.31,2.74,0.54,4.08&#10;                      c-0.4,1.33-0.59,2.71-0.49,4.1c0.86,11.83,4.55,23.84,13.88,33.54c8.94,9.3,21.45,14.6,33.86,17.07&#10;                      c11.86,2.36,24.37,3.74,36.47,3.27c0.3-0.01,0.6-0.03,0.89-0.04c2.76,9.61,8.01,18.82,13.72,26.38&#10;                      c9.06,11.99,21.73,21.38,36.67,24.14c15.44,2.85,30.41,0.82,44.39-6.48c6.15-3.21,11.89-7.57,16.96-12.31&#10;                      c0.1-0.09,0.19-0.19,0.29-0.29c3.97,2.83,8.25,5.34,11.91,7.97c6.16,4.43,11.81,9.57,17.88,14.13&#10;                      c13.36,10.03,29.84,15.35,46.19,9.78c15.01-5.11,27.44-16.41,34.85-30.48c3.78-7.18,6.69-15.11,8.3-23.09&#10;                      c0.68-3.35,1.2-6.8,1.59-10.24c1.71,1.1,3.47,2.13,5.19,3.05c8.87,4.75,18.32,7.65,28.3,8.64&#10;                      c19.71,1.97,39.46-5.3,54.12-18.51C448.26,329.78,460.63,308.48,453.68,289.49z M159.53,334.11&#10;                      C158.04,335.51,158.47,334.8,159.53,334.11L159.53,334.11z M141.66,342.88c0.05,0.25,0.1,0.49,0.15,0.74&#10;                      c-0.11-0.21-0.23-0.42-0.34-0.64C141.53,342.95,141.6,342.92,141.66,342.88z"/>
                    <g>
                      <path class="st001" d="M117.58,356.21c0.72,5.97,3.87,10.38,7.12,15.3c3.29,4.97,6.88,9.29,11.4,13.19&#10;                        c8.91,7.7,19.28,13.63,30.73,16.61c10.43,2.72,22.56,3.41,32.86-0.16c10.97-3.8,19.37-10.4,26.47-19.44&#10;                        c1.59-2.02,2.28-4.52,0.89-6.89c-0.86-1.47-1.88-2.01-3.4-2.61c-1.91-0.75-4.12,0.2-5.53,1.46&#10;                        c-11.67,10.45-33.15,12.3-47.64,8.09c-7.96-2.32-15.54-6.62-21.96-11.85c-3.68-3-7.4-6.19-10.83-9.48&#10;                        c-3.48-3.34-5.94-7.39-10.1-9.97C123.66,348.02,116.96,351.11,117.58,356.21L117.58,356.21z"/>
                      <path class="st001" d="M273.89,414.5c4.41,0.71,7.74,2.6,12.41,2.31c4.46-0.28,9.03-1.35,13.27-2.73&#10;                        c9.19-2.99,17.25-8.11,24.16-14.88c7.12-6.98,12.19-16.16,15.91-25.32c1.81-4.44,3.27-9.02,4.36-13.68&#10;                        c1.27-5.43,0.46-9.7-0.52-15.06c-1.09-5.93-10.23-6.89-12.9-1.69c-2.07,4.04-4.13,7.11-5.32,11.58&#10;                        c-0.93,3.48-2,6.92-3.34,10.26c-2.91,7.28-7.01,13.93-11.87,20.06c-4.4,5.55-9.69,10.62-15.46,14.74&#10;                        c-3.02,2.16-6.24,3.98-9.61,5.53c-3.5,1.62-7.44,4.59-11.1,5.43C272.25,411.45,272.12,414.22,273.89,414.5L273.89,414.5z"/>
                      <path class="st001" d="M358.69,355.13c5.5,5.13,11.02,8.21,18.55,9.14c7.63,0.94,15.88-0.87,23.36-2.42&#10;                        c15.77-3.28,28.78-9.88,36.58-24.52c7.58-14.22,14.74-28.53,12.17-45.09c-1.1-7.09-4.7-14.1-10.19-18.84&#10;                        c-5.04-4.35-11.45-4.84-16.66-8.35c-0.75,0.97-1.5,1.94-2.25,2.92c2.38,2.98,5.96,4.39,9,6.64c3.08,2.29,5.85,4.9,8.11,8.02&#10;                        c4.49,6.2,6.67,13.42,6.07,21.08c-0.59,7.52-2.84,14.55-6.89,20.89c-4.21,6.59-10.45,11.58-15.53,17.46&#10;                        c-2.54,2.94-1.19,9.29,3.61,8.72c21.16-2.52,35.54-28.13,32.77-48.19c-1.32-9.54-5.83-18.79-12.12-26.06&#10;                        c-5.1-5.9-15.76-14.91-24.19-11.67c-1.43,0.55-1.92,2.53-0.44,3.39c4.55,2.67,5.15,9.1,6.47,13.87&#10;                        c1.28,4.63,2.59,9.5,3.09,14.29c1.13,10.92-4.12,23.09-8.97,32.62c-2.46,4.85-5.28,8.73-10.12,11.39&#10;                        c-4.92,2.71-10.49,3.95-15.83,5.57c-5.98,1.81-11.92,3.05-18.03,4.29c-5.68,1.16-11.64,2.8-17.46,2.19&#10;                        C358.43,352.35,357.76,354.27,358.69,355.13L358.69,355.13z"/>
                      <path class="st001" d="M131.8,340.99c-3.4-0.44-6.3-1.43-9.77-1.66c-3-0.2-5.95-0.53-8.95-0.61&#10;                        c-6.31-0.16-12.58-0.71-18.81-1.68c-11.03-1.71-21.97-4.17-31.79-9.67c-18.23-10.2-31.54-27.7-29.3-49.24&#10;                        c0.21-2-2.52-2.29-3.46-0.94c-6.76,9.78-7.03,22.7-4.04,33.88c3.56,13.34,12.52,23.73,24.41,30.52&#10;                        c12.14,6.94,26.11,10.5,39.96,11.78c7.27,0.67,14.73,0.38,21.94-0.68c4.02-0.59,7.67-1.57,11.43-3.11&#10;                        c4.05-1.66,5.69-3.39,9.09-6C133.64,342.72,133.22,341.17,131.8,340.99L131.8,340.99z"/>
                      <path class="st001" d="M117.36,164.33c-11.43,5.31-19.73,18.06-23.79,29.72c-2.26,6.5-2.86,13.58-2.51,20.42&#10;                        c0.4,7.84,0.27,17,3.43,24.2c2.61,5.94,11.78,3.85,13.29-1.74c1.76-6.5,0.09-13.87-0.16-20.54c-0.22-5.8,0-11.6,0.96-17.33&#10;                        c0.91-5.44,1.72-10.54,4.16-15.54c2.56-5.23,5.64-10.26,8.43-15.38C122.57,165.56,119.82,163.18,117.36,164.33&#10;                        L117.36,164.33z"/>
                      <path class="st001" d="M386.72,172.6c4.11,4.09,9.93,5.81,14.83,8.77c5.06,3.06,9.69,7.16,12.93,12.13&#10;                        c5.98,9.16,10.3,25.08,7.1,35.83c-3.12,10.47-17.35,13.07-15.18,25.69c2.11,12.25,17.52,14.21,19.93,25.81&#10;                        c1.76,8.49,14.69,4.89,12.98-3.58c-1.23-6.13-4.92-11.35-9.63-15.37c-2.22-1.9-4.83-3.4-6.96-5.4&#10;                        c-2.23-2.1-2.78-2.52-0.31-3.91c12.43-6.96,17.21-19.14,15.69-33.07c-1.45-13.36-6.2-26.52-15.68-36.29&#10;                        c-4.27-4.4-9.27-7.9-14.89-10.33c-5.68-2.46-12.58-5.28-18.85-5.03C386.33,167.94,384.96,170.84,386.72,172.6L386.72,172.6z&#10;                        "/>
                    </g>
                    <g>
                      <path class="st002" d="M319.12,192.63c7-3.5,13.12-8.52,20.13-12.11c6.13-3.14,12.4-5.66,19.15-7.12&#10;                        c11.05-2.39,22.66-1.86,33.6,0.82c18.16,4.46,38.1,15.05,43.4,34.48c4.94,18.1-8.02,35.03-18.32,48.54&#10;                        c-2.49,3.27,0.99,7.19,4.28,7.45c16.14,1.27,28.95,15.42,31.65,30.91c3.07,17.68-5.97,35.63-18.86,47.24&#10;                        c-13.36,12.04-31.77,18.41-49.72,16.89c-17.13-1.45-33.2-10.61-45.2-22.63c-2.47-2.47-6.87,0.74-4.92,3.8&#10;                        c18.2,28.57,56.51,35.09,86.25,21.93c29.13-12.89,52.43-48.05,38.69-79.88c-6.69-15.51-20.89-26.83-37.89-28.16&#10;                        c1.43,2.48,2.85,4.97,4.28,7.45c10.4-13.64,21.69-29.47,20.7-47.52c-0.9-16.28-11.62-30.13-24.85-38.87&#10;                        c-17.1-11.29-39.95-15.94-60.06-12.94c-16.78,2.51-36.84,11.3-45.06,26.97C315.41,191.71,317.32,193.54,319.12,192.63&#10;                        L319.12,192.63z"/>
                      <path class="st002" d="M135.14,156.5c-16.93-2.74-32.85,11.59-40.59,25.41c-9.6,17.12-8.75,38.64,0.74,55.56&#10;                        c1.86-2.42,3.73-4.85,5.59-7.27c-36.18-12.65-76.41,11.25-81.37,49.57c-4.72,36.44,24,69.28,58.5,76.71&#10;                        c21.02,4.53,44.66,1.74,63.57-8.65c4.31-2.37,1.37-9.96-3.43-8.13c-15.87,6.03-31.95,10.16-49.06,8.55&#10;                        c-15.82-1.49-30.97-8.01-42.19-19.35c-21.9-22.14-24.87-57.87-0.69-79.61c14.12-12.7,34.37-15.72,52.04-9.54&#10;                        c4.23,1.48,7.59-3.71,5.59-7.27c-8.12-14.48-8.11-31.66-0.41-46.3c3.24-6.17,7.43-11.73,12.89-16.11&#10;                        c5.7-4.57,12.76-7.22,19.22-10.51C136.75,158.93,136.56,156.73,135.14,156.5L135.14,156.5z"/>
                      <path class="st002" d="M108.72,352.41c-1.17,12.66,8.8,27.13,17.06,35.81c9.4,9.87,21.52,16.99,34.67,20.56&#10;                        c14.9,4.04,31.47,3.55,45.76-2.49c12.09-5.11,25.67-15.96,27.27-29.83c0.5-4.36-5.33-4.71-7.35-1.99&#10;                        c-3.67,4.93-6.39,10.21-10.94,14.47c-4.8,4.49-10.69,7.76-16.94,9.74c-12.32,3.92-25.84,3.29-38.04-0.76&#10;                        c-10.66-3.54-20.6-9.85-28.3-18.01c-3.92-4.15-7.17-8.85-9.68-13.98c-2.47-5.07-3.37-10.57-5.58-15.67&#10;                        C114.79,345.97,109.06,348.72,108.72,352.41L108.72,352.41z"/>
                      <path class="st002" d="M220.37,365.9c2.53,11.65,10.85,23.51,17.74,33.02c7.69,10.62,17.66,17.93,30.37,21.59&#10;                        c27.12,7.82,56.14-3.05,71.65-26.49c8.38-12.66,13.08-29.12,11.11-44.3c-0.78-6.02-10.06-6.44-9.75,0&#10;                        c0.75,15.48-2.75,30.37-12.49,42.75c-9.85,12.53-24.67,19.97-40.61,20.4c-14.55,0.39-29.79-4.73-39.38-16.03&#10;                        c-4.68-5.52-8.52-11.8-12.23-17.99c-3.29-5.48-6.43-11.6-11.22-15.95C223.22,360.78,219.71,362.85,220.37,365.9&#10;                        L220.37,365.9z"/>
                      <path class="st002" d="M123.24,163.22c10.55-1.58,20.04-4.31,30.89-3c10.62,1.28,19.69,5.87,28.38,11.87&#10;                        c4,2.76,8.72-3.44,5.18-6.71c-8.93-8.27-21-12.56-32.98-13.82c-10.93-1.14-25.01,0.56-33.4,8.35&#10;                        C119.7,161.39,121.45,163.49,123.24,163.22L123.24,163.22z"/>
                      <path class="st002" d="M177.72,161.6c3.99-7.7,6.21-15.92,11.45-23.03c5.44-7.38,12.71-13.46,20.58-18.1&#10;                        c15.5-9.16,34.42-12.66,52.19-9.81c17.32,2.78,32.91,11.2,44.71,24.17c5.76,6.34,10.45,13.66,13.93,21.48&#10;                        c3.49,7.83,5.11,16.24,7.95,24.29c1.25,3.55,7.64,4.6,8.31,0c2.17-15.01-4.63-30.68-12.9-42.94&#10;                        c-8.76-12.97-20.77-23.96-34.95-30.72c-29.44-14.04-66.74-10.2-92.28,10.34c-11.74,9.44-26.46,27.53-22.69,43.83&#10;                        C174.41,162.77,176.93,163.13,177.72,161.6L177.72,161.6z"/>
                    </g>
                  </g>
                </g>
              </g>
            </g>
          </g>
        </g>
        <path class="st003" d="M257.16,100.85c-65.39,0-118.39,53.01-118.39,118.39c0,65.39,53.01,118.39,118.39,118.39&#10;          c65.39,0,118.39-53.01,118.39-118.39C375.55,153.86,322.54,100.85,257.16,100.85z"/>
        <path class="st004" d="M251.18,92.14c-65.39,0-118.39,53.01-118.39,118.39s53.01,118.39,118.39,118.39&#10;          c65.39,0,118.39-53.01,118.39-118.39C369.57,145.15,316.57,92.14,251.18,92.14z"/>
        <g>
          <path class="st001" d="M306.82,275.27c-3.67-3.45-7.3-6.96-10.88-10.5c3.42-3.25,6.88-6.46,10.39-9.62&#10;            c-1.52-1.82-3.19-4.32-4.64-6.2c-3.77,3.41-7.5,6.87-11.18,10.38c-3.26-3.32-6.48-6.68-9.66-10.08c-1.79,1.55-4.27,3.26-6.13,4.74&#10;            c3.37,3.61,6.79,7.17,10.25,10.68c-3.29,3.23-6.55,6.49-9.76,9.8c1.26,2.09,3.02,4.37,4.64,6.2c3.47-3.57,6.99-7.09,10.55-10.57&#10;            c3.39,3.35,6.82,6.65,10.29,9.91C302.77,278.72,305.02,276.91,306.82,275.27z"/>
          <g>
            <path class="st001" d="M307.42,274.67c-1.83-1.73-3.66-3.46-5.48-5.22c-1.1-1.06-4.1-3.06-4.09-4.63c0.01-2.52,7.13-7.32,9.07-9.08&#10;              c0.37-0.33,0.27-0.86,0-1.2c-1.57-1.96-3-4.02-4.5-6.03c-0.34-0.45-0.9-0.57-1.34-0.17c-1.88,1.71-3.76,3.42-5.62,5.15&#10;              c-1.16,1.07-3.26,3.97-4.87,3.95c-2.59-0.03-7.3-6.84-9.14-8.8c-0.34-0.36-0.86-0.29-1.2,0c-1.94,1.6-3.97,3.07-5.95,4.61&#10;              c-0.44,0.34-0.58,0.9-0.17,1.34c1.69,1.8,3.38,3.59,5.09,5.38c0.87,0.91,3.72,2.93,3.86,3.99c0.43,3.1-6.47,7.87-8.46,9.92&#10;              c-0.26,0.26-0.34,0.71-0.13,1.03c1.44,2.26,3.03,4.34,4.77,6.38c0.3,0.35,0.9,0.31,1.2,0c1.95-2,7.2-9.27,9.92-9.29&#10;              c2.58-0.02,7.73,6.76,9.72,8.63c0.26,0.25,0.71,0.34,1.03,0.13c2.23-1.47,4.29-3.1,6.3-4.87c0.82-0.73-0.38-1.92-1.2-1.2&#10;              c-3.13,2.77-4.69,4.99-8.16,1.67c-2.37-2.26-4.71-4.55-7.05-6.84c-0.33-0.32-0.87-0.32-1.2,0c-1.78,1.74-3.55,3.49-5.31,5.25&#10;              c-0.86,0.86-1.69,1.88-2.63,2.65c-1.7,1.39-1.48,1.99-3.3,0.36c-2.71-2.45-1.43-4.05,0.71-6.22c2.08-2.11,4.19-4.2,6.3-6.27&#10;              c0.33-0.32,0.32-0.88,0-1.2c-3.46-3.52-6.88-7.08-10.25-10.68c-0.06,0.45-0.11,0.89-0.17,1.34c1.17-0.9,2.41-2.15,3.73-2.82&#10;              c1.86-0.95,1.45-1.41,3.16-0.14c2.85,2.12,5.38,5.63,7.87,8.17c0.33,0.33,0.87,0.31,1.2,0c3.69-3.5,7.41-6.97,11.18-10.38&#10;              c-0.45-0.06-0.89-0.11-1.34-0.17c1.64,2.2,4.72,4.51,2.8,6.96c-2.24,2.85-5.79,5.34-8.42,7.84c-0.33,0.31-0.32,0.89,0,1.2&#10;              c3.59,3.54,7.21,7.05,10.88,10.5C307.02,276.62,308.22,275.42,307.42,274.67z"/>
          </g>
        </g>
        <g>
          <path class="st001" d="M193.91,208.33c-3.67-3.45-7.3-6.96-10.88-10.5c3.42-3.25,6.88-6.46,10.39-9.62&#10;            c-1.52-1.82-3.19-4.32-4.64-6.2c-3.77,3.41-7.5,6.87-11.18,10.38c-3.26-3.32-6.48-6.68-9.66-10.08c-1.79,1.55-4.27,3.26-6.13,4.74&#10;            c3.37,3.61,6.79,7.17,10.25,10.68c-3.29,3.23-6.55,6.49-9.76,9.8c1.26,2.09,3.02,4.37,4.64,6.2c3.47-3.57,6.99-7.09,10.55-10.57&#10;            c3.39,3.35,6.82,6.65,10.29,9.91C189.85,211.77,192.1,209.97,193.91,208.33z"/>
          <g>
            <path class="st001" d="M194.51,207.72c-1.83-1.73-3.66-3.46-5.48-5.22c-1.1-1.06-4.1-3.06-4.09-4.63c0.01-2.52,7.13-7.32,9.07-9.08&#10;              c0.37-0.33,0.28-0.86,0-1.2c-1.57-1.96-3-4.02-4.5-6.03c-0.34-0.45-0.9-0.57-1.34-0.17c-1.88,1.71-3.76,3.42-5.62,5.15&#10;              c-1.16,1.07-3.26,3.97-4.87,3.95c-2.59-0.03-7.3-6.84-9.14-8.8c-0.34-0.36-0.86-0.29-1.2,0c-1.94,1.6-3.97,3.07-5.95,4.61&#10;              c-0.44,0.34-0.58,0.9-0.17,1.34c1.69,1.8,3.38,3.59,5.09,5.38c0.87,0.91,3.72,2.93,3.86,3.99c0.43,3.1-6.47,7.87-8.46,9.92&#10;              c-0.26,0.26-0.34,0.71-0.13,1.03c1.44,2.26,3.03,4.34,4.77,6.38c0.3,0.35,0.9,0.31,1.2,0c1.95-2,7.2-9.27,9.92-9.29&#10;              c2.58-0.02,7.73,6.76,9.72,8.63c0.26,0.25,0.71,0.34,1.03,0.13c2.23-1.47,4.29-3.1,6.3-4.87c0.82-0.73-0.38-1.92-1.2-1.2&#10;              c-3.13,2.77-4.69,4.99-8.16,1.67c-2.37-2.26-4.71-4.55-7.05-6.84c-0.33-0.32-0.87-0.32-1.2,0c-1.78,1.74-3.55,3.49-5.31,5.25&#10;              c-0.86,0.86-1.69,1.88-2.63,2.65c-1.7,1.39-1.48,1.99-3.3,0.36c-2.71-2.45-1.43-4.05,0.71-6.22c2.08-2.11,4.19-4.2,6.3-6.27&#10;              c0.33-0.32,0.32-0.88,0-1.2c-3.46-3.52-6.88-7.08-10.25-10.68c-0.06,0.45-0.11,0.89-0.17,1.34c1.17-0.9,2.41-2.15,3.73-2.82&#10;              c1.86-0.95,1.45-1.41,3.16-0.14c2.85,2.12,5.38,5.63,7.87,8.17c0.33,0.33,0.87,0.31,1.2,0c3.69-3.5,7.41-6.97,11.18-10.38&#10;              c-0.45-0.06-0.89-0.11-1.34-0.17c1.64,2.2,4.72,4.51,2.8,6.96c-2.24,2.85-5.79,5.34-8.42,7.84c-0.33,0.31-0.32,0.89,0,1.2&#10;              c3.59,3.54,7.21,7.05,10.88,10.5C194.1,209.68,195.3,208.48,194.51,207.72z"/>
          </g>
        </g>
        <g>
          <path class="st001" d="M231.56,162.09c-3.67-3.45-7.3-6.96-10.88-10.5c3.42-3.25,6.88-6.46,10.39-9.62&#10;            c-1.52-1.82-3.19-4.32-4.64-6.2c-3.77,3.41-7.5,6.87-11.18,10.38c-3.26-3.32-6.48-6.68-9.66-10.08c-1.79,1.55-4.27,3.26-6.13,4.74&#10;            c3.37,3.61,6.79,7.17,10.25,10.68c-3.29,3.23-6.55,6.49-9.76,9.8c1.26,2.09,3.02,4.37,4.64,6.2c3.47-3.57,6.99-7.09,10.55-10.57&#10;            c3.39,3.35,6.82,6.65,10.29,9.91C227.51,165.54,229.75,163.73,231.56,162.09z"/>
          <g>
            <path class="st001" d="M232.16,161.49c-1.83-1.73-3.66-3.46-5.48-5.22c-1.1-1.06-4.1-3.06-4.09-4.63c0.01-2.52,7.13-7.32,9.07-9.08&#10;              c0.37-0.33,0.27-0.86,0-1.2c-1.57-1.96-3-4.02-4.5-6.03c-0.34-0.45-0.9-0.57-1.34-0.17c-1.88,1.71-3.76,3.42-5.62,5.15&#10;              c-1.16,1.07-3.26,3.97-4.87,3.95c-2.59-0.03-7.3-6.84-9.14-8.8c-0.34-0.36-0.86-0.29-1.2,0c-1.94,1.6-3.97,3.07-5.95,4.61&#10;              c-0.44,0.34-0.58,0.9-0.17,1.34c1.69,1.8,3.38,3.59,5.09,5.38c0.87,0.91,3.72,2.93,3.86,3.99c0.43,3.1-6.47,7.87-8.46,9.92&#10;              c-0.26,0.26-0.34,0.71-0.13,1.03c1.44,2.26,3.03,4.34,4.77,6.38c0.3,0.35,0.9,0.31,1.2,0c1.95-2,7.2-9.27,9.92-9.29&#10;              c2.58-0.02,7.73,6.76,9.72,8.63c0.26,0.25,0.71,0.34,1.03,0.13c2.23-1.47,4.29-3.1,6.3-4.87c0.82-0.73-0.38-1.92-1.2-1.2&#10;              c-3.13,2.77-4.69,4.99-8.16,1.67c-2.37-2.26-4.71-4.55-7.05-6.84c-0.33-0.32-0.87-0.32-1.2,0c-1.78,1.74-3.55,3.49-5.31,5.25&#10;              c-0.86,0.86-1.69,1.88-2.63,2.65c-1.7,1.39-1.48,1.99-3.3,0.36c-2.71-2.45-1.43-4.05,0.71-6.22c2.08-2.11,4.19-4.2,6.3-6.27&#10;              c0.33-0.32,0.32-0.88,0-1.2c-3.46-3.52-6.88-7.08-10.25-10.68c-0.06,0.45-0.11,0.89-0.17,1.34c1.17-0.9,2.41-2.15,3.73-2.82&#10;              c1.86-0.95,1.45-1.41,3.16-0.14c2.85,2.12,5.38,5.63,7.87,8.17c0.33,0.33,0.87,0.31,1.2,0c3.69-3.5,7.41-6.97,11.18-10.38&#10;              c-0.45-0.06-0.89-0.11-1.34-0.17c1.64,2.2,4.72,4.51,2.8,6.96c-2.24,2.85-5.79,5.34-8.42,7.84c-0.33,0.31-0.32,0.89,0,1.2&#10;              c3.59,3.54,7.21,7.05,10.88,10.5C231.76,163.44,232.96,162.24,232.16,161.49z"/>
          </g>
        </g>
        <g>
          <path class="st001" d="M296.93,116.8c-5.92-2.27-12.99-1.24-18.01,2.64s-7.81,10.45-7.11,16.76c0.82,7.43,6.56,14.06,13.79,15.94&#10;            c7.23,1.89,15.47-1.09,19.84-7.15c4.36-6.06,4.57-14.82,0.5-21.09s-12.15-9.64-19.47-8.14"/>
          <g>
            <path class="st001" d="M297.31,116.17c-10.51-7.25-24.54,3.04-26.93,13.74c-2.59,11.6,6.11,23.57,17.97,24.64&#10;              c12.72,1.15,23.45-9.59,22.39-22.27c-1.02-12.18-12.85-20.93-24.67-17.96c-1.6,0.4-1.32,3.08,0.4,2.94&#10;              c9.6-0.75,19.35,4.69,20.35,15.02c0.99,10.25-7.45,19.08-17.77,18.45c-10.1-0.62-17.39-10.84-15.01-20.57&#10;              c1.21-4.98,4.66-9.24,9.32-11.36c4.49-2.05,8.84-1.47,13.58-1.26C297.72,117.58,297.87,116.56,297.31,116.17L297.31,116.17z"/>
          </g>
        </g>
        <g>
          <path class="st005" d="M292.87,114.93c-5.92-2.27-12.99-1.24-18.01,2.64c-5.02,3.88-7.81,10.45-7.11,16.76&#10;            c0.82,7.43,6.56,14.06,13.79,15.94s15.47-1.09,19.84-7.15c4.36-6.06,4.57-14.82,0.5-21.09c-4.07-6.27-12.15-9.64-19.47-8.14"/>
          <g>
            <path class="st002" d="M293.24,114.29c-10.51-7.25-24.54,3.04-26.93,13.74c-2.59,11.6,6.11,23.57,17.97,24.64&#10;              c12.72,1.15,23.45-9.59,22.39-22.27c-1.02-12.18-12.85-20.93-24.67-17.96c-1.6,0.4-1.32,3.08,0.4,2.94&#10;              c9.6-0.75,19.35,4.69,20.35,15.02c0.99,10.25-7.45,19.08-17.77,18.45c-10.1-0.62-17.39-10.84-15.01-20.57&#10;              c1.21-4.98,4.66-9.24,9.32-11.36c4.49-2.05,8.84-1.47,13.58-1.26C293.65,115.7,293.8,114.68,293.24,114.29L293.24,114.29z"/>
          </g>
        </g>
        <g>
          <path class="st001" d="M253.82,280.03c-5.92-2.27-12.99-1.24-18.01,2.64c-5.02,3.88-7.81,10.45-7.11,16.76&#10;            c0.82,7.43,6.56,14.06,13.79,15.94s15.47-1.09,19.84-7.15c4.36-6.06,4.57-14.82,0.5-21.09c-4.07-6.27-12.15-9.64-19.47-8.14"/>
          <g>
            <path class="st001" d="M254.2,279.39c-10.51-7.25-24.54,3.04-26.93,13.74c-2.59,11.6,6.11,23.57,17.97,24.64&#10;              c12.72,1.15,23.45-9.59,22.39-22.27c-1.02-12.18-12.85-20.93-24.67-17.96c-1.6,0.4-1.32,3.08,0.4,2.94&#10;              c9.6-0.75,19.35,4.69,20.35,15.02c0.99,10.25-7.45,19.08-17.77,18.45c-10.1-0.62-17.39-10.84-15.01-20.57&#10;              c1.21-4.98,4.66-9.24,9.32-11.36c4.49-2.05,8.84-1.47,13.58-1.26C254.61,280.8,254.76,279.78,254.2,279.39L254.2,279.39z"/>
          </g>
        </g>
        <g>
          <path class="st005" d="M249.75,278.15c-5.92-2.27-12.99-1.24-18.01,2.64c-5.02,3.88-7.81,10.45-7.11,16.76&#10;            c0.82,7.43,6.56,14.06,13.79,15.94s15.47-1.09,19.84-7.15c4.36-6.06,4.57-14.82,0.5-21.09c-4.07-6.27-12.15-9.64-19.47-8.14"/>
          <g>
            <path class="st002" d="M250.13,277.51c-10.51-7.25-24.54,3.04-26.93,13.74c-2.59,11.6,6.11,23.57,17.97,24.64&#10;              c12.72,1.15,23.45-9.59,22.39-22.27c-1.02-12.18-12.85-20.93-24.67-17.96c-1.6,0.4-1.32,3.08,0.4,2.94&#10;              c9.6-0.75,19.35,4.69,20.35,15.02c0.99,10.25-7.45,19.08-17.77,18.45c-10.1-0.62-17.39-10.84-15.01-20.57&#10;              c1.21-4.98,4.66-9.24,9.32-11.36c4.49-2.05,8.84-1.47,13.58-1.26C250.54,278.92,250.69,277.9,250.13,277.51L250.13,277.51z"/>
          </g>
        </g>
        <g>
          <path class="st001" d="M258.3,233.61c-0.09-3.73-0.31-7.42-0.86-11.11c6.47,0.66,13.19-0.71,18.71-4.16c5.52-3.44,9.76-9,11.3-15.32&#10;            c1.45-5.93,2.22-13.29,1.28-19.32c-3.68,3.47-8.41,8.66-12.29,11.91c-1.71-1.23-4.65-4.29-6.2-5.71&#10;            c7.21-7.98,14.84-17.72,22.7-25.06c8.98,6.98,17.03,17.09,24.11,25.99c-1.75,1.51-5.67,4.03-7.76,5.02&#10;            c-0.66-0.9-7.53-9.51-10.74-12.23c-0.03,1.23-0.17,2.72-0.14,3.95c0.45,23.36-6.22,32.61-11.92,37.54&#10;            C278.1,232.37,268.04,234.16,258.3,233.61z"/>
          <g>
            <path class="st001" d="M258.8,233.75c1.14-3.72,0.56-7.43,0.08-11.25c-0.48,0.48-0.96,0.96-1.44,1.44&#10;              c10.07,0.84,20.24-2.52,26.66-10.61c6.32-7.95,7.55-19.86,6.29-29.63c-0.18-1.38-1.71-2.26-2.84-1.18&#10;              c-4.12,3.95-7.98,8.16-12.31,11.88c0.8,0,1.6,0,2.39,0c-2.21-1.75-4.15-3.8-6.19-5.72c0,0.8,0,1.61,0,2.41&#10;              c7.54-8.38,14.54-17.26,22.72-25.03c-0.82,0-1.65,0-2.47,0c9.29,7.42,16.72,16.75,24.09,26.01c0-0.84,0-1.68,0-2.52&#10;              c-2.28,1.84-4.8,3.4-7.4,4.74c0.82,0.21,1.63,0.43,2.45,0.64c-3.33-4.4-6.89-8.92-11.01-12.61c-1.18-1.06-3.01-0.32-3.08,1.28&#10;              c-0.51,11.69,0.17,24.16-6.5,34.42c-7.12,10.96-19.7,13.66-31.95,13.89c-2.23,0.04-2.13,3.17,0,3.4&#10;              c12.75,1.34,26.58-3.48,34.22-14.1c7.9-10.97,7.3-24.76,7.83-37.6c-1.03,0.43-2.05,0.85-3.08,1.28&#10;              c3.89,3.47,7.32,7.71,10.47,11.86c0.61,0.8,1.5,1.13,2.45,0.64c2.88-1.49,5.59-3.27,8.12-5.31c0.8-0.65,0.55-1.83,0-2.52&#10;              c-7.38-9.25-14.83-18.56-24.13-25.96c-0.75-0.6-1.72-0.71-2.47,0c-8.17,7.79-15.16,16.68-22.67,25.09c-0.6,0.67-0.7,1.75,0,2.41&#10;              c2.05,1.92,4,3.96,6.21,5.7c0.76,0.6,1.63,0.66,2.39,0c4.32-3.73,8.16-7.97,12.27-11.93c-0.95-0.39-1.89-0.78-2.84-1.18&#10;              c1.12,8.43,0.48,18.73-4.31,26.01c-5.61,8.51-15.45,12.01-25.32,11.35c-1.03-0.07-1.51,0.97-1.39,1.82&#10;              c0.52,3.67,0.44,7.37,1.75,10.86C257.98,234.21,258.64,234.26,258.8,233.75z"/>
          </g>
        </g>
        <g>
          <path class="st006" d="M256.61,231.87c-0.09-3.73-0.31-7.42-0.86-11.11c6.47,0.66,13.19-0.71,18.71-4.16s9.76-9,11.3-15.32&#10;            c1.45-5.93,2.22-13.29,1.28-19.32c-3.68,3.47-8.41,8.66-12.29,11.91c-1.71-1.23-4.65-4.29-6.2-5.71&#10;            c7.21-7.98,14.84-17.72,22.7-25.06c8.98,6.98,17.03,17.09,24.11,25.99c-1.75,1.51-5.67,4.03-7.76,5.02&#10;            c-0.66-0.9-7.53-9.51-10.74-12.23c-0.03,1.23-0.17,2.72-0.14,3.95c0.45,23.36-6.22,32.61-11.92,37.54&#10;            C276.41,230.63,266.35,232.42,256.61,231.87z"/>
          <g>
            <path class="st002" d="M257.17,232.03c1.32-3.69,0.69-7.44,0.21-11.27c-0.54,0.54-1.09,1.09-1.63,1.63&#10;              c10.14,0.86,20.37-2.54,26.83-10.67c6.35-7.99,7.61-19.93,6.34-29.76c-0.2-1.56-1.94-2.56-3.22-1.33&#10;              c-4.12,3.95-7.98,8.16-12.31,11.88c0.9,0,1.81,0,2.71,0c-2.21-1.75-4.15-3.8-6.19-5.73c0,0.91,0,1.83,0,2.74&#10;              c7.54-8.38,14.54-17.26,22.73-25.03c-0.93,0-1.87,0-2.8,0c9.29,7.42,16.72,16.75,24.08,26.01c0-0.95,0-1.9,0-2.86&#10;              c-2.26,1.82-4.77,3.37-7.36,4.7c0.93,0.24,1.85,0.49,2.78,0.73c-3.34-4.42-6.91-8.96-11.04-12.66c-1.34-1.2-3.41-0.36-3.49,1.45&#10;              c-0.51,11.64,0.18,24.08-6.47,34.3c-7.1,10.91-19.57,13.45-31.74,13.78c-2.53,0.07-2.41,3.58,0,3.85&#10;              c12.81,1.45,26.77-3.55,34.43-14.2c7.92-11.01,7.33-24.85,7.86-37.73c-1.16,0.48-2.33,0.96-3.49,1.45&#10;              c3.88,3.46,7.29,7.68,10.43,11.81c0.69,0.91,1.7,1.28,2.78,0.73c2.9-1.5,5.63-3.29,8.16-5.35c0.91-0.74,0.62-2.08,0-2.86&#10;              c-7.38-9.24-14.83-18.55-24.14-25.96c-0.85-0.68-1.95-0.81-2.8,0c-8.17,7.79-15.16,16.68-22.67,25.09c-0.68,0.76-0.8,1.99,0,2.74&#10;              c2.05,1.92,4,3.96,6.21,5.7c0.86,0.68,1.85,0.75,2.71,0c4.32-3.74,8.16-7.97,12.27-11.93c-1.07-0.44-2.15-0.89-3.22-1.33&#10;              c1.11,8.39,0.5,18.66-4.28,25.9c-5.57,8.45-15.33,11.91-25.13,11.26c-1.17-0.08-1.71,1.1-1.57,2.07&#10;              c0.54,3.79,0.42,7.43,1.93,10.97C256.32,232.67,257.02,232.44,257.17,232.03z"/>
          </g>
        </g>
        <g>
          <g>
            <path class="st002" d="M241.01,227.24c-0.04-1.29-1.23-2.07-2.46-1.78c-1.42,0.33-1.99,1.8-1.57,3.1c0.83,2.59,4.73,2.44,5.59-0.02&#10;              c0.87-2.49-1.55-4.93-4.04-4.14c-2.65,0.85-3.1,4.3-1.05,6c2.06,1.71,5.2,0.52,5.81-2.05c0.61-2.61-1.88-4.96-4.42-4.49&#10;              c-2.4,0.44-3.85,3-3.04,5.29c0.85,2.42,3.78,3.63,6.03,2.28c2.75-1.64,2.28-5.61-0.32-7.14c-1.27-0.75-2.88-0.79-4.13,0.02&#10;              c-1.42,0.91-1.84,2.55-1.1,4.04c0.3,0.61,1.09,0.92,1.72,0.82c0.74-0.11,1.16-0.57,1.44-1.24c-0.19,0.47-0.11,0.25,0.13-0.09&#10;              c-0.05,0.07,0.19-0.12,0.12-0.12c-0.03,0-0.2,0.12-0.22,0.06c0.01,0.02,0.35,0.5,0.38,0.28c-0.02,0.15-0.27,0.03-0.29,0&#10;              c-0.12-0.14-0.11-0.39-0.12-0.3c-0.03,0.2,0.13-0.24,0.03-0.09c0.12-0.19,0.29-0.03,0.07-0.08c-0.15-0.03,0.2,0.04,0.08,0.09&#10;              c-0.02,0.01-0.05-0.16-0.03-0.16c0.09-0.02,0.31-0.12,0.4,0.01c0.09,0.12,0.02,0.42-0.05,0.51c-0.19,0.23-0.51,0.15-0.74,0.01&#10;              c-0.38-0.23-0.36-0.72-0.05-1.05c0.41-0.42,1.36-0.2,1.31,0.48c-0.08,0.31-0.17,0.61-0.25,0.92c0.18-0.34,0.04-0.26-0.44,0.25&#10;              c0.44-0.18,0.52-0.21,0.23-0.11C240.57,228.38,241.02,227.84,241.01,227.24L241.01,227.24z"/>
          </g>
        </g>
        <g>
          <g>
            <path class="st002" d="M221.83,226.65c-0.04-1.29-1.23-2.07-2.46-1.78c-1.42,0.33-1.99,1.8-1.57,3.1c0.83,2.59,4.73,2.44,5.59-0.02&#10;              c0.87-2.49-1.55-4.93-4.04-4.14c-2.65,0.85-3.1,4.3-1.05,6c2.06,1.71,5.2,0.52,5.81-2.05c0.61-2.61-1.88-4.96-4.42-4.49&#10;              c-2.4,0.44-3.85,3-3.04,5.29c0.85,2.42,3.78,3.63,6.03,2.28c2.75-1.64,2.28-5.61-0.32-7.14c-1.27-0.75-2.88-0.79-4.13,0.02&#10;              c-1.42,0.91-1.84,2.55-1.1,4.04c0.3,0.61,1.09,0.92,1.72,0.82c0.74-0.11,1.16-0.57,1.44-1.24c-0.19,0.47-0.11,0.25,0.13-0.09&#10;              c-0.05,0.07,0.19-0.12,0.12-0.12c-0.03,0-0.2,0.12-0.22,0.06c0.01,0.02,0.35,0.5,0.38,0.28c-0.02,0.15-0.27,0.03-0.29,0&#10;              c-0.12-0.14-0.11-0.39-0.12-0.3c-0.03,0.2,0.13-0.24,0.03-0.09c0.12-0.19,0.29-0.03,0.07-0.08c-0.15-0.03,0.2,0.04,0.08,0.09&#10;              c-0.02,0.01-0.05-0.16-0.03-0.16c0.09-0.02,0.31-0.12,0.4,0.01c0.09,0.12,0.02,0.42-0.05,0.51c-0.19,0.23-0.51,0.15-0.74,0.01&#10;              c-0.38-0.23-0.36-0.72-0.05-1.05c0.41-0.42,1.36-0.2,1.31,0.48c-0.08,0.3-0.17,0.61-0.25,0.92c0.18-0.34,0.04-0.26-0.44,0.25&#10;              c0.44-0.18,0.52-0.21,0.23-0.11C221.39,227.8,221.84,227.25,221.83,226.65L221.83,226.65z"/>
          </g>
        </g>
        <g>
          <g>
            <path class="st002" d="M211.62,238.21c-0.04-1.29-1.23-2.07-2.46-1.78c-1.42,0.33-1.99,1.8-1.57,3.1c0.83,2.59,4.73,2.44,5.59-0.02&#10;              c0.87-2.49-1.55-4.93-4.04-4.14c-2.65,0.85-3.1,4.3-1.05,6c2.06,1.71,5.2,0.52,5.81-2.05c0.61-2.61-1.88-4.96-4.42-4.49&#10;              c-2.4,0.44-3.85,3-3.04,5.29c0.85,2.42,3.78,3.63,6.03,2.28c2.75-1.64,2.28-5.61-0.32-7.14c-1.27-0.75-2.88-0.79-4.13,0.02&#10;              c-1.42,0.91-1.84,2.55-1.1,4.04c0.3,0.61,1.09,0.92,1.72,0.82c0.74-0.11,1.16-0.57,1.44-1.24c-0.19,0.47-0.11,0.25,0.13-0.09&#10;              c-0.05,0.07,0.19-0.12,0.12-0.12c-0.03,0-0.2,0.12-0.22,0.06c0.01,0.02,0.35,0.5,0.38,0.28c-0.02,0.15-0.27,0.03-0.29,0&#10;              c-0.12-0.14-0.11-0.39-0.12-0.3c-0.03,0.2,0.13-0.24,0.03-0.09c0.12-0.19,0.29-0.03,0.07-0.08c-0.15-0.03,0.2,0.04,0.08,0.09&#10;              c-0.02,0.01-0.05-0.16-0.03-0.16c0.09-0.02,0.31-0.12,0.4,0.01c0.09,0.12,0.02,0.42-0.05,0.51c-0.19,0.23-0.51,0.15-0.74,0.01&#10;              c-0.38-0.23-0.36-0.72-0.05-1.05c0.41-0.42,1.36-0.2,1.31,0.48c-0.08,0.3-0.17,0.61-0.25,0.92c0.18-0.34,0.04-0.26-0.44,0.25&#10;              c0.44-0.18,0.52-0.21,0.23-0.11C211.19,239.35,211.64,238.81,211.62,238.21L211.62,238.21z"/>
          </g>
        </g>
        <g>
          <g>
            <path class="st002" d="M211.62,257.62c-0.04-1.29-1.23-2.07-2.46-1.78c-1.42,0.33-1.99,1.8-1.57,3.1c0.83,2.59,4.73,2.44,5.59-0.02&#10;              c0.87-2.49-1.55-4.93-4.04-4.14c-2.65,0.85-3.1,4.3-1.05,6c2.06,1.71,5.2,0.52,5.81-2.05c0.61-2.61-1.88-4.96-4.42-4.49&#10;              c-2.4,0.44-3.85,3-3.04,5.29c0.85,2.42,3.78,3.63,6.03,2.28c2.75-1.64,2.28-5.61-0.32-7.14c-1.27-0.75-2.88-0.79-4.13,0.02&#10;              c-1.42,0.91-1.84,2.55-1.1,4.04c0.3,0.61,1.09,0.92,1.72,0.82c0.74-0.11,1.16-0.57,1.44-1.24c-0.19,0.47-0.11,0.25,0.13-0.09&#10;              c-0.05,0.07,0.19-0.12,0.12-0.12c-0.03,0-0.2,0.12-0.22,0.06c0.01,0.02,0.35,0.5,0.38,0.28c-0.02,0.15-0.27,0.03-0.29,0&#10;              c-0.12-0.14-0.11-0.39-0.12-0.3c-0.03,0.2,0.13-0.24,0.03-0.09c0.12-0.19,0.29-0.03,0.07-0.08c-0.15-0.03,0.2,0.04,0.08,0.09&#10;              c-0.02,0.01-0.05-0.16-0.03-0.16c0.09-0.02,0.31-0.12,0.4,0.01c0.09,0.12,0.02,0.42-0.05,0.51c-0.19,0.23-0.51,0.15-0.74,0.01&#10;              c-0.38-0.23-0.36-0.72-0.05-1.05c0.41-0.42,1.36-0.2,1.31,0.48c-0.08,0.31-0.17,0.61-0.25,0.92c0.18-0.34,0.04-0.26-0.44,0.25&#10;              c0.44-0.18,0.52-0.21,0.23-0.11C211.19,258.76,211.64,258.21,211.62,257.62L211.62,257.62z"/>
          </g>
        </g>
        <g>
          <g>
            <path class="st002" d="M216.88,273.24c-0.04-1.29-1.23-2.07-2.46-1.78c-1.42,0.33-1.99,1.8-1.57,3.1c0.83,2.59,4.73,2.44,5.59-0.02&#10;              c0.87-2.49-1.55-4.93-4.04-4.14c-2.65,0.85-3.1,4.3-1.05,6c2.06,1.71,5.2,0.52,5.81-2.05c0.61-2.61-1.88-4.96-4.42-4.49&#10;              c-2.4,0.44-3.85,3-3.04,5.29c0.85,2.42,3.78,3.63,6.03,2.28c2.75-1.64,2.28-5.61-0.32-7.14c-1.27-0.75-2.88-0.79-4.13,0.02&#10;              c-1.42,0.91-1.84,2.55-1.1,4.04c0.3,0.61,1.09,0.92,1.72,0.82c0.74-0.11,1.16-0.57,1.44-1.24c-0.19,0.47-0.11,0.25,0.13-0.09&#10;              c-0.05,0.07,0.19-0.12,0.12-0.12c-0.03,0-0.2,0.12-0.22,0.06c0.01,0.02,0.35,0.5,0.38,0.28c-0.02,0.15-0.27,0.03-0.29,0&#10;              c-0.12-0.14-0.11-0.39-0.12-0.3c-0.03,0.2,0.13-0.24,0.03-0.09c0.12-0.19,0.29-0.03,0.07-0.08c-0.15-0.03,0.2,0.04,0.08,0.09&#10;              c-0.02,0.01-0.05-0.16-0.03-0.16c0.09-0.02,0.31-0.12,0.4,0.01c0.09,0.12,0.02,0.42-0.05,0.51c-0.19,0.23-0.51,0.15-0.74,0.01&#10;              c-0.38-0.23-0.36-0.72-0.05-1.05c0.41-0.42,1.36-0.2,1.31,0.48c-0.08,0.3-0.17,0.61-0.25,0.92c0.18-0.34,0.04-0.26-0.44,0.25&#10;              c0.44-0.18,0.52-0.21,0.23-0.11C216.45,274.38,216.9,273.84,216.88,273.24L216.88,273.24z"/>
          </g>
        </g>
        <g>
          <path class="st006" d="M305.83,273.7c-3.67-3.45-7.3-6.96-10.88-10.5c3.42-3.25,6.88-6.46,10.39-9.62c-1.52-1.82-3.19-4.32-4.64-6.2&#10;            c-3.77,3.41-7.5,6.87-11.18,10.38c-3.26-3.32-6.48-6.68-9.66-10.08c-1.79,1.55-4.27,3.26-6.13,4.74&#10;            c3.37,3.61,6.79,7.17,10.25,10.68c-3.29,3.23-6.55,6.49-9.76,9.8c1.26,2.09,3.02,4.37,4.64,6.2c3.47-3.57,6.99-7.09,10.55-10.57&#10;            c3.39,3.35,6.82,6.65,10.29,9.91C301.78,277.15,304.02,275.34,305.83,273.7z"/>
          <g>
            <path class="st002" d="M306.33,273.19c-1.83-1.73-3.66-3.46-5.48-5.22c-1.18-1.14-4.09-3.04-4.09-4.73&#10;              c0.01-2.63,7.06-7.35,9.07-9.18c0.31-0.28,0.23-0.72,0-1.01c-1.57-1.97-3.02-4.04-4.52-6.06c-0.28-0.38-0.75-0.48-1.12-0.14&#10;              c-1.88,1.71-3.76,3.42-5.62,5.15c-1.23,1.14-3.24,3.97-4.97,3.95c-2.7-0.03-7.33-6.77-9.23-8.8c-0.28-0.3-0.72-0.24-1.01,0&#10;              c-1.94,1.61-3.99,3.09-5.98,4.63c-0.37,0.28-0.49,0.75-0.14,1.12c1.69,1.8,3.38,3.59,5.09,5.38c0.89,0.93,3.68,2.89,3.86,3.99&#10;              c0.55,3.23-6.41,8.01-8.46,10.11c-0.21,0.22-0.28,0.6-0.11,0.86c1.43,2.25,3.02,4.32,4.75,6.35c0.25,0.29,0.76,0.26,1.01,0&#10;              c2.02-2.07,7.18-9.27,10.01-9.29c2.69-0.02,7.76,6.7,9.81,8.63c0.22,0.21,0.6,0.29,0.86,0.11c2.23-1.47,4.27-3.08,6.27-4.85&#10;              c0.69-0.61-0.32-1.61-1.01-1.01c-3.17,2.8-4.83,5.04-8.36,1.67c-2.37-2.26-4.71-4.55-7.05-6.84c-0.28-0.27-0.73-0.27-1.01,0&#10;              c-1.78,1.74-3.55,3.49-5.31,5.25c-0.86,0.86-1.68,1.89-2.63,2.65c-1.74,1.4-1.64,2.02-3.5,0.34c-2.74-2.47-1.45-4.21,0.72-6.4&#10;              c2.08-2.11,4.19-4.2,6.3-6.27c0.28-0.27,0.27-0.73,0-1.01c-2.16-2.2-4.31-4.41-6.44-6.65c-2.44-2.55-3.91-3.71-0.23-5.74&#10;              c2.3-1.27,2.7-0.77,4.52,1.15c2.2,2.32,4.43,4.62,6.67,6.91c0.27,0.28,0.73,0.26,1.01,0c2.3-2.19,4.62-4.37,6.95-6.52&#10;              c2.66-2.46,3.81-3.96,5.87-0.22c1.26,2.29,0.83,2.6-1.29,4.54c-2.39,2.19-4.76,4.41-7.12,6.64c-0.28,0.26-0.27,0.74,0,1.01&#10;              c3.59,3.54,7.21,7.05,10.88,10.5C305.99,274.83,307,273.82,306.33,273.19z"/>
          </g>
        </g>
        <g>
          <path class="st006" d="M192.91,206.75c-3.67-3.45-7.3-6.96-10.88-10.5c3.42-3.25,6.88-6.46,10.39-9.62&#10;            c-1.52-1.82-3.19-4.32-4.64-6.2c-3.77,3.41-7.5,6.87-11.18,10.38c-3.26-3.32-6.48-6.68-9.66-10.08c-1.79,1.55-4.27,3.26-6.13,4.74&#10;            c3.37,3.61,6.79,7.17,10.25,10.68c-3.29,3.23-6.55,6.49-9.76,9.8c1.26,2.09,3.02,4.37,4.64,6.2c3.47-3.57,6.99-7.09,10.55-10.57&#10;            c3.39,3.35,6.82,6.65,10.29,9.91C188.86,210.2,191.1,208.4,192.91,206.75z"/>
          <g>
            <path class="st002" d="M193.42,206.25c-1.83-1.73-3.66-3.46-5.48-5.22c-1.18-1.14-4.09-3.04-4.09-4.73&#10;              c0.01-2.63,7.06-7.35,9.07-9.18c0.31-0.28,0.23-0.72,0-1.01c-1.57-1.97-3.02-4.04-4.52-6.06c-0.28-0.38-0.75-0.48-1.12-0.14&#10;              c-1.88,1.71-3.76,3.42-5.62,5.15c-1.23,1.14-3.24,3.97-4.97,3.95c-2.7-0.03-7.33-6.77-9.23-8.8c-0.28-0.3-0.72-0.24-1.01,0&#10;              c-1.94,1.61-3.99,3.09-5.98,4.63c-0.37,0.28-0.49,0.75-0.14,1.12c1.69,1.8,3.38,3.59,5.09,5.38c0.89,0.93,3.68,2.89,3.86,3.99&#10;              c0.55,3.23-6.41,8.01-8.46,10.11c-0.21,0.22-0.28,0.6-0.11,0.86c1.43,2.25,3.02,4.32,4.75,6.35c0.25,0.29,0.76,0.26,1.01,0&#10;              c2.02-2.07,7.18-9.27,10.01-9.29c2.69-0.02,7.76,6.7,9.81,8.63c0.22,0.21,0.6,0.29,0.86,0.11c2.23-1.47,4.27-3.08,6.27-4.85&#10;              c0.69-0.61-0.32-1.61-1.01-1.01c-3.17,2.8-4.83,5.04-8.36,1.67c-2.37-2.26-4.71-4.55-7.05-6.84c-0.28-0.27-0.73-0.27-1.01,0&#10;              c-1.78,1.74-3.55,3.49-5.31,5.25c-0.86,0.86-1.68,1.89-2.63,2.65c-1.74,1.4-1.64,2.02-3.5,0.34c-2.74-2.47-1.45-4.21,0.72-6.4&#10;              c2.08-2.11,4.19-4.2,6.3-6.27c0.28-0.27,0.27-0.73,0-1.01c-2.16-2.2-4.31-4.41-6.44-6.65c-2.44-2.55-3.91-3.71-0.23-5.74&#10;              c2.3-1.27,2.7-0.77,4.52,1.15c2.2,2.32,4.43,4.62,6.67,6.91c0.27,0.28,0.73,0.26,1.01,0c2.3-2.19,4.62-4.37,6.95-6.52&#10;              c2.66-2.46,3.81-3.96,5.87-0.22c1.26,2.29,0.83,2.6-1.29,4.54c-2.39,2.19-4.76,4.41-7.12,6.64c-0.28,0.26-0.27,0.74,0,1.01&#10;              c3.59,3.54,7.21,7.05,10.88,10.5C193.07,207.89,194.08,206.88,193.42,206.25z"/>
          </g>
        </g>
        <g>
          <path class="st006" d="M230.57,160.52c-3.67-3.45-7.3-6.96-10.88-10.5c3.42-3.25,6.88-6.46,10.39-9.62&#10;            c-1.52-1.82-3.19-4.32-4.64-6.2c-3.77,3.41-7.5,6.87-11.18,10.38c-3.26-3.32-6.48-6.68-9.66-10.08c-1.79,1.55-4.27,3.26-6.13,4.74&#10;            c3.37,3.61,6.79,7.17,10.25,10.68c-3.29,3.23-6.55,6.49-9.76,9.8c1.26,2.09,3.02,4.37,4.64,6.2c3.47-3.57,6.99-7.09,10.55-10.57&#10;            c3.39,3.35,6.82,6.65,10.29,9.91C226.51,163.96,228.76,162.16,230.57,160.52z"/>
          <g>
            <path class="st002" d="M231.07,160.01c-1.83-1.73-3.66-3.46-5.48-5.22c-1.18-1.14-4.09-3.04-4.09-4.73&#10;              c0.01-2.63,7.06-7.35,9.07-9.18c0.31-0.28,0.23-0.72,0-1.01c-1.57-1.97-3.02-4.04-4.52-6.06c-0.28-0.38-0.75-0.48-1.12-0.14&#10;              c-1.88,1.71-3.76,3.42-5.62,5.15c-1.23,1.14-3.24,3.97-4.97,3.95c-2.7-0.03-7.33-6.77-9.23-8.8c-0.28-0.3-0.72-0.24-1.01,0&#10;              c-1.94,1.61-3.99,3.09-5.98,4.63c-0.37,0.28-0.49,0.75-0.14,1.12c1.69,1.8,3.38,3.59,5.09,5.38c0.89,0.93,3.68,2.89,3.86,3.99&#10;              c0.55,3.23-6.41,8.01-8.46,10.11c-0.21,0.22-0.28,0.6-0.11,0.86c1.43,2.25,3.02,4.32,4.75,6.35c0.25,0.29,0.76,0.26,1.01,0&#10;              c2.02-2.07,7.18-9.27,10.01-9.29c2.69-0.02,7.76,6.7,9.81,8.63c0.22,0.21,0.6,0.29,0.86,0.11c2.23-1.47,4.27-3.08,6.27-4.85&#10;              c0.69-0.61-0.32-1.61-1.01-1.01c-3.17,2.8-4.83,5.04-8.36,1.67c-2.37-2.26-4.71-4.55-7.05-6.84c-0.28-0.27-0.73-0.27-1.01,0&#10;              c-1.78,1.74-3.55,3.49-5.31,5.25c-0.86,0.86-1.68,1.89-2.63,2.65c-1.74,1.4-1.64,2.02-3.5,0.34c-2.74-2.47-1.45-4.21,0.72-6.4&#10;              c2.08-2.11,4.19-4.2,6.3-6.27c0.28-0.27,0.27-0.73,0-1.01c-2.16-2.2-4.31-4.41-6.44-6.65c-2.44-2.55-3.91-3.71-0.23-5.74&#10;              c2.3-1.27,2.7-0.77,4.52,1.15c2.2,2.32,4.43,4.62,6.67,6.91c0.27,0.28,0.73,0.26,1.01,0c2.3-2.19,4.62-4.37,6.95-6.52&#10;              c2.66-2.46,3.81-3.96,5.87-0.22c1.26,2.29,0.83,2.6-1.29,4.54c-2.39,2.19-4.76,4.41-7.12,6.64c-0.28,0.26-0.27,0.74,0,1.01&#10;              c3.59,3.54,7.21,7.05,10.88,10.5C230.73,161.65,231.74,160.64,231.07,160.01z"/>
          </g>
        </g>
        <g>
          <path class="st000" d="M278.54,358.73l-31.61-13.65l-68.39,2.98l-15.8-39.34l-32.91-26.27l9.1-23.87c0,0,24.9,16.98,37.12,36.43&#10;            s2.3,20.58,21.48,19.84s41.45-1.94,71.18,10.61c29.72,12.55,17.91,17.21,17.91,17.21L278.54,358.73z"/>
          <path class="st002" d="M192.95,339.97c-10.02-33.72-31.37-62.77-60.55-82.41c-3.11-2.1,0.56-6.64,3.67-4.55&#10;            c29.91,20.13,52.04,50.26,62.31,84.82C199.45,341.41,194.03,343.58,192.95,339.97L192.95,339.97z"/>
          <path class="st002" d="M287.68,337.06c-31.89-13.16-64.38-22.03-99.15-18.66c-3.74,0.36-4.44-5.44-0.69-5.8&#10;            c35.79-3.47,69.33,5.55,102.17,19.1C293.48,333.13,291.15,338.49,287.68,337.06L287.68,337.06z"/>
        </g>
      </g>
      </svg>