<svg id="Layer_1" xmlns="http://www.w3.org/2000/svg" viewBox="0 0 500 500">
      <style type="text/css">
        .st0000{fill:#FFFFFF;}
        .st0001{fill:#D0CFCD;}
        .st0002{fill:#39404a;}
        .st0003{fill:#93D500;}
        .st0004{fill:#407A1B;}
        .st0005{fill:#e3136d;}
        .st0006{fill:#FFFFFF;stroke:#39404a;stroke-width:0.6193;stroke-miterlimit:10;}
        .st0007{fill:#D1CFCD;}
      </style>
      <path class="st0000" d="M275.3,492.07c-4.78,0-9.53-0.59-14.11-1.76c-7.54-1.92-14.58-5.42-20.98-10.42c-0.08-0.03-0.41-0.15-0.41-0.15&#10;        c-0.41-0.15-0.85-0.31-1.28-0.49c-0.3-0.12-0.56-0.23-0.83-0.34c-0.49-0.2-0.9-0.38-1.3-0.56c-0.3-0.13-0.6-0.27-0.9-0.41&#10;        c-0.41-0.19-0.81-0.38-1.21-0.58c-0.28-0.14-0.58-0.29-0.88-0.44c-0.38-0.2-0.76-0.4-1.14-0.61c0,0-0.63-0.35-0.86-0.48&#10;        c-0.4-0.23-0.78-0.45-1.16-0.68l-0.09-0.06c-0.24-0.15-0.49-0.29-0.73-0.44c-0.36-0.22-0.75-0.48-1.14-0.73c0,0-0.53-0.34-0.72-0.47&#10;        c-0.47-0.32-0.93-0.64-1.37-0.96c-0.18-0.12-0.31-0.22-0.45-0.32c-0.63-0.46-1.21-0.9-1.78-1.35c-0.18-0.14-0.63-0.51-0.63-0.51&#10;        c-0.37-0.3-0.73-0.6-1.09-0.9c-0.19-0.16-0.38-0.32-0.56-0.49l-0.33-0.29c-0.26-0.23-0.52-0.46-0.78-0.7&#10;        c-0.24-0.21-0.47-0.44-0.71-0.66c-0.33-0.31-0.61-0.58-0.89-0.85c-0.26-0.26-0.52-0.51-0.77-0.76c-0.26-0.26-0.52-0.53-0.78-0.8&#10;        c-0.26-0.27-0.51-0.53-0.75-0.8c-0.25-0.27-0.5-0.55-0.75-0.82c-0.25-0.28-0.5-0.56-0.75-0.84c-0.22-0.25-0.45-0.53-0.69-0.8&#10;        l-0.1-0.12c-0.21-0.25-0.43-0.51-0.64-0.77c-0.16-0.19-0.34-0.42-0.53-0.66l-0.25-0.32c-0.2-0.25-0.39-0.49-0.58-0.74&#10;        c-0.15-0.19-0.3-0.4-0.45-0.6l-0.25-0.33c-2.37,0.36-4.75,0.54-7.13,0.54c-7.22,0-13.94-1.69-19.66-4.86&#10;        c-1.63,1.12-3.23,2.06-4.63,2.82c-5.39,2.96-11.42,4.88-17.94,5.7c-2.14,0.27-4.31,0.4-6.44,0.4c-11.19,0-21.7-3.64-30.41-10.52&#10;        c-0.33-0.26-0.66-0.53-1-0.82c-1.49-0.49-2.98-1.06-4.43-1.7c-0.73-0.32-1.48-0.67-2.21-1.04c-2.2-1.11-4.34-2.4-6.36-3.83&#10;        c-0.67-0.48-1.35-0.99-2.01-1.5c-1.38-1.09-2.76-2.28-4.09-3.53c-7.68-7.18-14.46-17.01-19.27-27.86c-4.38-0.88-8.7-2.29-13.07-4.25&#10;        c-4.55-2.04-8.96-4.62-13.11-7.68c-0.98-0.38-1.95-0.79-2.9-1.22c-4.72-2.12-9.27-4.8-13.53-7.97&#10;        c-6.76-5.05-12.73-11.27-17.74-18.51c-0.44-0.64-0.86-1.28-1.28-1.93c-0.09-0.14-0.37-0.59-0.37-0.59c-0.3-0.49-0.59-0.96-0.86-1.43&#10;        c0,0-0.29-0.5-0.4-0.69c-0.28-0.49-0.57-1.02-0.85-1.55l-0.26-0.49c-0.36-0.7-0.71-1.39-1.04-2.09c-0.06-0.12-0.27-0.57-0.27-0.57&#10;        c-0.24-0.53-0.48-1.04-0.7-1.56c-0.11-0.26-0.22-0.52-0.34-0.79c-0.21-0.5-0.4-0.98-0.6-1.47c0,0-0.22-0.54-0.29-0.75&#10;        c-0.26-0.68-0.5-1.34-0.73-2.01l-0.23-0.7c-0.18-0.55-0.36-1.12-0.54-1.69c-0.09-0.31-0.19-0.64-0.28-0.96&#10;        c-0.12-0.43-0.25-0.87-0.36-1.31c-0.09-0.33-0.18-0.67-0.26-1c-0.12-0.49-0.22-0.93-0.32-1.37l-0.04-0.18&#10;        c-0.06-0.28-0.13-0.55-0.19-0.83c-0.15-0.68-0.28-1.38-0.41-2.09c-0.06-0.32-0.11-0.65-0.16-0.97l-0.03-0.2&#10;        c-0.07-0.41-0.12-0.78-0.18-1.15c-0.06-0.41-0.12-0.84-0.17-1.27c-0.04-0.34-0.08-0.7-0.12-1.06c-0.05-0.43-0.09-0.88-0.13-1.33&#10;        c-0.02-0.21-0.04-0.46-0.05-0.71l-0.01-0.18c-0.06-0.87-0.11-1.76-0.13-2.64c0,0-0.02-0.63-0.02-0.84c-0.01-0.49,0-0.98,0-1.47&#10;        c0-0.31,0.01-0.59,0.02-0.88c0.01-0.48,0.03-0.99,0.05-1.5c0.01-0.2,0.05-0.72,0.05-0.72c0.11-1.74,0.31-3.52,0.58-5.25&#10;        c0,0,0.08-0.51,0.12-0.7c0.09-0.51,0.19-1.05,0.3-1.59c0.03-0.15,0.13-0.61,0.13-0.61c0.41-1.83,0.91-3.64,1.51-5.38&#10;        c0.06-0.18,0.11-0.34,0.17-0.49c0.06-0.16,0.12-0.33,0.18-0.49c-0.03-0.04-0.73-0.98-0.73-0.98c-0.14-0.19-0.28-0.39-0.42-0.58&#10;        c-0.14-0.19-0.29-0.41-0.43-0.63c0,0-0.44-0.64-0.56-0.83c-0.27-0.41-0.53-0.82-0.78-1.22c-0.18-0.29-0.33-0.54-0.48-0.79&#10;        l-0.14-0.23c-0.15-0.24-0.29-0.49-0.43-0.74c-0.11-0.19-0.45-0.81-0.45-0.81c-0.13-0.24-0.27-0.49-0.4-0.73&#10;        c-0.14-0.26-0.26-0.5-0.39-0.74c-0.15-0.29-0.29-0.57-0.42-0.84c-0.14-0.28-0.26-0.54-0.39-0.8c-0.12-0.25-0.26-0.55-0.39-0.84&#10;        c-0.11-0.25-0.23-0.5-0.34-0.75c-0.14-0.31-0.26-0.61-0.39-0.92c0,0-0.22-0.52-0.31-0.75c-0.13-0.32-0.26-0.67-0.39-1.02l-0.23-0.61&#10;        c-0.21-0.59-0.4-1.13-0.58-1.67l-0.13-0.42c-0.15-0.48-0.28-0.88-0.4-1.29l-0.2-0.7c-0.1-0.35-0.2-0.71-0.29-1.07&#10;        c-0.06-0.24-0.13-0.5-0.19-0.76c-0.07-0.29-0.15-0.62-0.23-0.96c-0.07-0.3-0.12-0.55-0.17-0.81c-0.06-0.3-0.13-0.65-0.2-0.99&#10;        l-0.14-0.75c-0.06-0.37-0.12-0.72-0.17-1.08c-0.04-0.24-0.07-0.48-0.11-0.73c-0.05-0.39-0.1-0.79-0.15-1.19c0,0-0.05-0.44-0.07-0.62&#10;        c-0.06-0.59-0.11-1.19-0.15-1.79L6,286.84c-0.03-0.53-0.05-1.03-0.06-1.53c0-0.15-0.01-0.61-0.01-0.61c0-0.42-0.01-0.82,0-1.22&#10;        c0-0.16,0.02-0.67,0.02-0.67c0.01-0.42,0.03-0.79,0.05-1.16c0.02-0.27,0.03-0.52,0.05-0.78c0.02-0.33,0.06-0.69,0.09-1.06&#10;        c0.03-0.27,0.05-0.52,0.09-0.78c0.04-0.35,0.09-0.74,0.15-1.13c0,0,0.07-0.49,0.1-0.68c0.07-0.43,0.15-0.84,0.23-1.26&#10;        c0.04-0.23,0.08-0.42,0.12-0.6c0.13-0.59,0.27-1.2,0.43-1.81c2.17-8.25,7.18-16.13,14.49-22.81c0.25-0.23,1.07-0.97,1.07-0.97&#10;        l0.98-0.87l0.99-0.86l1-0.85c0.34-0.28,0.68-0.56,1.02-0.83c0,0,0.9-0.7,1.12-0.88c0.2-0.16,0.4-0.3,0.6-0.45&#10;        c0.16-0.12,0.38-0.29,0.61-0.45c0,0,0.59-0.42,0.61-0.44c-0.72-3.88-1.03-7.7-0.94-11.4c0.33-13.36,6.44-26.09,18.18-37.85&#10;        c7.98-7.99,17.93-14.2,28.28-17.69c2.2-10.73,4.95-22.7,8.69-34.58c1.62-5.16,3.31-9.89,5.14-14.45c0.27-0.67,0.54-1.38,0.81-2.09&#10;        c0.51-1.33,1.04-2.72,1.65-4.14c-1.63-3.52-2.94-7.15-4.09-10.74c-7.26-2.77-14.25-9.12-15.4-18.38c-0.89-7.23,2.17-13.7,8.24-18.1&#10;        c0-0.14,0.01-0.27,0.01-0.4c0.48-15.19,6.31-30.28,16.42-42.49c9.7-11.72,23.06-20,36.66-22.73c3.16-0.63,6.46-0.96,9.8-0.96&#10;        c14.1,0,26.5,5.52,34.41,10.16c14.84,8.69,26.46,21.39,33.4,36.33c1.18,0.08,2.34,0.25,3.47,0.51c7.99,1.85,13.48,8.13,13.66,15.63&#10;        c0.22,8.78-6.79,15.04-9.81,17.32c-0.09,0.06-0.18,0.13-0.27,0.2c-0.52,18.04-7.65,35.55-19.32,48.31c1.59,0.27,3.16,0.59,4.72,0.97&#10;        c5.8,1.39,14.27,3.98,20.9,10.36c0.42,0.4,0.82,0.81,1.22,1.24c0.36,0.13,0.72,0.26,1.08,0.4c9.96-5.26,20.66-8.02,31.26-8.02&#10;        c4.46,0,8.88,0.5,13.13,1.49c8.28,1.93,16.1,5.82,22.75,11.32c0.36,0.13,0.73,0.27,1.09,0.41c4.31-1.85,8.61-3.7,12.91-5.56&#10;        c13.53-5.84,27.34-11.75,41.03-17.55c6.66-2.82,13.32-5.63,19.99-8.43c1.86-0.78,3.74-1.62,5.73-2.5&#10;        c5.24-2.34,10.65-4.75,16.48-6.43c0.57-0.16,1.15-0.29,1.74-0.37c1.23-0.38,2.52-0.57,3.83-0.57c7.19,0,12.99,5.56,13.21,12.66&#10;        c0.04,1.19,0.06,2.36,0.09,3.54c0.12,4.99,0.23,9.71,0.97,14.29c0.19,1.17,0.38,2.33,0.58,3.49c0.79,4.73,1.61,9.62,2.02,14.73&#10;        c0.8,9.78,0.71,19.52,0.63,28.93c-0.03,2.9-0.05,5.8-0.05,8.7c0,7.53,0.13,14.93,0.39,22.1c6.33,1.01,12.66,2.74,18.48,5.1&#10;        c6.53,2.64,12.61,6.12,18.09,10.36c16.78,7.42,29.38,19.51,36.51,35.06c8.12,17.69,7.25,37.97-1.79,54.08&#10;        c10.38,13.12,12.37,31.94,4.25,48.1c-4.71,9.37-12.44,17.26-22.35,22.83c-6.27,3.52-12.19,5.95-17.67,7.26&#10;        c-3.3,14.57-10.32,27.43-20.57,37.56c-12.26,12.11-28.88,19.06-45.59,19.06c-5.43,0-10.7-0.7-15.78-2.1&#10;        c-4.29,9.29-11.09,17.25-19.6,22.7c-8.22,5.26-18.22,8.15-28.17,8.15c-6.91,0-13.62-1.37-19.68-4c-1.57,0.82-3.18,1.56-4.84,2.24&#10;        C289.47,490.73,282.4,492.07,275.3,492.07z"/>
      <path class="st0001" d="M471.97,327.69c11.46-13.88,13.57-34.13,5.86-50.93c-11-23.97-36.91-36.17-62.36-36.31&#10;        c-3.15-0.02-6.67-0.18-9.75,0.5c-0.21,0.05-1.54,0.5-1.57,0.7c-0.03-0.02-0.06-0.04-0.1-0.05c-1.02-0.18-2.28-1.15-3.19-1.61&#10;        c-4.66-2.35-9.31-4.7-13.97-7.04c-13.86-6.99-27.71-13.98-41.57-20.96c-8.91-4.49-17.81-9-26.74-13.46&#10;        c-2.35-17.64-16.75-31.97-34.05-35.77c-16.66-3.65-33.55,2.26-46.48,12.78c-1.43-12.81-17.18-17.79-28.39-19.12&#10;        c-9.66-1.14-20.61,0.16-28.67,6.01c-12.67,9.19-25.21,18.57-37.8,27.88c-3.87,2.87-7.74,5.73-11.62,8.6&#10;        c-20.36-11.81-45.12-3.25-60.82,12.63c-7.95,8.04-14.28,18.04-14.89,29.59c-0.31,5.83,0.78,11.58,2.68,17.1&#10;        c-5.02,1.67-10.08,6.1-13.59,9.3c-5.21,4.75-9.55,10.75-11.37,17.64c-3.44,13.06,2.39,29.11,12.26,38.73&#10;        c-8.99,15.11-5.12,37,4.68,51.16c6.79,9.8,15.94,17.92,26.86,22.82c5.14,2.3,10.45,3.8,16.07,4.27c4.18,0.35,9.53,0.34,13.86-1.13&#10;        c0.58,4.48,1.85,8.93,3.63,13.28c4.51,10.99,11.74,22.07,21.14,29.49c8.25,6.52,18.48,9.21,28.91,7.9&#10;        c4.91-0.62,9.77-2.07,14.12-4.46c2.95-1.62,7.09-4.21,8.98-7.44c10.57,11.28,29.96,10.08,42.28,1.18&#10;        c5.52,17.84,18.88,34.3,37.45,39.02c9.08,2.31,19.18,1.86,27.89-1.68c2.94-1.2,5.95-2.78,8.74-4.71c0.23,0.33,0.54,0.63,0.95,0.86&#10;        c12.58,7.19,29.14,6.12,41.27-1.64c9.86-6.31,16.45-16.42,18.81-27.68c19.92,10.34,44.35,5.3,60.42-10.58&#10;        c10.85-10.72,17.06-24.77,18.92-39.5c7.39,0.01,15.63-3.67,21.6-7.03c7.58-4.26,14.12-10.51,18.04-18.32&#10;        C487.66,355.38,484.74,337.49,471.97,327.69z"/>
      <path class="st0000" d="M455.96,318.8c11.46-13.88,13.57-34.13,5.86-50.93c-11-23.97-36.91-36.17-62.36-36.31&#10;        c-3.15-0.02-6.67-0.18-9.75,0.5c-0.21,0.05-1.54,0.5-1.57,0.7c-0.03-0.02-0.06-0.04-0.1-0.05c-1.02-0.18-2.28-1.15-3.19-1.61&#10;        c-4.66-2.35-9.31-4.7-13.97-7.04c-13.86-6.99-27.71-13.98-41.57-20.96c-8.91-4.49-17.81-9-26.74-13.46&#10;        c-2.35-17.64-16.75-31.97-34.05-35.77c-16.66-3.65-33.55,2.26-46.48,12.78c-1.43-12.81-17.18-17.79-28.39-19.12&#10;        c-9.66-1.14-20.61,0.16-28.67,6.01c-12.67,9.19-25.21,18.57-37.8,27.88c-3.87,2.87-7.74,5.73-11.62,8.6&#10;        c-20.36-11.81-45.12-3.25-60.82,12.63c-7.95,8.04-14.28,18.04-14.89,29.59c-0.31,5.83,0.78,11.58,2.68,17.1&#10;        c-5.02,1.67-10.08,6.1-13.59,9.3c-5.21,4.75-9.55,10.75-11.37,17.64c-3.44,13.06,2.39,29.11,12.26,38.73&#10;        c-8.99,15.11-5.12,37,4.68,51.16c6.79,9.8,15.94,17.92,26.86,22.82c5.14,2.3,10.45,3.8,16.07,4.27c4.18,0.35,9.53,0.34,13.86-1.13&#10;        c0.58,4.48,1.85,8.93,3.63,13.28c4.51,10.99,11.74,22.07,21.14,29.49c8.25,6.52,18.48,9.21,28.91,7.9&#10;        c4.91-0.62,9.77-2.07,14.12-4.46c2.95-1.62,7.09-4.21,8.98-7.44c10.57,11.28,29.96,10.08,42.28,1.18&#10;        c5.52,17.84,18.88,34.3,37.45,39.02c9.08,2.31,19.18,1.86,27.89-1.68c2.94-1.2,5.95-2.78,8.74-4.71c0.23,0.33,0.54,0.63,0.95,0.86&#10;        c12.58,7.19,29.14,6.12,41.27-1.64c9.86-6.31,16.45-16.42,18.81-27.68c19.92,10.34,44.35,5.3,60.42-10.58&#10;        c10.85-10.72,17.06-24.77,18.92-39.5c7.39,0.01,15.63-3.67,21.6-7.03c7.58-4.26,14.12-10.51,18.05-18.32&#10;        C471.65,346.49,468.74,328.6,455.96,318.8z"/>
      <g>
        <g>
          <g>
            <path class="st0001" d="M216.78,172.9c-6.01-10.36-17-14.83-27.77-18.39c0,2.03,0,4.05,0,6.08c10.41-2.38,18.7,4.85,25.2,12&#10;              c2.31,2.54,6.79-0.11,5.77-3.36c-2.67-8.46-9.8-15.61-18.89-16.52c-3.91-0.39-4.27,5.42-0.89,6.55&#10;              c6.22,2.07,11.01,5.27,13.12,11.81c1.92-1.12,3.85-2.24,5.77-3.36c-8.22-8.91-19.02-16.91-31.75-13.2&#10;              c-3.37,0.98-2.78,6.23,0.84,6.19c10.59-0.12,18.84,7.29,25.51,14.58C215.21,176.97,217.89,174.82,216.78,172.9L216.78,172.9z"/>
          </g>
        </g>
        <g>
          <g>
            <path class="st0002" d="M301.98,191.61c-0.64-18.27-15.05-33.42-32.35-37.93c-20.16-5.25-42.16,4.05-55.68,19.11&#10;              c-2.83,3.15,1.66,7.73,4.68,4.68c12.37-12.53,29.91-21.67,47.96-17.96c15.54,3.2,29.04,16.05,30.93,32.1&#10;              C297.85,194.38,302.08,194.55,301.98,191.61L301.98,191.61z"/>
          </g>
        </g>
        <g>
          <g>
            <path class="st0002" d="M219.59,163.96c0.2,0,0.2-0.31,0-0.31C219.39,163.65,219.39,163.96,219.59,163.96L219.59,163.96z"/>
          </g>
        </g>
        <g>
          <g>
            <path class="st0002" d="M222.09,169.69c3.77-11.81-11.83-19.41-20.69-21.62c-11.29-2.81-26.29-3.17-35.76,4.66&#10;              c-2.55,2.11,0.18,6.64,3.24,5.57c4.36-1.53,8.4-3.51,13.01-4.32c5.01-0.88,10.29-0.78,15.3,0.08c4.62,0.79,9.32,2.07,13.41,4.4&#10;              c4.99,2.85,6.76,6.59,8.95,11.56C220.07,171.19,221.76,170.72,222.09,169.69L222.09,169.69z"/>
          </g>
        </g>
        <g>
          <g>
            <path class="st0001" d="M59.2,232.49c5.86,1.63,11.91,2.4,17.11,5.83c2.3,1.52,4.25,3.41,5.62,5.81c1.19,2.08,1.49,3.62,3.66,4.82&#10;              c1.15,0.63,2.7,0.3,3.37-0.88c3-5.35-3.61-11.32-7.71-13.99c-6.18-4.03-14.34-5.2-21.58-5.11&#10;              C57.66,228.99,57.23,231.94,59.2,232.49L59.2,232.49z"/>
          </g>
        </g>
        <g>
          <g>
            <path class="st0001" d="M63.53,236.54c4.9,5.55,9.86,10.06,13.05,16.92c2.02,4.33,8.38,1.16,7.42-3.13&#10;              c-1.3-5.82-3.87-11.3-7.33-16.14c-2.87-4.01-9.43-0.41-6.74,3.94c0.19,0.3,0.38,0.61,0.56,0.91c0.98,1.58,2.63,2.09,4.38,1.78&#10;              c0.69-0.12,1.28-0.45,1.71-1c1.11-1.39,1.52-3.07,0.61-4.7c-0.17-0.31-0.35-0.62-0.52-0.93c-2.25,1.31-4.49,2.63-6.74,3.94&#10;              c3.05,4.45,5,9.12,6.24,14.36c2.47-1.04,4.95-2.08,7.42-3.13c-4.22-6.38-9.82-13.62-17.03-16.75&#10;              C64.02,231.5,61.55,234.3,63.53,236.54L63.53,236.54z"/>
          </g>
        </g>
        <g>
          <g>
            <path class="st0001" d="M71.53,294.64c2.38,3.11,7.04,1.02,10.36,0.73c6.42-0.57,11.24,1.19,16.85,4.05c4.11,2.1,7.37-3.56,3.6-6.15&#10;              c-4.84-3.32-11.45-4.48-17.22-4.01c-3.05,0.25-5.87,1.23-8.77,2.15c-2.1,0.66-3.67,0.73-4.81,2.67&#10;              C71.44,294.23,71.41,294.49,71.53,294.64L71.53,294.64z"/>
          </g>
        </g>
        <g>
          <g>
            <path class="st0001" d="M249.81,209.49c-1.69-2.19-3.71-2.33-6.3-1.35c-4.91,1.86-9.45,5.53-14,8.14&#10;              c-5.01,2.87-10.05,5.7-15.17,8.37c-5.29,2.76-11.13,5.01-15.85,8.67c-2.46,1.91,0.24,5.68,2.89,4.97&#10;              c8.44-2.26,16.58-8.36,23.9-12.99c3.86-2.44,7.64-5.01,11.37-7.64c1.95-1.38,9.23-8.45,11.65-6.66&#10;              C249.16,211.63,250.47,210.35,249.81,209.49L249.81,209.49z"/>
          </g>
        </g>
        <g>
          <g>
            <path class="st0001" d="M189.66,238.17c22.01-7.5,44.77-13.58,67.69-17.55c-1.03-2.44-2.05-4.87-3.08-7.31&#10;              c-19.48,10.56-37.52,23.51-53.83,38.5c-3.79,3.48,1.68,8.55,5.52,5.52c14.93-11.75,30.1-23.52,48.54-29.11&#10;              c-0.9-2.12-1.79-4.25-2.69-6.37c-18.21,10.58-36.74,20.63-55.11,30.94c-3.29,1.84-1.08,7.58,2.63,6.23&#10;              c20.29-7.39,36.55-23.93,58-28.29c-0.76-1.81-1.53-3.63-2.29-5.44c-17.66,9.33-35.78,17.86-53.69,26.7&#10;              c1.1,1.87,2.19,3.75,3.29,5.62c17.02-10.54,33.91-21.3,50.78-32.08c3.5-2.24,0.46-7.29-3.23-5.52&#10;              c-16.6,7.96-33.76,14.72-51.2,20.63c0.86,2.04,1.72,4.08,2.58,6.12c12.54-7.2,25.08-14.4,37.62-21.6&#10;              c3.93-2.26,0.41-8.28-3.55-6.08c-12.35,6.85-25.79,10.99-39.25,15.04c-4.54,1.36-2.64,8.38,1.96,7.12&#10;              c9.12-2.5,17.69-6.37,25.55-11.62c3.54-2.36,1.37-7.99-2.93-6.95c-10.15,2.44-19.82,6.32-28.72,11.77&#10;              c-4.18,2.57-0.41,9.08,3.86,6.6c8.48-4.93,17.36-8.66,26.89-11.04c-0.98-2.32-1.95-4.63-2.93-6.95&#10;              c-7.33,4.98-15.14,8.65-23.68,11.06c0.65,2.37,1.31,4.75,1.96,7.12c14.01-4.34,28.02-8.83,40.84-16.08&#10;              c-1.18-2.03-2.37-4.05-3.55-6.08c-12.48,7.3-24.96,14.6-37.45,21.9c-3.18,1.86-1.09,7.4,2.58,6.12&#10;              c17.94-6.24,35.42-13.56,52.64-21.57c-1.08-1.84-2.15-3.68-3.23-5.52c-16.99,10.57-33.99,21.17-50.84,31.97&#10;              c-3.54,2.27-0.45,7.54,3.29,5.62c17.76-9.11,35.4-18.57,53.41-27.18c3.26-1.56,0.79-5.97-2.29-5.44&#10;              c-21.8,3.76-37.85,20.16-58.23,27.46c0.88,2.08,1.75,4.15,2.63,6.23c18.39-10.27,36.65-20.81,55.19-30.8&#10;              c3.51-1.89,1.1-7.39-2.69-6.37c-19.81,5.33-36.3,17.87-52.2,30.31c1.84,1.84,3.68,3.68,5.52,5.52&#10;              c15.88-14.52,33.41-26.91,52.34-37.12c4.2-2.27,1.17-8.1-3.08-7.31c-23.38,4.36-45.69,11.16-67.38,20.95&#10;              C185.42,234.96,187.14,239.03,189.66,238.17L189.66,238.17z"/>
          </g>
        </g>
        <g>
          <g>
            <path class="st0001" d="M263.13,201.73c-7.34,1.7-14.79,2.82-22.13,4.62c-7.3,1.79-14.54,3.85-21.82,5.76&#10;              c-14.55,3.83-29.07,7.76-43.58,11.76c-5.22,1.44-4.42,10.49,1.33,9.8c13.76-1.65,27.51-3.61,41.16-5.96&#10;              c13.72-2.37,27.84-4.91,41-9.54c-0.76-2.75-1.52-5.51-2.28-8.26c-18.54,6.2-37.94,12.29-55.21,21.6&#10;              c-3.83,2.06-1.2,8.76,3.02,7.17c18.21-6.88,35.73-14.98,54.47-20.51c5.29-1.56,3.09-9.55-2.28-8.26&#10;              c-13.09,3.13-26.01,6.34-39.32,8.48c-13.48,2.17-27.04,3.57-40.57,5.3c0.44,3.27,0.88,6.54,1.33,9.8&#10;              c14.49-4.11,28.87-8.51,43.17-13.26c6.83-2.27,13.71-4.48,20.47-6.95c7.48-2.73,14.54-6.18,21.9-9.14&#10;              C265.26,203.56,264.74,201.35,263.13,201.73L263.13,201.73z"/>
          </g>
        </g>
        <g>
          <g>
            <path class="st0001" d="M180.8,345.89c11.9,4.66,25.46-9.09,33.17-16.41c-1.87-1.87-3.74-3.74-5.61-5.61&#10;              c-4.07,4.26-8.35,8.26-12.96,11.93c-3.89,3.09-7.68,6.06-9.79,10.69c-1.2,2.64,0.22,5.52,3.26,5.68&#10;              c5.95,0.31,12.36-6.6,16.48-10.26c3.74-3.33,11.32-8.52,9.83-14.31c-0.55-2.14-3-2.95-4.84-1.97&#10;              c-9.49,5.03-19.06,9.91-28.59,14.86c1.1,1.89,2.21,3.78,3.31,5.67c8.52-4.41,16.35-9.81,23.51-16.19&#10;              c3.23-2.87-1.44-7.33-4.68-4.68c-8.08,6.6-16.49,12.71-25.22,18.41c-3.52,2.3-0.24,7.98,3.31,5.67&#10;              c9.2-6.01,18.05-12.49,26.59-19.4c-1.56-1.56-3.12-3.12-4.68-4.68c-6.78,5.97-14.14,11.03-22.14,15.21&#10;              c-3.75,1.96-0.43,7.61,3.31,5.67c9.53-4.95,19.03-9.97,28.61-14.84c-1.61-0.66-3.23-1.31-4.84-1.97&#10;              c0.06,0.32,0.12,0.64,0.18,0.97c0.11-0.86,0.22-1.71,0.34-2.57c-1.51,3.55-6.06,6.74-8.93,9.22c-1.8,1.55-3.64,3.04-5.56,4.44&#10;              c-0.76,0.56-4.05,3.57-4.97,3.34c0.75,1.85,1.5,3.7,2.26,5.55c2.22-4.49,6.32-7.08,10.14-10.11c4.15-3.3,8.05-6.88,11.7-10.71&#10;              c3.52-3.69-1.99-9.23-5.61-5.61c-7.84,7.85-16.32,16.27-27.56,18.51C178.86,342.76,179.3,345.3,180.8,345.89L180.8,345.89z"/>
          </g>
        </g>
        <g>
          <g>
            <path class="st0001" d="M282.55,340.16c-5.19,4.41-11.29,9.2-18.1,10.54c-7.12,1.4-14.75,0.29-21.75-1.23&#10;              c-13.76-3-26.39-9.09-37.56-17.63c-1.29,3.06-2.58,6.12-3.87,9.18c12.33,4.77,23.19,11.5,36.65,12.72&#10;              c6.55,0.59,13.48,0.53,20.03-0.12c6.86-0.69,12.7-3.47,18.66-6.78c-1.74-2.25-3.47-4.5-5.21-6.75&#10;              c-8.75,9.38-22.03,6.33-32.67,2.35c-11.47-4.29-22.52-9.67-32.39-16.96c-1.42,2.43-2.84,4.86-4.26,7.29&#10;              c3.08,1.57,6.17,3.15,9.25,4.72c0.7-2.59,1.41-5.19,2.11-7.78c-0.06-0.09-0.12-0.18-0.19-0.27c-1.59-5.08-9.56-2.93-8.01,2.21&#10;              c1.21,4.01,4.08,6.09,8.2,6.42c4.14,0.33,5.68-5.92,2.11-7.78c-3.07-1.6-6.14-3.2-9.21-4.79c-4.93-2.57-8.53,4.08-4.26,7.29&#10;              c11.58,8.71,25.69,15.21,39.55,19.4c12.24,3.7,26.29,3.56,35.86-6c3.54-3.53-0.94-8.96-5.21-6.75&#10;              c-5.83,3.02-11.06,5.07-17.69,5.23c-6.32,0.15-12.83,0.34-19.09-0.67c-11.3-1.82-21.09-8.37-31.55-12.63&#10;              c-4.55-1.85-8.75,5.36-4.88,8.39c13.17,10.34,28.45,17.72,44.99,20.74c8.08,1.48,16.89,2.55,24.88,0.05&#10;              c8.42-2.64,13.61-8.39,19.03-14.96C291.08,341.77,286.33,336.95,282.55,340.16L282.55,340.16z"/>
          </g>
        </g>
        <g>
          <g>
            <path class="st0001" d="M461.84,344.25c-6.44,14.64-19.9,24.41-36.11,24c-2.36-0.06-4.06,1.97-4.19,4.19&#10;              c-0.33,5.56,0.07,13.2,7.97,11.16c5.81-1.5,14.81-6.98,16.25-13.05c0.51-2.15-1.42-4.37-3.68-3.68&#10;              c-3.73,1.13-6.24,4.27-9.51,6.31c-0.45,0.28-5.2,2.7-5.21,2.64c1.77,1.93,2.52,1.83,2.26-0.28c0.1-1.03,0.2-2.06,0.3-3.09&#10;              c-1.4,1.4-2.79,2.79-4.19,4.19c18.96,0.17,35.68-12.76,38.01-31.86C463.86,343.78,462.24,343.35,461.84,344.25L461.84,344.25z"/>
          </g>
        </g>
        <g>
          <g>
            <path class="st0001" d="M339.55,432.81c-7.78,18.51-28.76,32.45-48.29,21.4c-4.85-2.74-9.25,4.85-4.35,7.45&#10;              c23.58,12.49,48.14-5.04,55.18-28.15C342.6,431.84,340.19,431.31,339.55,432.81L339.55,432.81z"/>
          </g>
        </g>
        <g>
          <g>
            <path class="st0001" d="M102.29,409.78c1.29,6.01,5.62,10.02,10.29,13.68c6.02,4.72,12.02,9.51,19.07,12.62&#10;              c11.62,5.13,27.17,4.31,34.82-6.88c1.63-2.39-1.66-5.8-4.07-4.07c-8.98,6.47-19.23,6.98-29.58,3.8&#10;              c-5.49-1.69-10.73-4.3-15.69-7.18c-5.26-3.05-11.06-6.42-13.24-12.42C103.54,408.33,102.06,408.72,102.29,409.78L102.29,409.78z"/>
          </g>
        </g>
        <g>
          <g>
            <path class="st0001" d="M31.87,343.91c6.7,26.99,37.57,44.44,64.13,34.46c-1.18-1.54-2.37-3.08-3.55-4.62&#10;              c-1.38,3.01-2.67,6.01-4.41,8.82c0.93-0.54,1.87-1.07,2.8-1.61c-3.34-0.36-6.7-0.62-10.05-0.81c0,2.54,0,5.08,0,7.61&#10;              c4.76-0.54,9.02-1.81,13.15-4.24c3.75-2.21,1.12-7.4-2.82-6.69c-8.91,1.59-18.87,2.5-26.61-3.04c-0.98,2.33-1.97,4.67-2.95,7&#10;              c6.37,2.19,12.84,4.17,19.42,5.62c-0.52-1.99-1.05-3.97-1.57-5.96c-8.42,6.67-18.64-7.08-23.61-12.02&#10;              c-5.71-5.67-13.25-8.8-18.33-15.11c-2.05-2.54-5.83,0.25-5.16,3c1.21,4.98,5.08,7.91,9.13,10.68c5.39,3.69,9.48,7.9,14.06,12.5&#10;              c7.38,7.41,18.45,13.19,28.23,6.54c2.51-1.7,2.21-5.61-0.85-6.52c-6.48-1.92-12.91-3.85-19.28-6.13c-4.32-1.55-6.32,4.68-2.95,7&#10;              c9.75,6.75,21.38,4.98,32.42,3.48c-0.94-2.23-1.88-4.46-2.82-6.69c-3.02,1.61-6.05,2.62-9.46,2.95c-4.78,0.47-5,7.64,0,7.61&#10;              c3.35-0.02,6.71-0.11,10.05-0.31c1.54-0.09,2.61-0.97,3.13-2.38c1.05-2.84,2.52-5.47,3.91-8.15c1.36-2.62-0.87-5.02-3.55-4.62&#10;              c-12.52,1.87-25.15,1.05-36.44-5.17c-10.08-5.55-18.13-14.17-23.56-24.25C33.59,341.52,31.51,342.47,31.87,343.91L31.87,343.91z"/>
          </g>
        </g>
        <g>
          <g>
            <path class="st0001" d="M40.07,254.04c-11.31,7.89-15.34,23.21-12.1,36.24c0.91,3.66,2.29,7.16,4.01,10.51&#10;              c0.5,0.97,1.02,1.92,1.56,2.87c0.96-1.33,1-2.64,0.12-3.94c-0.33-2.02-1.32-4.1-1.84-6.09c-1.24-4.72-2.07-9.46-2.42-14.33&#10;              c-0.31-4.28-1.29-10.36,1.85-13.87c-1.31-1.01-2.61-2.02-3.92-3.03c-10.36,16.66-8.56,37.54,6.83,50.55&#10;              c2.67,2.26,6.52-1.7,3.82-3.82c-13.14-10.31-17.49-29.92-6.73-43.71c1.57-2.01-0.49-5.73-3.03-3.92&#10;              c-7.93,5.66-6.16,17.55-4.77,25.94c0.91,5.53,4.17,25.3,13.27,22.52c3.52-1.08,3.9-4.8,2.67-7.75&#10;              c-2.14-5.14-5.78-9.25-7.35-14.74c-3.37-11.77,1.37-23.19,9.11-32.04C41.76,254.72,40.94,253.43,40.07,254.04L40.07,254.04z"/>
          </g>
        </g>
        <g>
          <g>
            <path class="st0001" d="M366.36,307.36c0.26-1.79,0.35-3.7,0.98-5.39c-1.53-0.21-3.06-0.41-4.59-0.62c0.27,4.01,0.52,7.98,0.34,12&#10;              c1.98-0.54,3.96-1.07,5.93-1.61c-1.47-3.27-2.73-6.6-3.7-10.05c-1.11-3.93-6.65-2.95-6.9,0.93c-0.11,1.66-0.21,3.32-0.35,4.97&#10;              c1.83-1.05,3.66-2.1,5.49-3.15c-1.36-0.72-2.18-1.98-3.44-2.87c-2.75-1.93-5.65,1.25-5.16,3.97c0.44,2.43,2.75,4.26,4.91,5.21&#10;              c2.46,1.08,5.48-0.14,5.49-3.15c0.01-1.66,0.04-3.31,0.07-4.97c-2.3,0.31-4.6,0.62-6.9,0.93c1.31,3.94,2.91,7.79,4.98,11.4&#10;              c1.52,2.64,6.12,1.61,5.93-1.61c-0.25-4.26-0.81-8.55-2.12-12.62c-0.93-2.88-5.57-1.54-4.5,1.24c0.65,1.7,0.77,3.6,1.05,5.39&#10;              C364.07,308.58,366.18,308.6,366.36,307.36L366.36,307.36z"/>
          </g>
        </g>
        <g>
          <g>
            <g>
              <path class="st0002" d="M386.74,237.45c13,1.06,25.25,0.72,37.68,5.5c10.91,4.19,20.67,11.5,27.17,21.28&#10;                c12.43,18.74,9.69,44.55-9.24,57.99c-3.33,2.37-0.41,7.68,3.26,5.58c22.85-13.11,26.57-44.11,13.73-65.5&#10;                c-6.88-11.45-17.5-20.15-29.79-25.24c-12.83-5.31-29.9-7.74-43.27-3.03C384.39,234.69,384.76,237.29,386.74,237.45&#10;                L386.74,237.45z"/>
            </g>
          </g>
          <g>
            <g>
              <path class="st0002" d="M450.89,318.88c4.15,6.43,9.19,12.11,10.74,19.88c1.4,7.02-0.48,14.48-4.06,20.58&#10;                c-3.77,6.42-9.46,11.22-16.02,14.62c-6.87,3.56-14.79,3.9-21.56,7.35c-1.81,0.92-1.41,3.97,0.58,4.4&#10;                c8.19,1.79,18.05-2.36,25.16-6.22c7.89-4.28,14.71-10.68,18.74-18.75c7.69-15.38,3.74-34.77-11.49-43.96&#10;                C451.71,316,450.05,317.57,450.89,318.88L450.89,318.88z"/>
            </g>
          </g>
          <g>
            <g>
              <path class="st0002" d="M418.4,355.32c2.63,22.49-0.64,46.36-17.22,63.07c-14.71,14.83-38.58,19.75-56.76,8.09&#10;                c-2.65-1.7-5.73,0.57-5.9,3.38c-0.68,11.15-6.66,21.81-16.2,27.78c-10.59,6.63-23.08,6.25-34.48,2.09&#10;                c-3.42-1.25-5.53,4.06-2.45,5.81c12.65,7.18,29.24,6.13,41.4-1.72c11.63-7.51,18.65-20.26,19.57-33.97&#10;                c-1.97,1.13-3.93,2.26-5.9,3.38c20.58,14.07,47.62,9.66,65.12-7.3c18.82-18.24,23.86-46.54,16.7-71.16&#10;                C421.68,352.75,418.13,353.03,418.4,355.32L418.4,355.32z"/>
            </g>
          </g>
          <g>
            <g>
              <path class="st0002" d="M292,449.01c-5.79,6.02-11.02,11.13-19.22,13.72c-7.96,2.52-16.39,2.92-24.41,0.39&#10;                c-17.28-5.45-28.63-21.69-32.35-38.82c-0.58-2.69-4.37-3.64-6.21-1.64c-5.33,5.82-12.66,9.43-20.66,9.21&#10;                c-8.27-0.23-14.66-4.63-20.89-9.59c-2.23-1.77-5.51,0.39-4.07,3.14c10.02,19.02,37.96,16.49,50.87,2.5&#10;                c-2.07-0.55-4.14-1.09-6.21-1.64c4.22,19.92,18.27,39.37,38.73,44.73c16.69,4.37,41.84-1.58,47.93-19.96&#10;                C296.18,449.04,293.42,447.53,292,449.01L292,449.01z"/>
            </g>
          </g>
          <g>
            <g>
              <path class="st0002" d="M166.87,426.6c-3.53,1.07-6.34,4.09-9.69,5.72c-3.74,1.82-7.74,3.06-11.88,3.55&#10;                c-9.03,1.06-18.14-1.47-25.14-7.33c-14.71-12.3-25.82-34.87-20.08-53.98c1.04-3.47-4.46-5.98-6-2.53&#10;                c-9.72,21.77,5.01,49.81,22.62,63.33c8.19,6.29,18.4,8.73,28.6,7.37c4.79-0.64,9.56-2.06,13.8-4.41&#10;                c3.69-2.05,8.78-5.33,9.85-9.64C169.26,427.47,168.14,426.22,166.87,426.6L166.87,426.6z"/>
            </g>
          </g>
          <g>
            <g>
              <path class="st0002" d="M93.38,386.79c-5.04,0.08-9.72,1.1-14.8,0.32c-4.9-0.75-9.81-2.38-14.26-4.55&#10;                c-9.34-4.57-17.49-11.79-23.3-20.4c-11.61-17.22-11.52-38.37,3.99-53.06c2.72-2.57-0.77-7.04-3.98-5.15&#10;                c-21.58,12.71-19.25,43.13-7.06,61.42c6.79,10.2,16.27,18.64,27.48,23.66c9.36,4.18,23.52,7.2,32.97,1.64&#10;                C96.18,389.63,95.46,386.76,93.38,386.79L93.38,386.79z"/>
            </g>
          </g>
          <g>
            <g>
              <path class="st0002" d="M117.16,192.64c-19.56-15.42-46.44-6.28-62.46,9.67c-8.42,8.38-15.08,18.97-15.22,31.17&#10;                c-0.14,12.4,5.49,26.18,13.35,35.66c2.04,2.46,6.58-0.18,5.44-3.17c-3.8-9.98-10.04-18.93-10.65-29.94&#10;                c-0.59-10.78,4.77-20.09,11.99-27.68c14.39-15.13,35.64-22.52,55.08-12.53C116.63,196.81,119.06,194.14,117.16,192.64&#10;                L117.16,192.64z"/>
            </g>
          </g>
          <g>
            <g>
              <path class="st0002" d="M45.92,248.67c-6.5,0.53-13.42,6.51-17.95,10.88c-4.91,4.74-8.96,10.66-10.55,17.37&#10;                c-3.51,14.8,4.54,33.14,16.82,41.75c1.96,1.37,4.34-1.28,3.19-3.19c-3.45-5.74-8.23-10.45-11.21-16.54&#10;                c-3.3-6.75-4.75-14.54-2.7-21.88c1.74-6.23,5.84-11.36,10.59-15.61c4.05-3.62,9.85-6.22,13.07-10.58&#10;                C47.82,250,46.96,248.58,45.92,248.67L45.92,248.67z"/>
            </g>
          </g>
        </g>
        <g>
          <g>
            <g>
              <path class="st0000" d="M202.21,69.24c2.41-1.44,5.25-2.13,8.05-1.97c2.37,0.13,5.15,1.42,5.24,3.79c0.05,1.26-0.72,2.4-1.48,3.41&#10;                c-1.2,1.6-2.5,3.16-4.16,4.28s-3.73,1.75-5.68,1.31"/>
              <g>
                <path class="st0002" d="M203.17,70.88c2.12-1.15,4.64-1.94,7.09-1.67c1.93,0.22,3.9,1.05,2.69,3.28&#10;                  c-0.85,1.56-2.38,3.23-3.76,4.37c-1.87,1.55-3.84,0.83-5.71,1.98c-0.8,0.49-0.88,1.51-0.28,2.18c2.23,2.5,6.55,0.2,8.72-1.43&#10;                  c2.41-1.82,5.66-5.29,5.58-8.55c-0.07-2.96-2.75-4.88-5.4-5.49c-3.68-0.85-7.63,0.24-10.85,2.03&#10;                  C199.1,68.79,201.02,72.06,203.17,70.88L203.17,70.88z"/>
              </g>
            </g>
            <g>
              <path class="st0003" d="M206.87,321.94c-13.14,10.47-39.55,28.88-56.23,30.89c-5.85,0.7-11.76,0.76-17.65,0.73&#10;                c-16.06-0.09-33.2-1.21-46.09-10.78c-1.53-1.13-1.75-2.88-2.5-4.63c-4.15-9.6-5.4-20.17-6.35-30.59&#10;                c-1.48-16.24-2.35-32.58-1.52-48.87c1.12-21.82,5.27-43.35,9.42-64.79c4.6-23.81,9.3-47.92,19.71-69.83&#10;                c1.63-3.43,5.2-4.64,8.77-5.93c11.86-4.29,25.26-7.46,36.83-2.42c4.73,2.06,8.79,5.37,12.78,8.63&#10;                c5.43,4.44,11.43,9.09,16.86,13.53c7.97,37.21,16.59,74.29,25.86,111.2"/>
              <g>
                <path class="st0002" d="M205.75,320.01c-10.57,8.02-21.65,15.6-33.4,21.79c-5.78,3.04-11.83,5.89-18.2,7.45&#10;                  c-8.08,1.97-16.93,1.49-25.19,1.3c-8.08-0.19-16.23-0.73-24.08-2.77c-3.83-1-7.58-2.34-11.07-4.21&#10;                  c-4.82-2.59-6.66-6.05-8.32-11.1c-5.59-16.95-5.77-36.52-6.14-54.21c-0.79-37.33,6.77-75.01,15.17-111.25&#10;                  c1.98-8.56,4.27-17.06,7.13-25.36c1.49-4.34,3.14-8.63,5-12.82c0.89-2.02,1.64-4.07,3.38-5.49c1.89-1.53,4.55-2.24,6.82-3.03&#10;                  c8.24-2.87,17.15-5.26,25.94-4.04c9.48,1.32,16.3,7.65,23.5,13.4c3.53,2.82,8.43,5.59,11.34,9.04c1.65,1.95,1.8,5.17,2.33,7.6&#10;                  c0.63,2.89,1.25,5.77,1.89,8.65c2.32,10.57,4.7,21.14,7.12,31.69c4.82,20.97,8.9,42.6,15.8,62.99&#10;                  c0.88,2.59,4.48,1.52,4.04-1.11c-3.55-21.28-9.74-42.3-14.58-63.33c-2.43-10.55-4.8-21.11-7.12-31.69&#10;                  c-1.11-5.07-1.82-10.43-3.34-15.39c-1.19-3.89-6.23-6.47-9.32-8.95c-6.97-5.57-13.81-12.41-22.08-16&#10;                  c-8-3.48-16.84-3.33-25.26-1.65c-6.82,1.36-17.44,3.33-22.3,8.83c-2.51,2.84-3.75,6.96-5.18,10.42&#10;                  c-1.96,4.75-3.7,9.59-5.25,14.49c-6.14,19.28-9.67,39.35-13.45,59.2c-3.9,20.49-7.28,41.15-7.69,62.05&#10;                  c-0.39,19.96,0.2,41.32,4.59,60.87c1.65,7.34,3.55,15.63,10.21,19.81c7.46,4.69,16.08,7.02,24.73,8.2&#10;                  c17.54,2.38,37.2,2.86,53.62-4.44c15.25-6.78,29.28-16.82,42.09-27.43C210.39,321.92,207.77,318.47,205.75,320.01&#10;                  L205.75,320.01z"/>
              </g>
            </g>
            <g>
              <path class="st0004" d="M110.14,132.82c0.05,5.93-0.99,9.47-2.42,15.22c-10.21,41.04-13.88,83.7-10.83,125.88&#10;                c1.12,15.53,3.22,31.23,9.39,45.52s16.89,27.18,31.3,33.09c-8.27-2.64-16.53-5.27-24.8-7.91c-7.85-2.5-16.38-5.52-20.6-12.6&#10;                c-2.43-4.08-3.05-8.97-3.36-13.72c-1.25-19.27,1.76-38.66,0.06-57.9c-0.67-7.56-2.03-15.36,0.27-22.59&#10;                c-0.27,18.12-0.54,36.24-0.82,54.36c0.09-1.35,0.18-2.7,0.27-4.05"/>
              <g>
                <path class="st0004" d="M104.04,129.26c-3.64,6.28-5.56,13.68-7.82,20.6c-2.67,8.17-4.39,16.75-6.11,25.16&#10;                  c-3.55,17.37-5.57,35.1-6.59,52.8c-1.02,17.85-0.3,35.15,2.11,52.87c2.18,15.94,5.58,32.22,13.53,46.4&#10;                  c4,7.15,10.06,12.39,16.37,17.48c2.86,2.31,5.69,4.96,9.08,6.47c3.11,1.38,8.69-0.2,10.83,2.74c1.29-1,2.58-1.99,3.88-2.99&#10;                  c-3.73-4.18-9-7.23-14.06-9.49c-4.67-2.08-10.08-3.36-14.45-6.05c-2.97-1.83-7.41-4.75-8.98-8.03&#10;                  c-1.97-4.11-2.18-9.26-2.54-13.73c-1-12.53-0.57-25.11-0.86-37.66c-0.15-6.31-0.48-12.63-1.03-18.92&#10;                  c-0.49-5.56-1.28-11.32,0.12-16.78c-5.69-0.77-11.38-1.54-17.07-2.31c0.05,18.15-1.88,36.26-3.06,54.36&#10;                  c-0.38,5.9,5.3,10.93,10.93,10.93c6.34,0,10.41-5.02,10.93-10.93c0.12-1.35,0.24-2.7,0.36-4.05&#10;                  c0.52-5.93-5.44-11.01-11.01-11.01c-6.19,0-10.74,5.05-11.01,11.01c-0.06,1.35-0.12,2.7-0.18,4.05c7.29,0,14.57,0,21.86,0&#10;                  c-0.63-18.1-2.01-36.25-1.42-54.36c0.33-9.99-14.28-11.53-17.07-2.31c-2.05,6.77-1.96,13.56-1.2,20.52&#10;                  c0.8,7.29,1.06,14.4,0.71,21.73c-0.68,14.22-3.36,28.67-2.29,42.93c1.02,13.68,8.63,25.85,22.59,29.44&#10;                  c5.67,1.46,11.62,2.42,17.36,3.76c6.49,1.51,13.72,2.54,20.3,1.03c2.65-0.61,2.14-5.21-0.66-4.85&#10;                  c-3.26,0.42-3.94-2.36-5.3-4.81c-1.65-2.96-4.5-5.02-6.65-7.59c-4.2-5.01-5.61-11.04-8.2-16.88&#10;                  c-5.93-13.35-7.72-27.92-8.25-42.39c-1.2-32.54-0.45-65.09,3.68-97.41c1.13-8.84,2.96-17.56,4.25-26.38&#10;                  c1.29-8.86,3.68-17.12-0.86-25.35C113.66,124.6,106.66,124.75,104.04,129.26L104.04,129.26z"/>
              </g>
            </g>
            <g>
              <path class="st0000" d="M102.6,115.52c4.75,7.7,9.76,15.56,17.14,20.78c8.22,5.81,18.63,7.77,28.7,7.68&#10;                c10.15-0.09,20.48-2.18,29.16-7.45c3.81-2.31,7.26-5.2,10.32-8.44c14.89-15.77,19.68-40.03,12.87-60.62&#10;                s-24.56-36.96-45.37-43.08c-4.22-1.24-8.58-2.1-12.98-2.04c-5.03,0.07-9.99,1.33-14.64,3.23&#10;                c-20.86,8.54-35.07,31.14-33.72,53.63c0.54,8.99,3.29,17.68,6.01,26.26c1.7,5.35,3.4,10.7,5.1,16.05"/>
            </g>
            <g>
              <g>
                <path class="st0001" d="M101.32,81.04c2.19-2.18,1.98-4.41,2.51-7.44c0.6-3.43,1.37-6.84,2.42-10.16&#10;                  c2.09-6.59,5.31-13.14,9.75-18.48c3.55-4.28,7.87-7.85,12.7-10.62c5.7-3.27,12.73-3.95,18.14-7.46&#10;                  c1.21-0.78,1.1-2.81-0.42-3.18c-6.55-1.62-14.42,2-20.19,4.99c-5.59,2.9-10.75,6.85-14.93,11.57&#10;                  c-4.69,5.3-8.06,11.44-10.42,18.09c-1.36,3.82-2.36,7.79-3.02,11.8c-0.57,3.47-1.75,7.49,0.43,10.49&#10;                  C99.01,81.64,100.37,81.99,101.32,81.04L101.32,81.04z"/>
              </g>
            </g>
            <g>
              <g>
                <path class="st0002" d="M182.95,162.98c3.26,7.53,8.47,14.29,13.22,20.93c3.85,5.38,7.68,10.77,11.8,15.95&#10;                  c8.17,10.29,17.32,18.48,29.24,24.1c4.97,2.34,8.12-5.28,2.91-6.9c-11.96-3.72-21.05-14.42-28.35-24.06&#10;                  c-8.2-10.82-15.27-23.5-25.43-32.63C184.42,158.65,182,160.78,182.95,162.98L182.95,162.98z"/>
              </g>
            </g>
            <g>
              <g>
                <path class="st0002" d="M143.95,350.46c-13.99-0.12-28.35-0.59-41.92-4.27c-3-0.81-5.98-1.79-8.78-3.14&#10;                  c-4.12-1.99-5.67-4.68-7.21-8.95c-3.19-8.83-4.21-18.23-5.04-27.52c-1.8-20.11-2.44-40.26-0.47-60.38&#10;                  c1.93-19.74,5.85-39.24,9.63-58.68c4.11-21.16,8.78-42.4,17.92-62.04c1.51-3.24-3.3-6.09-4.84-2.83&#10;                  c-8.66,18.41-13.61,38.09-17.65,57.95c-4.23,20.77-8.49,41.65-10.85,62.73c-2.45,21.96-1.68,44.01,0.43,65.96&#10;                  c0.88,9.2,2.04,18.54,5.33,27.23c1.21,3.2,2.1,6.66,4.87,8.86c2.44,1.94,5.44,3.26,8.31,4.4c15.62,6.23,33.67,6.48,50.26,6.55&#10;                  C147.73,356.36,147.74,350.5,143.95,350.46L143.95,350.46z"/>
              </g>
            </g>
            <g>
              <path class="st0005" d="M132.99,353.56"/>
              <g>
                <path class="st0002" d="M132.99,356.43c3.7,0,3.7-5.74,0-5.74C129.3,350.69,129.29,356.43,132.99,356.43L132.99,356.43z"/>
              </g>
            </g>
            <g>
              <g>
                <path class="st0001" d="M101.17,99.91c-1.95,5.19,0.99,12.22,3.24,16.96c2.58,5.45,6.31,10.5,11.09,14.21&#10;                  c4.63,3.6,10.01,6.56,15.2,9.26c4.53,2.35,10.79,6.02,15.99,4.48c1.19-0.35,1.74-1.98,0.76-2.87&#10;                  c-3.29-2.98-8.18-4.09-12.05-6.32c-4.78-2.75-9.84-5.64-14.02-9.24c-3.86-3.33-7.12-7.33-9.53-11.82&#10;                  c-2.54-4.74-3.05-10.99-6.11-15.25C104.44,97.5,101.95,97.83,101.17,99.91L101.17,99.91z"/>
              </g>
            </g>
            <g>
              <g>
                <path class="st0002" d="M102.42,118.7c5.35,10.71,12.49,19.74,23.83,24.48c12.44,5.2,27.77,5.06,40.6,1.36&#10;                  c24.96-7.21,40.35-32.53,40.59-57.73c0.24-24.9-14.46-47.47-35.83-59.65c-11.16-6.36-24.8-10.32-37.55-7.24&#10;                  c-11.85,2.86-22.37,10.32-29.91,19.77C96.21,49.64,91.34,62.13,91,74.9c-0.21,8.02,1.57,15.95,3.83,23.6&#10;                  c2.03,6.88,3.94,14.04,7.15,20.46c1.29,2.58,4.68,0.62,4.3-1.81c-1.75-11.37-7.08-21.92-8.72-33.38&#10;                  c-1.54-10.8,0.41-21.71,5.56-31.33c4.85-9.06,12.12-16.64,21.2-21.51c11.61-6.23,23.67-5.95,35.71-1.01&#10;                  c19.47,7.99,34.93,24.99,39.12,45.84c4.29,21.37-3.95,46.42-23.12,58.07c-11.6,7.05-27.01,8.7-40.17,5.94&#10;                  c-14.06-2.95-22.04-11.96-30.26-22.92C104.19,114.99,101.34,116.54,102.42,118.7L102.42,118.7z"/>
              </g>
            </g>
            <g>
              <path class="st0000" d="M107.19,83.42c-5.54-1.78-11.7-1.55-17.09,0.64c-1.92,0.78-3.85,1.9-4.81,3.74&#10;                c-1.51,2.88-0.08,6.56,2.27,8.81c2.33,2.23,5.53,3.52,8.76,3.53c3.23,0.01,6.44-1.26,8.78-3.47"/>
              <g>
                <path class="st0002" d="M108.34,82.27c-6.66-5.56-27.03-1.89-25.65,9.26c0.64,5.22,5.5,9.07,10.35,10.26&#10;                  c4.5,1.11,11.77,0.19,13.47-4.75c0.4-1.15-0.79-1.96-1.79-1.79c-3.5,0.58-5.58,3.04-9.49,2.69c-3.66-0.32-9.7-3.8-8.35-8.47&#10;                  c1.04-3.6,7.26-4.6,10.27-4.91c3.42-0.35,6.74,0.92,10.05,0.48C108.41,84.88,109.55,83.29,108.34,82.27L108.34,82.27z"/>
              </g>
            </g>
          </g>
          <g>
            <path class="st0006" d="M402.16,281.32c2.18-0.39,3.76-2.45,4.27-4.61c0.51-2.16,0.18-4.42-0.14-6.61&#10;              c-3.24-22.17-5.12-44.53-5.62-66.92c-0.58-25.62,0.47-52.08-6.83-76.65c-32.21,14.12-64.41,28.24-96.62,42.35&#10;              c-18.87,8.27-37.75,16.55-56.62,24.82c-1.51-0.65-3.11,0.32-3.96,1.73c-0.85,1.4-0.95,3.13-0.91,4.77&#10;              c0.15,7.45,2.54,14.65,4.13,21.93c2.04,9.37,2.76,18.96,3.48,28.52c2.08,27.73,4.16,55.46,6.24,83.19&#10;              c0.26,3.51,0.63,7.29,2.96,9.95c2.32,2.65,7.33,3.11,8.99,0c14.87-5.1,30.1-8.98,44.98-14.08c7.96-2.73,15.95-5.47,23.44-9.3&#10;              c7.31-3.74,14.06-8.48,21.07-12.78c7.79-4.78,15.92-9.03,24.29-12.69C384.16,291.06,392.63,283.02,402.16,281.32z"/>
            <g>
              <g>
                <path class="st0001" d="M145.28,287.65c7.24,4.94,15.07,9.9,23.02,13.61c0.45-1.65,0.89-3.3,1.34-4.94&#10;                  c-8.62-1.16-17.94-5.97-24.88-11.11c-1.72-1.27-3.56,1.41-2.21,2.86c5.73,6.18,13.38,9.99,20.96,13.4&#10;                  c8.27,3.72,16.41,7.61,24.31,12.06c17.18,9.68,33.66,20.69,50.48,30.99c2.92,1.79,5.59-2.8,2.68-4.59&#10;                  c-16.28-10.02-32.59-19.99-49.08-29.68c-7.89-4.64-15.92-8.88-24.32-12.51c-7.93-3.42-15.7-6.76-22.46-12.25&#10;                  c-0.74,0.95-1.47,1.91-2.21,2.86c4.38,2.76,8.11,6.25,12.73,8.64c4.2,2.18,8.61,3.77,13.29,4.53c2.73,0.44,4.95-3.39,2.04-4.85&#10;                  c-7.96-4-15.58-8.77-23.61-12.6C144.97,282.93,143.07,286.14,145.28,287.65L145.28,287.65z"/>
              </g>
            </g>
            <g>
              <path class="st0000" d="M249.94,347.93c-4.85-4.19-9.7-8.39-14.86-12.18c-6.87-5.05-14.24-9.37-21.61-13.66&#10;                c-14.85-8.64-29.73-17.22-44.62-25.79c-8.47-4.88-16.93-9.75-25.4-14.63l3.02-3.32c32.32-14.27,63.88-30.28,94.48-47.93"/>
              <g>
                <path class="st0002" d="M250.86,347.01c-14.25-14.81-32.34-24.64-49.97-34.83c-18.76-10.84-37.55-21.62-56.33-32.41&#10;                  c0.15,1.15,0.3,2.31,0.45,3.46c5.03-5.54,13.08-7.65,19.82-10.78c8.59-3.98,17.09-8.14,25.63-12.24&#10;                  c17.54-8.41,35.2-17.42,51.61-27.89c2.39-1.53,0.3-5.1-2.22-3.8c-17.94,9.25-35.48,19.27-53.41,28.54&#10;                  c-8.96,4.63-18.11,8.92-27.27,13.15c-4.24,1.96-10.06,3.46-13.8,6.23c-1.32,0.98-2.36,2.45-3.47,3.67&#10;                  c-0.94,1.04-0.83,2.73,0.45,3.46c18.48,10.66,36.97,21.3,55.43,32c8.81,5.11,17.73,10.05,26.4,15.39&#10;                  c8.84,5.44,16.71,12.08,25.13,18.1C250.52,349.95,251.86,348.05,250.86,347.01L250.86,347.01z"/>
              </g>
            </g>
            <g>
              <g>
                <path class="st0002" d="M141.1,282.46c-0.11,4.23,0.88,10.29,4.85,12.63c1.02,0.6,2.35-0.4,2.02-1.55&#10;                  c-0.52-1.81-1.62-3.28-2.37-4.99c-0.85-1.94-1.27-3.98-1.36-6.09C144.15,280.45,141.15,280.43,141.1,282.46L141.1,282.46z"/>
              </g>
            </g>
            <g>
              <g>
                <path class="st0002" d="M145.06,294.69c14.67,12.29,33.35,17.11,49.75,26.43c9.19,5.22,17.35,12.02,26.51,17.28&#10;                  c7.77,4.46,18.65,10.28,27.81,10.07c1.69-0.04,2.65-2.6,0.92-3.41c-4.17-1.96-8.91-2.62-13.26-4.21&#10;                  c-5.16-1.89-10.12-4.32-14.79-7.21c-8.7-5.39-16.48-12.16-25.38-17.24c-16.04-9.16-34.49-13.38-49.61-24.25&#10;                  C145.54,291.1,143.66,293.52,145.06,294.69L145.06,294.69z"/>
              </g>
            </g>
            <g>
              <g>
                <path class="st0002" d="M240.25,296.81c1.75-1.22,3.43-2.56,5.04-3.95c0.98-0.85-0.27-2.33-1.35-1.74&#10;                  c-1.98,1.08-3.66,2.59-4.95,4.44C238.48,296.3,239.51,297.33,240.25,296.81L240.25,296.81z"/>
              </g>
            </g>
            <g>
              <g>
                <path class="st0002" d="M237.01,198.81c11.51-7.01,23.99-12.04,36.31-17.42c13.57-5.93,27.1-11.94,40.71-17.77&#10;                  c13.71-5.87,27.45-11.7,41.2-17.47c6.67-2.8,13.36-5.59,20.04-8.37c6.82-2.85,14.06-5.3,20.58-8.79&#10;                  c2.41-1.29,0.76-5.21-1.86-4.42c-7.17,2.16-14.12,5.62-21.03,8.51c-6.58,2.76-13.16,5.54-19.73,8.32&#10;                  c-13.94,5.9-27.85,11.86-41.75,17.86c-13.9,6.01-27.84,11.92-41.7,18.02c-11.5,5.06-26.23,9.19-34.88,18.79&#10;                  C233.62,197.49,235.25,199.88,237.01,198.81L237.01,198.81z"/>
              </g>
            </g>
            <g>
              <g>
                <path class="st0002" d="M251.24,349.42c14.13-0.55,28.81-6.23,41.83-11.36c13.61-5.36,26.79-11.76,40-18.03&#10;                  c13.12-6.23,26.5-11.85,39.68-17.95c11.99-5.55,25.22-11.96,34.19-21.92c1.89-2.1-0.89-4.66-3.02-3.02&#10;                  c-11.14,8.62-22.36,15.55-35.25,21.32c-12.48,5.58-25.07,10.85-37.46,16.63c-13.1,6.11-26.17,12.3-39.63,17.6&#10;                  c-6.64,2.61-13.37,5.01-20.22,7.02c-6.85,2.01-13.92,3.18-20.74,5.18C248.19,345.6,248.57,349.53,251.24,349.42L251.24,349.42z&#10;                  "/>
              </g>
            </g>
            <g>
              <g>
                <path class="st0002" d="M394.53,125.72c-2.44,12.19,1.05,24.16,2.41,36.23c1.46,12.9,0.93,25.91,1.03,38.86&#10;                  c0.21,25.77,2.85,51.76,6.65,77.24c0.4,2.7,4.52,1.56,4.12-1.13c-3.89-25.63-5.34-51.18-5.35-77.09&#10;                  c-0.01-12.3,0.46-24.63-0.55-36.91c-0.47-5.65-1.48-11.16-2.39-16.75c-1.08-6.67-1.15-13.11-1.29-19.82&#10;                  C399.09,123.79,395.07,123.03,394.53,125.72L394.53,125.72z"/>
              </g>
            </g>
            <g>
              <g>
                <path class="st0002" d="M328.13,223.93c-8.57,0.93-14.98,8.63-12.55,17.32c2.66,9.5,12.37,12.13,19.94,6.33&#10;                  c7.52-5.75,7-17.64-1.66-22.15c-7.45-3.87-17.5,0.4-19.38,8.66c-2.25,9.87,7.58,15.34,15.84,11.25&#10;                  c7.7-3.81,8.34-15.75-0.95-18.11c-8.2-2.09-15.36,7.54-9.46,14.32c4.59,5.28,17.04,1.93,14-6.05&#10;                  c-1.43-3.76-7.01-5.86-10.32-3.38c-3.24,2.42-2.76,7.67,1.01,9.32c3.01,1.32,6.83-0.92,6.19-4.44&#10;                  c-0.66-3.62-5.31-3.85-6.93-0.89c-1.45,2.66,2.66,5.05,4.06,2.37c0.38-3.3,0.56-3.17,0.55,0.37c-1.1,0.66-2.25,0.8-3.46,0.43&#10;                  c-3.44-1.33-2.7-5.33,0.04-6.65c5.83-2.82,8.29,5.74,2.87,8.61c-5.62,2.98-11.77-1.75-7.98-7.83c1.97-3.16,6.02-4.83,9.66-3.98&#10;                  c4.22,0.99,7.18,5.44,6.03,9.75c-0.96,3.58-6.09,7.69-10.01,6.68c-3.63-0.93-5.84-5.28-5.63-8.78c0.26-4.36,3.9-7.85,8.14-8.42&#10;                  C331.08,228.28,331.2,223.6,328.13,223.93L328.13,223.93z"/>
              </g>
            </g>
            <g>
              <g>
                <path class="st0001" d="M229.94,296.24c4.01,3.68,7.62,8.23,12.04,11.41c1.75,1.26,3.98-1.6,2.32-3.01&#10;                  c-4.14-3.5-8.21-6.88-12.05-10.71C230.75,292.44,228.39,294.82,229.94,296.24L229.94,296.24z"/>
              </g>
            </g>
            <g>
              <g>
                <path class="st0007" d="M237.53,289.06c-0.21,1.23,0.48,2.36,1.26,3.27c0.75,0.88,1.6,1.94,2.66,2.45c0.77,0.37,1.67,0.33,2.3-0.3&#10;                  c0.55-0.55,0.79-1.63,0.3-2.3c-0.71-0.94-1.67-1.58-2.54-2.36c-0.8-0.71-1.8-1.55-2.93-1.55&#10;                  C238.13,288.28,237.6,288.61,237.53,289.06L237.53,289.06z"/>
              </g>
            </g>
            <g>
              <g>
                <path class="st0001" d="M231.15,295.67c1.2,0.43,2.24-0.64,3.14-1.31c0.91-0.68,1.88-1.46,2.38-2.5c0.5-1.04-0.34-2.59-1.64-2.13&#10;                  c-1.09,0.39-1.99,1.14-2.86,1.88c-0.86,0.73-2.12,1.39-2.07,2.67C230.12,294.96,230.53,295.45,231.15,295.67L231.15,295.67z"/>
              </g>
            </g>
            <g>
              <g>
                <path class="st0007" d="M237.3,301.21c0.8-0.49,1.55-1.04,2.29-1.62c0.79-0.63,1.44-1.36,1.44-2.42c0-0.73-0.65-1.08-1.3-0.99&#10;                  c-0.92,0.14-1.5,0.82-2.08,1.47c-0.55,0.62-1.13,1.2-1.75,1.74C234.92,300.27,236.19,301.9,237.3,301.21L237.3,301.21z"/>
              </g>
            </g>
            <g>
              <g>
                <path class="st0001" d="M227.99,296.64c-4.58,0.71-8.53,4.48-12.22,7.11c-1.11,0.79-1.55,2.4-0.44,3.45&#10;                  c4.46,4.25,9.91,7.18,14.92,10.73c5.05,3.58,9.92,8.9,15.6,11.3c1.66,0.7,4.11-0.9,2.8-2.8c-3.23-4.69-8.89-8.21-13.37-11.67&#10;                  c-5.49-4.24-10.96-8.1-17.29-11.01c0.15,1.15,0.3,2.3,0.44,3.45c3.31-3.2,7.88-5.54,10.49-9.35&#10;                  C229.38,297.19,228.63,296.54,227.99,296.64L227.99,296.64z"/>
              </g>
            </g>
            <g>
              <g>
                <path class="st0001" d="M231.63,315.3c1.4-0.41,2.53-1.15,3.29-2.42c1.08-1.79,2.33-2.83,4.22-3.75&#10;                  c-0.49-0.84-0.99-1.69-1.48-2.53c-1.76,1.1-3.27,2.44-4.88,3.75c-1.55,1.27-3.6,2.42-4.49,4.26c-0.68,1.39,0.45,3.25,2.11,2.75&#10;                  c2.09-0.63,3.52-2.43,5.01-3.93c1.54-1.54,3.02-3.03,4.24-4.83c0.99-1.45-1.11-2.79-2.3-1.77c-2.29,1.96-4.15,4.56-6.66,6.28&#10;                  C229.64,313.85,230.26,315.71,231.63,315.3L231.63,315.3z"/>
              </g>
            </g>
            <g>
              <g>
                <path class="st0002" d="M214.5,306.81c5.61-3.75,10.91-7.95,16.36-11.93c4.39-3.22,9.85-6.45,13.07-10.88&#10;                  c0.7-0.97-0.61-1.83-1.46-1.46c-5.21,2.29-9.7,7.1-14.13,10.64c-5.02,4.01-10.3,7.69-15.36,11.64&#10;                  C211.84,305.71,213.31,307.6,214.5,306.81L214.5,306.81z"/>
              </g>
            </g>
            <g>
              <g>
                <path class="st0002" d="M212.93,307.33c5.62,4.01,11.1,8.21,16.6,12.38c5.43,4.12,10.7,8.83,16.49,12.41&#10;                  c1.97,1.22,4.08-1.56,2.45-3.18c-9.67-9.62-22.67-16.78-34.29-23.75C212.79,304.35,211.65,306.41,212.93,307.33L212.93,307.33z&#10;                  "/>
              </g>
            </g>
            <g>
              <g>
                <path class="st0002" d="M228.19,296.49c2.3,3.3,5.38,6.09,8.28,8.85c2.78,2.65,5.73,6.32,9.22,7.96c1.12,0.52,2.51-0.59,1.79-1.79&#10;                  c-2.02-3.34-5.81-5.87-8.65-8.53c-2.92-2.75-5.78-5.76-9.09-8.04C228.83,294.31,227.55,295.58,228.19,296.49L228.19,296.49z"/>
              </g>
            </g>
            <g>
              <g>
                <path class="st0002" d="M227.24,315.55c2.22-0.55,3.99-2.62,5.61-4.13c2.1-1.97,4.2-3.85,6.35-5.74c1.31-1.15-0.6-3.03-1.91-1.91&#10;                  c-3.74,3.2-7.56,6.36-11.38,9.48C224.79,314.17,226.01,315.85,227.24,315.55L227.24,315.55z"/>
              </g>
            </g>
            <g>
              <g>
                <path class="st0002" d="M233.63,301.04c1.17,0.66,2.89-1.21,3.73-1.83c1.58-1.16,3.31-2.33,4.68-3.73&#10;                  c1.12-1.14-0.31-3.05-1.72-2.22C239.36,293.83,231.92,300.07,233.63,301.04L233.63,301.04z"/>
              </g>
            </g>
            <g>
              <g>
                <path class="st0002" d="M235.2,290.66c0.84,1.79,2.49,3.41,3.89,4.78c1.36,1.34,2.63,2.72,4.61,2.96c0.61,0.08,1.06-0.66,0.9-1.19&#10;                  c-0.54-1.86-2.17-2.93-3.53-4.18c-1.4-1.28-2.85-2.81-4.5-3.75C235.65,288.76,234.79,289.78,235.2,290.66L235.2,290.66z"/>
              </g>
            </g>
            <g>
              <g>
                <path class="st0001" d="M211.01,261.87c-0.07-0.02-0.14-0.04-0.21-0.06c0.44,0.78,0.88,1.56,1.33,2.34&#10;                  c0.01-0.09,0.03-0.17,0.04-0.26c-0.78,0.44-1.56,0.89-2.34,1.33c-0.81-1.08-1.1-1.18-0.87-0.31c0.09,0.26,0.21,0.52,0.36,0.76&#10;                  c0.51,0.46,0.74,0.79,1.45,0.96c0.63,0.15,1.46,0.04,1.9-0.5c0.6-0.73,1.2-1.47,1.8-2.2c-1.12-0.3-2.24-0.59-3.36-0.89&#10;                  c0.23,1.44,0.65,2.53,1.35,3.8c0.9,1.63,3.38,1.21,3.88-0.51c0.55-1.9,0.99-3.75,1.83-5.57c-1.12-0.3-2.24-0.61-3.36-0.91&#10;                  c-0.14,3.38-1.69,9.36,2.37,10.85c1.55,0.57,2.71-0.87,2.88-2.19c0.44-3.4,0.96-6.57,2.23-9.75c-1.18-0.16-2.35-0.32-3.53-0.48&#10;                  c0.41,3.79-0.82,7.49,0.6,11.15c0.78,2,3.72,2.31,4.39,0c1.19-4.16,2.41-8.32,3.64-12.47c-1.45-0.2-2.91-0.39-4.36-0.59&#10;                  c-0.41,5.32-0.79,10.63-1.07,15.96c-0.15,2.85,4.47,3.54,5.04,0.68c1.12-5.67,2.29-11.23,5.11-16.33&#10;                  c-1.56-0.42-3.13-0.85-4.69-1.27c-0.73,5.61-2.79,13.58-0.59,18.97c1.14,2.79,4.8,2.31,5.16-0.7&#10;                  c0.82-6.88,2.27-13.91,4.3-20.53c-1.7-0.23-3.4-0.46-5.1-0.69c-0.39,4.74-0.77,9.44-1.58,14.14&#10;                  c-0.63,3.65-1.18,7.03-0.14,10.65c0.43,1.49,1.83,2.09,3.27,1.86c1.74-0.29,2.65-0.11,4.2-1.25c2.18-1.6,3.84-3.71,4.34-6.38&#10;                  c0.7-3.76-0.16-8.17-0.34-11.95c-0.2-3.97-0.31-7.9-1.13-11.79c-0.59-2.81-4.7-2.55-5.44,0c-1.32,4.59-2.22,9.21-2.69,13.96&#10;                  c-0.39,3.87-1.03,8.07,1.01,11.55c1.34,2.29,5.4,1.44,5.21-1.41c-0.29-4.32-0.52-8.66-0.88-12.98&#10;                  c-0.22-2.59-0.28-6.36-2.68-8.03c-4.56-3.17-13.07,2.57-16.37,5.39c-2.86,2.45,1.24,6.41,4.1,4.1&#10;                  c1.57-1.27,5.08-4.05,7.25-3.86c2.3,0.21,1.47-2.09,1.95,2.4c0.47,4.31,0.69,8.66,1.04,12.98c1.74-0.47,3.47-0.94,5.21-1.41&#10;                  c-1.7-2.83-0.52-8.6-0.05-11.58c0.51-3.27,1.35-6.46,2.35-9.61c-1.81,0-3.63,0-5.44,0c0.77,5.22,0.74,10.65,1.05,15.91&#10;                  c0.25,4.17,0.15,8.28-3.39,8.75c0.85,0.65,1.71,1.3,2.56,1.95c-1.32-7.5,1.77-15.74,1.79-23.38c0.01-2.87-4.45-3.61-5.1-0.69&#10;                  c-1.57,7.07-3.09,14.1-4.45,21.21c1.69,0,3.37,0,5.06,0c-1.59-5.1,0.02-12.33,0.56-17.58c0.26-2.52-3.57-3.38-4.69-1.27&#10;                  c-2.93,5.53-4.42,11.42-5.7,17.51c1.68,0.23,3.36,0.45,5.04,0.68c0.21-5.32,0.31-10.63,0.39-15.96&#10;                  c0.03-2.53-3.66-2.98-4.36-0.59c-1.23,4.15-2.48,8.3-3.74,12.44c1.46,0,2.92,0,4.39,0c-1.24-3.33-0.58-6.97-1.46-10.42&#10;                  c-0.43-1.71-3.03-1.71-3.47,0c-0.88,3.44-2.18,6.72-3.23,10.1c1.11-0.45,2.23-0.91,3.34-1.36c0.12,0.05-0.46-6.3-0.59-7.18&#10;                  c-0.23-1.57-2.6-1.69-3.3-0.43c-1.13,2.06-2.17,4-2.81,6.26c1.29-0.17,2.59-0.34,3.88-0.51c-0.7-0.79-1.08-1.69-1.14-2.72&#10;                  c-0.36-1.88-2.75-1.72-3.67-0.48c-0.57,0.76-1.13,1.52-1.7,2.28c0.73-0.3,1.47-0.6,2.2-0.9c0.8,1.1,1.08,1.21,0.85,0.34&#10;                  c-0.08-0.27-0.21-0.52-0.37-0.74c-0.52-0.43-0.7-0.81-1.44-0.92c-1.33-0.21-2.25,0.51-2.41,1.84&#10;                  c-0.01,0.09-0.02,0.17-0.03,0.26c-0.1,0.78,0.66,1.67,1.39,1.83c0.07,0.02,0.14,0.03,0.21,0.05&#10;                  C212.37,266.05,213.38,262.5,211.01,261.87L211.01,261.87z"/>
              </g>
            </g>
            <g>
              <g>
                <path class="st0002" d="M207.39,265.02c11.58-5.23,24.07-12.09,33.99-20.04c1.57-1.25-0.43-3.61-2.08-2.7&#10;                  c-5.68,3.13-10.97,7.04-16.51,10.4c-5.56,3.38-11.35,6.38-16.91,9.74C204.19,263.45,205.66,265.8,207.39,265.02L207.39,265.02z&#10;                  "/>
              </g>
            </g>
            <g>
              <g>
                <path class="st0002" d="M205.02,265.49c8.89,4.79,16.8,10.42,25.07,16.13c2.16,1.49,3.59,1.97,5.84,0.39&#10;                  c3-2.1,6.41-5.17,8.43-8.22c0.81-1.22-0.73-2.38-1.85-1.85c-2.95,1.39-4.8,4.21-7.61,5.75c-3.34,1.84-6.98-2.32-9.79-4.18&#10;                  c-5.98-3.95-12.11-7.53-18.58-10.62C204.82,262.08,203.3,264.57,205.02,265.49L205.02,265.49z"/>
              </g>
            </g>
            <g>
              <g>
                <path class="st0002" d="M234.52,197.84c0.04,12.3,2.14,24.74,3.15,37c1.04,12.51,1.76,25.05,2.58,37.57&#10;                  c1.59,24.35,2.28,49.63,7.67,73.52c0.6,2.65,5.2,2.13,4.83-0.65c-1.65-12.43-3.64-24.75-4.76-37.25&#10;                  c-1.12-12.5-1.81-25.02-2.47-37.54c-0.64-12.21-1.33-24.42-2.36-36.61c-1.02-12.07-1.92-24.85-5.61-36.45&#10;                  C237.04,195.8,234.52,196.05,234.52,197.84L234.52,197.84z"/>
              </g>
            </g>
          </g>
          <g>
            <g>
              <path class="st0002" d="M101.77,172.36c-1.03,26.76,2.48,53.78,16.63,76.98c7.48,12.27,17.28,23.97,28.08,33.43&#10;                c5.88,5.16,12.26,9.77,19.1,13.57c6.2,3.44,13.91,7.79,21.11,8.01c3.38,0.1,4.39-4.51,1.67-6.18&#10;                c-3.15-1.94-6.87-2.82-10.26-4.27c-3.43-1.47-6.76-3.18-9.99-5.05c-6.67-3.87-12.87-8.5-18.55-13.7&#10;                c-9.8-8.99-18.78-19.78-25.77-31.11c-6.4-10.36-11.4-22.03-13.55-34.03c-2.26-12.59-2.12-25.64-4.91-38.11&#10;                C104.87,169.83,101.84,170.38,101.77,172.36L101.77,172.36z"/>
            </g>
          </g>
          <g>
            <path class="st0000" d="M178.93,298c-3.27,2.34-4.63,6.78-3.96,10.74s3.09,7.47,6.06,10.18c4.54,4.15,10.97,6.76,16.93,5.22&#10;              c5.46-1.42,9.71-6.25,11.07-11.72c1.36-5.48,0.04-11.42-2.92-16.22c-2.6-4.2-6.78-7.78-11.71-8.21&#10;              c-4.25-0.38-8.44,1.65-11.52,4.59s-5.2,6.74-7.09,10.56"/>
            <g>
              <path class="st0002" d="M178.1,296.57c-20.09,13.33,17.7,46.71,31.63,21.09c5.66-10.4,0.82-25.48-9.81-30.75&#10;                c-11.1-5.5-23.8,4.76-26.08,15.68c-0.38,1.84,1.95,3.58,3.38,1.97c4.93-5.54,8.58-15.62,17.94-13.84&#10;                c8.84,1.68,13.54,13.84,11.17,21.68c-6.6,21.88-39.34,0.46-26.24-13.25C181.34,297.85,179.71,295.5,178.1,296.57L178.1,296.57z"/>
            </g>
          </g>
        </g>
        <g>
          <g>
            <path class="st0000" d="M356.32,326.73c-2.62-6.6-8.69-10.42-15.11-12.83c-0.67,4.98-1.35,9.97-2.02,14.95&#10;              c4.24,0.25,8.56-0.3,12.8-0.6c8.93-0.63,10.43-12.28,2.08-15.34c-14.83-5.43-32.53-5.81-46.03,3.43&#10;              c-6.67,4.57-11.44,10.57-14.65,17.97c-2.94,6.79-7.14,16.89-2.98,23.89c1.65,2.78,5.92,4.32,8.77,2.3&#10;              c5.41-3.84,6.13-10.23,8.17-16.13c1.82-5.28,4.75-10.52,9.23-14.01c9.72-7.58,22.44-6.57,33.34-2.38&#10;              c0.69-5.11,1.38-10.23,2.08-15.34c-4.96,0.27-9.93,0.37-14.82,1.28c-3.67,0.69-5.97,4.9-5.45,8.35c0.6,4.02,3.6,6.15,7.47,6.6&#10;              c4.1,0.48,7.52,2.47,11.39,3.62C353.73,333.41,357.65,330.1,356.32,326.73L356.32,326.73z"/>
          </g>
        </g>
        <g>
          <g>
            <g>
              <path class="st0000" d="M174.85,346.31c-8.32-0.21-16.65-0.42-24.97-0.63c-8.38-0.21-8.38,12.81,0,13.02&#10;                c8.32,0.21,16.65,0.42,24.97,0.63C183.24,359.54,183.23,346.52,174.85,346.31L174.85,346.31z"/>
            </g>
          </g>
          <g>
            <g>
              <path class="st0000" d="M410.54,278.34c1.96-1.89,4.1-3.58,6.06-5.47c4.24-4.09-0.12-13.1-6.15-10.56&#10;                c-4.22,1.78-7.76,3.88-11.37,6.69c3.26,3.26,6.53,6.53,9.79,9.79c1.81-2.35,3.66-4.67,5.43-7.04c2.61-3.5,0.04-10.17-4.39-10.78&#10;                c-17.2-2.37-24.74,21.95-28.35,34.66c-2.41,8.49,9.71,13.56,14.19,5.98c5.62-9.52,11.08-18.96,19.77-26.04&#10;                c-4.05-3.13-8.11-6.26-12.16-9.39c-7.24,10.67-14.72,21.14-22.62,31.33c4.23,2.46,8.46,4.92,12.68,7.38&#10;                c3.05-7.3,5.95-14.66,8.76-22.06c2.25-5.92-5.83-12.17-11-8.45c-8.08,5.81-11.4,14.18-14,23.49c4.83,0.65,9.67,1.31,14.5,1.96&#10;                c0.3-5.8,2.3-10.81,5.6-15.55c5.45-7.81-7.35-15.2-12.75-7.45c-4.79,6.87-7.19,14.68-7.62,23c-0.43,8.43,12.3,9.86,14.5,1.96&#10;                c1.39-4.97,2.82-11.33,7.32-14.49c-3.67-2.82-7.33-5.64-11-8.45c-2.89,7.37-5.9,14.7-8.96,22c-2.87,6.85,8.15,13.24,12.68,7.38&#10;                c8.69-11.21,17.16-22.61,25.26-34.25c2.2-3.16,0.84-7.8-1.99-9.99c-3.26-2.52-7.11-1.85-10.17,0.61&#10;                c-9.67,7.76-16.24,18.47-22.23,29.16c4.73,1.99,9.46,3.99,14.19,5.98c1.22-4.72,2.41-9.56,4.35-14.04&#10;                c0.87-2.01,5.08-10.55,7.08-10.32c-2.11-3.68-4.23-7.36-6.34-11.05c-1.24,2-2.42,4.04-3.63,6.07&#10;                c-4.02,6.74,5.32,14.01,10.87,8.39c1.98-2,4.02-3.53,6.45-4.93c-3.09-2.38-6.19-4.76-9.28-7.13c-0.79,2.57-1.31,5.21-2.1,7.77&#10;                C402.76,278.36,407.78,281,410.54,278.34L410.54,278.34z"/>
            </g>
          </g>
          <g>
            <g>
              <path class="st0001" d="M188.03,351.93c-9.76-8.53-22.95-12.07-35.48-8.09c-4.85,1.54-2.69,9.29,2.1,7.61&#10;                c10.77-3.77,22.26-3.77,32.45,1.68C187.84,353.53,188.72,352.53,188.03,351.93L188.03,351.93z"/>
            </g>
          </g>
          <g>
            <g>
              <path class="st0001" d="M389.17,269.86c-5.51,7.68-9.52,17.78-12.38,26.77c-2.73,8.57-4.21,18.19-0.78,26.77&#10;                c1.47,3.67,7.32,2.29,6.08-1.68c-5.75-18.45,4.58-33.74,9-51.05C391.4,269.46,389.84,268.92,389.17,269.86L389.17,269.86z"/>
            </g>
          </g>
          <g>
            <g>
              <path class="st0000" d="M153.78,356.1c-15.79-29.17-47.06-48.77-79.06-55.64c-10.31-2.21-14.86,10.36-6.88,16.32&#10;                c22.19,16.56,44.6,32.86,66.96,49.2c7.29,5.32,16.91-6.98,9.73-12.61c-17.38-13.61-36.37-25.22-56.52-34.24&#10;                c-3.29-1.47-6.88-1.18-9.21,1.84c-1.99,2.58-2.2,7.11,0.56,9.38c12.81,10.52,25.8,21.11,36.36,33.98&#10;                c3.17-3.17,6.35-6.35,9.52-9.52c-11.87-9.93-23.83-19.84-37.3-27.55c-6.61-3.78-14.53,5.61-8.39,10.88&#10;                c6.39,5.48,12.24,11.43,17.61,17.91c1.66-4,3.32-8,4.97-12c-3.23-0.03-7.88-6.9-9.92-9.03c-3.71-3.86-7.34-7.79-11-11.7&#10;                c-6.55-6.99-16.37,3.25-10.38,10.38c7.99,9.5,16.13,18.86,24.28,28.22c6.37,7.32,16.86-3.32,10.62-10.62&#10;                c-8.03-9.38-15.76-18.99-23.1-28.92c-1.69-2.29-3.38-4.59-5.03-6.91c0.16,0.22-2.09-3.62-1.8-1.93c0.26,1.5,0.54-1.25,0.73-1.84&#10;                c1.69-5.19,1.67-9.1-1.86-13.5c-1.75,4.23-3.51,8.47-5.26,12.7c4.61-0.48,8.39,0.16,12.38,2.55c1.98-4.7,3.96-9.4,5.94-14.1&#10;                c-5.58-2.17-10.95-4.75-16.24-7.56c-1.34,4.96-2.69,9.92-4.03,14.88c7.62-0.66,16.48,3.62,23.23,6.91&#10;                c6.91,3.37,13.56,7.45,19.62,12.18c12.48,9.76,21.65,22.18,30.28,35.3c4.24,6.45,16.23,2.52,13.21-5.57&#10;                c-6.56-17.61-19.47-32.14-34.25-43.45c-7.02-5.37-14.58-9.94-22.66-13.54c-8.8-3.92-19.61-8.8-29.43-7.8&#10;                c-7.17,0.73-11.75,10.92-4.03,14.88c6.53,3.35,13.28,6.2,20.2,8.64c8.3,2.93,13.49-9.89,5.94-14.1&#10;                c-7.06-3.94-14.21-4.94-22.14-3.85c-6.14,0.84-6.34,8.7-3.28,12.44c-2.82-3.45-0.41-4.24-1.75-1.58&#10;                c-0.46,0.92-0.75,2.03-0.99,3.04c-0.58,2.49-0.57,5.02,0.23,7.46c1.75,5.32,6.49,10.13,9.79,14.56&#10;                c7.56,10.16,15.46,20.07,23.68,29.71c3.54-3.54,7.08-7.08,10.62-10.62c-8.12-9.38-16.24-18.75-24.52-27.98&#10;                c-3.46,3.46-6.92,6.92-10.38,10.38c5.12,5.12,10.22,10.25,15.28,15.44c4.56,4.68,9.1,8.97,16.03,8.98&#10;                c6.49,0.01,8.76-7.51,4.97-12c-5.42-6.43-11.33-12.34-17.76-17.76c-2.8,3.63-5.59,7.25-8.39,10.88&#10;                c12.54,7.04,23.69,16.01,34.76,25.12c6.7,5.51,15.11-2.82,9.52-9.52c-10.7-12.82-23.1-23.76-35.78-34.56&#10;                c-2.88,3.74-5.77,7.48-8.65,11.21c18.9,8.87,36.35,19.89,52.37,33.26c3.24-4.2,6.48-8.4,9.73-12.61&#10;                c-21.97-16.97-43.91-34-66.05-50.75c-2.29,5.44-4.59,10.88-6.88,16.32c29.67,6.53,53.44,24.04,73.26,46.56&#10;                C148.42,370.14,157.3,362.61,153.78,356.1L153.78,356.1z"/>
            </g>
          </g>
          <g>
            <g>
              <path class="st0002" d="M380.1,324.8c-11.79-16.67-35.54-22.63-54.79-18.64c-19.17,3.98-38.13,19.61-42.68,39.12&#10;                c-0.75,3.22,3.99,5.59,5.58,2.35c8-16.39,20.01-29.75,38.34-34.23c18.88-4.61,36.09,2.85,50.99,13.96&#10;                C379.03,328.47,381.15,326.29,380.1,324.8L380.1,324.8z"/>
            </g>
          </g>
          <g>
            <g>
              <path class="st0002" d="M158.91,361.91c-1.88-10.37-8.4-20.53-14.64-28.81c-6.36-8.43-13.78-15.97-22.1-22.47&#10;                c-16.81-13.12-37.36-22.33-58.79-23.57c-2.45-0.14-3.05,3.9-0.59,4.33c20.35,3.57,39.55,10.94,56,23.62&#10;                c8.16,6.29,15.55,13.7,21.73,21.95c6.17,8.24,10.26,17.43,15.62,26.11C157.08,364.6,159.21,363.57,158.91,361.91L158.91,361.91z&#10;                "/>
            </g>
          </g>
          <g>
            <g>
              <path class="st0002" d="M76.91,264.35c1.35-12.79-9.81-31.44-21.38-36.83c-2.1-0.98-4.36,1.52-2.58,3.34&#10;                c5.14,5.25,10.49,9.08,14.55,15.45c3.71,5.82,5.22,12.22,7.93,18.44C75.78,265.55,76.84,265.03,76.91,264.35L76.91,264.35z"/>
            </g>
          </g>
          <g>
            <g>
              <path class="st0002" d="M149.68,346.35c10.36-1.47,20.09-2.24,29.78,2.68c8.03,4.08,14.02,10.67,18.41,18.45&#10;                c1.4,2.48,5.87,0.78,4.73-2c-7.95-19.5-34.33-32.98-54.11-21.94C146.85,344.46,148.07,346.58,149.68,346.35L149.68,346.35z"/>
            </g>
          </g>
          <g>
            <g>
              <path class="st0002" d="M421.48,256.96c-33.33-6.9-55.37,29.4-52.89,58.73c0.34,4.02,6.08,4.1,6.31,0&#10;                c0.76-13.83,3.28-27.99,12.12-39.13c8.07-10.17,21-16.49,34.01-16.28C422.9,260.32,423.38,257.36,421.48,256.96L421.48,256.96z"/>
            </g>
          </g>
        </g>
      </g>
      </svg>