<svg width="448" height="354" viewBox="0 0 448 354" fill="none" xmlns="http://www.w3.org/2000/svg">
<path d="M233.854 353.12C225.284 353.12 217.084 351.53 209.474 348.38C200.234 344.56 191.694 338.73 182.894 330.2C171.984 340.41 156.914 346.25 140.554 346.25C129.084 346.25 117.854 343.35 108.084 337.86C100.834 333.79 94.3036 328.52 88.6236 322.19C65.1336 308.68 50.0436 283.24 47.2836 253.05C42.0036 250.12 37.2136 246.25 33.1836 241.61C32.5036 240.82 31.8336 240 31.1636 239.13C24.8136 236.08 19.0536 231.7 14.3636 226.3C1.24358 211.21 -3.31642 188.31 2.46358 166.55C7.87358 146.2 22.2936 128.59 41.0336 119.42C50.3236 114.88 60.3336 112.57 70.7636 112.57C72.7036 112.57 74.6636 112.65 76.6236 112.81C76.0536 83.14 87.2536 51.54 115.994 40.04C128.104 35.2 141.844 32.63 155.744 32.63C157.434 32.63 159.134 32.67 160.824 32.75C161.414 31.23 162.054 29.76 162.734 28.36C162.914 27.79 163.084 27.23 163.274 26.66C164.144 24 165.724 21.75 167.804 20.09C169.504 17.85 171.374 15.81 173.394 14C174.024 13.29 174.674 12.62 175.334 11.98C176.814 10.56 178.554 9.51 180.424 8.86C181.194 8.39 181.984 7.94 182.794 7.51C185.784 5.21 189.084 3.33 192.604 1.91C194.284 1.23 196.044 0.879997 197.824 0.879997C198.524 0.879997 199.214 0.930001 199.894 1.04C202.184 0.540001 204.404 0.220002 206.604 0.0800018C207.474 0.0200018 208.354 0 209.214 0C217.744 0 226.164 2.68 232.914 7.55C238.274 11.41 242.784 16.8 246.134 23.31C254.884 21.07 263.994 19.9 272.974 19.9C276.734 19.9 280.434 20.11 283.974 20.53C301.304 22.58 315.894 30.34 325.454 42.51C337.004 48.34 345.834 57.47 351.114 69.06C352.924 73.04 354.374 77.29 355.444 81.77C377.804 83.18 397.694 92.42 411.014 107.69C427.554 117.06 439.134 131.66 444.564 150.08C451.114 172.28 445.864 195.33 430.524 211.72C425.054 217.57 418.624 222.34 411.754 225.73C412.084 227.39 412.354 229.05 412.594 230.69C414.004 240.11 413.634 249.62 411.494 258.97C407.474 276.48 396.594 292.65 380.844 304.49C367.874 314.25 352.894 319.41 337.544 319.41C334.154 319.41 330.734 319.15 327.384 318.64C323.144 317.99 311.824 315.85 300.924 310.27C292.774 325.81 280.204 338.55 265.504 345.71C255.564 350.56 244.614 353.12 233.854 353.12ZM205.634 45.25C205.714 45.16 205.804 45.08 205.894 44.99C205.874 44.99 205.844 45 205.824 45C205.704 45.02 205.574 45.04 205.424 45.12C205.494 45.16 205.564 45.2 205.634 45.25Z" fill="white"/>
<path d="M48.2355 171.06C42.4155 184.74 44.7855 201.55 54.1655 213.07C63.5455 224.6 79.5255 230.34 94.0955 227.42C92.1955 229.8 89.2455 231.08 86.3355 231.99C77.2455 234.82 67.0255 234.81 58.4855 230.58C49.9555 226.36 43.4855 217.55 43.3555 208.03" fill="#D3D0CD"/>
<path d="M45.614 167.899C33.164 180.999 37.484 203.979 47.214 217.309C58.534 232.819 78.574 239.919 96.354 232.309C94.464 229.299 92.564 226.299 90.674 223.289C83.954 229.979 71.164 229.719 62.994 226.039C54.994 222.429 50.954 215.279 49.454 206.979C48.244 200.269 37.554 200.329 37.194 207.469C36.534 220.609 45.594 232.039 57.514 236.789C69.254 241.469 88.044 240.919 97.514 231.589C100.644 228.499 99.574 222.449 94.604 222.089C82.484 221.239 68.614 217.429 60.424 207.919C50.924 196.879 52.554 184.819 52.314 171.469C52.274 168.399 48.364 165.009 45.614 167.899Z" fill="#D3D0CD"/>
<path d="M264.242 60.9485C280.982 56.2185 299.692 58.9585 314.372 68.2985C318.422 70.8785 322.202 73.9685 325.012 77.8485C333.112 89.0685 331.662 104.308 329.852 118.028" fill="#D3D0CD"/>
<path d="M264.133 62.0585C281.723 65.2485 298.343 64.2385 313.163 76.1385C327.593 87.7185 321.823 103.389 323.303 119.189C323.933 125.869 333.903 126.289 336.063 120.409C342.813 101.959 338.893 77.2485 322.503 65.2285C307.273 54.0685 279.503 46.9685 263.523 60.0885C262.733 60.7385 263.213 61.8885 264.133 62.0585Z" fill="#D3D0CD"/>
<path d="M292.797 262.379C306.907 274.679 322.767 287.669 341.477 287.739C325.157 291.129 307.217 285.189 296.147 272.709C302.147 276.899 308.577 280.469 315.317 283.319C306.597 278.929 296.947 273.389 294.777 263.879C304.817 270.849 315.877 276.619 327.817 279.229C339.757 281.839 352.667 281.109 363.617 275.679C380.847 267.119 391.197 246.539 387.787 227.599" fill="#D3D0CD"/>
<path d="M288.096 264.559C291.666 273.889 303.426 282.149 311.776 286.979C321.606 292.669 331.386 295.889 342.806 295.329C341.916 290.279 341.026 285.229 340.146 280.179C325.236 284.239 310.516 278.039 299.466 268.119C297.256 271.189 295.046 274.259 292.836 277.339C299.396 281.649 306.116 285.459 313.306 288.629C320.096 291.619 323.676 281.289 317.336 278.049C310.786 274.689 302.656 270.549 300.516 262.889C297.466 264.799 294.426 266.709 291.376 268.619C312.736 284.419 342.196 295.469 367.096 280.569C385.706 269.439 395.396 248.199 388.516 227.269C388.266 226.509 386.986 226.759 386.976 227.529C386.686 244.899 376.646 264.209 359.866 270.699C338.926 278.789 316.146 270.359 298.176 259.169C294.386 256.809 287.436 259.599 289.036 264.899C292.706 277.019 302.526 283.139 313.296 288.619C314.636 285.089 315.986 281.569 317.326 278.039C311.026 275.279 305.086 272.079 299.456 268.109C294.146 264.369 287.776 271.249 291.766 276.329C304.256 292.239 323.446 297.079 342.806 295.319C351.696 294.509 350.526 281.119 342.206 280.089C332.316 278.859 324.026 275.439 315.616 270.149C308.436 265.629 301.646 259.169 293.286 257.239C289.126 256.269 286.876 261.359 288.096 264.559Z" fill="#D3D0CD"/>
<path d="M293.445 284.119C309.695 297.269 331.915 304.769 351.895 298.649C361.105 295.829 369.315 290.319 376.275 283.659C380.105 279.999 383.595 275.959 386.465 271.509C396.745 255.509 397.995 234.119 389.665 217.029" fill="#D0CFCD"/>
<path d="M290.865 285.309C296.765 298.059 316.385 304.819 329.215 306.779C345.125 309.219 360.885 304.509 373.645 294.909C386.345 285.349 396.225 271.889 399.805 256.289C401.595 248.499 401.925 240.389 400.735 232.479C399.735 225.839 398.155 217.249 392.445 213.159C389.515 211.059 385.235 212.969 384.915 216.579C384.365 222.719 387.805 228.479 388.515 234.629C389.225 240.859 388.815 247.279 387.245 253.359C383.935 266.229 375.425 276.509 364.875 284.299C353.985 292.339 341.365 295.559 327.975 293.579C321.955 292.689 315.925 290.779 310.305 288.449C304.765 286.149 299.615 282.459 293.715 281.299C291.535 280.859 290.025 283.509 290.865 285.309Z" fill="#D0CFCD"/>
<path d="M381.585 220.799C381.685 219.549 381.795 218.299 381.895 217.049C387.785 226.279 387.245 238.179 385.145 248.929C383.675 256.459 381.405 264.119 376.375 269.909C372.745 274.079 367.905 277.009 362.925 279.419C352.325 284.539 340.715 287.579 328.965 288.299" fill="#D0CFCD"/>
<path d="M381.645 220.809C382.225 217.799 382.325 221.019 382.645 222.569C383.005 224.349 383.145 226.069 383.245 227.889C383.455 231.679 383.285 235.439 382.725 239.189C381.475 247.469 379.515 257.039 374.765 264.079C370.095 271.009 362.115 274.609 354.485 277.379C345.805 280.529 336.695 280.539 328.055 283.179C322.605 284.849 322.275 292.619 328.465 293.529C338.685 295.019 350.885 290.449 360.165 286.419C369.165 282.509 378.035 277.209 383.225 268.629C391.475 254.989 395.035 228.909 382.375 216.699C381.935 216.279 381.225 216.549 381.295 217.199C381.375 218.409 381.455 219.619 381.535 220.829C381.545 220.859 381.625 220.869 381.645 220.809Z" fill="#D0CFCD"/>
<path d="M84.2036 238.669C82.2436 257.609 83.7736 277.399 92.2136 294.469C100.654 311.539 116.814 325.469 135.704 327.859C154.594 330.249 175.284 319.009 180.664 300.749C191.694 314.319 204.274 327.979 221.034 332.959C241.594 339.069 264.974 329.859 278.284 313.029C291.594 296.199 295.444 273.109 291.434 252.029" fill="#D0CFCD"/>
<path d="M79.8648 238.259C72.4548 270.929 83.4948 310.279 113.965 327.409C139.835 341.949 176.775 333.189 186.315 302.899C182.875 303.469 179.425 304.029 175.985 304.599C186.685 317.529 198.175 330.729 214.065 337.299C228.885 343.429 245.995 341.879 260.255 334.929C289.435 320.719 307.025 281.209 294.885 250.419C293.525 246.969 287.755 247.919 287.645 251.659C287.225 265.759 288.025 279.719 282.855 293.169C277.725 306.519 268.115 317.669 255.095 323.769C226.505 337.159 202.815 318.439 185.335 296.869C182.525 293.399 176.505 294.259 175.005 298.569C166.305 323.609 135.295 326.899 115.905 312.579C92.2348 295.109 89.5148 266.169 88.5648 239.069C88.3448 233.449 81.1148 232.739 79.8648 238.259Z" fill="#D0CFCD"/>
<path d="M223.305 101.159C225.375 85.7786 235.525 72.1386 248.685 63.9286C261.845 55.7186 277.725 52.5586 293.245 52.9386C303.345 53.1886 313.765 55.0086 322.085 60.7486C340.175 73.2386 342.235 99.3886 337.685 120.909C358.375 111.859 383.545 111.859 402.755 123.729C421.965 135.599 433.435 160.109 427.395 181.869C421.355 203.629 396.365 219.059 374.855 212.169" fill="#D0CFCD"/>
<path d="M226.815 102.499C237.235 70.7885 266.555 55.6985 299.035 59.0385C313.665 60.5385 325.635 67.6485 330.755 81.8285C335.195 94.0985 334.285 107.779 331.755 120.349C330.815 125.039 336.405 127.889 340.185 126.319C369.695 114.019 406.905 121.909 419.425 153.949C424.565 167.109 423.565 182.499 414.375 193.619C404.865 205.129 389.715 209.329 375.245 208.129C370.415 207.729 369.505 213.959 373.415 215.959C390.135 224.509 409.645 216.479 421.775 203.519C434.495 189.929 438.305 171.209 433.065 153.469C420.665 111.429 372.245 99.9585 335.175 115.509C337.985 117.499 340.795 119.489 343.605 121.479C346.695 105.929 346.895 88.7485 340.195 74.0385C332.985 58.2085 318.265 49.7585 301.375 47.7585C268.225 43.8385 219.795 60.9485 219.555 100.809C219.545 104.769 225.395 106.799 226.815 102.499Z" fill="#D0CFCD"/>
<path d="M83.875 246.529C86.805 261.499 91.235 276.449 99.625 289.189C108.015 301.929 120.815 312.329 135.795 315.209C152.315 318.379 170.365 311.519 180.605 298.169" fill="#D0CFCD"/>
<path d="M81.1741 245.499C79.1241 251.449 81.0441 258.559 82.4141 264.559C84.1141 271.989 86.3341 279.579 89.7241 286.429C95.9141 298.949 105.374 310.049 117.614 316.959C129.174 323.479 142.354 325.809 155.364 322.729C166.414 320.109 183.274 312.509 186.394 300.379C187.654 295.499 183.284 289.959 178.004 292.559C173.344 294.849 170.144 298.889 165.774 301.649C161.744 304.189 157.244 306.029 152.594 307.009C141.974 309.259 130.884 306.759 121.874 300.809C112.304 294.499 105.454 285.729 99.9541 275.779C97.1341 270.679 94.8041 265.369 92.7441 259.919C90.8241 254.859 89.7441 248.759 86.1041 244.689C84.7041 243.119 81.9041 243.359 81.1741 245.499Z" fill="#D0CFCD"/>
<path d="M228.365 82.3789C204.625 65.6689 172.845 61.0089 145.295 70.1789C139.505 72.1089 133.805 74.6689 129.265 78.7489C123.275 84.1189 119.745 91.7189 117.395 99.4089C112.165 116.449 112.025 135.019 116.995 152.139C102.205 143.309 82.8949 142.909 67.4649 150.569C52.0349 158.229 40.7949 173.529 37.4749 190.429C34.7649 204.209 37.4549 219.489 46.7149 230.039C55.9749 240.589 72.3149 245.149 84.8649 238.839" fill="#D0CFCD"/>
<path d="M230.943 80.2485C207.743 58.0885 168.063 54.9785 139.273 66.4985C106.943 79.4285 102.293 125.319 111.743 154.569C114.183 151.949 116.623 149.338 119.053 146.718C101.713 138.858 82.7431 136.889 65.1231 145.509C49.4331 153.179 37.3531 168.088 32.8731 184.938C28.5031 201.398 30.7431 220.529 42.2231 233.739C53.2731 246.449 71.7931 251.739 86.6431 242.699C90.3431 240.449 89.1531 233.069 84.1131 234.639C71.9831 238.409 57.6431 234.699 49.6931 224.549C40.9931 213.439 40.4731 197.459 45.0531 184.569C54.3631 158.329 88.0331 139.419 113.603 156.839C117.583 159.549 123.833 156.248 122.693 151.138C119.143 135.288 117.523 120.039 121.773 104.089C125.753 89.1685 133.553 79.5285 148.693 74.8985C161.213 71.0685 174.793 70.1985 187.743 71.8985C202.003 73.7685 214.293 79.5585 227.163 85.5185C230.093 86.8585 233.373 82.5585 230.943 80.2485Z" fill="#D0CFCD"/>
<path d="M384.553 109.399C366.573 95.0994 341.793 93.0494 319.963 97.2994C318.973 97.4894 317.953 97.6994 316.933 97.9094C317.783 93.7394 318.273 89.5693 318.383 85.4993C318.783 70.0993 312.803 55.4493 299.543 46.9393C287.853 39.4293 273.503 38.8594 260.353 42.3394C242.273 47.1094 222.533 55.7094 212.213 71.1294C205.843 66.3294 198.613 62.5194 190.973 59.2994C173.353 51.8994 153.203 48.1794 134.743 54.5394C100.103 66.4794 94.1835 102.329 98.5235 134.319C98.5035 134.559 98.5035 134.799 98.4935 135.039C88.3135 130.239 76.9935 127.929 64.9335 129.049C37.0635 131.649 14.0535 157.879 18.9135 186.329C21.3935 200.839 30.9935 212.469 44.0935 218.729C51.9435 222.479 60.0435 223.779 68.2135 223.329C68.1135 224.709 68.1235 226.109 68.2635 227.519C69.5535 240.599 74.0735 253.389 79.6235 265.239C85.2935 277.349 92.1535 290.149 103.843 297.339C121.303 308.069 142.253 302.709 154.463 286.769C156.503 284.099 158.223 281.179 159.743 278.139C160.723 278.849 161.723 279.449 162.713 279.969C168.913 284.269 175.123 288.569 181.423 292.729C190.903 298.989 201.303 308.139 212.473 310.739C226.163 313.929 236.173 309.349 244.483 301.639C248.663 300.129 252.333 297.259 255.193 293.529C255.283 293.619 255.383 293.709 255.473 293.789C262.363 285.749 267.063 276.379 270.653 266.459C271.203 264.929 271.593 263.429 271.833 261.959C289.223 273.479 309.093 279.769 330.893 272.919C347.223 267.789 361.383 256.269 367.433 239.849C370.683 231.019 371.253 221.189 369.613 211.979C369.143 209.349 368.433 206.739 367.613 204.159C370.513 202.979 373.363 201.689 376.093 200.129C387.433 193.679 395.693 184.089 401.263 172.389C411.723 150.399 403.063 124.119 384.553 109.399Z" fill="white"/>
<path d="M167.834 125.749H167.824C167.864 125.749 167.914 125.739 167.954 125.729C167.904 125.739 167.864 125.739 167.834 125.749Z" fill="white"/>
<path d="M183.906 294.599C188.706 297.859 192.956 301.849 197.606 305.329C208.166 313.229 220.886 318.379 234.036 319.269C247.186 320.149 269.976 319.549 278.276 303.449" fill="#D0CFCD"/>
<path d="M180.886 297.079C194.736 316.379 216.936 327.469 240.576 327.139C249.356 327.019 258.216 325.919 266.126 321.839C272.756 318.419 280.806 311.759 280.986 303.699C281.046 301.159 278.526 300.059 276.516 301.329C269.996 305.449 265.636 309.279 257.706 310.749C251.226 311.949 244.396 312.119 237.826 311.739C228.576 311.199 219.866 309.219 211.446 305.329C202.506 301.199 194.716 293.789 185.286 290.949C181.506 289.799 178.566 293.849 180.886 297.079Z" fill="#D0CFCD"/>
<path d="M274.926 314.209C265.366 320.209 254.256 321.189 243.106 322.939C234.676 324.269 224.836 324.679 218.926 318.529" fill="#D0CFCD"/>
<path d="M274.264 312.789C264.944 315.849 254.424 316.189 244.714 317.109C240.464 317.509 236.084 318.159 231.814 317.539C227.334 316.879 223.864 313.959 219.374 313.749C216.244 313.599 213.644 316.179 214.174 319.379C216.104 331.239 232.804 330.479 241.774 328.999C254.404 326.909 266.284 324.179 275.924 315.439C277.314 314.169 275.924 312.239 274.264 312.789Z" fill="#D0CFCD"/>
<path d="M62.3538 230.189C60.3038 236.139 62.2238 243.249 63.5938 249.249C65.2938 256.679 67.5138 264.269 70.9038 271.119C77.0938 283.639 86.5538 294.739 98.7938 301.649C110.354 308.169 123.534 310.499 136.544 307.419C147.594 304.799 164.454 297.199 167.574 285.069C168.834 280.189 164.464 274.649 159.184 277.249C154.524 279.539 151.324 283.579 146.954 286.339C142.924 288.879 138.424 290.719 133.774 291.699C123.154 293.949 112.064 291.449 103.054 285.499C93.4838 279.189 86.6338 270.419 81.1338 260.469C78.3138 255.369 75.9838 250.059 73.9238 244.609C72.0038 239.549 70.9238 233.449 67.2838 229.379C65.8938 227.809 63.0938 228.049 62.3538 230.189Z" fill="#D0CFCD"/>
<path d="M162.074 281.779C175.924 301.079 198.124 312.169 221.764 311.839C230.544 311.719 239.404 310.619 247.314 306.539C253.944 303.119 261.994 296.459 262.174 288.399C262.234 285.859 259.714 284.759 257.704 286.029C251.184 290.149 246.824 293.979 238.894 295.449C232.414 296.649 225.584 296.819 219.014 296.439C209.764 295.899 201.054 293.919 192.634 290.029C183.694 285.899 175.904 278.489 166.474 275.649C162.684 274.499 159.754 278.539 162.074 281.779Z" fill="#D0CFCD"/>
<path d="M255.456 297.479C246.136 300.539 235.616 300.879 225.906 301.799C221.656 302.199 217.276 302.849 213.006 302.229C208.526 301.569 205.056 298.649 200.566 298.439C197.436 298.289 194.836 300.869 195.366 304.069C197.296 315.929 213.996 315.169 222.966 313.689C235.596 311.599 247.476 308.869 257.116 300.129C258.506 298.859 257.106 296.929 255.456 297.479Z" fill="#D3D0CD"/>
<path d="M369.203 209.489C369.783 206.479 369.883 209.699 370.203 211.249C370.563 213.029 370.703 214.749 370.803 216.569C371.013 220.359 370.843 224.119 370.283 227.869C369.033 236.149 367.073 245.719 362.323 252.759C357.653 259.689 349.673 263.289 342.043 266.059C333.363 269.209 324.253 269.219 315.613 271.859C310.163 273.529 309.833 281.299 316.023 282.209C326.243 283.699 338.443 279.129 347.723 275.099C356.723 271.189 365.593 265.889 370.783 257.309C379.033 243.669 382.593 217.589 369.933 205.379C369.493 204.959 368.783 205.229 368.853 205.879C368.933 207.089 369.013 208.299 369.093 209.509C369.103 209.539 369.193 209.549 369.203 209.489Z" fill="#D0CFCD"/>
<path d="M245.315 46.749C262.905 49.939 279.525 48.929 294.345 60.829C308.775 72.409 303.005 88.079 304.485 103.879C305.115 110.559 315.085 110.979 317.245 105.099C323.995 86.649 320.075 61.939 303.685 49.919C288.455 38.759 260.685 31.659 244.705 44.779C243.915 45.429 244.405 46.579 245.315 46.749Z" fill="#D0CFCD"/>
<path d="M206.074 75.7086C204.934 66.8786 191.404 60.5886 184.094 57.4786C173.254 52.8786 161.454 50.5486 149.684 50.5586C138.944 50.5686 127.734 52.2186 118.004 57.0086C110.254 60.8286 100.554 68.4186 100.814 77.9486C100.894 81.0286 103.884 84.3286 107.204 82.4686C114.024 78.6586 119.074 73.0886 126.494 69.9986C134.804 66.5486 144.454 65.4186 153.394 65.5386C163.094 65.6686 172.654 67.5586 181.824 70.6386C188.504 72.8886 197.434 79.0786 204.504 77.9286C205.574 77.7686 206.204 76.7286 206.074 75.7086Z" fill="#D0CFCD"/>
<path d="M205.904 68.2892C206.764 61.5692 196.984 58.3292 192.474 55.8992C185.734 52.2592 178.234 47.2592 170.384 47.0892C166.124 46.9992 163.444 51.5992 166.124 55.1192C170.134 60.3892 204.164 81.8392 205.904 68.2892Z" fill="#D3D0CD"/>
<path d="M26.8054 152.589C14.3554 165.689 18.6754 188.669 28.4054 201.999C39.7254 217.509 59.7654 224.609 77.5454 216.999C75.6554 213.989 73.7554 210.989 71.8654 207.979C65.1454 214.669 52.3554 214.409 44.1854 210.729C36.1854 207.119 32.1454 199.969 30.6454 191.669C29.4354 184.959 18.7454 185.019 18.3854 192.159C17.7254 205.299 26.7854 216.729 38.7054 221.479C50.4454 226.159 69.2354 225.609 78.7054 216.279C81.8354 213.189 80.7654 207.139 75.7954 206.779C63.6754 205.929 49.8054 202.119 41.6154 192.609C32.1154 181.569 33.7454 169.509 33.5054 156.159C33.4554 153.089 29.5454 149.699 26.8054 152.589Z" fill="#D0CFCD"/>
<path d="M212.134 64.9389C188.934 42.7789 149.254 39.6689 120.464 51.1889C88.1345 64.1189 83.4845 110.009 92.9345 139.259C95.3745 136.639 97.8145 134.029 100.244 131.409C82.9045 123.549 63.9345 121.579 46.3145 130.199C30.6245 137.869 18.5445 152.779 14.0645 169.629C9.6945 186.089 11.9345 205.219 23.4145 218.429C34.4645 231.139 52.9845 236.429 67.8345 227.389C71.5345 225.139 70.3445 217.759 65.3045 219.329C53.1745 223.099 38.8345 219.389 30.8845 209.239C22.1845 198.129 21.6645 182.149 26.2445 169.259C35.5545 143.019 69.2245 124.109 94.7945 141.529C98.7745 144.239 105.024 140.939 103.884 135.829C100.334 119.979 98.7145 104.729 102.964 88.7789C106.944 73.8589 114.744 64.2189 129.884 59.5889C142.404 55.7589 155.984 54.8889 168.934 56.5889C183.194 58.4589 195.484 64.2489 208.354 70.2089C211.284 71.5589 214.554 67.2489 212.134 64.9389Z" fill="#39404A"/>
<path d="M61.0445 222.949C53.6345 255.619 64.6745 294.969 95.1445 312.099C121.014 326.639 157.954 317.879 167.494 287.589C164.054 288.159 160.604 288.719 157.164 289.289C167.864 302.219 179.354 315.419 195.244 321.989C210.064 328.119 227.174 326.569 241.434 319.619C270.614 305.409 288.204 265.899 276.064 235.109C274.704 231.659 268.934 232.609 268.824 236.349C268.404 250.449 269.204 264.409 264.034 277.859C258.904 291.209 249.294 302.359 236.274 308.459C207.684 321.849 183.994 303.129 166.514 281.559C163.704 278.089 157.684 278.949 156.184 283.259C147.484 308.299 116.474 311.589 97.0845 297.269C73.4145 279.799 70.6945 250.859 69.7445 223.759C69.5345 218.139 62.2945 217.429 61.0445 222.949Z" fill="#39404A"/>
<path d="M207.994 87.189C218.414 55.479 247.734 40.389 280.214 43.729C294.844 45.229 306.814 52.339 311.934 66.519C316.374 78.789 315.464 92.469 312.934 105.039C311.994 109.729 317.584 112.579 321.364 111.009C350.874 98.709 388.084 106.599 400.604 138.639C405.744 151.799 404.744 167.189 395.554 178.309C386.044 189.819 370.894 194.019 356.424 192.819C351.594 192.419 350.684 198.649 354.594 200.649C371.314 209.199 390.824 201.169 402.954 188.209C415.674 174.619 419.484 155.899 414.244 138.159C401.844 96.119 353.424 84.649 316.354 100.199C319.164 102.189 321.974 104.179 324.784 106.169C327.874 90.619 328.074 73.439 321.374 58.729C314.164 42.899 299.444 34.449 282.554 32.449C249.404 28.529 200.974 45.639 200.734 85.499C200.724 89.459 206.584 91.489 207.994 87.189Z" fill="#39404A"/>
<path d="M272.045 269.999C277.945 282.749 297.565 289.509 310.395 291.469C326.305 293.909 342.065 289.199 354.825 279.599C367.525 270.039 377.405 256.579 380.985 240.979C382.775 233.189 383.105 225.079 381.915 217.159C380.915 210.519 379.335 201.929 373.625 197.839C370.695 195.739 366.415 197.649 366.095 201.259C365.545 207.399 368.985 213.159 369.695 219.309C370.405 225.539 369.995 231.959 368.425 238.039C365.115 250.909 356.605 261.189 346.055 268.979C335.165 277.019 322.545 280.239 309.155 278.259C303.135 277.369 297.105 275.459 291.485 273.129C285.945 270.829 280.795 267.139 274.895 265.979C272.715 265.549 271.215 268.199 272.045 269.999Z" fill="#39404A"/>
<path d="M156.969 122.84C159.309 157.2 161.829 190.99 168.349 224.81C168.349 224.81 199.069 237.97 228.429 235.72C257.789 233.47 277.519 210.13 277.519 210.13C275.859 176.03 274.419 141.91 273.209 107.79" fill="#D0CFCD"/>
<path d="M153.997 122.52C154.317 136.28 155.277 150.06 156.387 163.78C157.477 177.25 158.817 190.71 160.767 204.09C161.747 210.77 162.847 217.43 164.097 224.06C164.477 226.06 164.887 227.66 166.897 228.58C167.047 228.65 167.207 228.71 167.357 228.77C168.087 229.07 168.827 229.36 169.567 229.64C177.387 232.64 185.477 234.97 193.647 236.79C205.357 239.4 217.467 240.68 229.457 239.64C239.437 238.78 249.207 235.43 257.907 230.52C264.297 226.91 270.287 222.58 275.627 217.54C277.157 216.1 278.637 214.59 280.047 213.03C280.227 212.83 280.437 212.62 280.597 212.4C281.767 210.83 281.237 208.42 281.147 206.57C281.057 204.78 280.967 202.98 280.867 201.19C279.447 173.29 278.277 145.39 277.227 117.47C277.097 114.01 276.897 110.69 276.227 107.29C275.557 103.92 270.597 103.98 270.157 107.47C269.317 114.24 270.007 121.18 270.267 127.99C270.517 134.68 270.777 141.38 271.047 148.07C271.587 161.46 272.177 174.84 272.747 188.23C273.067 195.74 273.397 203.25 273.737 210.76C273.967 209.8 274.197 208.83 274.427 207.87C274.267 208.06 274.107 208.24 273.937 208.42C273.747 208.63 273.547 208.84 273.347 209.05C272.777 209.67 273.927 208.46 273.587 208.8C273.417 208.97 273.247 209.15 273.077 209.32C271.347 211.08 269.527 212.75 267.637 214.34C264.927 216.63 262.087 218.76 259.117 220.71C258.717 220.97 258.317 221.23 257.917 221.49C257.667 221.65 257.427 221.8 257.177 221.95C257.907 221.5 257.427 221.79 257.277 221.89C256.327 222.45 255.367 223.02 254.397 223.55C252.407 224.65 250.357 225.66 248.277 226.58C246.077 227.55 243.827 228.41 241.537 229.15C241.317 229.22 241.097 229.29 240.877 229.36C239.777 229.71 241.647 229.15 240.537 229.46C239.977 229.62 239.417 229.78 238.847 229.92C237.587 230.25 236.317 230.54 235.037 230.79C232.487 231.29 229.907 231.62 227.317 231.8C226.597 231.85 225.877 231.89 225.157 231.92C225.187 231.92 223.767 231.97 224.507 231.95C224.217 231.96 223.927 231.96 223.647 231.97C222.067 231.99 220.487 231.98 218.897 231.93C212.957 231.74 207.047 231.03 201.197 230.02C198.457 229.55 195.727 228.99 193.017 228.37C192.417 228.23 191.817 228.09 191.227 227.95C191.387 227.99 192.017 228.15 191.237 227.95C190.887 227.86 190.547 227.78 190.197 227.69C188.977 227.38 187.767 227.06 186.557 226.72C180.897 225.14 175.217 223.37 169.797 221.07C170.637 222.1 171.467 223.14 172.307 224.17C167.227 197.96 164.567 171.43 162.017 144.88C161.297 137.38 160.737 129.86 159.887 122.37C159.717 120.91 158.257 119.83 156.847 119.9C155.557 119.93 153.957 121.02 153.997 122.52Z" fill="#D0CFCD"/>
<path d="M158.244 123.999C166.784 124.639 175.314 125.269 183.854 125.909C190.334 126.389 196.824 126.879 203.324 126.829C209.664 126.779 215.994 126.219 222.314 125.649C231.174 124.859 240.084 124.069 248.694 121.839C257.304 119.619 265.694 115.879 272.234 109.859C272.564 109.549 272.914 109.219 273.034 108.779C273.324 107.779 272.374 106.879 271.504 106.319C266.434 103.059 260.324 101.889 254.344 101.079C226.834 97.3491 198.494 99.9291 172.114 108.569C165.794 110.639 158.734 113.959 157.184 120.429" fill="#D0CFCD"/>
<path d="M158.035 125.999C162.425 127.049 166.975 127.469 171.475 127.889C175.895 128.299 180.315 128.77 184.745 129.13C193.795 129.87 202.845 130.19 211.915 129.63C220.675 129.09 229.505 128.359 238.185 127.049C246.185 125.839 254.195 123.91 261.535 120.4C265.025 118.73 268.375 116.71 271.375 114.27C272.775 113.14 274.695 111.8 275.425 110.1C276.385 107.87 275.195 105.709 273.425 104.329C270.245 101.859 266.085 100.51 262.235 99.5595C258.195 98.5695 254.075 97.9795 249.945 97.4795C233.115 95.4695 215.955 95.7095 199.225 98.4495C190.895 99.8195 182.655 101.76 174.565 104.2C167.935 106.2 160.355 108.519 156.155 114.469C155.155 115.889 154.365 117.49 153.955 119.18C153.505 120.99 154.005 122.91 155.905 123.66C157.485 124.28 159.895 123.52 160.385 121.71C160.575 121 160.825 120.33 161.125 119.66C161.285 119.3 161.105 119.659 161.075 119.719C161.155 119.579 161.245 119.439 161.335 119.299C161.545 118.979 161.755 118.659 161.995 118.359C162.115 118.199 162.685 117.539 162.545 117.689C162.385 117.859 162.945 117.31 163.065 117.2C163.605 116.7 164.175 116.24 164.775 115.81C165.105 115.57 165.435 115.35 165.775 115.13C166.115 114.92 165.825 115.099 165.755 115.139C165.905 115.049 166.055 114.96 166.215 114.88C166.935 114.47 167.675 114.099 168.425 113.749C169.815 113.099 171.255 112.55 172.705 112.04C179.955 109.52 187.445 107.65 194.985 106.2C210.295 103.26 226.045 102.07 241.615 102.96C245.605 103.19 249.595 103.539 253.555 104.029C257.155 104.469 260.785 104.97 264.255 106.09C265.925 106.63 267.575 107.28 269.115 108.12C269.465 108.31 269.795 108.589 270.155 108.749C270.625 108.959 270.465 109.3 270.495 108.37C270.525 107.5 270.525 107.75 270.045 108.16C269.685 108.47 269.325 108.77 268.955 109.06C266.255 111.22 263.295 113.03 260.195 114.54C253.525 117.8 246.325 119.59 239.005 120.71C230.955 121.94 222.775 122.55 214.665 123.18C206.335 123.83 198.085 123.779 189.755 123.219C181.285 122.649 172.785 122.03 164.295 121.88C162.145 121.84 160.045 121.86 157.895 122.04C156.915 122.13 156.195 123.159 156.235 124.079C156.305 125.139 157.025 125.759 158.035 125.999Z" fill="#D0CFCD"/>
<path d="M166.256 127.379C167.626 140.559 169.836 153.669 172.056 166.729C174.256 179.639 176.446 192.549 178.716 205.439C180.026 212.849 181.336 220.269 182.646 227.679C184.896 226.669 187.146 225.659 189.386 224.649C184.906 218.209 181.226 211.219 178.476 203.629C177.116 199.879 170.876 201.739 171.746 205.659C173.096 211.699 174.716 217.639 176.696 223.499C176.826 222.299 176.946 221.099 177.076 219.889C177.146 219.809 177.596 219.359 177.116 219.799C177.136 219.779 177.686 219.479 177.326 219.639C176.966 219.809 177.566 219.569 177.606 219.569C177.456 219.569 177.236 219.619 177.076 219.639C177.176 219.619 177.666 219.469 177.366 219.599C177.266 219.639 176.626 219.459 177.156 219.589C177.616 219.699 176.706 219.369 176.546 219.329C177.206 219.529 176.516 219.289 176.246 219.099C176.146 219.029 175.726 218.589 176.036 218.929C176.326 219.249 176.026 218.869 175.976 218.819C175.816 218.659 175.706 218.279 175.986 218.889C175.916 218.739 175.836 218.599 175.776 218.449C175.536 217.809 175.616 218.139 175.496 217.469C175.416 217.019 175.356 216.559 175.346 216.099C175.356 216.529 175.386 215.429 175.396 215.269C175.446 214.319 175.556 213.379 175.656 212.429C175.876 210.399 175.976 208.359 175.936 206.319C175.796 198.019 173.966 189.899 173.456 181.629C173.226 177.889 173.516 172.839 174.606 169.229C172.366 169.279 170.126 169.339 167.886 169.389C169.746 175.379 170.566 181.829 171.436 188.079C172.376 194.879 173.326 201.679 174.266 208.479C176.566 207.779 178.876 207.089 181.176 206.389C174.616 186.579 171.046 165.729 168.716 144.939C168.396 142.049 168.096 139.159 167.816 136.259C167.676 134.739 167.536 133.209 167.396 131.689C167.326 130.929 167.256 130.169 167.206 129.399C167.176 128.969 167.386 128.779 167.206 129.349C167.096 129.719 166.926 130.239 166.576 130.459C166.006 130.719 165.436 130.969 164.876 131.229C164.706 131.239 164.526 131.239 164.356 131.249C163.766 131.019 163.166 130.789 162.576 130.559C162.066 129.759 161.976 129.669 162.306 130.279C162.426 130.539 162.546 130.799 162.656 131.059C162.876 131.579 163.086 132.119 163.276 132.659C163.586 133.549 163.806 134.379 164.046 135.469C164.506 137.579 164.786 139.729 164.986 141.879C165.416 146.629 165.666 151.399 165.836 156.159C165.996 160.689 166.066 165.459 165.996 170.129C165.966 172.169 165.896 174.219 165.546 176.229C165.276 177.799 164.606 179.609 163.636 180.939C165.946 181.829 168.246 182.729 170.556 183.619C170.476 177.629 170.406 171.629 170.326 165.639C170.306 163.719 169.206 161.719 167.056 161.589C164.976 161.459 163.336 162.819 163.006 164.859C162.376 168.869 161.646 172.859 160.956 176.859C163.396 177.119 165.826 177.379 168.266 177.629C168.616 174.069 168.586 170.469 168.366 166.909C168.246 164.989 166.036 163.689 164.286 163.979C162.186 164.319 161.296 166.139 161.356 168.059C161.446 170.899 161.246 173.949 160.956 176.849C160.766 178.759 162.226 180.769 164.226 180.889C166.316 181.019 167.916 179.659 168.266 177.619C168.946 173.619 169.586 169.609 170.326 165.629C167.886 165.369 165.446 165.109 163.006 164.849C162.976 170.829 162.936 176.819 162.906 182.799C162.896 184.449 163.626 186.199 165.326 186.789C166.966 187.349 168.766 186.889 169.836 185.489C172.746 181.659 173.486 176.829 173.566 172.139C173.646 166.969 173.486 161.779 173.266 156.609C173.046 151.509 172.736 146.409 172.246 141.329C171.786 136.609 171.046 131.819 169.066 127.469C168.436 126.079 167.576 124.789 166.096 124.199C164.336 123.509 162.216 124.149 161.086 125.649C159.446 127.839 159.996 130.569 160.196 133.099C160.596 137.979 161.056 142.859 161.596 147.729C162.676 157.459 164.116 167.159 166.006 176.769C168.176 187.799 170.996 198.699 174.556 209.359C175.126 211.059 177.346 211.819 178.916 211.319C180.656 210.769 181.726 209.109 181.466 207.269C180.476 200.309 179.496 193.349 178.506 186.389C177.546 179.619 176.546 172.919 174.556 166.359C174.146 165.009 172.396 164.189 171.126 164.249C169.776 164.309 168.266 165.139 167.836 166.529C164.176 178.349 167.486 190.279 168.466 202.229C168.696 205.059 168.766 207.279 168.526 210.209C168.296 213.059 167.756 215.979 168.316 218.829C168.936 221.999 170.706 224.529 173.616 225.969C176.076 227.189 179.166 227.149 181.426 225.519C182.206 224.959 182.956 224.199 183.306 223.299C183.806 222.029 183.356 220.849 182.926 219.639C182.356 218.039 181.816 216.429 181.326 214.799C180.306 211.399 179.416 207.949 178.726 204.469C176.486 205.149 174.246 205.829 171.996 206.499C174.726 214.609 178.566 222.359 183.426 229.409C184.376 230.789 186.516 231.149 187.966 230.489C189.496 229.799 190.456 228.049 190.166 226.379C185.696 200.419 181.436 174.389 176.366 148.539C174.916 141.149 173.446 133.739 171.646 126.429C170.826 123.069 165.886 123.829 166.256 127.379Z" fill="#D0CFCD"/>
<path d="M153.997 122.52C154.317 136.28 155.277 150.06 156.387 163.78C157.477 177.25 158.817 190.71 160.767 204.09C161.747 210.77 162.847 217.43 164.097 224.06C164.477 226.06 164.887 227.66 166.897 228.58C167.047 228.65 167.207 228.71 167.357 228.77C168.087 229.07 168.827 229.36 169.567 229.64C177.387 232.64 185.477 234.97 193.647 236.79C205.357 239.4 217.467 240.68 229.457 239.64C239.437 238.78 249.207 235.43 257.907 230.52C264.297 226.91 270.287 222.58 275.627 217.54C277.157 216.1 278.637 214.59 280.047 213.03C280.227 212.83 280.437 212.62 280.597 212.4C281.767 210.83 281.237 208.42 281.147 206.57C281.057 204.78 280.967 202.98 280.867 201.19C279.447 173.29 278.277 145.39 277.227 117.47C277.097 114.01 276.897 110.69 276.227 107.29C275.557 103.92 270.597 103.98 270.157 107.47C269.317 114.24 270.007 121.18 270.267 127.99C270.517 134.68 270.777 141.38 271.047 148.07C271.587 161.46 272.177 174.84 272.747 188.23C273.067 195.74 273.397 203.25 273.737 210.76C273.967 209.8 274.197 208.83 274.427 207.87C274.267 208.06 274.107 208.24 273.937 208.42C273.747 208.63 273.547 208.84 273.347 209.05C272.777 209.67 273.927 208.46 273.587 208.8C273.417 208.97 273.247 209.15 273.077 209.32C271.347 211.08 269.527 212.75 267.637 214.34C264.927 216.63 262.087 218.76 259.117 220.71C258.717 220.97 258.317 221.23 257.917 221.49C257.667 221.65 257.427 221.8 257.177 221.95C257.907 221.5 257.427 221.79 257.277 221.89C256.327 222.45 255.367 223.02 254.397 223.55C252.407 224.65 250.357 225.66 248.277 226.58C246.077 227.55 243.827 228.41 241.537 229.15C241.317 229.22 241.097 229.29 240.877 229.36C239.777 229.71 241.647 229.15 240.537 229.46C239.977 229.62 239.417 229.78 238.847 229.92C237.587 230.25 236.317 230.54 235.037 230.79C232.487 231.29 229.907 231.62 227.317 231.8C226.597 231.85 225.877 231.89 225.157 231.92C225.187 231.92 223.767 231.97 224.507 231.95C224.217 231.96 223.927 231.96 223.647 231.97C222.067 231.99 220.487 231.98 218.897 231.93C212.957 231.74 207.047 231.03 201.197 230.02C198.457 229.55 195.727 228.99 193.017 228.37C192.417 228.23 191.817 228.09 191.227 227.95C191.387 227.99 192.017 228.15 191.237 227.95C190.887 227.86 190.547 227.78 190.197 227.69C188.977 227.38 187.767 227.06 186.557 226.72C180.897 225.14 175.217 223.37 169.797 221.07C170.637 222.1 171.467 223.14 172.307 224.17C167.227 197.96 164.567 171.43 162.017 144.88C161.297 137.38 160.737 129.86 159.887 122.37C159.717 120.91 158.257 119.83 156.847 119.9C155.557 119.93 153.957 121.02 153.997 122.52Z" fill="#D0CFCD"/>
<path d="M158.035 125.999C162.425 127.049 166.975 127.469 171.475 127.889C175.895 128.299 180.315 128.77 184.745 129.13C193.795 129.87 202.845 130.19 211.915 129.63C220.675 129.09 229.505 128.359 238.185 127.049C246.185 125.839 254.195 123.91 261.535 120.4C265.025 118.73 268.375 116.71 271.375 114.27C272.775 113.14 274.695 111.8 275.425 110.1C276.385 107.87 275.195 105.709 273.425 104.329C270.245 101.859 266.085 100.51 262.235 99.5595C258.195 98.5695 254.075 97.9795 249.945 97.4795C233.115 95.4695 215.955 95.7095 199.225 98.4495C190.895 99.8195 182.655 101.76 174.565 104.2C167.935 106.2 160.355 108.519 156.155 114.469C155.155 115.889 154.365 117.49 153.955 119.18C153.505 120.99 154.005 122.91 155.905 123.66C157.485 124.28 159.895 123.52 160.385 121.71C160.575 121 160.825 120.33 161.125 119.66C161.285 119.3 161.105 119.659 161.075 119.719C161.155 119.579 161.245 119.439 161.335 119.299C161.545 118.979 161.755 118.659 161.995 118.359C162.115 118.199 162.685 117.539 162.545 117.689C162.385 117.859 162.945 117.31 163.065 117.2C163.605 116.7 164.175 116.24 164.775 115.81C165.105 115.57 165.435 115.35 165.775 115.13C166.115 114.92 165.825 115.099 165.755 115.139C165.905 115.049 166.055 114.96 166.215 114.88C166.935 114.47 167.675 114.099 168.425 113.749C169.815 113.099 171.255 112.55 172.705 112.04C179.955 109.52 187.445 107.65 194.985 106.2C210.295 103.26 226.045 102.07 241.615 102.96C245.605 103.19 249.595 103.539 253.555 104.029C257.155 104.469 260.785 104.97 264.255 106.09C265.925 106.63 267.575 107.28 269.115 108.12C269.465 108.31 269.795 108.589 270.155 108.749C270.625 108.959 270.465 109.3 270.495 108.37C270.525 107.5 270.525 107.75 270.045 108.16C269.685 108.47 269.325 108.77 268.955 109.06C266.255 111.22 263.295 113.03 260.195 114.54C253.525 117.8 246.325 119.59 239.005 120.71C230.955 121.94 222.775 122.55 214.665 123.18C206.335 123.83 198.085 123.779 189.755 123.219C181.285 122.649 172.785 122.03 164.295 121.88C162.145 121.84 160.045 121.86 157.895 122.04C156.915 122.13 156.195 123.159 156.235 124.079C156.305 125.139 157.025 125.759 158.035 125.999Z" fill="#D0CFCD"/>
<path d="M242.574 199.779C239.934 203.589 235.854 206.279 231.454 207.719C227.054 209.159 222.324 209.419 217.704 209.019C216.134 208.879 214.524 208.069 213.014 207.629C213.534 197.869 214.414 187.989 215.184 178.239C212.344 176.619 209.554 174.829 207.224 172.529C204.894 170.229 203.014 167.379 202.294 164.189C201.384 160.139 202.404 155.799 204.584 152.279C206.764 148.749 210.014 145.979 213.584 143.859C217.474 141.559 221.904 139.959 226.424 140.099C232.004 140.279 237.404 143.279 240.564 147.879C241.954 149.909 242.934 152.229 243.404 154.639C244.234 158.889 243.514 163.339 241.894 167.349C240.284 171.359 237.814 174.979 235.104 178.359C237.874 184.939 240.564 192.909 242.574 199.779Z" fill="#D0CFCD"/>
<path d="M240.854 198.77C234.614 206.99 222.884 208.88 213.554 205.69C214.044 206.33 214.534 206.98 215.024 207.62C215.564 197.81 216.414 188.02 217.194 178.23C217.244 177.54 216.774 176.84 216.204 176.5C209.124 172.36 201.844 166.22 204.594 157.04C206.924 149.29 215.614 143.43 223.334 142.32C231.494 141.14 239.414 146.33 241.304 154.44C243.234 162.76 238.634 170.63 233.694 176.93C233.284 177.45 232.894 178.18 233.184 178.88C236.074 185.88 238.504 193.05 240.664 200.31C241.394 202.77 245.254 201.72 244.524 199.25C242.364 191.99 239.934 184.82 237.044 177.82C236.874 178.47 236.704 179.12 236.534 179.77C243.474 170.93 249.374 159.01 243.084 148.12C236.794 137.24 223.584 136 213.334 141.71C203.844 147 196.184 158.22 202.054 168.98C203.584 171.79 205.794 174.11 208.294 176.08C211.204 178.37 213.044 178.31 212.894 182.14C212.544 190.64 211.504 199.13 211.034 207.62C210.984 208.53 211.694 209.27 212.504 209.55C223.724 213.39 237.004 210.44 244.324 200.79C245.854 198.73 242.384 196.74 240.854 198.77Z" fill="#39404A"/>
<path d="M236.147 202.269C238.637 201.279 239.447 200.249 240.217 197.679C238.387 198.179 237.787 197.729 236.087 198.569C236.907 197.639 237.727 196.709 238.547 195.769C237.517 197.169 236.477 198.579 235.447 199.979C233.357 193.679 231.897 187.169 231.107 180.579C231.217 180.819 231.227 181.109 231.137 181.369C230.417 180.869 229.697 180.369 228.977 179.869C230.157 183.079 231.567 186.209 233.187 189.219C234.427 191.519 235.887 193.849 238.157 195.149C236.967 189.829 235.507 184.579 233.777 179.409C234.337 185.419 235.497 191.359 237.227 197.139C237.417 197.769 237.397 198.739 236.737 198.769C236.237 198.799 235.977 198.209 235.857 197.719C234.457 191.959 232.837 186.219 233.547 180.339C233.667 179.329 233.997 178.589 233.547 177.669C233.567 178.049 232.517 178.209 232.877 178.339" fill="#D0CFCD"/>
<path d="M237.667 204.849C240.637 203.499 242.077 201.499 243.117 198.469C243.907 196.149 241.507 194.369 239.427 194.779C237.987 195.069 236.677 195.139 235.297 195.669C236.267 197.339 237.247 199.009 238.217 200.679C239.037 199.749 239.857 198.819 240.677 197.879C239.107 196.669 237.537 195.459 235.967 194.249C234.937 195.649 233.897 197.059 232.867 198.459C234.697 198.699 236.517 198.939 238.347 199.179C236.387 193.099 234.937 186.919 234.117 180.579C233.637 176.879 227.967 176.609 228.117 180.579C228.127 180.839 228.137 181.099 228.147 181.369C229.647 180.509 231.157 179.639 232.657 178.779C231.937 178.279 231.217 177.779 230.497 177.279C228.427 175.839 225.177 178.259 226.087 180.669C228.457 186.899 231.027 193.779 236.647 197.749C238.917 199.349 241.597 196.709 241.057 194.359C239.837 189.039 238.377 183.799 236.677 178.619C235.687 175.589 230.417 175.879 230.787 179.419C231.097 182.389 231.477 185.339 232.017 188.279C232.177 189.159 234.197 197.119 234.627 196.659C235.837 196.499 237.047 196.349 238.257 196.189C238.987 197.469 239.017 197.139 238.327 195.209C238.187 194.629 238.047 194.059 237.907 193.479C237.397 191.309 236.907 189.159 236.637 186.949C236.227 183.549 236.987 180.219 236.447 176.889C236.097 174.779 232.767 173.859 231.437 175.569C230.617 176.619 230.057 176.909 229.897 178.359C229.457 182.189 235.457 182.159 235.897 178.359C235.907 178.309 235.907 178.259 235.917 178.219C235.417 179.079 234.927 179.949 234.427 180.809C234.927 180.549 235.337 180.259 235.687 179.819C234.017 179.379 232.347 178.939 230.677 178.499C231.007 180.489 230.347 182.709 230.447 184.759C230.557 187.069 230.917 189.379 231.367 191.639C231.977 194.749 232.217 199.659 235.247 201.389C236.377 202.039 237.967 201.889 238.877 200.919C241.017 198.659 240.137 196.529 239.397 193.759C238.137 189.049 237.287 184.279 236.787 179.439C234.827 179.709 232.857 179.969 230.897 180.239C232.597 185.419 234.047 190.659 235.277 195.979C236.747 194.849 238.217 193.719 239.687 192.589C235.647 189.739 233.577 183.529 231.887 179.099C230.417 180.229 228.947 181.359 227.477 182.489C228.197 182.989 228.917 183.489 229.637 183.989C231.497 185.279 234.237 183.569 234.147 181.399C234.137 181.139 234.127 180.879 234.117 180.609C232.117 180.609 230.117 180.609 228.117 180.609C229.007 187.499 230.427 194.189 232.557 200.799C233.397 203.419 236.527 203.569 238.037 201.519C239.067 200.119 240.107 198.709 241.137 197.309C243.147 194.579 238.667 191.129 236.427 193.679C235.607 194.609 234.787 195.539 233.967 196.479C232.177 198.509 233.857 202.649 236.887 201.489C238.237 200.969 239.597 200.879 241.017 200.599C239.787 199.369 238.557 198.139 237.327 196.909C236.767 198.559 236.177 199.009 234.637 199.709C231.127 201.259 234.167 206.439 237.667 204.849Z" fill="#407A1B"/>
<path d="M234.354 174.65C235.154 172.99 235.944 171.33 236.744 169.67C235.774 173.16 232.454 175.85 228.844 176.1C231.354 174.25 233.634 172.1 235.634 169.7C233.864 171.91 232.074 174.14 229.844 175.89C233.384 170.98 236.104 165.49 237.874 159.7C237.504 160.44 237.134 161.18 236.764 161.93C236.624 159.44 236.474 156.96 236.334 154.47C236.194 151.95 235.994 149.27 234.494 147.24C233.094 145.33 230.744 144.28 229.374 142.34C232.614 143.89 236.014 145.57 238.054 148.53C238.924 149.79 239.504 151.23 239.914 152.7C241.694 159.11 240.104 166.35 235.794 171.42C237.994 167.16 239.354 162.48 239.774 157.71C239.874 156.53 239.784 155.08 238.724 154.54C237.394 159.41 235.244 164.06 232.394 168.23C233.284 166.09 234.174 163.95 235.064 161.81" fill="#D0CFCD"/>
<path d="M236.944 176.16C237.744 174.5 238.534 172.84 239.334 171.18C237.504 170.41 235.684 169.64 233.854 168.87C232.824 171.64 230.814 172.78 228.044 173.2C228.814 175.03 229.584 176.85 230.354 178.68C233.064 176.59 235.504 174.4 237.744 171.81C236.334 170.4 234.914 168.98 233.504 167.57C231.704 169.8 229.894 171.89 227.714 173.76C229.284 174.97 230.854 176.18 232.424 177.39C236.074 172.17 238.804 166.55 240.754 160.49C241.784 157.29 236.804 155.12 235.274 158.18C234.904 158.92 234.534 159.66 234.164 160.41C236.024 160.91 237.894 161.42 239.754 161.92C239.504 157.57 239.834 152.59 238.384 148.42C237.084 144.69 233.944 143.05 231.494 140.2C230.284 141.77 229.074 143.34 227.864 144.91C232.544 147.18 236.374 149.43 237.384 154.97C238.314 160.04 236.834 165.26 233.684 169.28C235.254 170.49 236.824 171.7 238.394 172.91C240.944 167.67 245.694 157.45 240.854 152.39C239.264 150.73 236.464 151.59 235.844 153.71C234.474 158.38 232.484 162.62 229.814 166.68C231.644 167.45 233.464 168.22 235.294 168.99C236.184 166.85 237.074 164.71 237.964 162.57C239.444 159.01 233.644 157.46 232.184 160.98C231.294 163.12 230.404 165.26 229.514 167.4C228.154 170.67 233.234 172.4 234.994 169.71C237.944 165.22 240.114 160.46 241.624 155.3C239.954 155.74 238.284 156.18 236.614 156.62C238.484 158.57 234.034 168.18 233.214 169.87C231.834 172.7 235.684 176.36 237.924 173.5C242.134 168.13 244.344 161.72 243.404 154.87C242.344 147.16 237.644 142.99 230.894 139.72C227.804 138.22 225.004 141.8 227.264 144.43C229.494 147.03 232.194 148.21 233.044 151.81C233.794 155 233.574 158.65 233.764 161.9C233.924 164.66 237.934 166.25 239.354 163.41C239.724 162.67 240.094 161.93 240.464 161.18C238.634 160.41 236.814 159.64 234.984 158.87C233.184 164.46 230.624 169.53 227.264 174.34C225.204 177.29 229.544 180.06 231.974 177.97C234.154 176.1 235.964 174.01 237.764 171.78C240.144 168.83 236.084 164.58 233.524 167.54C231.634 169.72 229.634 171.71 227.344 173.47C224.614 175.57 226.194 179.48 229.654 178.95C234.584 178.2 237.954 175.01 239.654 170.43C240.834 167.27 235.644 165.06 234.174 168.12C233.374 169.78 232.584 171.44 231.784 173.1C230.104 176.6 235.274 179.65 236.944 176.16Z" fill="#407A1B"/>
<path d="M220.348 140.959C226.668 141.899 232.038 147.359 232.878 153.699C233.158 155.819 232.978 157.979 232.628 160.079C231.568 166.369 228.948 172.389 225.048 177.449C228.008 186.509 230.958 195.559 233.888 204.629" fill="#D0CFCD"/>
<path d="M219.817 142.889C235.037 145.959 231.647 163.319 225.577 173.159C224.677 174.609 223.097 175.959 223.077 177.719C223.057 180.219 224.997 183.749 225.777 186.139C227.847 192.479 229.907 198.819 231.957 205.169C232.747 207.609 236.607 206.569 235.817 204.109C233.297 196.319 230.137 188.489 228.157 180.549C227.217 176.769 229.327 175.039 230.957 171.699C232.307 168.919 233.377 165.979 234.077 162.969C236.547 152.339 232.507 141.389 220.887 139.049C218.367 138.529 217.297 142.379 219.817 142.889Z" fill="#39404A"/>
<path d="M227.004 177.89C229.854 178.02 232.714 178.03 235.574 177.91Z" fill="#D0CFCD"/>
<path d="M227.006 179.889C229.866 180.019 232.716 180.019 235.576 179.909C238.146 179.809 238.156 175.809 235.576 175.909C232.716 176.019 229.866 176.009 227.006 175.889C224.436 175.769 224.436 179.769 227.006 179.889Z" fill="#39404A"/>
<path d="M242.574 199.779C239.934 203.589 235.854 206.279 231.454 207.719C227.054 209.159 222.324 209.419 217.704 209.019C216.134 208.879 214.524 208.069 213.014 207.629C213.534 197.869 214.414 187.989 215.184 178.239C212.344 176.619 209.554 174.829 207.224 172.529C204.894 170.229 203.014 167.379 202.294 164.189C201.384 160.139 202.404 155.799 204.584 152.279C206.764 148.749 210.014 145.979 213.584 143.859C217.474 141.559 221.904 139.959 226.424 140.099C232.004 140.279 237.404 143.279 240.564 147.879C241.954 149.909 242.934 152.229 243.404 154.639C244.234 158.889 243.514 163.339 241.894 167.349C240.284 171.359 237.814 174.979 235.104 178.359C237.874 184.939 240.564 192.909 242.574 199.779Z" fill="#D0CFCD"/>
<path d="M240.854 198.77C234.614 206.99 222.884 208.88 213.554 205.69C214.044 206.33 214.534 206.98 215.024 207.62C215.564 197.81 216.414 188.02 217.194 178.23C217.244 177.54 216.774 176.84 216.204 176.5C209.124 172.36 201.844 166.22 204.594 157.04C206.924 149.29 215.614 143.43 223.334 142.32C231.494 141.14 239.414 146.33 241.304 154.44C243.234 162.76 238.634 170.63 233.694 176.93C233.284 177.45 232.894 178.18 233.184 178.88C236.074 185.88 238.504 193.05 240.664 200.31C241.394 202.77 245.254 201.72 244.524 199.25C242.364 191.99 239.934 184.82 237.044 177.82C236.874 178.47 236.704 179.12 236.534 179.77C243.474 170.93 249.374 159.01 243.084 148.12C236.794 137.24 223.584 136 213.334 141.71C203.844 147 196.184 158.22 202.054 168.98C203.584 171.79 205.794 174.11 208.294 176.08C211.204 178.37 213.044 178.31 212.894 182.14C212.544 190.64 211.504 199.13 211.034 207.62C210.984 208.53 211.694 209.27 212.504 209.55C223.724 213.39 237.004 210.44 244.324 200.79C245.854 198.73 242.384 196.74 240.854 198.77Z" fill="#39404A"/>
<path d="M149.969 122.84C152.309 157.2 154.829 190.99 161.349 224.81C161.349 224.81 192.069 237.97 221.429 235.72C250.789 233.47 270.519 210.13 270.519 210.13C268.859 176.03 267.419 141.91 266.209 107.79" fill="#168BBD"/>
<path d="M146.997 122.52C147.317 136.28 148.277 150.06 149.387 163.78C150.477 177.25 151.817 190.71 153.767 204.09C154.747 210.77 155.847 217.43 157.097 224.06C157.477 226.06 157.887 227.66 159.897 228.58C160.047 228.65 160.207 228.71 160.357 228.77C161.087 229.07 161.827 229.36 162.567 229.64C170.387 232.64 178.477 234.97 186.647 236.79C198.357 239.4 210.467 240.68 222.457 239.64C232.437 238.78 242.207 235.43 250.907 230.52C257.297 226.91 263.287 222.58 268.627 217.54C270.157 216.1 271.637 214.59 273.047 213.03C273.227 212.83 273.437 212.62 273.597 212.4C274.767 210.83 274.237 208.42 274.147 206.57C274.057 204.78 273.967 202.98 273.867 201.19C272.447 173.29 271.277 145.39 270.227 117.47C270.097 114.01 269.897 110.69 269.227 107.29C268.557 103.92 263.597 103.98 263.157 107.47C262.317 114.24 263.007 121.18 263.267 127.99C263.517 134.68 263.777 141.38 264.047 148.07C264.587 161.46 265.177 174.84 265.747 188.23C266.067 195.74 266.397 203.25 266.737 210.76C266.967 209.8 267.197 208.83 267.427 207.87C267.267 208.06 267.107 208.24 266.937 208.42C266.747 208.63 266.547 208.84 266.347 209.05C265.777 209.67 266.927 208.46 266.587 208.8C266.417 208.97 266.247 209.15 266.077 209.32C264.347 211.08 262.527 212.75 260.637 214.34C257.927 216.63 255.087 218.76 252.117 220.71C251.717 220.97 251.317 221.23 250.917 221.49C250.667 221.65 250.427 221.8 250.177 221.95C250.907 221.5 250.427 221.79 250.277 221.89C249.327 222.45 248.367 223.02 247.397 223.55C245.407 224.65 243.357 225.66 241.277 226.58C239.077 227.55 236.827 228.41 234.537 229.15C234.317 229.22 234.097 229.29 233.877 229.36C232.777 229.71 234.647 229.15 233.537 229.46C232.977 229.62 232.417 229.78 231.847 229.92C230.587 230.25 229.317 230.54 228.037 230.79C225.487 231.29 222.907 231.62 220.317 231.8C219.597 231.85 218.877 231.89 218.157 231.92C218.187 231.92 216.767 231.97 217.507 231.95C217.217 231.96 216.927 231.96 216.647 231.97C215.067 231.99 213.487 231.98 211.897 231.93C205.957 231.74 200.047 231.03 194.197 230.02C191.457 229.55 188.727 228.99 186.017 228.37C185.417 228.23 184.817 228.09 184.227 227.95C184.387 227.99 185.017 228.15 184.237 227.95C183.887 227.86 183.547 227.78 183.197 227.69C181.977 227.38 180.767 227.06 179.557 226.72C173.897 225.14 168.217 223.37 162.797 221.07C163.637 222.1 164.467 223.14 165.307 224.17C160.227 197.96 157.567 171.43 155.017 144.88C154.297 137.38 153.737 129.86 152.887 122.37C152.717 120.91 151.257 119.83 149.847 119.9C148.557 119.93 146.957 121.02 146.997 122.52Z" fill="#39404A"/>
<path d="M151.244 123.999C159.784 124.639 168.314 125.269 176.854 125.909C183.334 126.389 189.824 126.879 196.324 126.829C202.664 126.779 208.994 126.219 215.314 125.649C224.174 124.859 233.084 124.069 241.694 121.839C250.304 119.619 258.694 115.879 265.234 109.859C265.564 109.549 265.914 109.219 266.034 108.779C266.324 107.779 265.374 106.879 264.504 106.319C259.434 103.059 253.324 101.889 247.344 101.079C219.834 97.3491 191.494 99.9291 165.114 108.569C158.794 110.639 151.734 113.959 150.184 120.429" fill="#168BBD"/>
<path d="M151.035 125.999C155.425 127.049 159.975 127.469 164.475 127.889C168.895 128.299 173.315 128.77 177.745 129.13C186.795 129.87 195.845 130.19 204.915 129.63C213.675 129.09 222.505 128.359 231.185 127.049C239.185 125.839 247.195 123.91 254.535 120.4C258.025 118.73 261.375 116.71 264.375 114.27C265.775 113.14 267.695 111.8 268.425 110.1C269.385 107.87 268.195 105.709 266.425 104.329C263.245 101.859 259.085 100.51 255.235 99.5595C251.195 98.5695 247.075 97.9795 242.945 97.4795C226.115 95.4695 208.955 95.7095 192.225 98.4495C183.895 99.8195 175.655 101.76 167.565 104.2C160.935 106.2 153.355 108.519 149.155 114.469C148.155 115.889 147.365 117.49 146.955 119.18C146.505 120.99 147.005 122.91 148.905 123.66C150.485 124.28 152.895 123.52 153.385 121.71C153.575 121 153.825 120.33 154.125 119.66C154.285 119.3 154.105 119.659 154.075 119.719C154.155 119.579 154.245 119.439 154.335 119.299C154.545 118.979 154.755 118.659 154.995 118.359C155.115 118.199 155.685 117.539 155.545 117.689C155.385 117.859 155.945 117.31 156.065 117.2C156.605 116.7 157.175 116.24 157.775 115.81C158.105 115.57 158.435 115.35 158.775 115.13C159.115 114.92 158.825 115.099 158.755 115.139C158.905 115.049 159.055 114.96 159.215 114.88C159.935 114.47 160.675 114.099 161.425 113.749C162.815 113.099 164.255 112.55 165.705 112.04C172.955 109.52 180.445 107.65 187.985 106.2C203.295 103.26 219.045 102.07 234.615 102.96C238.605 103.19 242.595 103.539 246.555 104.029C250.155 104.469 253.785 104.97 257.255 106.09C258.925 106.63 260.575 107.28 262.115 108.12C262.465 108.31 262.795 108.589 263.155 108.749C263.625 108.959 263.465 109.3 263.495 108.37C263.525 107.5 263.525 107.75 263.045 108.16C262.685 108.47 262.325 108.77 261.955 109.06C259.255 111.22 256.295 113.03 253.195 114.54C246.525 117.8 239.325 119.59 232.005 120.71C223.955 121.94 215.775 122.55 207.665 123.18C199.335 123.83 191.085 123.779 182.755 123.219C174.285 122.649 165.785 122.03 157.295 121.88C155.145 121.84 153.045 121.86 150.895 122.04C149.915 122.13 149.195 123.159 149.235 124.079C149.305 125.139 150.025 125.759 151.035 125.999Z" fill="#39404A"/>
<path d="M159.256 127.379C160.626 140.559 162.836 153.669 165.056 166.729C167.256 179.639 169.446 192.549 171.716 205.439C173.026 212.849 174.336 220.269 175.646 227.679C177.896 226.669 180.146 225.659 182.386 224.649C177.906 218.209 174.226 211.219 171.476 203.629C170.116 199.879 163.876 201.739 164.746 205.659C166.096 211.699 167.716 217.639 169.696 223.499C169.826 222.299 169.946 221.099 170.076 219.889C170.146 219.809 170.596 219.359 170.116 219.799C170.136 219.779 170.686 219.479 170.326 219.639C169.966 219.809 170.566 219.569 170.606 219.569C170.456 219.569 170.236 219.619 170.076 219.639C170.176 219.619 170.666 219.469 170.366 219.599C170.266 219.639 169.626 219.459 170.156 219.589C170.616 219.699 169.706 219.369 169.546 219.329C170.206 219.529 169.516 219.289 169.246 219.099C169.146 219.029 168.726 218.589 169.036 218.929C169.326 219.249 169.026 218.869 168.976 218.819C168.816 218.659 168.706 218.279 168.986 218.889C168.916 218.739 168.836 218.599 168.776 218.449C168.536 217.809 168.616 218.139 168.496 217.469C168.416 217.019 168.356 216.559 168.346 216.099C168.356 216.529 168.386 215.429 168.396 215.269C168.446 214.319 168.556 213.379 168.656 212.429C168.876 210.399 168.976 208.359 168.936 206.319C168.796 198.019 166.966 189.899 166.456 181.629C166.226 177.889 166.516 172.839 167.606 169.229C165.366 169.279 163.126 169.339 160.886 169.389C162.746 175.379 163.566 181.829 164.436 188.079C165.376 194.879 166.326 201.679 167.266 208.479C169.566 207.779 171.876 207.089 174.176 206.389C167.616 186.579 164.046 165.729 161.716 144.939C161.396 142.049 161.096 139.159 160.816 136.259C160.676 134.739 160.536 133.209 160.396 131.689C160.326 130.929 160.256 130.169 160.206 129.399C160.176 128.969 160.386 128.779 160.206 129.349C160.096 129.719 159.926 130.239 159.576 130.459C159.006 130.719 158.436 130.969 157.876 131.229C157.706 131.239 157.526 131.239 157.356 131.249C156.766 131.019 156.166 130.789 155.576 130.559C155.066 129.759 154.976 129.669 155.306 130.279C155.426 130.539 155.546 130.799 155.656 131.059C155.876 131.579 156.086 132.119 156.276 132.659C156.586 133.549 156.806 134.379 157.046 135.469C157.506 137.579 157.786 139.729 157.986 141.879C158.416 146.629 158.666 151.399 158.836 156.159C158.996 160.689 159.066 165.459 158.996 170.129C158.966 172.169 158.896 174.219 158.546 176.229C158.276 177.799 157.606 179.609 156.636 180.939C158.946 181.829 161.246 182.729 163.556 183.619C163.476 177.629 163.406 171.629 163.326 165.639C163.306 163.719 162.206 161.719 160.056 161.589C157.976 161.459 156.336 162.819 156.006 164.859C155.376 168.869 154.646 172.859 153.956 176.859C156.396 177.119 158.826 177.379 161.266 177.629C161.616 174.069 161.586 170.469 161.366 166.909C161.246 164.989 159.036 163.689 157.286 163.979C155.186 164.319 154.296 166.139 154.356 168.059C154.446 170.899 154.246 173.949 153.956 176.849C153.766 178.759 155.226 180.769 157.226 180.889C159.316 181.019 160.916 179.659 161.266 177.619C161.946 173.619 162.586 169.609 163.326 165.629C160.886 165.369 158.446 165.109 156.006 164.849C155.976 170.829 155.936 176.819 155.906 182.799C155.896 184.449 156.626 186.199 158.326 186.789C159.966 187.349 161.766 186.889 162.836 185.489C165.746 181.659 166.486 176.829 166.566 172.139C166.646 166.969 166.486 161.779 166.266 156.609C166.046 151.509 165.736 146.409 165.246 141.329C164.786 136.609 164.046 131.819 162.066 127.469C161.436 126.079 160.576 124.789 159.096 124.199C157.336 123.509 155.216 124.149 154.086 125.649C152.446 127.839 152.996 130.569 153.196 133.099C153.596 137.979 154.056 142.859 154.596 147.729C155.676 157.459 157.116 167.159 159.006 176.769C161.176 187.799 163.996 198.699 167.556 209.359C168.126 211.059 170.346 211.819 171.916 211.319C173.656 210.769 174.726 209.109 174.466 207.269C173.476 200.309 172.496 193.349 171.506 186.389C170.546 179.619 169.546 172.919 167.556 166.359C167.146 165.009 165.396 164.189 164.126 164.249C162.776 164.309 161.266 165.139 160.836 166.529C157.176 178.349 160.486 190.279 161.466 202.229C161.696 205.059 161.766 207.279 161.526 210.209C161.296 213.059 160.756 215.979 161.316 218.829C161.936 221.999 163.706 224.529 166.616 225.969C169.076 227.189 172.166 227.149 174.426 225.519C175.206 224.959 175.956 224.199 176.306 223.299C176.806 222.029 176.356 220.849 175.926 219.639C175.356 218.039 174.816 216.429 174.326 214.799C173.306 211.399 172.416 207.949 171.726 204.469C169.486 205.149 167.246 205.829 164.996 206.499C167.726 214.609 171.566 222.359 176.426 229.409C177.376 230.789 179.516 231.149 180.966 230.489C182.496 229.799 183.456 228.049 183.166 226.379C178.696 200.419 174.436 174.389 169.366 148.539C167.916 141.149 166.446 133.739 164.646 126.429C163.826 123.069 158.886 123.829 159.256 127.379Z" fill="#168BBD"/>
<path d="M146.997 122.52C147.317 136.28 148.277 150.06 149.387 163.78C150.477 177.25 151.817 190.71 153.767 204.09C154.747 210.77 155.847 217.43 157.097 224.06C157.477 226.06 157.887 227.66 159.897 228.58C160.047 228.65 160.207 228.71 160.357 228.77C161.087 229.07 161.827 229.36 162.567 229.64C170.387 232.64 178.477 234.97 186.647 236.79C198.357 239.4 210.467 240.68 222.457 239.64C232.437 238.78 242.207 235.43 250.907 230.52C257.297 226.91 263.287 222.58 268.627 217.54C270.157 216.1 271.637 214.59 273.047 213.03C273.227 212.83 273.437 212.62 273.597 212.4C274.767 210.83 274.237 208.42 274.147 206.57C274.057 204.78 273.967 202.98 273.867 201.19C272.447 173.29 271.277 145.39 270.227 117.47C270.097 114.01 269.897 110.69 269.227 107.29C268.557 103.92 263.597 103.98 263.157 107.47C262.317 114.24 263.007 121.18 263.267 127.99C263.517 134.68 263.777 141.38 264.047 148.07C264.587 161.46 265.177 174.84 265.747 188.23C266.067 195.74 266.397 203.25 266.737 210.76C266.967 209.8 267.197 208.83 267.427 207.87C267.267 208.06 267.107 208.24 266.937 208.42C266.747 208.63 266.547 208.84 266.347 209.05C265.777 209.67 266.927 208.46 266.587 208.8C266.417 208.97 266.247 209.15 266.077 209.32C264.347 211.08 262.527 212.75 260.637 214.34C257.927 216.63 255.087 218.76 252.117 220.71C251.717 220.97 251.317 221.23 250.917 221.49C250.667 221.65 250.427 221.8 250.177 221.95C250.907 221.5 250.427 221.79 250.277 221.89C249.327 222.45 248.367 223.02 247.397 223.55C245.407 224.65 243.357 225.66 241.277 226.58C239.077 227.55 236.827 228.41 234.537 229.15C234.317 229.22 234.097 229.29 233.877 229.36C232.777 229.71 234.647 229.15 233.537 229.46C232.977 229.62 232.417 229.78 231.847 229.92C230.587 230.25 229.317 230.54 228.037 230.79C225.487 231.29 222.907 231.62 220.317 231.8C219.597 231.85 218.877 231.89 218.157 231.92C218.187 231.92 216.767 231.97 217.507 231.95C217.217 231.96 216.927 231.96 216.647 231.97C215.067 231.99 213.487 231.98 211.897 231.93C205.957 231.74 200.047 231.03 194.197 230.02C191.457 229.55 188.727 228.99 186.017 228.37C185.417 228.23 184.817 228.09 184.227 227.95C184.387 227.99 185.017 228.15 184.237 227.95C183.887 227.86 183.547 227.78 183.197 227.69C181.977 227.38 180.767 227.06 179.557 226.72C173.897 225.14 168.217 223.37 162.797 221.07C163.637 222.1 164.467 223.14 165.307 224.17C160.227 197.96 157.567 171.43 155.017 144.88C154.297 137.38 153.737 129.86 152.887 122.37C152.717 120.91 151.257 119.83 149.847 119.9C148.557 119.93 146.957 121.02 146.997 122.52Z" fill="#39404A"/>
<path d="M151.035 125.999C155.425 127.049 159.975 127.469 164.475 127.889C168.895 128.299 173.315 128.77 177.745 129.13C186.795 129.87 195.845 130.19 204.915 129.63C213.675 129.09 222.505 128.359 231.185 127.049C239.185 125.839 247.195 123.91 254.535 120.4C258.025 118.73 261.375 116.71 264.375 114.27C265.775 113.14 267.695 111.8 268.425 110.1C269.385 107.87 268.195 105.709 266.425 104.329C263.245 101.859 259.085 100.51 255.235 99.5595C251.195 98.5695 247.075 97.9795 242.945 97.4795C226.115 95.4695 208.955 95.7095 192.225 98.4495C183.895 99.8195 175.655 101.76 167.565 104.2C160.935 106.2 153.355 108.519 149.155 114.469C148.155 115.889 147.365 117.49 146.955 119.18C146.505 120.99 147.005 122.91 148.905 123.66C150.485 124.28 152.895 123.52 153.385 121.71C153.575 121 153.825 120.33 154.125 119.66C154.285 119.3 154.105 119.659 154.075 119.719C154.155 119.579 154.245 119.439 154.335 119.299C154.545 118.979 154.755 118.659 154.995 118.359C155.115 118.199 155.685 117.539 155.545 117.689C155.385 117.859 155.945 117.31 156.065 117.2C156.605 116.7 157.175 116.24 157.775 115.81C158.105 115.57 158.435 115.35 158.775 115.13C159.115 114.92 158.825 115.099 158.755 115.139C158.905 115.049 159.055 114.96 159.215 114.88C159.935 114.47 160.675 114.099 161.425 113.749C162.815 113.099 164.255 112.55 165.705 112.04C172.955 109.52 180.445 107.65 187.985 106.2C203.295 103.26 219.045 102.07 234.615 102.96C238.605 103.19 242.595 103.539 246.555 104.029C250.155 104.469 253.785 104.97 257.255 106.09C258.925 106.63 260.575 107.28 262.115 108.12C262.465 108.31 262.795 108.589 263.155 108.749C263.625 108.959 263.465 109.3 263.495 108.37C263.525 107.5 263.525 107.75 263.045 108.16C262.685 108.47 262.325 108.77 261.955 109.06C259.255 111.22 256.295 113.03 253.195 114.54C246.525 117.8 239.325 119.59 232.005 120.71C223.955 121.94 215.775 122.55 207.665 123.18C199.335 123.83 191.085 123.779 182.755 123.219C174.285 122.649 165.785 122.03 157.295 121.88C155.145 121.84 153.045 121.86 150.895 122.04C149.915 122.13 149.195 123.159 149.235 124.079C149.305 125.139 150.025 125.759 151.035 125.999Z" fill="#39404A"/>
<path d="M235.574 199.779C232.934 203.589 228.854 206.279 224.454 207.719C220.054 209.159 215.324 209.419 210.704 209.019C209.134 208.879 207.524 208.069 206.014 207.629C206.534 197.869 207.414 187.989 208.184 178.239C205.344 176.619 202.554 174.829 200.224 172.529C197.894 170.229 196.014 167.379 195.294 164.189C194.384 160.139 195.404 155.799 197.584 152.279C199.764 148.749 203.014 145.979 206.584 143.859C210.474 141.559 214.904 139.959 219.424 140.099C225.004 140.279 230.404 143.279 233.564 147.879C234.954 149.909 235.934 152.229 236.404 154.639C237.234 158.889 236.514 163.339 234.894 167.349C233.284 171.359 230.814 174.979 228.104 178.359C230.874 184.939 233.564 192.909 235.574 199.779Z" fill="#0E698F"/>
<path d="M233.854 198.77C227.614 206.99 215.884 208.88 206.554 205.69C207.044 206.33 207.534 206.98 208.024 207.62C208.564 197.81 209.414 188.02 210.194 178.23C210.244 177.54 209.774 176.84 209.204 176.5C202.124 172.36 194.844 166.22 197.594 157.04C199.924 149.29 208.614 143.43 216.334 142.32C224.494 141.14 232.414 146.33 234.304 154.44C236.234 162.76 231.634 170.63 226.694 176.93C226.284 177.45 225.894 178.18 226.184 178.88C229.074 185.88 231.504 193.05 233.664 200.31C234.394 202.77 238.254 201.72 237.524 199.25C235.364 191.99 232.934 184.82 230.044 177.82C229.874 178.47 229.704 179.12 229.534 179.77C236.474 170.93 242.374 159.01 236.084 148.12C229.794 137.24 216.584 136 206.334 141.71C196.844 147 189.184 158.22 195.054 168.98C196.584 171.79 198.794 174.11 201.294 176.08C204.204 178.37 206.044 178.31 205.894 182.14C205.544 190.64 204.504 199.13 204.034 207.62C203.984 208.53 204.694 209.27 205.504 209.55C216.724 213.39 230.004 210.44 237.324 200.79C238.854 198.73 235.384 196.74 233.854 198.77Z" fill="#39404A"/>
<path d="M230.667 204.849C233.637 203.499 235.077 201.499 236.117 198.469C236.907 196.149 234.507 194.369 232.427 194.779C230.987 195.069 229.677 195.139 228.297 195.669C229.267 197.339 230.247 199.009 231.217 200.679C232.037 199.749 232.857 198.819 233.677 197.879C232.107 196.669 230.537 195.459 228.967 194.249C227.937 195.649 226.897 197.059 225.867 198.459C227.697 198.699 229.517 198.939 231.347 199.179C229.387 193.099 227.937 186.919 227.117 180.579C226.637 176.879 220.967 176.609 221.117 180.579C221.127 180.839 221.137 181.099 221.147 181.369C222.647 180.509 224.157 179.639 225.657 178.779C224.937 178.279 224.217 177.779 223.497 177.279C221.427 175.839 218.177 178.259 219.087 180.669C221.457 186.899 224.027 193.779 229.647 197.749C231.917 199.349 234.597 196.709 234.057 194.359C232.837 189.039 231.377 183.799 229.677 178.619C228.687 175.589 223.417 175.879 223.787 179.419C224.097 182.389 224.477 185.339 225.017 188.279C225.177 189.159 227.197 197.119 227.627 196.659C228.837 196.499 230.047 196.349 231.257 196.189C231.987 197.469 232.017 197.139 231.327 195.209C231.187 194.629 231.047 194.059 230.907 193.479C230.397 191.309 229.907 189.159 229.637 186.949C229.227 183.549 229.987 180.219 229.447 176.889C229.097 174.779 225.767 173.859 224.437 175.569C223.617 176.619 223.057 176.909 222.897 178.359C222.457 182.189 228.457 182.159 228.897 178.359C228.907 178.309 228.907 178.259 228.917 178.219C228.417 179.079 227.927 179.949 227.427 180.809C227.927 180.549 228.337 180.259 228.687 179.819C227.017 179.379 225.347 178.939 223.677 178.499C224.007 180.489 223.347 182.709 223.447 184.759C223.557 187.069 223.917 189.379 224.367 191.639C224.977 194.749 225.217 199.659 228.247 201.389C229.377 202.039 230.967 201.889 231.877 200.919C234.017 198.659 233.137 196.529 232.397 193.759C231.137 189.049 230.287 184.279 229.787 179.439C227.827 179.709 225.857 179.969 223.897 180.239C225.597 185.419 227.047 190.659 228.277 195.979C229.747 194.849 231.217 193.719 232.687 192.589C228.647 189.739 226.577 183.529 224.887 179.099C223.417 180.229 221.947 181.359 220.477 182.489C221.197 182.989 221.917 183.489 222.637 183.989C224.497 185.279 227.237 183.569 227.147 181.399C227.137 181.139 227.127 180.879 227.117 180.609C225.117 180.609 223.117 180.609 221.117 180.609C222.007 187.499 223.427 194.189 225.557 200.799C226.397 203.419 229.527 203.569 231.037 201.519C232.067 200.119 233.107 198.709 234.137 197.309C236.147 194.579 231.667 191.129 229.427 193.679C228.607 194.609 227.787 195.539 226.967 196.479C225.177 198.509 226.857 202.649 229.887 201.489C231.237 200.969 232.597 200.879 234.017 200.599C232.787 199.369 231.557 198.139 230.327 196.909C229.767 198.559 229.177 199.009 227.637 199.709C224.127 201.259 227.167 206.439 230.667 204.849Z" fill="#168BBD"/>
<path d="M229.944 176.16C230.744 174.5 231.534 172.84 232.334 171.18C230.504 170.41 228.684 169.64 226.854 168.87C225.824 171.64 223.814 172.78 221.044 173.2C221.814 175.03 222.584 176.85 223.354 178.68C226.064 176.59 228.504 174.4 230.744 171.81C229.334 170.4 227.914 168.98 226.504 167.57C224.704 169.8 222.894 171.89 220.714 173.76C222.284 174.97 223.854 176.18 225.424 177.39C229.074 172.17 231.804 166.55 233.754 160.49C234.784 157.29 229.804 155.12 228.274 158.18C227.904 158.92 227.534 159.66 227.164 160.41C229.024 160.91 230.894 161.42 232.754 161.92C232.504 157.57 232.834 152.59 231.384 148.42C230.084 144.69 226.944 143.05 224.494 140.2C223.284 141.77 222.074 143.34 220.864 144.91C225.544 147.18 229.374 149.43 230.384 154.97C231.314 160.04 229.834 165.26 226.684 169.28C228.254 170.49 229.824 171.7 231.394 172.91C233.944 167.67 238.694 157.45 233.854 152.39C232.264 150.73 229.464 151.59 228.844 153.71C227.474 158.38 225.484 162.62 222.814 166.68C224.644 167.45 226.464 168.22 228.294 168.99C229.184 166.85 230.074 164.71 230.964 162.57C232.444 159.01 226.644 157.46 225.184 160.98C224.294 163.12 223.404 165.26 222.514 167.4C221.154 170.67 226.234 172.4 227.994 169.71C230.944 165.22 233.114 160.46 234.624 155.3C232.954 155.74 231.284 156.18 229.614 156.62C231.484 158.57 227.034 168.18 226.214 169.87C224.834 172.7 228.684 176.36 230.924 173.5C235.134 168.13 237.344 161.72 236.404 154.87C235.344 147.16 230.644 142.99 223.894 139.72C220.804 138.22 218.004 141.8 220.264 144.43C222.494 147.03 225.194 148.21 226.044 151.81C226.794 155 226.574 158.65 226.764 161.9C226.924 164.66 230.934 166.25 232.354 163.41C232.724 162.67 233.094 161.93 233.464 161.18C231.634 160.41 229.814 159.64 227.984 158.87C226.184 164.46 223.624 169.53 220.264 174.34C218.204 177.29 222.544 180.06 224.974 177.97C227.154 176.1 228.964 174.01 230.764 171.78C233.144 168.83 229.084 164.58 226.524 167.54C224.634 169.72 222.634 171.71 220.344 173.47C217.614 175.57 219.194 179.48 222.654 178.95C227.584 178.2 230.954 175.01 232.654 170.43C233.834 167.27 228.644 165.06 227.174 168.12C226.374 169.78 225.584 171.44 224.784 173.1C223.104 176.6 228.274 179.65 229.944 176.16Z" fill="#168BBD"/>
<path d="M212.817 142.889C228.037 145.959 224.647 163.319 218.577 173.159C217.677 174.609 216.097 175.959 216.077 177.719C216.057 180.219 217.997 183.749 218.777 186.139C220.847 192.479 222.907 198.819 224.957 205.169C225.747 207.609 229.607 206.569 228.817 204.109C226.297 196.319 223.137 188.489 221.157 180.549C220.217 176.769 222.327 175.039 223.957 171.699C225.307 168.919 226.377 165.979 227.077 162.969C229.547 152.339 225.507 141.389 213.887 139.049C211.367 138.529 210.297 142.379 212.817 142.889Z" fill="#39404A"/>
<path d="M220.006 179.889C222.866 180.019 225.716 180.019 228.576 179.909C231.146 179.809 231.156 175.809 228.576 175.909C225.716 176.019 222.866 176.009 220.006 175.889C217.436 175.769 217.436 179.769 220.006 179.889Z" fill="#39404A"/>
<path d="M233.854 198.77C227.614 206.99 215.884 208.88 206.554 205.69C207.044 206.33 207.534 206.98 208.024 207.62C208.564 197.81 209.414 188.02 210.194 178.23C210.244 177.54 209.774 176.84 209.204 176.5C202.124 172.36 194.844 166.22 197.594 157.04C199.924 149.29 208.614 143.43 216.334 142.32C224.494 141.14 232.414 146.33 234.304 154.44C236.234 162.76 231.634 170.63 226.694 176.93C226.284 177.45 225.894 178.18 226.184 178.88C229.074 185.88 231.504 193.05 233.664 200.31C234.394 202.77 238.254 201.72 237.524 199.25C235.364 191.99 232.934 184.82 230.044 177.82C229.874 178.47 229.704 179.12 229.534 179.77C236.474 170.93 242.374 159.01 236.084 148.12C229.794 137.24 216.584 136 206.334 141.71C196.844 147 189.184 158.22 195.054 168.98C196.584 171.79 198.794 174.11 201.294 176.08C204.204 178.37 206.044 178.31 205.894 182.14C205.544 190.64 204.504 199.13 204.034 207.62C203.984 208.53 204.694 209.27 205.504 209.55C216.724 213.39 230.004 210.44 237.324 200.79C238.854 198.73 235.384 196.74 233.854 198.77Z" fill="#39404A"/>
<path d="M225.566 109.649C228.656 112.029 232.736 113.099 236.606 112.549C240.476 111.999 244.076 109.809 246.376 106.649L241.786 50.9989C240.676 44.7889 239.546 38.5389 237.216 32.6389C234.886 26.7389 231.246 21.1389 225.916 17.2889C220.706 13.5289 213.986 11.6389 207.396 12.0689C202.866 12.3589 198.486 13.6989 194.316 15.3889C189.776 17.2189 185.386 19.5089 181.766 22.6489C176.296 27.3889 173.016 33.6489 170.876 40.3789C168.496 47.8489 167.696 55.7289 168.236 63.5589L171.826 115.549C177.296 118.799 184.316 119.279 190.166 116.799C192.066 115.999 193.916 114.819 194.916 113.019C194.916 113.019 192.176 86.6689 190.156 69.4989C188.136 52.3289 191.566 34.8689 204.176 33.1189C216.786 31.3689 222.836 40.8289 223.856 49.3089C226.886 74.3689 225.566 109.649 225.566 109.649Z" fill="#22A7E0"/>
<path d="M224.557 111.379C228.257 113.939 232.627 115.209 237.137 114.479C240.707 113.899 246.677 111.399 248.097 107.659C249.047 105.169 247.927 101.239 247.717 98.6894C246.647 85.6894 245.577 72.6994 244.497 59.6994C243.347 45.7094 241.487 30.3994 231.567 19.6594C216.617 3.47937 188.347 9.75937 175.857 26.0494C166.057 38.8194 165.647 55.0894 166.707 70.4194C167.607 83.3994 168.497 96.3794 169.397 109.359C169.567 111.759 169.087 115.429 170.817 117.269C175.877 122.649 193.727 121.569 196.647 114.019C197.127 112.769 196.757 111.439 196.617 110.129C196.177 105.979 195.737 101.829 195.297 97.6894C194.237 87.7694 192.947 77.8594 191.997 67.9294C191.057 58.0894 190.627 39.4394 202.527 35.5294C208.547 33.5494 215.257 35.8294 218.797 40.9994C221.917 45.5594 222.157 51.1694 222.607 56.4894C224.117 74.1194 224.227 91.9694 223.587 109.649C223.497 112.219 227.497 112.219 227.587 109.649C228.067 96.4694 228.007 83.2394 227.457 70.0694C226.877 56.2794 227.927 33.0594 209.297 31.0394C190.207 28.9694 186.847 51.3294 187.827 65.5894C188.477 75.1794 189.927 84.7594 190.957 94.3194C191.377 98.1694 191.787 102.029 192.197 105.879C192.367 107.489 193.507 111.159 192.917 112.699C192.277 114.369 188.487 115.409 186.657 115.859C183.407 116.649 179.937 116.489 176.737 115.529C179.037 116.219 172.547 113.119 173.857 115.479C173.807 115.399 173.877 115.239 173.837 115.159C173.637 114.749 173.747 113.909 173.717 113.469C173.387 108.719 173.057 103.969 172.727 99.2094C171.947 87.9494 171.147 76.6894 170.387 65.4194C169.867 57.7194 170.187 50.1094 172.307 42.6394C175.757 30.4794 183.147 22.0894 194.867 17.3194C206.807 12.4594 220.297 12.7594 229.307 23.0794C235.887 30.6194 238.647 41.6294 239.837 51.3694C241.227 62.7394 241.727 74.2994 242.667 85.7194C243.147 91.4994 243.617 97.2794 244.097 103.069C244.167 103.959 244.677 105.699 244.387 106.559C244.037 107.609 238.937 109.989 237.527 110.339C233.617 111.299 229.837 110.169 226.597 107.929C224.457 106.459 222.457 109.919 224.557 111.379Z" fill="#39404A"/>
<path d="M227.407 69.8791C229.127 81.8491 230.047 93.8791 230.227 105.969C230.267 108.539 234.267 108.549 234.227 105.969C234.047 93.5191 233.037 81.1391 231.267 68.8191C230.897 66.2791 227.047 67.3591 227.407 69.8791Z" fill="#22A7E0"/>
<path d="M190.579 108.299C186.979 111.779 182.249 113.069 177.669 111.919C177.669 111.859 177.679 111.809 177.669 111.749C176.249 93.8593 176.259 75.8793 177.789 57.9993C179.089 42.8393 182.069 23.4193 198.169 16.9093C200.529 15.9593 199.499 12.0893 197.109 13.0493C192.719 14.8193 189.149 17.4193 186.249 20.5693C185.539 20.0093 184.499 19.8593 183.649 20.6693C181.059 23.1493 179.189 26.1293 177.719 29.3293C176.699 28.7693 175.169 28.9893 174.699 30.4293C172.459 37.2693 170.529 44.2093 168.999 51.2393C167.569 57.8093 166.329 64.0993 168.429 70.6693C168.709 71.5593 169.399 71.9793 170.129 72.0493C169.729 84.7393 170.159 97.4993 170.249 110.169C170.249 110.679 170.409 111.079 170.669 111.389C169.549 112.689 169.389 114.819 171.339 115.849C179.259 120.029 188.379 118.789 194.829 112.559C197.599 109.849 193.359 105.609 190.579 108.299Z" fill="#22A7E0"/>
<path d="M242.468 102.14C239.178 103.94 235.428 105.77 231.768 105.24C231.768 105.16 231.768 105.09 231.758 105.01C230.748 98.6596 231.638 92.1196 231.928 85.7296C232.218 79.2396 232.358 72.7296 232.068 66.2396C231.608 55.9496 231.028 43.0396 224.258 34.6596C218.758 27.8396 208.748 25.3396 200.668 28.7496C192.438 32.2296 187.478 41.2996 188.578 50.0896C188.898 52.6096 192.898 52.6396 192.578 50.0896C191.518 41.6996 196.718 33.1096 205.328 31.4896C210.598 30.4996 215.218 32.0296 218.758 35.0596C218.288 35.7696 218.198 36.7396 218.898 37.5596C226.458 46.3296 226.238 58.4096 225.708 69.3096C225.148 80.8196 225.158 92.2696 226.108 103.76C224.058 104.5 223.018 107.75 225.458 109.25C232.028 113.3 239.268 110.75 245.488 107.34C248.878 105.46 245.858 100.28 242.468 102.14Z" fill="#22A7E0"/>
<path d="M224.557 111.379C228.257 113.939 232.627 115.209 237.137 114.479C240.707 113.899 246.677 111.399 248.097 107.659C249.047 105.169 247.927 101.239 247.717 98.6894C246.647 85.6894 245.577 72.6994 244.497 59.6994C243.347 45.7094 241.487 30.3994 231.567 19.6594C216.617 3.47937 188.347 9.75937 175.857 26.0494C166.057 38.8194 165.647 55.0894 166.707 70.4194C167.607 83.3994 168.497 96.3794 169.397 109.359C169.567 111.759 169.087 115.429 170.817 117.269C175.877 122.649 193.727 121.569 196.647 114.019C197.127 112.769 196.757 111.439 196.617 110.129C196.177 105.979 195.737 101.829 195.297 97.6894C194.237 87.7694 192.947 77.8594 191.997 67.9294C191.057 58.0894 190.627 39.4394 202.527 35.5294C208.547 33.5494 215.257 35.8294 218.797 40.9994C221.917 45.5594 222.157 51.1694 222.607 56.4894C224.117 74.1194 224.227 91.9694 223.587 109.649C223.497 112.219 227.497 112.219 227.587 109.649C228.067 96.4694 228.007 83.2394 227.457 70.0694C226.877 56.2794 227.927 33.0594 209.297 31.0394C190.207 28.9694 186.847 51.3294 187.827 65.5894C188.477 75.1794 189.927 84.7594 190.957 94.3194C191.377 98.1694 191.787 102.029 192.197 105.879C192.367 107.489 193.507 111.159 192.917 112.699C192.277 114.369 188.487 115.409 186.657 115.859C183.407 116.649 179.937 116.489 176.737 115.529C179.037 116.219 172.547 113.119 173.857 115.479C173.807 115.399 173.877 115.239 173.837 115.159C173.637 114.749 173.747 113.909 173.717 113.469C173.387 108.719 173.057 103.969 172.727 99.2094C171.947 87.9494 171.147 76.6894 170.387 65.4194C169.867 57.7194 170.187 50.1094 172.307 42.6394C175.757 30.4794 183.147 22.0894 194.867 17.3194C206.807 12.4594 220.297 12.7594 229.307 23.0794C235.887 30.6194 238.647 41.6294 239.837 51.3694C241.227 62.7394 241.727 74.2994 242.667 85.7194C243.147 91.4994 243.617 97.2794 244.097 103.069C244.167 103.959 244.677 105.699 244.387 106.559C244.037 107.609 238.937 109.989 237.527 110.339C233.617 111.299 229.837 110.169 226.597 107.929C224.457 106.459 222.457 109.919 224.557 111.379Z" fill="#39404A"/>
<path d="M132.891 236.85L164.981 236.91L222.341 264.85L250.451 237.09L288.341 226.85L289.421 203.07C289.421 203.07 261.831 208.34 244.171 220.43C226.501 232.52 234.561 237.17 218.441 229.42C202.321 221.67 183.731 212.37 153.661 212.06C123.591 211.75 131.961 220.12 131.961 220.12L132.891 236.85Z" fill="white"/>
<path d="M213.024 252.59C234.114 227.49 263.144 210.58 295.374 204.62C298.814 203.98 297.354 198.74 293.924 199.37C260.884 205.48 230.784 223.01 209.174 248.74C206.944 251.41 210.774 255.28 213.024 252.59Z" fill="#39404A"/>
<path d="M133.133 214.93C165.283 215.52 196.343 220 224.813 235.79C227.883 237.49 230.623 232.79 227.563 231.09C198.263 214.84 166.233 210.09 133.133 209.49C129.633 209.42 129.633 214.87 133.133 214.93Z" fill="#39404A"/>
</svg>
