<svg width="490" height="484" viewBox="0 0 490 484" fill="none" xmlns="http://www.w3.org/2000/svg">
<path d="M458.384 324.646C469.844 310.766 471.954 290.516 464.244 273.716C453.244 249.746 427.334 237.546 401.884 237.406C398.734 237.386 395.214 237.226 392.134 237.906C391.924 237.956 390.594 238.406 390.564 238.606C390.534 238.586 390.504 238.566 390.464 238.556C389.444 238.376 388.184 237.406 387.274 236.946C382.614 234.596 377.964 232.246 373.304 229.906C359.444 222.916 345.594 215.926 331.734 208.946C322.824 204.456 313.924 199.946 304.994 195.486C302.644 177.846 288.244 163.516 270.944 159.716C254.284 156.066 237.394 161.976 224.464 172.496C223.034 159.686 207.284 154.706 196.074 153.376C186.414 152.236 175.464 153.536 167.404 159.386C154.734 168.576 142.194 177.956 129.604 187.266C125.734 190.136 121.864 192.996 117.984 195.866C97.6238 184.056 72.8638 192.616 57.1638 208.496C49.2138 216.536 42.8838 226.536 42.2738 238.086C41.9638 243.916 43.0538 249.666 44.9538 255.186C39.9338 256.856 34.8738 261.286 31.3638 264.486C26.1538 269.236 21.8138 275.236 19.9938 282.126C16.5538 295.186 22.3838 311.236 32.2538 320.856C23.2638 335.966 27.1338 357.856 36.9338 372.016C43.7238 381.816 52.8738 389.936 63.7938 394.836C68.9338 397.136 74.2438 398.636 79.8638 399.106C84.0438 399.456 89.3937 399.446 93.7237 397.976C94.3037 402.456 95.5738 406.906 97.3538 411.256C101.864 422.246 109.094 433.326 118.494 440.746C126.744 447.266 136.974 449.956 147.404 448.646C152.314 448.026 157.174 446.576 161.524 444.186C164.474 442.566 168.614 439.976 170.504 436.746C181.074 448.026 200.464 446.826 212.784 437.926C218.304 455.766 231.664 472.226 250.234 476.946C259.314 479.256 269.414 478.806 278.124 475.266C281.064 474.066 284.074 472.486 286.864 470.556C287.094 470.886 287.404 471.186 287.814 471.416C300.394 478.606 316.954 477.536 329.084 469.776C338.944 463.466 345.534 453.356 347.894 442.096C367.814 452.436 392.244 447.396 408.314 431.516C419.164 420.796 425.374 406.746 427.234 392.016C434.624 392.026 442.864 388.346 448.834 384.986C456.414 380.726 462.954 374.476 466.874 366.666C474.074 352.336 471.154 334.446 458.384 324.646Z" fill="#D0CFCD"/>
<path d="M458.384 319.646C469.844 305.766 471.954 285.516 464.244 268.716C453.244 244.746 427.334 232.546 401.884 232.406C398.734 232.386 395.214 232.226 392.134 232.906C391.924 232.956 390.594 233.406 390.564 233.606C390.534 233.586 390.504 233.566 390.464 233.556C389.444 233.376 388.184 232.406 387.274 231.946C382.614 229.596 377.964 227.246 373.304 224.906C359.444 217.916 345.594 210.926 331.734 203.946C322.824 199.456 313.924 194.946 304.994 190.486C302.644 172.846 288.244 158.516 270.944 154.716C254.284 151.066 237.394 156.976 224.464 167.496C223.034 154.686 207.284 149.706 196.074 148.376C186.414 147.236 175.464 148.536 167.404 154.386C154.734 163.576 142.194 172.956 129.604 182.266C125.734 185.136 121.864 187.996 117.984 190.866C97.6237 179.056 72.8638 187.616 57.1638 203.496C49.2138 211.536 42.8838 221.536 42.2738 233.086C41.9638 238.916 43.0538 244.666 44.9538 250.186C39.9338 251.856 34.8738 256.286 31.3638 259.486C26.1538 264.236 21.8138 270.236 19.9938 277.126C16.5538 290.186 22.3838 306.236 32.2538 315.856C23.2638 330.966 27.1338 352.856 36.9338 367.016C43.7238 376.816 52.8738 384.936 63.7938 389.836C68.9338 392.136 74.2438 393.636 79.8638 394.106C84.0438 394.456 89.3938 394.446 93.7238 392.976C94.3038 397.456 95.5738 401.906 97.3538 406.256C101.864 417.246 109.094 428.326 118.494 435.746C126.744 442.266 136.974 444.956 147.404 443.646C152.314 443.026 157.174 441.576 161.524 439.186C164.474 437.566 168.614 434.976 170.504 431.746C181.074 443.026 200.464 441.826 212.784 432.926C218.304 450.766 231.664 467.226 250.234 471.946C259.314 474.256 269.414 473.806 278.124 470.266C281.064 469.066 284.074 467.486 286.864 465.556C287.094 465.886 287.404 466.186 287.814 466.416C300.394 473.606 316.954 472.536 329.084 464.776C338.944 458.466 345.534 448.356 347.894 437.096C367.814 447.436 392.244 442.396 408.314 426.516C419.164 415.796 425.374 401.746 427.234 387.016C434.624 387.026 442.864 383.346 448.834 379.986C456.414 375.726 462.954 369.476 466.884 361.666C474.074 347.336 471.164 329.446 458.384 319.646Z" fill="white"/>
<path d="M269.374 483.93C264.594 483.93 259.844 483.34 255.264 482.17C247.724 480.25 240.684 476.75 234.284 471.75C234.204 471.72 233.874 471.6 233.874 471.6C233.464 471.45 233.024 471.29 232.594 471.11C232.294 470.99 232.034 470.88 231.764 470.77C231.274 470.57 230.864 470.39 230.464 470.21C230.164 470.08 229.864 469.94 229.564 469.8C229.154 469.61 228.754 469.42 228.354 469.22C228.074 469.08 227.774 468.93 227.474 468.78C227.094 468.58 226.714 468.38 226.334 468.17C226.334 468.17 225.704 467.82 225.474 467.69C225.074 467.46 224.694 467.24 224.314 467.01L224.224 466.95C223.984 466.8 223.734 466.66 223.494 466.51C223.134 466.29 222.744 466.03 222.354 465.78C222.354 465.78 221.824 465.44 221.634 465.31C221.164 464.99 220.704 464.67 220.264 464.35C220.084 464.23 219.954 464.13 219.814 464.03C219.184 463.57 218.604 463.13 218.034 462.68C217.854 462.54 217.404 462.17 217.404 462.17C217.034 461.87 216.674 461.57 216.314 461.27C216.124 461.11 215.934 460.95 215.754 460.78L215.424 460.49C215.164 460.26 214.904 460.03 214.644 459.79C214.404 459.58 214.174 459.35 213.934 459.13C213.604 458.82 213.324 458.55 213.044 458.28C212.784 458.02 212.524 457.77 212.274 457.52C212.014 457.26 211.754 456.99 211.494 456.72C211.234 456.45 210.984 456.19 210.744 455.92C210.494 455.65 210.244 455.37 209.994 455.1C209.744 454.82 209.494 454.54 209.244 454.26C209.024 454.01 208.794 453.73 208.554 453.46L208.454 453.34C208.244 453.09 208.024 452.83 207.814 452.57C207.654 452.38 207.474 452.15 207.284 451.91L207.034 451.59C206.834 451.34 206.644 451.1 206.454 450.85C206.304 450.66 206.154 450.45 206.004 450.25L205.754 449.92C203.384 450.28 201.004 450.46 198.624 450.46C191.404 450.46 184.684 448.77 178.964 445.6C177.334 446.72 175.734 447.66 174.334 448.42C168.944 451.38 162.914 453.3 156.394 454.12C154.254 454.39 152.084 454.52 149.954 454.52C138.764 454.52 128.254 450.88 119.544 444C119.214 443.74 118.884 443.47 118.544 443.18C117.054 442.69 115.564 442.12 114.114 441.48C113.384 441.16 112.634 440.81 111.904 440.44C109.704 439.33 107.564 438.04 105.544 436.61C104.874 436.13 104.194 435.62 103.534 435.11C102.154 434.02 100.774 432.83 99.4445 431.58C91.7645 424.4 84.9844 414.57 80.1744 403.72C75.7944 402.84 71.4744 401.43 67.1044 399.47C62.5544 397.43 58.1444 394.85 53.9944 391.79C53.0144 391.41 52.0444 391 51.0944 390.57C46.3744 388.45 41.8244 385.77 37.5644 382.6C30.8044 377.55 24.8344 371.33 19.8244 364.09C19.3844 363.45 18.9644 362.81 18.5444 362.16C18.4544 362.02 18.1744 361.57 18.1744 361.57C17.8744 361.08 17.5844 360.61 17.3144 360.14C17.3144 360.14 17.0244 359.64 16.9144 359.45C16.6344 358.96 16.3444 358.43 16.0644 357.9L15.8044 357.41C15.4444 356.71 15.0944 356.02 14.7644 355.32C14.7044 355.2 14.4944 354.75 14.4944 354.75C14.2544 354.22 14.0144 353.71 13.7944 353.19C13.6844 352.93 13.5744 352.67 13.4544 352.4C13.2444 351.9 13.0544 351.42 12.8544 350.93C12.8544 350.93 12.6344 350.39 12.5644 350.18C12.3044 349.5 12.0644 348.84 11.8344 348.17L11.6044 347.47C11.4244 346.92 11.2444 346.35 11.0644 345.78C10.9744 345.47 10.8744 345.14 10.7844 344.82C10.6644 344.39 10.5344 343.95 10.4244 343.51C10.3344 343.18 10.2444 342.84 10.1644 342.51C10.0444 342.02 9.94445 341.58 9.84445 341.14L9.80444 340.96C9.74444 340.68 9.67444 340.41 9.61444 340.13C9.46444 339.45 9.33444 338.75 9.20444 338.04C9.14444 337.72 9.09445 337.39 9.04445 337.07L9.01444 336.87C8.94444 336.46 8.89444 336.09 8.83444 335.72C8.77445 335.31 8.71444 334.88 8.66444 334.45C8.62444 334.11 8.58445 333.75 8.54445 333.39C8.49445 332.96 8.45444 332.51 8.41444 332.06C8.39444 331.85 8.37444 331.6 8.36444 331.35L8.35444 331.17C8.29444 330.3 8.24444 329.41 8.22444 328.53C8.22444 328.53 8.20444 327.9 8.20444 327.69C8.19444 327.2 8.20444 326.71 8.20444 326.22C8.20444 325.91 8.21444 325.63 8.22444 325.34C8.23444 324.86 8.25444 324.35 8.27444 323.84C8.28444 323.64 8.32444 323.12 8.32444 323.12C8.43444 321.38 8.63444 319.6 8.90444 317.87C8.90444 317.87 8.98444 317.36 9.02444 317.17C9.11444 316.66 9.21444 316.12 9.32444 315.58C9.35444 315.43 9.45444 314.97 9.45444 314.97C9.86444 313.14 10.3644 311.33 10.9644 309.59C11.0244 309.41 11.0744 309.25 11.1344 309.1C11.1944 308.94 11.2544 308.77 11.3144 308.61C11.2844 308.57 10.5844 307.63 10.5844 307.63C10.4444 307.44 10.3044 307.24 10.1644 307.05C10.0244 306.86 9.87444 306.64 9.73444 306.42C9.73444 306.42 9.29445 305.78 9.17445 305.59C8.90445 305.18 8.64444 304.77 8.39444 304.37C8.21444 304.08 8.06444 303.83 7.91444 303.58L7.77444 303.35C7.62444 303.11 7.48445 302.86 7.34445 302.61C7.23445 302.42 6.89444 301.8 6.89444 301.8C6.76444 301.56 6.62444 301.31 6.49444 301.07C6.35444 300.81 6.23444 300.57 6.10444 300.33C5.95444 300.04 5.81444 299.76 5.68444 299.49C5.54444 299.21 5.42445 298.95 5.29445 298.69C5.17445 298.44 5.03444 298.14 4.90444 297.85C4.79444 297.6 4.67444 297.35 4.56444 297.1C4.42444 296.79 4.30445 296.49 4.17445 296.18C4.17445 296.18 3.95444 295.66 3.86444 295.43C3.73444 295.11 3.60444 294.76 3.47444 294.41L3.24444 293.8C3.03444 293.21 2.84444 292.67 2.66444 292.13L2.53444 291.71C2.38444 291.23 2.25444 290.83 2.13444 290.42L1.93444 289.72C1.83444 289.37 1.73444 289.01 1.64444 288.65C1.58444 288.41 1.51444 288.15 1.45444 287.89C1.38444 287.6 1.30444 287.27 1.22444 286.93C1.15444 286.63 1.10444 286.38 1.05444 286.12C0.994445 285.82 0.924445 285.47 0.854445 285.13L0.714444 284.38C0.654444 284.01 0.594444 283.66 0.544444 283.3C0.504444 283.06 0.474445 282.82 0.434445 282.57C0.384445 282.18 0.334445 281.78 0.284445 281.38C0.284445 281.38 0.234444 280.94 0.214444 280.76C0.154444 280.17 0.104444 279.57 0.0644444 278.97L0.0744446 278.7C0.0444446 278.17 0.0244447 277.67 0.0144447 277.17C0.0144447 277.02 0.00444444 276.56 0.00444444 276.56C0.00444444 276.14 -0.00555556 275.74 0.00444444 275.34C0.00444444 275.18 0.0244444 274.67 0.0244444 274.67C0.0344444 274.25 0.0544446 273.88 0.0744446 273.51C0.0944446 273.24 0.104445 272.99 0.124445 272.73C0.144445 272.4 0.184444 272.04 0.214444 271.67C0.244444 271.4 0.264445 271.15 0.304445 270.89C0.344445 270.54 0.394445 270.15 0.454445 269.76C0.454445 269.76 0.524445 269.27 0.554445 269.08C0.624445 268.65 0.704445 268.24 0.784445 267.82C0.824445 267.59 0.864445 267.4 0.904445 267.22C1.03444 266.63 1.17444 266.02 1.33444 265.41C3.50444 257.16 8.51444 249.28 15.8244 242.6C16.0744 242.37 16.8944 241.63 16.8944 241.63L17.8744 240.76L18.8644 239.9L19.8644 239.05C20.2044 238.77 20.5444 238.49 20.8844 238.22C20.8844 238.22 21.7844 237.52 22.0044 237.34C22.2044 237.18 22.4044 237.04 22.6044 236.89C22.7644 236.77 22.9844 236.6 23.2144 236.44C23.2144 236.44 23.8044 236.02 23.8244 236C23.1044 232.12 22.7944 228.3 22.8844 224.6C23.2144 211.24 29.3244 198.51 41.0644 186.75C49.0444 178.76 58.9944 172.55 69.3444 169.06C71.5444 158.33 74.2944 146.36 78.0344 134.48C79.6544 129.32 81.3444 124.59 83.1744 120.03C83.4444 119.36 83.7145 118.65 83.9845 117.94C84.4945 116.61 85.0244 115.22 85.6344 113.8C84.0044 110.28 82.6944 106.65 81.5444 103.06C74.2844 100.29 67.2944 93.94 66.1444 84.68C65.2544 77.45 68.3144 70.98 74.3844 66.58C74.3844 66.44 74.3944 66.31 74.3944 66.18C74.8744 50.99 80.7044 35.9 90.8144 23.69C100.514 11.97 113.874 3.69 127.474 0.96C130.634 0.33 133.934 0 137.274 0C151.374 0 163.774 5.52 171.684 10.16C186.524 18.85 198.144 31.55 205.084 46.49C206.264 46.57 207.424 46.74 208.554 47C216.544 48.85 222.034 55.13 222.214 62.63C222.434 71.41 215.424 77.67 212.404 79.95C212.314 80.01 212.224 80.08 212.134 80.15C211.614 98.19 204.484 115.7 192.814 128.46C194.404 128.73 195.974 129.05 197.534 129.43C203.334 130.82 211.804 133.41 218.434 139.79C218.854 140.19 219.254 140.6 219.654 141.03C220.014 141.16 220.374 141.29 220.734 141.43C230.694 136.17 241.394 133.41 251.994 133.41C256.454 133.41 260.874 133.91 265.124 134.9C273.404 136.83 281.224 140.72 287.874 146.22C288.234 146.35 288.604 146.49 288.964 146.63C293.274 144.78 297.574 142.93 301.874 141.07C315.404 135.23 329.214 129.32 342.904 123.52C349.564 120.7 356.224 117.89 362.894 115.09C364.754 114.31 366.634 113.47 368.624 112.59C373.864 110.25 379.274 107.84 385.104 106.16C385.674 106 386.254 105.87 386.844 105.79C388.074 105.41 389.364 105.22 390.674 105.22C397.864 105.22 403.664 110.78 403.884 117.88C403.924 119.07 403.944 120.24 403.974 121.42C404.094 126.41 404.204 131.13 404.944 135.71C405.134 136.88 405.324 138.04 405.524 139.2C406.314 143.93 407.134 148.82 407.544 153.93C408.344 163.71 408.254 173.45 408.174 182.86C408.144 185.76 408.124 188.66 408.124 191.56C408.124 199.09 408.254 206.49 408.514 213.66C414.844 214.67 421.174 216.4 426.994 218.76C433.524 221.4 439.604 224.88 445.084 229.12C461.864 236.54 474.464 248.63 481.594 264.18C489.714 281.87 488.844 302.15 479.804 318.26C490.184 331.38 492.174 350.2 484.054 366.36C479.344 375.73 471.614 383.62 461.704 389.19C455.434 392.71 449.514 395.14 444.034 396.45C440.734 411.02 433.714 423.88 423.464 434.01C411.204 446.12 394.584 453.07 377.874 453.07C372.444 453.07 367.174 452.37 362.094 450.97C357.804 460.26 351.004 468.22 342.494 473.67C334.274 478.93 324.274 481.82 314.324 481.82C307.414 481.82 300.704 480.45 294.644 477.82C293.074 478.64 291.464 479.38 289.804 480.06C283.544 482.59 276.474 483.93 269.374 483.93Z" fill="white"/>
<path d="M210.854 164.9C204.844 154.54 193.854 150.07 183.084 146.51C183.084 148.54 183.084 150.56 183.084 152.59C193.494 150.21 201.784 157.44 208.284 164.59C210.594 167.13 215.074 164.48 214.054 161.23C211.384 152.77 204.254 145.62 195.164 144.71C191.254 144.32 190.894 150.13 194.274 151.26C200.494 153.33 205.284 156.53 207.394 163.07C209.314 161.95 211.244 160.83 213.164 159.71C204.944 150.8 194.144 142.8 181.414 146.51C178.044 147.49 178.634 152.74 182.254 152.7C192.844 152.58 201.094 159.99 207.764 167.28C209.284 168.97 211.964 166.82 210.854 164.9Z" fill="#D0CFCD"/>
<path d="M296.056 183.61C295.416 165.34 281.006 150.19 263.706 145.68C243.546 140.43 221.546 149.73 208.026 164.79C205.196 167.94 209.686 172.52 212.706 169.47C225.076 156.94 242.616 147.8 260.666 151.51C276.206 154.71 289.706 167.56 291.596 183.61C291.926 186.38 296.156 186.55 296.056 183.61Z" fill="#39404A"/>
<path d="M213.666 155.959C213.866 155.959 213.866 155.649 213.666 155.649C213.466 155.649 213.466 155.959 213.666 155.959Z" fill="#39404A"/>
<path d="M216.166 161.69C219.936 149.88 204.336 142.28 195.476 140.07C184.186 137.26 169.186 136.9 159.716 144.73C157.166 146.84 159.896 151.37 162.956 150.3C167.316 148.77 171.356 146.79 175.966 145.98C180.976 145.1 186.256 145.2 191.266 146.06C195.886 146.85 200.586 148.13 204.676 150.46C209.666 153.31 211.436 157.05 213.626 162.02C214.146 163.19 215.836 162.72 216.166 161.69Z" fill="#39404A"/>
<path d="M53.2745 224.49C59.1345 226.12 65.1845 226.89 70.3845 230.32C72.6845 231.84 74.6345 233.73 76.0045 236.13C77.1945 238.21 77.4945 239.75 79.6645 240.95C80.8145 241.58 82.3645 241.25 83.0345 240.07C86.0345 234.72 79.4245 228.75 75.3245 226.08C69.1445 222.05 60.9845 220.88 53.7445 220.97C51.7345 220.99 51.3045 223.94 53.2745 224.49Z" fill="#D0CFCD"/>
<path d="M57.604 228.539C62.504 234.089 67.464 238.599 70.654 245.459C72.674 249.789 79.034 246.619 78.074 242.329C76.774 236.509 74.204 231.029 70.744 226.189C67.874 222.179 61.314 225.779 64.004 230.129C64.194 230.429 64.384 230.739 64.564 231.039C65.544 232.619 67.194 233.129 68.944 232.819C69.634 232.699 70.224 232.369 70.654 231.819C71.764 230.429 72.174 228.749 71.264 227.119C71.094 226.809 70.914 226.499 70.744 226.189C68.494 227.499 66.254 228.819 64.004 230.129C67.054 234.579 69.004 239.249 70.244 244.489C72.714 243.449 75.194 242.409 77.664 241.359C73.444 234.979 67.844 227.739 60.634 224.609C58.094 223.499 55.624 226.299 57.604 228.539Z" fill="#D0CFCD"/>
<path d="M65.6055 286.64C67.9855 289.75 72.6455 287.66 75.9655 287.37C82.3855 286.8 87.2055 288.56 92.8155 291.42C96.9255 293.52 100.186 287.86 96.4155 285.27C91.5755 281.95 84.9655 280.79 79.1955 281.26C76.1455 281.51 73.3255 282.49 70.4255 283.41C68.3255 284.07 66.7555 284.14 65.6155 286.08C65.5155 286.23 65.4855 286.49 65.6055 286.64Z" fill="#D0CFCD"/>
<path d="M243.885 201.49C242.195 199.3 240.175 199.16 237.585 200.14C232.675 202 228.135 205.67 223.585 208.28C218.575 211.15 213.535 213.98 208.415 216.65C203.125 219.41 197.285 221.66 192.565 225.32C190.105 227.23 192.805 231 195.455 230.29C203.895 228.03 212.035 221.93 219.355 217.3C223.215 214.86 226.995 212.29 230.725 209.66C232.675 208.28 239.955 201.21 242.375 203C243.235 203.63 244.545 202.35 243.885 201.49Z" fill="#D0CFCD"/>
<path d="M183.735 230.169C205.745 222.669 228.505 216.589 251.425 212.619C250.395 210.179 249.375 207.749 248.345 205.309C228.865 215.869 210.825 228.819 194.515 243.809C190.725 247.289 196.195 252.359 200.035 249.329C214.965 237.579 230.135 225.809 248.575 220.219C247.675 218.099 246.785 215.969 245.885 213.849C227.675 224.429 209.145 234.479 190.775 244.789C187.485 246.629 189.695 252.369 193.405 251.019C213.695 243.629 229.955 227.089 251.405 222.729C250.645 220.919 249.875 219.099 249.115 217.289C231.455 226.619 213.335 235.149 195.425 243.989C196.525 245.859 197.615 247.739 198.715 249.609C215.735 239.069 232.625 228.309 249.495 217.529C252.995 215.289 249.955 210.239 246.265 212.009C229.665 219.969 212.505 226.729 195.065 232.639C195.925 234.679 196.785 236.719 197.645 238.759C210.185 231.559 222.725 224.359 235.265 217.159C239.195 214.899 235.675 208.879 231.715 211.079C219.365 217.929 205.925 222.069 192.465 226.119C187.925 227.479 189.825 234.499 194.425 233.239C203.545 230.739 212.115 226.869 219.975 221.619C223.515 219.259 221.345 213.629 217.045 214.669C206.895 217.109 197.225 220.989 188.325 226.439C184.145 229.009 187.915 235.519 192.185 233.039C200.665 228.109 209.545 224.379 219.075 221.999C218.095 219.679 217.125 217.369 216.145 215.049C208.815 220.029 201.005 223.699 192.465 226.109C193.115 228.479 193.775 230.859 194.425 233.229C208.435 228.889 222.445 224.399 235.265 217.149C234.085 215.119 232.895 213.099 231.715 211.069C219.235 218.369 206.755 225.669 194.265 232.969C191.085 234.829 193.175 240.369 196.845 239.089C214.785 232.849 232.265 225.529 249.485 217.519C248.405 215.679 247.335 213.839 246.255 211.999C229.265 222.569 212.265 233.169 195.415 243.969C191.875 246.239 194.965 251.509 198.705 249.589C216.465 240.479 234.105 231.019 252.115 222.409C255.375 220.849 252.905 216.439 249.825 216.969C228.025 220.729 211.975 237.129 191.595 244.429C192.475 246.509 193.345 248.579 194.225 250.659C212.615 240.389 230.875 229.849 249.415 219.859C252.925 217.969 250.515 212.469 246.725 213.489C226.915 218.819 210.425 231.359 194.525 243.799C196.365 245.639 198.205 247.479 200.045 249.319C215.925 234.799 233.455 222.409 252.385 212.199C256.585 209.929 253.555 204.099 249.305 204.889C225.925 209.249 203.615 216.049 181.925 225.839C179.495 226.959 181.215 231.029 183.735 230.169Z" fill="#D0CFCD"/>
<path d="M257.205 193.73C249.865 195.43 242.415 196.55 235.075 198.35C227.775 200.14 220.535 202.2 213.255 204.11C198.705 207.94 184.185 211.87 169.675 215.87C164.455 217.31 165.255 226.36 171.005 225.67C184.765 224.02 198.515 222.06 212.165 219.71C225.885 217.34 240.005 214.8 253.165 210.17C252.405 207.42 251.645 204.66 250.885 201.91C232.345 208.11 212.945 214.2 195.675 223.51C191.845 225.57 194.475 232.27 198.695 230.68C216.905 223.8 234.425 215.7 253.165 210.17C258.455 208.61 256.255 200.62 250.885 201.91C237.795 205.04 224.875 208.25 211.565 210.39C198.085 212.56 184.525 213.96 170.995 215.69C171.435 218.96 171.875 222.23 172.325 225.49C186.815 221.38 201.195 216.98 215.495 212.23C222.325 209.96 229.205 207.75 235.965 205.28C243.445 202.55 250.505 199.1 257.865 196.14C259.335 195.56 258.815 193.35 257.205 193.73Z" fill="#D0CFCD"/>
<path d="M174.875 337.89C186.775 342.55 200.335 328.8 208.045 321.48C206.175 319.61 204.305 317.74 202.435 315.87C198.365 320.13 194.085 324.13 189.475 327.8C185.585 330.89 181.795 333.86 179.685 338.49C178.485 341.13 179.905 344.01 182.945 344.17C188.895 344.48 195.305 337.57 199.425 333.91C203.165 330.58 210.745 325.39 209.255 319.6C208.705 317.46 206.255 316.65 204.415 317.63C194.925 322.66 185.355 327.54 175.825 332.49C176.925 334.38 178.035 336.27 179.135 338.16C187.655 333.75 195.485 328.35 202.645 321.97C205.875 319.1 201.205 314.64 197.965 317.29C189.885 323.89 181.475 330 172.745 335.7C169.225 338 172.505 343.68 176.055 341.37C185.255 335.36 194.105 328.88 202.645 321.97C201.085 320.41 199.525 318.85 197.965 317.29C191.185 323.26 183.825 328.32 175.825 332.5C172.075 334.46 175.395 340.11 179.135 338.17C188.665 333.22 198.165 328.2 207.745 323.33C206.135 322.67 204.515 322.02 202.905 321.36C202.965 321.68 203.025 322 203.085 322.33C203.195 321.47 203.305 320.62 203.425 319.76C201.915 323.31 197.365 326.5 194.495 328.98C192.695 330.53 190.855 332.02 188.935 333.42C188.175 333.98 184.885 336.99 183.965 336.76C184.715 338.61 185.465 340.46 186.225 342.31C188.445 337.82 192.545 335.23 196.365 332.2C200.515 328.9 204.415 325.32 208.065 321.49C211.585 317.8 206.075 312.26 202.455 315.88C194.615 323.73 186.135 332.15 174.895 334.39C172.935 334.76 173.375 337.3 174.875 337.89Z" fill="#D0CFCD"/>
<path d="M276.625 332.16C271.435 336.57 265.336 341.36 258.526 342.7C251.406 344.1 243.775 342.99 236.775 341.47C223.015 338.47 210.385 332.38 199.215 323.84C197.925 326.9 196.635 329.96 195.345 333.02C207.675 337.79 218.535 344.52 231.995 345.74C238.545 346.33 245.476 346.27 252.026 345.62C258.886 344.93 264.725 342.15 270.685 338.84C268.945 336.59 267.215 334.34 265.475 332.09C256.725 341.47 243.445 338.42 232.805 334.44C221.335 330.15 210.285 324.77 200.415 317.48C198.995 319.91 197.575 322.34 196.155 324.77C199.235 326.34 202.325 327.92 205.405 329.49C206.105 326.9 206.815 324.3 207.515 321.71C207.455 321.62 207.395 321.53 207.325 321.44C205.735 316.36 197.765 318.51 199.315 323.65C200.525 327.66 203.395 329.74 207.515 330.07C211.655 330.4 213.195 324.15 209.625 322.29C206.555 320.69 203.485 319.09 200.415 317.5C195.485 314.93 191.885 321.58 196.155 324.79C207.735 333.5 221.845 340 235.705 344.19C247.945 347.89 261.995 347.75 271.565 338.19C275.105 334.66 270.625 329.23 266.355 331.44C260.525 334.46 255.295 336.51 248.665 336.67C242.345 336.82 235.835 337.01 229.575 336C218.275 334.18 208.485 327.63 198.025 323.37C193.475 321.52 189.275 328.73 193.145 331.76C206.315 342.1 221.595 349.48 238.135 352.5C246.215 353.98 255.025 355.05 263.015 352.55C271.435 349.91 276.625 344.16 282.045 337.59C285.155 333.77 280.405 328.95 276.625 332.16Z" fill="#D0CFCD"/>
<path d="M455.914 336.249C449.474 350.889 436.014 360.659 419.804 360.249C417.444 360.189 415.744 362.219 415.614 364.439C415.284 369.999 415.684 377.639 423.584 375.599C429.394 374.099 438.394 368.619 439.834 362.549C440.344 360.399 438.414 358.179 436.154 358.869C432.424 359.999 429.914 363.139 426.644 365.179C426.194 365.459 421.444 367.879 421.434 367.819C423.204 369.749 423.954 369.649 423.694 367.539C423.794 366.509 423.894 365.479 423.994 364.449C422.594 365.849 421.204 367.239 419.804 368.639C438.764 368.809 455.484 355.879 457.814 336.779C457.934 335.779 456.314 335.349 455.914 336.249Z" fill="#D0CFCD"/>
<path d="M333.625 424.809C325.845 443.319 304.865 457.259 285.335 446.209C280.485 443.469 276.085 451.059 280.985 453.659C304.565 466.149 329.125 448.619 336.165 425.509C336.675 423.839 334.265 423.309 333.625 424.809Z" fill="#D0CFCD"/>
<path d="M96.3659 401.78C97.6559 407.79 101.986 411.8 106.656 415.46C112.676 420.18 118.676 424.97 125.726 428.08C137.346 433.21 152.896 432.39 160.546 421.2C162.176 418.81 158.886 415.4 156.476 417.13C147.496 423.6 137.246 424.11 126.896 420.93C121.406 419.24 116.166 416.63 111.206 413.75C105.946 410.7 100.146 407.33 97.9659 401.33C97.6159 400.33 96.1359 400.72 96.3659 401.78Z" fill="#D0CFCD"/>
<path d="M25.9458 335.91C32.6458 362.9 63.5158 380.35 90.0758 370.37C88.8958 368.83 87.7058 367.29 86.5258 365.75C85.1458 368.76 83.8558 371.76 82.1158 374.57C83.0458 374.03 83.9858 373.5 84.9158 372.96C81.5758 372.6 78.2158 372.34 74.8658 372.15C74.8658 374.69 74.8658 377.23 74.8658 379.76C79.6258 379.22 83.8858 377.95 88.0158 375.52C91.7658 373.31 89.1358 368.12 85.1958 368.83C76.2858 370.42 66.3258 371.33 58.5858 365.79C57.6058 368.12 56.6158 370.46 55.6358 372.79C62.0058 374.98 68.4758 376.96 75.0558 378.41C74.5358 376.42 74.0058 374.44 73.4858 372.45C65.0658 379.12 54.8458 365.37 49.8758 360.43C44.1658 354.76 36.6258 351.63 31.5458 345.32C29.4958 342.78 25.7158 345.57 26.3858 348.32C27.5958 353.3 31.4658 356.23 35.5158 359C40.9058 362.69 44.9958 366.9 49.5758 371.5C56.9558 378.91 68.0258 384.69 77.8058 378.04C80.3158 376.34 80.0158 372.43 76.9558 371.52C70.4758 369.6 64.0458 367.67 57.6758 365.39C53.3558 363.84 51.3558 370.07 54.7258 372.39C64.4758 379.14 76.1058 377.37 87.1458 375.87C86.2058 373.64 85.2658 371.41 84.3258 369.18C81.3058 370.79 78.2758 371.8 74.8658 372.13C70.0858 372.6 69.8658 379.77 74.8658 379.74C78.2158 379.72 81.5758 379.63 84.9158 379.43C86.4558 379.34 87.5258 378.46 88.0458 377.05C89.0958 374.21 90.5658 371.58 91.9558 368.9C93.3158 366.28 91.0858 363.88 88.4058 364.28C75.8858 366.15 63.2558 365.33 51.9658 359.11C41.8858 353.56 33.8358 344.94 28.4058 334.86C27.6658 333.52 25.5858 334.47 25.9458 335.91Z" fill="#D0CFCD"/>
<path d="M34.1458 246.04C22.8358 253.93 18.8058 269.25 22.0458 282.28C22.9558 285.94 24.3358 289.44 26.0558 292.79C26.5558 293.76 27.0758 294.71 27.6158 295.66C28.5758 294.33 28.6158 293.02 27.7358 291.72C27.4058 289.7 26.4158 287.62 25.8958 285.63C24.6558 280.91 23.8258 276.17 23.4758 271.3C23.1658 267.02 22.1858 260.94 25.3258 257.43C24.0158 256.42 22.7158 255.41 21.4058 254.4C11.0458 271.06 12.8458 291.94 28.2358 304.95C30.9058 307.21 34.7558 303.25 32.0558 301.13C18.9158 290.82 14.5658 271.21 25.3258 257.42C26.8958 255.41 24.8358 251.69 22.2958 253.5C14.3658 259.16 16.1358 271.05 17.5258 279.44C18.4358 284.97 21.6958 304.74 30.7958 301.96C34.3158 300.88 34.6958 297.16 33.4658 294.21C31.3258 289.07 27.6858 284.96 26.1158 279.47C22.7458 267.7 27.4858 256.28 35.2258 247.43C35.8358 246.72 35.0158 245.43 34.1458 246.04Z" fill="#D0CFCD"/>
<path d="M360.435 299.36C360.695 297.57 360.785 295.66 361.415 293.97C359.885 293.76 358.355 293.56 356.825 293.35C357.095 297.36 357.345 301.33 357.165 305.35C359.145 304.81 361.125 304.28 363.095 303.74C361.625 300.47 360.365 297.14 359.395 293.69C358.285 289.76 352.745 290.74 352.495 294.62C352.385 296.28 352.285 297.94 352.145 299.59C353.975 298.54 355.805 297.49 357.635 296.44C356.275 295.72 355.455 294.46 354.195 293.57C351.445 291.64 348.545 294.82 349.035 297.54C349.475 299.97 351.785 301.8 353.945 302.75C356.405 303.83 359.425 302.61 359.435 299.6C359.445 297.94 359.475 296.29 359.505 294.63C357.205 294.94 354.905 295.25 352.605 295.56C353.915 299.5 355.515 303.35 357.585 306.96C359.105 309.6 363.705 308.57 363.515 305.35C363.265 301.09 362.705 296.8 361.395 292.73C360.465 289.85 355.825 291.19 356.895 293.97C357.545 295.67 357.665 297.57 357.945 299.36C358.145 300.58 360.255 300.6 360.435 299.36Z" fill="#D0CFCD"/>
<path d="M380.815 229.45C393.815 230.51 406.065 230.17 418.495 234.95C429.405 239.14 439.165 246.45 445.665 256.23C458.095 274.97 455.355 300.78 436.425 314.22C433.095 316.59 436.015 321.9 439.685 319.8C462.535 306.69 466.255 275.69 453.415 254.3C446.535 242.85 435.915 234.15 423.625 229.06C410.795 223.75 393.725 221.32 380.355 226.03C378.465 226.69 378.835 229.29 380.815 229.45Z" fill="#39404A"/>
<path d="M444.965 310.88C449.115 317.31 454.155 322.99 455.705 330.76C457.105 337.78 455.225 345.24 451.645 351.34C447.875 357.76 442.185 362.56 435.625 365.96C428.755 369.52 420.835 369.86 414.065 373.31C412.255 374.23 412.655 377.28 414.645 377.71C422.835 379.5 432.695 375.35 439.805 371.49C447.695 367.21 454.515 360.81 458.545 352.74C466.235 337.36 462.285 317.97 447.055 308.78C445.785 308 444.125 309.57 444.965 310.88Z" fill="#39404A"/>
<path d="M412.477 347.181C415.107 369.671 411.837 393.541 395.257 410.251C380.547 425.081 356.677 430.001 338.497 418.341C335.847 416.641 332.767 418.911 332.597 421.721C331.917 432.871 325.937 443.531 316.397 449.501C305.807 456.131 293.317 455.751 281.917 451.591C278.497 450.341 276.387 455.651 279.467 457.401C292.117 464.581 308.707 463.531 320.867 455.681C332.497 448.171 339.517 435.421 340.437 421.711C338.467 422.841 336.507 423.971 334.537 425.091C355.117 439.161 382.157 434.751 399.657 417.791C418.477 399.551 423.517 371.251 416.357 346.631C415.757 344.611 412.207 344.891 412.477 347.181Z" fill="#39404A"/>
<path d="M286.076 441.01C280.286 447.03 275.056 452.14 266.856 454.73C258.896 457.25 250.466 457.65 242.446 455.12C225.166 449.67 213.816 433.43 210.096 416.3C209.516 413.61 205.726 412.66 203.886 414.66C198.556 420.48 191.226 424.09 183.226 423.87C174.956 423.64 168.566 419.24 162.336 414.28C160.106 412.51 156.826 414.67 158.266 417.42C168.286 436.44 196.226 433.91 209.136 419.92C207.066 419.37 204.996 418.83 202.926 418.28C207.146 438.2 221.196 457.65 241.656 463.01C258.346 467.38 283.496 461.43 289.586 443.05C290.256 441.04 287.496 439.53 286.076 441.01Z" fill="#39404A"/>
<path d="M160.945 418.6C157.415 419.67 154.605 422.69 151.255 424.32C147.515 426.14 143.515 427.38 139.375 427.87C130.345 428.93 121.235 426.4 114.235 420.54C99.5253 408.24 88.4153 385.67 94.1553 366.56C95.1953 363.09 89.6953 360.58 88.1553 364.03C78.4353 385.8 93.1653 413.84 110.775 427.36C118.965 433.65 129.175 436.09 139.375 434.73C144.165 434.09 148.935 432.67 153.175 430.32C156.865 428.27 161.955 424.99 163.025 420.68C163.335 419.47 162.215 418.22 160.945 418.6Z" fill="#39404A"/>
<path d="M87.4541 378.79C82.4141 378.87 77.7341 379.89 72.6541 379.11C67.7541 378.36 62.8441 376.73 58.3941 374.56C49.0541 369.99 40.9041 362.77 35.0941 354.16C23.4841 336.94 23.5741 315.79 39.0841 301.1C41.8041 298.53 38.3141 294.06 35.1041 295.95C13.5241 308.66 15.8541 339.08 28.0441 357.37C34.8341 367.57 44.3141 376.01 55.5241 381.03C64.8841 385.21 79.0441 388.23 88.4941 382.67C90.2541 381.63 89.5341 378.76 87.4541 378.79Z" fill="#39404A"/>
<path d="M111.235 184.64C91.6753 169.22 64.7953 178.36 48.7753 194.31C40.3553 202.69 33.6953 213.28 33.5553 225.48C33.4153 237.88 39.0453 251.66 46.9053 261.14C48.9453 263.6 53.4853 260.96 52.3453 257.97C48.5453 247.99 42.3053 239.04 41.6953 228.03C41.1053 217.25 46.4653 207.94 53.6853 200.35C68.0753 185.22 89.3253 177.83 108.765 187.82C110.705 188.81 113.135 186.14 111.235 184.64Z" fill="#39404A"/>
<path d="M39.995 240.67C33.495 241.2 26.575 247.18 22.045 251.55C17.135 256.29 13.085 262.21 11.495 268.92C7.98498 283.72 16.035 302.06 28.315 310.67C30.275 312.04 32.655 309.39 31.505 307.48C28.055 301.74 23.275 297.03 20.295 290.94C16.995 284.19 15.545 276.4 17.595 269.06C19.335 262.83 23.435 257.7 28.185 253.45C32.235 249.83 38.035 247.23 41.255 242.87C41.895 242 41.035 240.58 39.995 240.67Z" fill="#39404A"/>
<path d="M196.285 61.2397C198.695 59.7997 201.535 59.1097 204.335 59.2697C206.705 59.3997 209.485 60.6897 209.575 63.0597C209.625 64.3197 208.855 65.4597 208.095 66.4697C206.895 68.0697 205.595 69.6297 203.935 70.7497C202.275 71.8697 200.205 72.4997 198.255 72.0597" fill="white"/>
<path d="M197.245 62.8798C199.365 61.7298 201.885 60.9398 204.335 61.2098C206.265 61.4298 208.235 62.2598 207.025 64.4898C206.175 66.0498 204.645 67.7198 203.265 68.8598C201.395 70.4098 199.425 69.6898 197.555 70.8398C196.755 71.3298 196.675 72.3498 197.275 73.0198C199.505 75.5198 203.825 73.2198 205.995 71.5898C208.405 69.7698 211.655 66.2998 211.575 63.0398C211.505 60.0798 208.825 58.1598 206.175 57.5498C202.495 56.6998 198.545 57.7898 195.325 59.5798C193.175 60.7898 195.095 64.0598 197.245 62.8798Z" fill="#39404A"/>
<path d="M200.945 313.94C187.805 324.41 161.395 342.82 144.715 344.83C138.865 345.53 132.955 345.59 127.065 345.56C111.005 345.47 93.8652 344.35 80.9752 334.78C79.4452 333.65 79.2252 331.9 78.4752 330.15C74.3252 320.55 73.0752 309.98 72.1252 299.56C70.6452 283.32 69.7752 266.98 70.6052 250.69C71.7252 228.87 75.8752 207.34 80.0252 185.9C84.6252 162.09 89.3252 137.98 99.7352 116.07C101.365 112.64 104.935 111.43 108.505 110.14C120.365 105.85 133.765 102.68 145.335 107.72C150.065 109.78 154.125 113.09 158.115 116.35C163.545 120.79 169.545 125.44 174.975 129.88C182.945 167.09 191.565 204.17 200.835 241.08" fill="#168BBD"/>
<path d="M199.825 312.01C189.255 320.03 178.175 327.61 166.425 333.8C160.645 336.84 154.595 339.69 148.225 341.25C140.145 343.22 131.295 342.74 123.035 342.55C114.955 342.36 106.805 341.82 98.9552 339.78C95.1252 338.78 91.3752 337.44 87.8852 335.57C83.0652 332.98 81.2252 329.52 79.5652 324.47C73.9752 307.52 73.7952 287.95 73.4252 270.26C72.6352 232.93 80.1952 195.25 88.5952 159.01C90.5752 150.45 92.8652 141.95 95.7252 133.65C97.2152 129.31 98.8652 125.02 100.725 120.83C101.615 118.81 102.365 116.76 104.105 115.34C105.995 113.81 108.655 113.1 110.925 112.31C119.165 109.44 128.075 107.05 136.865 108.27C146.345 109.59 153.165 115.92 160.365 121.67C163.895 124.49 168.795 127.26 171.705 130.71C173.355 132.66 173.505 135.88 174.035 138.31C174.665 141.2 175.285 144.08 175.925 146.96C178.245 157.53 180.625 168.1 183.045 178.65C187.865 199.62 191.945 221.25 198.845 241.64C199.725 244.23 203.325 243.16 202.885 240.53C199.335 219.25 193.145 198.23 188.305 177.2C185.875 166.65 183.505 156.09 181.185 145.51C180.075 140.44 179.365 135.08 177.845 130.12C176.655 126.23 171.615 123.65 168.525 121.17C161.555 115.6 154.715 108.76 146.445 105.17C138.445 101.69 129.605 101.84 121.185 103.52C114.365 104.88 103.745 106.85 98.8852 112.35C96.3752 115.19 95.1352 119.31 93.7052 122.77C91.7452 127.52 90.0052 132.36 88.4552 137.26C82.3152 156.54 78.7852 176.61 75.0052 196.46C71.1052 216.95 67.7252 237.61 67.3152 258.51C66.9252 278.47 67.5152 299.83 71.9052 319.38C73.5552 326.72 75.4552 335.01 82.1152 339.19C89.5752 343.88 98.1952 346.21 106.845 347.39C124.385 349.77 144.045 350.25 160.465 342.95C175.715 336.17 189.745 326.13 202.555 315.52C204.465 313.92 201.845 310.47 199.825 312.01Z" fill="#39404A"/>
<path d="M104.215 124.82C104.265 130.75 103.225 134.29 101.795 140.04C91.5848 181.08 87.9148 223.74 90.9648 265.92C92.0848 281.45 94.1848 297.15 100.355 311.44C106.525 325.73 117.245 338.62 131.655 344.53C123.385 341.89 115.125 339.26 106.855 336.62C99.0048 334.12 90.4748 331.1 86.2548 324.02C83.8248 319.94 83.2048 315.05 82.8948 310.3C81.6448 291.03 84.6548 271.64 82.9548 252.4C82.2848 244.84 80.9248 237.04 83.2248 229.81C82.9548 247.93 82.6848 266.05 82.4048 284.17C82.4948 282.82 82.5848 281.47 82.6748 280.12" fill="#407A1B"/>
<path d="M98.1153 121.26C94.4753 127.54 92.5553 134.94 90.2953 141.86C87.6253 150.03 85.9053 158.61 84.1853 167.02C80.6353 184.39 78.6153 202.12 77.5953 219.82C76.5753 237.67 77.2953 254.97 79.7053 272.69C81.8853 288.63 85.2853 304.91 93.2353 319.09C97.2353 326.24 103.295 331.48 109.605 336.57C112.465 338.88 115.295 341.53 118.685 343.04C121.795 344.42 127.375 342.84 129.515 345.78C130.805 344.78 132.095 343.79 133.395 342.79C129.665 338.61 124.395 335.56 119.335 333.3C114.665 331.22 109.255 329.94 104.885 327.25C101.915 325.42 97.4753 322.5 95.9053 319.22C93.9353 315.11 93.7253 309.96 93.3653 305.49C92.3653 292.96 92.7953 280.38 92.5053 267.83C92.3553 261.52 92.0253 255.2 91.4753 248.91C90.9853 243.35 90.1953 237.59 91.5953 232.13C85.9053 231.36 80.2153 230.59 74.5253 229.82C74.5753 247.97 72.6453 266.08 71.4653 284.18C71.0853 290.08 76.7653 295.11 82.3953 295.11C88.7353 295.11 92.8053 290.09 93.3253 284.18C93.4453 282.83 93.5653 281.48 93.6853 280.13C94.2053 274.2 88.2453 269.12 82.6753 269.12C76.4853 269.12 71.9353 274.17 71.6653 280.13C71.6053 281.48 71.5453 282.83 71.4853 284.18C78.7753 284.18 86.0553 284.18 93.3453 284.18C92.7153 266.08 91.3353 247.93 91.9253 229.82C92.2553 219.83 77.6453 218.29 74.8553 227.51C72.8053 234.28 72.8953 241.07 73.6553 248.03C74.4553 255.32 74.7153 262.43 74.3653 269.76C73.6853 283.98 71.0053 298.43 72.0753 312.69C73.0953 326.37 80.7053 338.54 94.6653 342.13C100.335 343.59 106.285 344.55 112.025 345.89C118.515 347.4 125.745 348.43 132.325 346.92C134.975 346.31 134.465 341.71 131.665 342.07C128.405 342.49 127.725 339.71 126.365 337.26C124.715 334.3 121.865 332.24 119.715 329.67C115.515 324.66 114.105 318.63 111.515 312.79C105.585 299.44 103.795 284.87 103.265 270.4C102.065 237.86 102.815 205.31 106.945 172.99C108.075 164.15 109.905 155.43 111.195 146.61C112.485 137.75 114.875 129.49 110.335 121.26C107.735 116.6 100.735 116.75 98.1153 121.26Z" fill="#168BBD"/>
<path d="M96.675 107.52C101.425 115.22 106.435 123.08 113.815 128.3C122.035 134.11 132.445 136.07 142.515 135.98C152.665 135.89 162.995 133.8 171.675 128.53C175.485 126.22 178.935 123.33 181.995 120.09C196.885 104.32 201.675 80.0596 194.865 59.4696C188.055 38.8796 170.305 22.5096 149.495 16.3896C145.275 15.1496 140.915 14.2896 136.515 14.3496C131.485 14.4196 126.525 15.6796 121.875 17.5796C101.015 26.1196 86.805 48.7196 88.155 71.2096C88.695 80.1996 91.445 88.8896 94.165 97.4696C95.865 102.82 97.565 108.17 99.265 113.52" fill="white"/>
<path d="M95.3959 73.0396C97.5859 70.8596 97.3759 68.6296 97.9059 65.5996C98.5059 62.1696 99.2759 58.7596 100.326 55.4396C102.416 48.8496 105.636 42.2996 110.076 36.9596C113.626 32.6796 117.946 29.1096 122.776 26.3396C128.476 23.0696 135.506 22.3896 140.916 18.8796C142.126 18.0996 142.016 16.0696 140.496 15.6996C133.946 14.0796 126.076 17.6996 120.306 20.6896C114.716 23.5896 109.556 27.5396 105.376 32.2596C100.686 37.5596 97.3159 43.6996 94.9559 50.3496C93.5959 54.1696 92.5959 58.1396 91.9359 62.1496C91.3659 65.6196 90.1859 69.6396 92.3659 72.6396C93.0859 73.6396 94.4459 73.9896 95.3959 73.0396Z" fill="#D0CFCD"/>
<path d="M177.026 154.98C180.286 162.51 185.496 169.27 190.246 175.91C194.096 181.29 197.926 186.68 202.046 191.86C210.216 202.15 219.366 210.34 231.286 215.96C236.256 218.3 239.406 210.68 234.196 209.06C222.236 205.34 213.146 194.64 205.846 185C197.646 174.18 190.576 161.5 180.416 152.37C178.496 150.65 176.076 152.78 177.026 154.98Z" fill="#39404A"/>
<path d="M138.025 342.46C124.035 342.34 109.675 341.87 96.1051 338.19C93.1051 337.38 90.1251 336.4 87.3251 335.05C83.2051 333.06 81.6551 330.37 80.1151 326.1C76.9251 317.27 75.9051 307.87 75.0751 298.58C73.2751 278.47 72.6351 258.32 74.6051 238.2C76.5351 218.46 80.4551 198.96 84.2351 179.52C88.3451 158.36 93.0151 137.12 102.155 117.48C103.665 114.24 98.8551 111.39 97.3151 114.65C88.6551 133.06 83.7051 152.74 79.6651 172.6C75.4351 193.37 71.1751 214.25 68.8151 235.33C66.3651 257.29 67.1351 279.34 69.2451 301.29C70.1251 310.49 71.2851 319.83 74.5751 328.52C75.7851 331.72 76.6751 335.18 79.4451 337.38C81.8851 339.32 84.8851 340.64 87.7551 341.78C103.375 348.01 121.425 348.26 138.015 348.33C141.805 348.36 141.815 342.5 138.025 342.46Z" fill="#168BBD"/>
<path d="M127.066 348.429C130.766 348.429 130.766 342.689 127.066 342.689C123.376 342.689 123.366 348.429 127.066 348.429Z" fill="#39404A"/>
<path d="M95.2448 91.9096C93.2948 97.0996 96.2348 104.13 98.4848 108.87C101.065 114.32 104.795 119.37 109.575 123.08C114.205 126.68 119.585 129.64 124.775 132.34C129.305 134.69 135.565 138.36 140.765 136.82C141.955 136.47 142.505 134.84 141.525 133.95C138.235 130.97 133.345 129.86 129.475 127.63C124.695 124.88 119.635 121.99 115.455 118.39C111.595 115.06 108.335 111.06 105.925 106.57C103.385 101.83 102.875 95.5796 99.8148 91.3196C98.5148 89.4996 96.0248 89.8296 95.2448 91.9096Z" fill="#D0CFCD"/>
<path d="M96.4954 110.7C101.845 121.41 108.985 130.44 120.325 135.18C132.765 140.38 148.095 140.24 160.925 136.54C185.885 129.33 201.275 104.01 201.515 78.8099C201.755 53.9099 187.055 31.3399 165.685 19.1599C154.525 12.7999 140.885 8.83985 128.135 11.9199C116.285 14.7799 105.765 22.2399 98.2254 31.6899C90.2854 41.6399 85.4154 54.1299 85.0754 66.8999C84.8654 74.9199 86.6454 82.8499 88.9054 90.4999C90.9354 97.3799 92.8454 104.54 96.0554 110.96C97.3454 113.54 100.735 111.58 100.355 109.15C98.6054 97.7799 93.2754 87.2299 91.6354 75.7699C90.0954 64.9699 92.0454 54.0598 97.1954 44.4398C102.045 35.3798 109.315 27.7999 118.395 22.9299C130.005 16.6999 142.065 16.9799 154.105 21.9199C173.575 29.9099 189.035 46.9099 193.225 67.7599C197.515 89.1299 189.275 114.18 170.105 125.83C158.505 132.88 143.095 134.53 129.935 131.77C115.875 128.82 107.895 119.81 99.6754 108.85C98.2654 106.99 95.4154 108.54 96.4954 110.7Z" fill="#39404A"/>
<path d="M101.266 75.42C95.7256 73.64 89.5655 73.87 84.1755 76.06C82.2555 76.84 80.3255 77.96 79.3655 79.8C77.8555 82.68 79.2855 86.36 81.6355 88.61C83.9655 90.84 87.1655 92.13 90.3955 92.14C93.6255 92.15 96.8355 90.88 99.1755 88.67" fill="white"/>
<path d="M102.416 74.2699C95.7561 68.7099 75.3861 72.3799 76.7661 83.5299C77.4061 88.7499 82.2661 92.5999 87.1161 93.7899C91.6161 94.8999 98.8861 93.9799 100.586 89.0399C100.986 87.8899 99.7961 87.0799 98.7961 87.2499C95.2961 87.8299 93.2161 90.2899 89.3061 89.9399C85.6461 89.6199 79.6061 86.1399 80.9561 81.4699C81.9961 77.8699 88.2161 76.8699 91.2261 76.5599C94.6461 76.2099 97.9661 77.4799 101.276 77.0399C102.486 76.8799 103.626 75.2899 102.416 74.2699Z" fill="#39404A"/>
<path d="M396.236 273.32C398.416 272.93 399.996 270.87 400.506 268.71C401.016 266.55 400.686 264.29 400.366 262.1C397.126 239.93 395.246 217.57 394.746 195.18C394.166 169.56 395.216 143.1 387.916 118.53C355.706 132.65 323.506 146.77 291.296 160.88C272.426 169.15 253.546 177.43 234.676 185.7C233.166 185.05 231.566 186.02 230.716 187.43C229.866 188.83 229.766 190.56 229.806 192.2C229.956 199.65 232.346 206.85 233.936 214.13C235.976 223.5 236.696 233.09 237.416 242.65C239.496 270.38 241.576 298.11 243.656 325.84C243.916 329.35 244.286 333.13 246.616 335.79C248.936 338.44 253.946 338.9 255.606 335.79C270.476 330.69 285.706 326.81 300.586 321.71C308.546 318.98 316.536 316.24 324.026 312.41C331.336 308.67 338.086 303.93 345.096 299.63C352.886 294.85 361.016 290.6 369.386 286.94C378.236 283.06 386.706 275.02 396.236 273.32Z" fill="white" stroke="#39404A" stroke-width="0.6193" stroke-miterlimit="10"/>
<path d="M139.357 279.65C146.597 284.59 154.427 289.55 162.377 293.26C162.827 291.61 163.267 289.96 163.717 288.32C155.097 287.16 145.777 282.35 138.837 277.21C137.117 275.94 135.277 278.62 136.627 280.07C142.357 286.25 150.007 290.06 157.587 293.47C165.857 297.19 173.997 301.08 181.897 305.53C199.077 315.21 215.557 326.22 232.377 336.52C235.297 338.31 237.967 333.72 235.057 331.93C218.777 321.91 202.467 311.94 185.977 302.25C178.087 297.61 170.057 293.37 161.657 289.74C153.727 286.32 145.957 282.98 139.197 277.49C138.457 278.44 137.727 279.4 136.987 280.35C141.367 283.11 145.097 286.6 149.717 288.99C153.917 291.17 158.327 292.76 163.007 293.52C165.737 293.96 167.957 290.13 165.047 288.67C157.087 284.67 149.467 279.9 141.437 276.07C139.047 274.93 137.147 278.14 139.357 279.65Z" fill="#D0CFCD"/>
<path d="M244.015 339.93C239.165 335.74 234.315 331.54 229.155 327.75C222.285 322.7 214.915 318.38 207.545 314.09C192.695 305.45 177.815 296.87 162.925 288.3C154.455 283.42 145.995 278.55 137.525 273.67L140.545 270.35C172.865 256.08 204.425 240.07 235.025 222.42" fill="white"/>
<path d="M244.936 339.01C230.686 324.2 212.596 314.37 194.966 304.18C176.206 293.34 157.416 282.56 138.636 271.77C138.786 272.92 138.936 274.08 139.086 275.23C144.116 269.69 152.166 267.58 158.906 264.45C167.496 260.47 175.996 256.31 184.536 252.21C202.076 243.8 219.736 234.79 236.146 224.32C238.536 222.79 236.446 219.22 233.926 220.52C215.986 229.77 198.446 239.79 180.516 249.06C171.556 253.69 162.406 257.98 153.246 262.21C149.006 264.17 143.186 265.67 139.446 268.44C138.126 269.42 137.086 270.89 135.976 272.11C135.036 273.15 135.146 274.84 136.426 275.57C154.906 286.23 173.396 296.87 191.856 307.57C200.666 312.68 209.586 317.62 218.256 322.96C227.096 328.4 234.966 335.04 243.386 341.06C244.596 341.95 245.936 340.05 244.936 339.01Z" fill="#39404A"/>
<path d="M135.176 274.46C135.066 278.69 136.056 284.75 140.026 287.09C141.046 287.69 142.376 286.69 142.046 285.54C141.526 283.73 140.426 282.26 139.676 280.55C138.826 278.61 138.406 276.57 138.316 274.46C138.226 272.45 135.226 272.43 135.176 274.46Z" fill="#39404A"/>
<path d="M139.135 286.69C153.805 298.98 172.485 303.8 188.885 313.12C198.075 318.34 206.235 325.14 215.395 330.4C223.165 334.86 234.045 340.68 243.205 340.47C244.895 340.43 245.855 337.87 244.125 337.06C239.955 335.1 235.215 334.44 230.865 332.85C225.705 330.96 220.745 328.53 216.075 325.64C207.375 320.25 199.595 313.48 190.695 308.4C174.655 299.24 156.205 295.02 141.085 284.15C139.615 283.1 137.735 285.52 139.135 286.69Z" fill="#39404A"/>
<path d="M234.326 288.81C236.076 287.59 237.756 286.25 239.366 284.86C240.346 284.01 239.096 282.53 238.016 283.12C236.036 284.2 234.356 285.71 233.066 287.56C232.556 288.3 233.586 289.33 234.326 288.81Z" fill="#39404A"/>
<path d="M231.085 190.81C242.595 183.8 255.075 178.77 267.395 173.39C280.965 167.46 294.495 161.45 308.105 155.62C321.815 149.75 335.555 143.92 349.305 138.15C355.975 135.35 362.665 132.56 369.345 129.78C376.165 126.93 383.405 124.48 389.925 120.99C392.335 119.7 390.685 115.78 388.065 116.57C380.895 118.73 373.945 122.19 367.035 125.08C360.455 127.84 353.875 130.62 347.305 133.4C333.365 139.3 319.455 145.26 305.555 151.26C291.655 157.27 277.715 163.18 263.855 169.28C252.355 174.34 237.625 178.47 228.975 188.07C227.695 189.49 229.325 191.88 231.085 190.81Z" fill="#39404A"/>
<path d="M245.315 341.42C259.445 340.87 274.125 335.19 287.145 330.06C300.755 324.7 313.935 318.3 327.145 312.03C340.265 305.8 353.645 300.18 366.825 294.08C378.815 288.53 392.045 282.12 401.015 272.16C402.905 270.06 400.125 267.5 397.995 269.14C386.855 277.76 375.635 284.69 362.745 290.46C350.265 296.04 337.675 301.31 325.285 307.09C312.185 313.2 299.115 319.39 285.655 324.69C279.015 327.3 272.285 329.7 265.435 331.71C258.585 333.72 251.515 334.89 244.695 336.89C242.265 337.6 242.645 341.53 245.315 341.42Z" fill="#39404A"/>
<path d="M388.606 117.72C386.166 129.91 389.656 141.88 391.016 153.95C392.476 166.85 391.946 179.86 392.046 192.81C392.256 218.58 394.896 244.57 398.696 270.05C399.096 272.75 403.216 271.61 402.816 268.92C398.926 243.29 397.476 217.74 397.466 191.83C397.456 179.53 397.926 167.2 396.916 154.92C396.446 149.27 395.436 143.76 394.526 138.17C393.446 131.5 393.376 125.06 393.236 118.35C393.166 115.79 389.146 115.03 388.606 117.72Z" fill="#39404A"/>
<path d="M322.207 215.93C313.637 216.86 307.227 224.56 309.657 233.25C312.317 242.75 322.027 245.38 329.597 239.58C337.117 233.83 336.597 221.94 327.937 217.43C320.487 213.56 310.437 217.83 308.557 226.09C306.307 235.96 316.137 241.43 324.397 237.34C332.097 233.53 332.737 221.59 323.447 219.23C315.247 217.14 308.087 226.77 313.987 233.55C318.577 238.83 331.027 235.48 327.987 227.5C326.557 223.74 320.977 221.64 317.667 224.12C314.427 226.54 314.907 231.79 318.677 233.44C321.687 234.76 325.507 232.52 324.867 229C324.207 225.38 319.557 225.15 317.937 228.11C316.487 230.77 320.597 233.16 321.997 230.48C322.377 227.18 322.557 227.31 322.547 230.85C321.447 231.51 320.297 231.65 319.087 231.28C315.647 229.95 316.387 225.95 319.127 224.63C324.957 221.81 327.417 230.37 321.997 233.24C316.377 236.22 310.227 231.49 314.017 225.41C315.987 222.25 320.037 220.58 323.677 221.43C327.897 222.42 330.857 226.87 329.707 231.18C328.747 234.76 323.617 238.87 319.697 237.86C316.067 236.93 313.857 232.58 314.067 229.08C314.327 224.72 317.967 221.23 322.207 220.66C325.157 220.28 325.277 215.6 322.207 215.93Z" fill="#39404A"/>
<path d="M224.017 288.24C228.027 291.92 231.637 296.47 236.057 299.65C237.807 300.91 240.037 298.05 238.377 296.64C234.237 293.14 230.167 289.76 226.327 285.93C224.827 284.44 222.467 286.82 224.017 288.24Z" fill="#D0CFCD"/>
<path d="M231.607 281.06C231.397 282.29 232.087 283.42 232.867 284.33C233.617 285.21 234.467 286.27 235.527 286.78C236.297 287.15 237.197 287.11 237.827 286.48C238.377 285.93 238.617 284.85 238.127 284.18C237.417 283.24 236.457 282.6 235.587 281.82C234.787 281.11 233.787 280.27 232.657 280.27C232.207 280.28 231.677 280.61 231.607 281.06Z" fill="#D1CFCD"/>
<path d="M225.225 287.67C226.425 288.1 227.465 287.03 228.365 286.36C229.275 285.68 230.245 284.9 230.745 283.86C231.245 282.82 230.405 281.27 229.105 281.73C228.015 282.12 227.115 282.87 226.245 283.61C225.385 284.34 224.125 285 224.175 286.28C224.195 286.96 224.605 287.45 225.225 287.67Z" fill="#D0CFCD"/>
<path d="M231.376 293.21C232.176 292.72 232.926 292.17 233.666 291.59C234.456 290.96 235.106 290.23 235.106 289.17C235.106 288.44 234.456 288.09 233.806 288.18C232.886 288.32 232.306 289 231.726 289.65C231.176 290.27 230.596 290.85 229.976 291.39C228.996 292.27 230.266 293.9 231.376 293.21Z" fill="#D1CFCD"/>
<path d="M222.066 288.64C217.486 289.35 213.536 293.12 209.846 295.75C208.736 296.54 208.296 298.15 209.406 299.2C213.866 303.45 219.316 306.38 224.326 309.93C229.376 313.51 234.246 318.83 239.926 321.23C241.586 321.93 244.036 320.33 242.726 318.43C239.496 313.74 233.836 310.22 229.356 306.76C223.866 302.52 218.396 298.66 212.066 295.75C212.216 296.9 212.366 298.05 212.506 299.2C215.816 296 220.386 293.66 222.996 289.85C223.456 289.19 222.706 288.54 222.066 288.64Z" fill="#D0CFCD"/>
<path d="M225.705 307.3C227.105 306.89 228.235 306.15 228.995 304.88C230.075 303.09 231.325 302.05 233.215 301.13C232.725 300.29 232.225 299.44 231.735 298.6C229.975 299.7 228.465 301.04 226.855 302.35C225.305 303.62 223.255 304.77 222.365 306.61C221.685 308 222.815 309.86 224.475 309.36C226.565 308.73 227.995 306.93 229.485 305.43C231.025 303.89 232.505 302.4 233.725 300.6C234.715 299.15 232.615 297.81 231.425 298.83C229.135 300.79 227.275 303.39 224.765 305.11C223.715 305.85 224.335 307.71 225.705 307.3Z" fill="#D0CFCD"/>
<path d="M208.575 298.81C214.185 295.06 219.485 290.86 224.935 286.88C229.325 283.66 234.785 280.43 238.005 276C238.705 275.03 237.395 274.17 236.545 274.54C231.335 276.83 226.845 281.64 222.415 285.18C217.395 289.19 212.115 292.87 207.055 296.82C205.915 297.71 207.385 299.6 208.575 298.81Z" fill="#39404A"/>
<path d="M207.007 299.33C212.627 303.34 218.107 307.54 223.607 311.71C229.037 315.83 234.307 320.54 240.097 324.12C242.067 325.34 244.177 322.56 242.547 320.94C232.877 311.32 219.877 304.16 208.257 297.19C206.867 296.35 205.727 298.41 207.007 299.33Z" fill="#39404A"/>
<path d="M222.266 288.49C224.566 291.79 227.646 294.58 230.546 297.34C233.326 299.99 236.276 303.66 239.766 305.3C240.886 305.82 242.276 304.71 241.556 303.51C239.536 300.17 235.746 297.64 232.906 294.98C229.986 292.23 227.126 289.22 223.816 286.94C222.906 286.31 221.626 287.58 222.266 288.49Z" fill="#39404A"/>
<path d="M221.317 307.55C223.537 307 225.307 304.93 226.927 303.42C229.027 301.45 231.127 299.57 233.277 297.68C234.587 296.53 232.677 294.65 231.367 295.77C227.627 298.97 223.807 302.13 219.987 305.25C218.867 306.17 220.087 307.85 221.317 307.55Z" fill="#39404A"/>
<path d="M227.705 293.04C228.875 293.7 230.595 291.83 231.435 291.21C233.015 290.05 234.745 288.88 236.115 287.48C237.235 286.34 235.805 284.43 234.395 285.26C233.435 285.83 225.995 292.07 227.705 293.04Z" fill="#39404A"/>
<path d="M229.277 282.66C230.117 284.45 231.767 286.07 233.167 287.44C234.527 288.78 235.797 290.16 237.777 290.4C238.387 290.48 238.837 289.74 238.677 289.21C238.137 287.35 236.507 286.28 235.147 285.03C233.747 283.75 232.297 282.22 230.647 281.28C229.727 280.76 228.867 281.78 229.277 282.66Z" fill="#39404A"/>
<path d="M205.087 253.87C205.017 253.85 204.947 253.83 204.877 253.81C205.317 254.59 205.757 255.37 206.207 256.15C206.217 256.06 206.237 255.98 206.247 255.89C205.467 256.33 204.687 256.78 203.907 257.22C203.097 256.14 202.807 256.04 203.037 256.91C203.127 257.17 203.247 257.43 203.397 257.67C203.907 258.13 204.137 258.46 204.847 258.63C205.477 258.78 206.307 258.67 206.747 258.13C207.347 257.4 207.947 256.66 208.547 255.93C207.427 255.63 206.307 255.34 205.187 255.04C205.417 256.48 205.837 257.57 206.537 258.84C207.437 260.47 209.917 260.05 210.417 258.33C210.967 256.43 211.407 254.58 212.247 252.76C211.127 252.46 210.007 252.15 208.887 251.85C208.747 255.23 207.197 261.21 211.257 262.7C212.807 263.27 213.967 261.83 214.137 260.51C214.577 257.11 215.097 253.94 216.367 250.76C215.187 250.6 214.017 250.44 212.837 250.28C213.247 254.07 212.017 257.77 213.437 261.43C214.217 263.43 217.157 263.74 217.827 261.43C219.017 257.27 220.237 253.11 221.467 248.96C220.017 248.76 218.557 248.57 217.107 248.37C216.697 253.69 216.317 259 216.037 264.33C215.887 267.18 220.507 267.87 221.077 265.01C222.197 259.34 223.367 253.78 226.187 248.68C224.627 248.26 223.057 247.83 221.497 247.41C220.767 253.02 218.707 260.99 220.907 266.38C222.047 269.17 225.707 268.69 226.067 265.68C226.887 258.8 228.337 251.77 230.367 245.15C228.667 244.92 226.967 244.69 225.267 244.46C224.877 249.2 224.497 253.9 223.687 258.6C223.057 262.25 222.507 265.63 223.547 269.25C223.977 270.74 225.377 271.34 226.817 271.11C228.557 270.82 229.467 271 231.017 269.86C233.197 268.26 234.857 266.15 235.357 263.48C236.057 259.72 235.197 255.31 235.017 251.53C234.817 247.56 234.707 243.63 233.887 239.74C233.297 236.93 229.187 237.19 228.447 239.74C227.127 244.33 226.227 248.95 225.757 253.7C225.367 257.57 224.727 261.77 226.767 265.25C228.107 267.54 232.167 266.69 231.977 263.84C231.687 259.52 231.457 255.18 231.097 250.86C230.877 248.27 230.817 244.5 228.417 242.83C223.857 239.66 215.347 245.4 212.047 248.22C209.187 250.67 213.287 254.63 216.147 252.32C217.717 251.05 221.227 248.27 223.397 248.46C225.697 248.67 224.867 246.37 225.347 250.86C225.817 255.17 226.037 259.52 226.387 263.84C228.127 263.37 229.857 262.9 231.597 262.43C229.897 259.6 231.077 253.83 231.547 250.85C232.057 247.58 232.897 244.39 233.897 241.24C232.087 241.24 230.267 241.24 228.457 241.24C229.227 246.46 229.197 251.89 229.507 257.15C229.757 261.32 229.657 265.43 226.117 265.9C226.967 266.55 227.827 267.2 228.677 267.85C227.357 260.35 230.447 252.11 230.467 244.47C230.477 241.6 226.017 240.86 225.367 243.78C223.797 250.85 222.277 257.88 220.917 264.99C222.607 264.99 224.287 264.99 225.977 264.99C224.387 259.89 225.997 252.66 226.537 247.41C226.797 244.89 222.967 244.03 221.847 246.14C218.917 251.67 217.427 257.56 216.147 263.65C217.827 263.88 219.507 264.1 221.187 264.33C221.397 259.01 221.497 253.7 221.577 248.37C221.607 245.84 217.917 245.39 217.217 247.78C215.987 251.93 214.737 256.08 213.477 260.22C214.937 260.22 216.397 260.22 217.867 260.22C216.627 256.89 217.287 253.25 216.407 249.8C215.977 248.09 213.377 248.09 212.937 249.8C212.057 253.24 210.757 256.52 209.707 259.9C210.817 259.45 211.937 258.99 213.047 258.54C213.167 258.59 212.587 252.24 212.457 251.36C212.227 249.79 209.857 249.67 209.157 250.93C208.027 252.99 206.987 254.93 206.347 257.19C207.637 257.02 208.937 256.85 210.227 256.68C209.527 255.89 209.147 254.99 209.087 253.96C208.727 252.08 206.337 252.24 205.417 253.48C204.847 254.24 204.287 255 203.717 255.76C204.447 255.46 205.187 255.16 205.917 254.86C206.717 255.96 206.997 256.07 206.767 255.2C206.687 254.93 206.557 254.68 206.397 254.46C205.877 254.03 205.697 253.65 204.957 253.54C203.627 253.33 202.707 254.05 202.547 255.38C202.537 255.47 202.527 255.55 202.517 255.64C202.417 256.42 203.177 257.31 203.907 257.47C203.977 257.49 204.047 257.5 204.117 257.52C206.447 258.05 207.457 254.5 205.087 253.87Z" fill="#D0CFCD"/>
<path d="M201.466 257.02C213.046 251.79 225.536 244.93 235.456 236.98C237.026 235.73 235.026 233.37 233.376 234.28C227.696 237.41 222.406 241.32 216.866 244.68C211.306 248.06 205.516 251.06 199.956 254.42C198.266 255.45 199.736 257.8 201.466 257.02Z" fill="#39404A"/>
<path d="M199.096 257.49C207.986 262.28 215.896 267.91 224.166 273.62C226.326 275.11 227.756 275.59 230.006 274.01C233.006 271.91 236.416 268.84 238.436 265.79C239.246 264.57 237.706 263.41 236.586 263.94C233.636 265.33 231.786 268.15 228.976 269.69C225.636 271.53 221.996 267.37 219.186 265.51C213.206 261.56 207.076 257.98 200.606 254.89C198.896 254.08 197.376 256.57 199.096 257.49Z" fill="#39404A"/>
<path d="M228.596 189.84C228.636 202.14 230.736 214.58 231.746 226.84C232.786 239.35 233.506 251.89 234.326 264.41C235.916 288.76 236.606 314.04 241.996 337.93C242.596 340.58 247.196 340.06 246.826 337.28C245.176 324.85 243.186 312.53 242.066 300.03C240.946 287.53 240.256 275.01 239.596 262.49C238.956 250.28 238.266 238.07 237.236 225.88C236.216 213.81 235.316 201.03 231.626 189.43C231.116 187.8 228.596 188.05 228.596 189.84Z" fill="#39404A"/>
<path d="M95.845 164.36C94.815 191.12 98.325 218.14 112.475 241.34C119.955 253.61 129.755 265.31 140.555 274.77C146.435 279.93 152.815 284.54 159.655 288.34C165.855 291.78 173.565 296.13 180.765 296.35C184.145 296.45 185.155 291.84 182.435 290.17C179.285 288.23 175.565 287.35 172.175 285.9C168.745 284.43 165.415 282.72 162.185 280.85C155.515 276.98 149.315 272.35 143.635 267.15C133.835 258.16 124.855 247.37 117.865 236.04C111.465 225.68 106.465 214.01 104.315 202.01C102.055 189.42 102.195 176.37 99.405 163.9C98.945 161.83 95.915 162.38 95.845 164.36Z" fill="#39404A"/>
<path d="M173.005 290C169.735 292.34 168.375 296.78 169.045 300.74C169.715 304.7 172.135 308.21 175.105 310.92C179.645 315.07 186.075 317.68 192.035 316.14C197.495 314.72 201.745 309.89 203.105 304.42C204.465 298.94 203.145 293 200.185 288.2C197.585 284 193.405 280.42 188.475 279.99C184.225 279.61 180.035 281.64 176.955 284.58C173.875 287.52 171.755 291.32 169.865 295.14" fill="white"/>
<path d="M172.175 288.57C152.085 301.9 189.875 335.28 203.805 309.66C209.465 299.26 204.625 284.18 193.995 278.91C182.895 273.41 170.195 283.67 167.915 294.59C167.535 296.43 169.865 298.17 171.295 296.56C176.225 291.02 179.875 280.94 189.235 282.72C198.075 284.4 202.775 296.56 200.405 304.4C193.805 326.28 161.065 304.86 174.165 291.15C175.415 289.85 173.785 287.5 172.175 288.57Z" fill="#39404A"/>
<path d="M350.395 318.73C347.775 312.13 341.705 308.31 335.285 305.9C334.615 310.88 333.935 315.87 333.265 320.85C337.505 321.1 341.825 320.55 346.065 320.25C354.995 319.62 356.495 307.97 348.145 304.91C333.315 299.48 315.615 299.1 302.115 308.34C295.445 312.91 290.675 318.91 287.465 326.31C284.525 333.1 280.325 343.2 284.485 350.2C286.135 352.98 290.405 354.52 293.255 352.5C298.665 348.66 299.385 342.27 301.425 336.37C303.245 331.09 306.175 325.85 310.655 322.36C320.375 314.78 333.095 315.79 343.995 319.98C344.685 314.87 345.375 309.75 346.075 304.64C341.115 304.91 336.145 305.01 331.255 305.92C327.585 306.61 325.285 310.82 325.805 314.27C326.405 318.29 329.405 320.42 333.275 320.87C337.375 321.35 340.795 323.34 344.665 324.49C347.805 325.41 351.725 322.1 350.395 318.73Z" fill="white"/>
<path d="M168.925 338.31C160.605 338.1 152.275 337.89 143.955 337.68C135.575 337.47 135.575 350.49 143.955 350.7C152.275 350.91 160.605 351.12 168.925 351.33C177.315 351.54 177.305 338.52 168.925 338.31Z" fill="white"/>
<path d="M404.613 270.34C406.573 268.45 408.713 266.76 410.673 264.87C414.913 260.78 410.553 251.77 404.523 254.31C400.303 256.09 396.763 258.19 393.153 261C396.413 264.26 399.683 267.53 402.943 270.79C404.753 268.44 406.603 266.12 408.373 263.75C410.983 260.25 408.413 253.58 403.983 252.97C386.783 250.6 379.243 274.92 375.633 287.63C373.223 296.12 385.343 301.19 389.823 293.61C395.443 284.09 400.903 274.65 409.593 267.57C405.543 264.44 401.483 261.31 397.433 258.18C390.193 268.85 382.713 279.32 374.813 289.51C379.043 291.97 383.273 294.43 387.493 296.89C390.543 289.59 393.443 282.23 396.253 274.83C398.503 268.91 390.423 262.66 385.253 266.38C377.173 272.19 373.853 280.56 371.253 289.87C376.083 290.52 380.923 291.18 385.753 291.83C386.053 286.03 388.053 281.02 391.353 276.28C396.803 268.47 384.003 261.08 378.603 268.83C373.813 275.7 371.413 283.51 370.983 291.83C370.553 300.26 383.283 301.69 385.483 293.79C386.873 288.82 388.303 282.46 392.803 279.3C389.133 276.48 385.473 273.66 381.803 270.85C378.913 278.22 375.903 285.55 372.843 292.85C369.973 299.7 380.993 306.09 385.523 300.23C394.213 289.02 402.683 277.62 410.783 265.98C412.983 262.82 411.623 258.18 408.793 255.99C405.533 253.47 401.683 254.14 398.623 256.6C388.953 264.36 382.383 275.07 376.393 285.76C381.123 287.75 385.853 289.75 390.583 291.74C391.803 287.02 392.993 282.18 394.933 277.7C395.803 275.69 400.013 267.15 402.013 267.38C399.903 263.7 397.783 260.02 395.673 256.33C394.433 258.33 393.253 260.37 392.043 262.4C388.023 269.14 397.363 276.41 402.913 270.79C404.893 268.79 406.933 267.26 409.363 265.86C406.273 263.48 403.173 261.1 400.083 258.73C399.293 261.3 398.773 263.94 397.983 266.5C396.833 270.36 401.853 273 404.613 270.34Z" fill="white"/>
<path d="M182.105 343.93C172.345 335.4 159.155 331.86 146.625 335.84C141.775 337.38 143.935 345.13 148.725 343.45C159.495 339.68 170.985 339.68 181.175 345.13C181.915 345.53 182.795 344.53 182.105 343.93Z" fill="#D0CFCD"/>
<path d="M383.245 261.861C377.735 269.541 373.725 279.641 370.865 288.631C368.135 297.201 366.655 306.821 370.085 315.401C371.555 319.071 377.405 317.691 376.165 313.721C370.415 295.271 380.745 279.981 385.165 262.671C385.475 261.461 383.915 260.921 383.245 261.861Z" fill="#D0CFCD"/>
<path d="M147.854 348.1C132.064 318.93 100.794 299.33 68.7938 292.46C58.4838 290.25 53.9338 302.82 61.9138 308.78C84.1038 325.34 106.514 341.64 128.874 357.98C136.164 363.3 145.784 351 138.604 345.37C121.224 331.76 102.234 320.15 82.0838 311.13C78.7938 309.66 75.2038 309.95 72.8738 312.97C70.8838 315.55 70.6738 320.08 73.4338 322.35C86.2438 332.87 99.2338 343.46 109.794 356.33C112.964 353.16 116.144 349.98 119.314 346.81C107.444 336.88 95.4838 326.97 82.0138 319.26C75.4038 315.48 67.4838 324.87 73.6238 330.14C80.0138 335.62 85.8638 341.57 91.2338 348.05C92.8938 344.05 94.5538 340.05 96.2038 336.05C92.9738 336.02 88.3238 329.15 86.2838 327.02C82.5738 323.16 78.9438 319.23 75.2838 315.32C68.7338 308.33 58.9138 318.57 64.9038 325.7C72.8938 335.2 81.0338 344.56 89.1838 353.92C95.5538 361.24 106.044 350.6 99.8038 343.3C91.7738 333.92 84.0438 324.31 76.7038 314.38C75.0138 312.09 73.3238 309.79 71.6738 307.47C71.8338 307.69 69.5838 303.85 69.8738 305.54C70.1338 307.04 70.4138 304.29 70.6038 303.7C72.2938 298.51 72.2738 294.6 68.7438 290.2C66.9938 294.43 65.2338 298.67 63.4838 302.9C68.0938 302.42 71.8738 303.06 75.8638 305.45C77.8438 300.75 79.8238 296.05 81.8038 291.35C76.2238 289.18 70.8538 286.6 65.5638 283.79C64.2238 288.75 62.8738 293.71 61.5338 298.67C69.1538 298.01 78.0138 302.29 84.7638 305.58C91.6738 308.95 98.3238 313.03 104.384 317.76C116.864 327.52 126.034 339.94 134.664 353.06C138.904 359.51 150.894 355.58 147.874 347.49C141.314 329.88 128.404 315.35 113.624 304.04C106.604 298.67 99.0438 294.1 90.9638 290.5C82.1638 286.58 71.3538 281.7 61.5338 282.7C54.3638 283.43 49.7838 293.62 57.5038 297.58C64.0338 300.93 70.7838 303.78 77.7038 306.22C86.0038 309.15 91.1938 296.33 83.6438 292.12C76.5838 288.18 69.4338 287.18 61.5038 288.27C55.3638 289.11 55.1638 296.97 58.2238 300.71C55.4038 297.26 57.8138 296.47 56.4738 299.13C56.0138 300.05 55.7238 301.16 55.4838 302.17C54.9038 304.66 54.9138 307.19 55.7138 309.63C57.4638 314.95 62.2038 319.76 65.5038 324.19C73.0638 334.35 80.9638 344.26 89.1838 353.9C92.7238 350.36 96.2638 346.82 99.8038 343.28C91.6838 333.9 83.5638 324.53 75.2838 315.3C71.8238 318.76 68.3638 322.22 64.9038 325.68C70.0238 330.8 75.1238 335.93 80.1838 341.12C84.7438 345.8 89.2838 350.09 96.2138 350.1C102.704 350.11 104.974 342.59 101.184 338.1C95.7638 331.67 89.8538 325.76 83.4238 320.34C80.6238 323.97 77.8338 327.59 75.0338 331.22C87.5738 338.26 98.7238 347.23 109.794 356.34C116.494 361.85 124.904 353.52 119.314 346.82C108.614 334 96.2138 323.06 83.5338 312.26C80.6538 316 77.7638 319.74 74.8838 323.47C93.7838 332.34 111.234 343.36 127.254 356.73C130.494 352.53 133.734 348.33 136.984 344.12C115.014 327.15 93.0738 310.12 70.9338 293.37C68.6438 298.81 66.3438 304.25 64.0538 309.69C93.7238 316.22 117.494 333.73 137.314 356.25C142.494 362.14 151.374 354.61 147.854 348.1Z" fill="white"/>
<path d="M374.175 316.8C362.385 300.13 338.635 294.17 319.385 298.16C300.215 302.14 281.255 317.77 276.705 337.28C275.955 340.5 280.695 342.87 282.285 339.63C290.285 323.24 302.295 309.88 320.625 305.4C339.505 300.79 356.715 308.25 371.615 319.36C373.105 320.47 375.225 318.29 374.175 316.8Z" fill="#39404A"/>
<path d="M152.984 353.91C151.104 343.54 144.584 333.38 138.344 325.1C131.984 316.67 124.564 309.13 116.244 302.63C99.434 289.51 78.884 280.3 57.454 279.06C55.004 278.92 54.404 282.96 56.864 283.39C77.214 286.96 96.414 294.33 112.864 307.01C121.024 313.3 128.414 320.71 134.594 328.96C140.764 337.2 144.854 346.39 150.214 355.07C151.154 356.6 153.284 355.57 152.984 353.91Z" fill="#39404A"/>
<path d="M70.9841 256.35C72.3341 243.56 61.1741 224.91 49.6041 219.52C47.5041 218.54 45.2441 221.04 47.0241 222.86C52.1641 228.11 57.5141 231.94 61.5741 238.31C65.2841 244.13 66.7941 250.53 69.5041 256.75C69.8541 257.55 70.9141 257.03 70.9841 256.35Z" fill="#39404A"/>
<path d="M143.753 338.35C154.113 336.88 163.843 336.11 173.533 341.03C181.563 345.11 187.553 351.7 191.943 359.48C193.343 361.96 197.813 360.26 196.673 357.48C188.723 337.98 162.343 324.5 142.563 335.54C140.923 336.46 142.143 338.58 143.753 338.35Z" fill="#39404A"/>
<path d="M415.554 248.961C382.224 242.061 360.184 278.361 362.664 307.691C363.004 311.711 368.744 311.791 368.974 307.691C369.734 293.861 372.254 279.701 381.094 268.561C389.164 258.391 402.094 252.071 415.104 252.281C416.974 252.321 417.454 249.361 415.554 248.961Z" fill="#39404A"/>
</svg>
