<svg id="Layer_1" xmlns="http://www.w3.org/2000/svg" viewBox="0 0 500 500">
      <style type="text/css">
        .st00{fill:#FFFFFF;}
        .st01{fill:#D3D0CD;}
        .st02{fill:#D0CFCD;}
        .st03{fill:#39404a;}
        .st04{fill:#407A1B;}
        .st05{fill:#93D500;}
        .st06{fill:#1A4525;}
      </style>
      <path class="st00" d="M260.51,426.27c-8.57,0-16.77-1.59-24.38-4.74c-9.24-3.82-17.78-9.65-26.58-18.18&#10;        c-10.91,10.21-25.98,16.05-42.34,16.05c-11.47,0-22.7-2.9-32.47-8.39c-7.25-4.07-13.78-9.34-19.46-15.67&#10;        c-23.49-13.51-38.58-38.95-41.34-69.14c-5.28-2.93-10.07-6.8-14.1-11.44c-0.68-0.79-1.35-1.61-2.02-2.48&#10;        c-6.35-3.05-12.11-7.43-16.8-12.83c-13.12-15.09-17.68-37.99-11.9-59.75c5.41-20.35,19.83-37.96,38.57-47.13&#10;        c9.29-4.54,19.3-6.85,29.73-6.85c1.94,0,3.9,0.08,5.86,0.24c-0.57-29.67,10.63-61.27,39.37-72.77c12.11-4.84,25.85-7.41,39.75-7.41&#10;        c1.69,0,3.39,0.04,5.08,0.12c0.59-1.52,1.23-2.99,1.91-4.39c0.18-0.57,0.35-1.13,0.54-1.7c0.87-2.66,2.45-4.91,4.53-6.57&#10;        c1.7-2.24,3.57-4.28,5.59-6.09c0.63-0.71,1.28-1.38,1.94-2.02c1.48-1.42,3.22-2.47,5.09-3.12c0.77-0.47,1.56-0.92,2.37-1.35&#10;        c2.99-2.3,6.29-4.18,9.81-5.6c1.68-0.68,3.44-1.03,5.22-1.03c0.7,0,1.39,0.05,2.07,0.16c2.29-0.5,4.51-0.82,6.71-0.96&#10;        c0.87-0.06,1.75-0.08,2.61-0.08c8.53,0,16.95,2.68,23.7,7.55c5.36,3.86,9.87,9.25,13.22,15.76c8.75-2.24,17.86-3.41,26.84-3.41&#10;        c3.76,0,7.46,0.21,11,0.63c17.33,2.05,31.92,9.81,41.48,21.98c11.55,5.83,20.38,14.96,25.66,26.55c1.81,3.98,3.26,8.23,4.33,12.71&#10;        c22.36,1.41,42.25,10.65,55.57,25.92c16.54,9.37,28.12,23.97,33.55,42.39c6.55,22.2,1.3,45.25-14.04,61.64&#10;        c-5.47,5.85-11.9,10.62-18.77,14.01c0.33,1.66,0.6,3.32,0.84,4.96c1.41,9.42,1.04,18.93-1.1,28.28&#10;        c-4.02,17.51-14.9,33.68-30.65,45.52c-12.97,9.76-27.95,14.92-43.3,14.92c0,0,0,0,0,0c-3.39,0-6.81-0.26-10.16-0.77&#10;        c-4.24-0.65-15.56-2.79-26.46-8.37c-8.15,15.54-20.72,28.28-35.42,35.44C282.22,423.71,271.27,426.27,260.51,426.27z M232.29,118.4&#10;        c0.08-0.09,0.17-0.17,0.26-0.26c-0.02,0-0.05,0.01-0.07,0.01c-0.12,0.02-0.25,0.04-0.4,0.12&#10;        C232.15,118.31,232.22,118.35,232.29,118.4z"/>
      <g>
        <g>
          <g>
            <g>
              <path class="st01" d="M74.89,244.21c-5.82,13.68-3.45,30.49,5.93,42.01c9.38,11.53,25.36,17.27,39.93,14.35&#10;                c-1.9,2.38-4.85,3.66-7.76,4.57c-9.09,2.83-19.31,2.82-27.85-1.41c-8.53-4.22-15-13.03-15.13-22.55"/>
              <path class="st01" d="M72.27,241.05c-12.45,13.1-8.13,36.08,1.6,49.41c11.32,15.51,31.36,22.61,49.14,15&#10;                c-1.89-3.01-3.79-6.01-5.68-9.02c-6.72,6.69-19.51,6.43-27.68,2.75c-8-3.61-12.04-10.76-13.54-19.06&#10;                c-1.21-6.71-11.9-6.65-12.26,0.49c-0.66,13.14,8.4,24.57,20.32,29.32c11.74,4.68,30.53,4.13,40-5.2&#10;                c3.13-3.09,2.06-9.14-2.91-9.5c-12.12-0.85-25.99-4.66-34.18-14.17c-9.5-11.04-7.87-23.1-8.11-36.45&#10;                C78.93,241.55,75.02,238.16,72.27,241.05L72.27,241.05z"/>
            </g>
            <g>
              <path class="st01" d="M290.9,134.1c16.74-4.73,35.45-1.99,50.13,7.35c4.05,2.58,7.83,5.67,10.64,9.55&#10;                c8.1,11.22,6.65,26.46,4.84,40.18"/>
              <path class="st01" d="M290.79,135.21c17.59,3.19,34.21,2.18,49.03,14.08c14.43,11.58,8.66,27.25,10.14,43.05&#10;                c0.63,6.68,10.6,7.1,12.76,1.22c6.75-18.45,2.83-43.16-13.56-55.18c-15.23-11.16-43-18.26-58.98-5.14&#10;                C289.39,133.89,289.87,135.04,290.79,135.21L290.79,135.21z"/>
            </g>
            <g>
              <path class="st01" d="M319.45,335.53c14.11,12.3,29.97,25.29,48.68,25.36c-16.32,3.39-34.26-2.55-45.33-15.03&#10;                c6,4.19,12.43,7.76,19.17,10.61c-8.72-4.39-18.37-9.93-20.54-19.44c10.04,6.97,21.1,12.74,33.04,15.35s24.85,1.88,35.8-3.55&#10;                c17.23-8.56,27.58-29.14,24.17-48.08"/>
              <path class="st01" d="M314.75,337.71c3.57,9.33,15.33,17.59,23.68,22.42c9.83,5.69,19.61,8.91,31.03,8.35&#10;                c-0.89-5.05-1.78-10.1-2.66-15.15c-14.91,4.06-29.63-2.14-40.68-12.06c-2.21,3.07-4.42,6.14-6.63,9.22&#10;                c6.56,4.31,13.28,8.12,20.47,11.29c6.79,2.99,10.37-7.34,4.03-10.58c-6.55-3.36-14.68-7.5-16.82-15.16&#10;                c-3.05,1.91-6.09,3.82-9.14,5.73c21.36,15.8,50.82,26.85,75.72,11.95c18.61-11.13,28.3-32.37,21.42-53.3&#10;                c-0.25-0.76-1.53-0.51-1.54,0.26c-0.29,17.37-10.33,36.68-27.11,43.17c-20.94,8.09-43.72-0.34-61.69-11.53&#10;                c-3.79-2.36-10.74,0.43-9.14,5.73c3.67,12.12,13.49,18.24,24.26,23.72c1.34-3.53,2.69-7.05,4.03-10.58&#10;                c-6.3-2.76-12.24-5.96-17.87-9.93c-5.31-3.74-11.68,3.14-7.69,8.22c12.49,15.91,31.68,20.75,51.04,18.99&#10;                c8.89-0.81,7.72-14.2-0.6-15.23c-9.89-1.23-18.18-4.65-26.59-9.94c-7.18-4.52-13.97-10.98-22.33-12.91&#10;                C315.78,329.42,313.53,334.51,314.75,337.71L314.75,337.71z"/>
            </g>
            <g>
              <path class="st02" d="M320.1,357.27c16.25,13.15,38.47,20.65,58.45,14.53c9.21-2.82,17.42-8.33,24.38-14.99&#10;                c3.83-3.66,7.32-7.7,10.19-12.15c10.28-16,11.53-37.39,3.2-54.48"/>
              <path class="st02" d="M317.52,358.46c5.9,12.75,25.52,19.51,38.35,21.47c15.91,2.44,31.67-2.27,44.43-11.87&#10;                c12.7-9.56,22.58-23.02,26.16-38.62c1.79-7.79,2.12-15.9,0.93-23.81c-1-6.64-2.58-15.23-8.29-19.32&#10;                c-2.93-2.1-7.21-0.19-7.53,3.42c-0.55,6.14,2.89,11.9,3.6,18.05c0.71,6.23,0.3,12.65-1.27,18.73&#10;                c-3.31,12.87-11.82,23.15-22.37,30.94c-10.89,8.04-23.51,11.26-36.9,9.28c-6.02-0.89-12.05-2.8-17.67-5.13&#10;                c-5.54-2.3-10.69-5.99-16.59-7.15C318.19,354.01,316.68,356.66,317.52,358.46L317.52,358.46z"/>
            </g>
            <g>
              <path class="st02" d="M408.24,293.95c0.1-1.25,0.21-2.5,0.31-3.75c5.89,9.23,5.35,21.13,3.25,31.88&#10;                c-1.47,7.53-3.74,15.19-8.77,20.98c-3.63,4.17-8.47,7.1-13.45,9.51c-10.6,5.12-22.21,8.16-33.96,8.88"/>
              <path class="st02" d="M408.3,293.96c0.58-3.01,0.68,0.21,1,1.76c0.36,1.78,0.5,3.5,0.6,5.32c0.21,3.79,0.04,7.55-0.52,11.3&#10;                c-1.25,8.28-3.21,17.85-7.96,24.89c-4.67,6.93-12.65,10.53-20.28,13.3c-8.68,3.15-17.79,3.16-26.43,5.8&#10;                c-5.45,1.67-5.78,9.44,0.41,10.35c10.22,1.49,22.42-3.08,31.7-7.11c9-3.91,17.87-9.21,23.06-17.79&#10;                c8.25-13.64,11.81-39.72-0.85-51.93c-0.44-0.42-1.15-0.15-1.08,0.5c0.08,1.21,0.16,2.42,0.24,3.63&#10;                C408.2,294.01,408.28,294.02,408.3,293.96L408.3,293.96z"/>
            </g>
            <g>
              <path class="st02" d="M110.86,311.82c-1.96,18.94-0.43,38.73,8.01,55.8c8.44,17.07,24.6,31,43.49,33.39s39.58-8.85,44.96-27.11&#10;                c11.03,13.57,23.61,27.23,40.37,32.21c20.56,6.11,43.94-3.1,57.25-19.93s17.16-39.92,13.15-61"/>
              <path class="st02" d="M106.52,311.41c-7.41,32.67,3.63,72.02,34.1,89.15c25.87,14.54,62.81,5.78,72.35-24.51&#10;                c-3.44,0.57-6.89,1.13-10.33,1.7c10.7,12.93,22.19,26.13,38.08,32.7c14.82,6.13,31.93,4.58,46.19-2.37&#10;                c29.18-14.21,46.77-53.72,34.63-84.51c-1.36-3.45-7.13-2.5-7.24,1.24c-0.42,14.1,0.38,28.06-4.79,41.51&#10;                c-5.13,13.35-14.74,24.5-27.76,30.6c-28.59,13.39-52.28-5.33-69.76-26.9c-2.81-3.47-8.83-2.61-10.33,1.7&#10;                c-8.7,25.04-39.71,28.33-59.1,14.01c-23.67-17.47-26.39-46.41-27.34-73.51C115,306.6,107.77,305.89,106.52,311.41L106.52,311.41&#10;                z"/>
            </g>
            <g>
              <path class="st02" d="M249.96,174.31c2.07-15.38,12.22-29.02,25.38-37.23c13.16-8.21,29.04-11.37,44.56-10.99&#10;                c10.1,0.25,20.52,2.07,28.84,7.81c18.09,12.49,20.15,38.64,15.6,60.16c20.69-9.05,45.86-9.05,65.07,2.82&#10;                c19.21,11.87,30.68,36.38,24.64,58.14s-31.03,37.19-52.54,30.3"/>
              <path class="st02" d="M253.47,175.65c10.42-31.71,39.74-46.8,72.22-43.46c14.63,1.5,26.6,8.61,31.72,22.79&#10;                c4.44,12.27,3.53,25.95,1,38.52c-0.94,4.69,4.65,7.54,8.43,5.97c29.51-12.3,66.72-4.41,79.24,27.63&#10;                c5.14,13.16,4.14,28.55-5.05,39.67c-9.51,11.51-24.66,15.71-39.13,14.51c-4.83-0.4-5.74,5.83-1.83,7.83&#10;                c16.72,8.55,36.23,0.52,48.36-12.44c12.72-13.59,16.53-32.31,11.29-50.05c-12.4-42.04-60.82-53.51-97.89-37.96&#10;                c2.81,1.99,5.62,3.98,8.43,5.97c3.09-15.55,3.29-32.73-3.41-47.44c-7.21-15.83-21.93-24.28-38.82-26.28&#10;                c-33.15-3.92-81.58,13.19-81.82,53.05C246.2,177.92,252.05,179.95,253.47,175.65L253.47,175.65z"/>
            </g>
            <g>
              <path class="st02" d="M110.53,319.68c2.93,14.97,7.36,29.92,15.75,42.66s21.19,23.14,36.17,26.02&#10;                c16.52,3.17,34.57-3.69,44.81-17.04"/>
              <path class="st02" d="M107.83,318.65c-2.05,5.95-0.13,13.06,1.24,19.06c1.7,7.43,3.92,15.02,7.31,21.87&#10;                c6.19,12.52,15.65,23.62,27.89,30.53c11.56,6.52,24.74,8.85,37.75,5.77c11.05-2.62,27.91-10.22,31.03-22.35&#10;                c1.26-4.88-3.11-10.42-8.39-7.82c-4.66,2.29-7.86,6.33-12.23,9.09c-4.03,2.54-8.53,4.38-13.18,5.36&#10;                c-10.62,2.25-21.71-0.25-30.72-6.2c-9.57-6.31-16.42-15.08-21.92-25.03c-2.82-5.1-5.15-10.41-7.21-15.86&#10;                c-1.92-5.06-3-11.16-6.64-15.23C111.36,316.27,108.56,316.51,107.83,318.65L107.83,318.65z"/>
            </g>
            <g>
              <path class="st02" d="M255.02,155.53c-23.74-16.71-55.52-21.37-83.07-12.2c-5.79,1.93-11.49,4.49-16.03,8.57&#10;                c-5.99,5.37-9.52,12.97-11.87,20.66c-5.23,17.04-5.37,35.61-0.4,52.73c-14.79-8.83-34.1-9.23-49.53-1.57&#10;                s-26.67,22.96-29.99,39.86c-2.71,13.78-0.02,29.06,9.24,39.61c9.26,10.55,25.6,15.11,38.15,8.8"/>
              <path class="st02" d="M257.6,153.4c-23.2-22.16-62.88-25.27-91.67-13.75c-32.33,12.93-36.98,58.82-27.53,88.07&#10;                c2.44-2.62,4.88-5.23,7.31-7.85c-17.34-7.86-36.31-9.83-53.93-1.21c-15.69,7.67-27.77,22.58-32.25,39.43&#10;                c-4.37,16.46-2.13,35.59,9.35,48.8c11.05,12.71,29.57,18,44.42,8.96c3.7-2.25,2.51-9.63-2.53-8.06&#10;                c-12.13,3.77-26.47,0.06-34.42-10.09c-8.7-11.11-9.22-27.09-4.64-39.98c9.31-26.24,42.98-45.15,68.55-27.73&#10;                c3.98,2.71,10.23-0.59,9.09-5.7c-3.55-15.85-5.17-31.1-0.92-47.05c3.98-14.92,11.78-24.56,26.92-29.19&#10;                c12.52-3.83,26.1-4.7,39.05-3c14.26,1.87,26.55,7.66,39.42,13.62C256.75,160.01,260.03,155.71,257.6,153.4L257.6,153.4z"/>
            </g>
            <g>
              <path class="st00" d="M411.21,182.55c-17.98-14.3-42.76-16.35-64.59-12.1c-0.99,0.19-2.01,0.4-3.03,0.61&#10;                c0.85-4.17,1.34-8.34,1.45-12.41c0.4-15.4-5.58-30.05-18.84-38.56c-11.69-7.51-26.04-8.08-39.19-4.6&#10;                c-18.08,4.77-37.82,13.37-48.14,28.79c-6.37-4.8-13.6-8.61-21.24-11.83c-17.62-7.4-37.77-11.12-56.23-4.76&#10;                c-34.64,11.94-40.56,47.79-36.22,79.78c-0.02,0.24-0.02,0.48-0.03,0.72c-10.18-4.8-21.5-7.11-33.56-5.99&#10;                c-27.87,2.6-50.88,28.83-46.02,57.28c2.48,14.51,12.08,26.14,25.18,32.4c7.85,3.75,15.95,5.05,24.12,4.6&#10;                c-0.1,1.38-0.09,2.78,0.05,4.19c1.29,13.08,5.81,25.87,11.36,37.72c5.67,12.11,12.53,24.91,24.22,32.1&#10;                c17.46,10.73,38.41,5.37,50.62-10.57c2.04-2.67,3.76-5.59,5.28-8.63c0.98,0.71,1.98,1.31,2.97,1.83&#10;                c6.2,4.3,12.41,8.6,18.71,12.76c9.48,6.26,19.88,15.41,31.05,18.01c13.69,3.19,23.7-1.39,32.01-9.1&#10;                c4.18-1.51,7.85-4.38,10.71-8.11c0.09,0.09,0.19,0.18,0.28,0.26c6.89-8.04,11.59-17.41,15.18-27.33&#10;                c0.55-1.53,0.94-3.03,1.18-4.5c17.39,11.52,37.26,17.81,59.06,10.96c16.33-5.13,30.49-16.65,36.54-33.07&#10;                c3.25-8.83,3.82-18.66,2.18-27.87c-0.47-2.63-1.18-5.24-2-7.82c2.9-1.18,5.75-2.47,8.48-4.03c11.34-6.45,19.6-16.04,25.17-27.74&#10;                C438.38,223.55,429.72,197.27,411.21,182.55z"/>
              <path class="st00" d="M194.49,198.9c0,0-0.01,0-0.01,0c0.04,0,0.09-0.01,0.13-0.02C194.56,198.89,194.52,198.89,194.49,198.9z"/>
            </g>
            <g>
              <path class="st02" d="M210.56,367.75c4.8,3.26,9.05,7.25,13.7,10.73c10.56,7.9,23.28,13.05,36.43,13.94&#10;                c13.15,0.88,35.94,0.28,44.24-15.82"/>
              <path class="st02" d="M207.54,370.23c13.85,19.3,36.05,30.39,59.69,30.06c8.78-0.12,17.64-1.22,25.55-5.3&#10;                c6.63-3.42,14.68-10.08,14.86-18.14c0.06-2.54-2.46-3.64-4.47-2.37c-6.52,4.12-10.88,7.95-18.81,9.42&#10;                c-6.48,1.2-13.31,1.37-19.88,0.99c-9.25-0.54-17.96-2.52-26.38-6.41c-8.94-4.13-16.73-11.54-26.16-14.38&#10;                C208.16,362.95,205.22,367,207.54,370.23L207.54,370.23z"/>
            </g>
            <g>
              <path class="st02" d="M301.58,387.36c-9.56,6-20.67,6.98-31.82,8.73c-8.43,1.33-18.27,1.74-24.18-4.41"/>
              <path class="st02" d="M300.92,385.94c-9.32,3.06-19.84,3.4-29.55,4.32c-4.25,0.4-8.63,1.05-12.9,0.43&#10;                c-4.48-0.66-7.95-3.58-12.44-3.79c-3.13-0.15-5.73,2.43-5.2,5.63c1.93,11.86,18.63,11.1,27.6,9.62&#10;                c12.63-2.09,24.51-4.82,34.15-13.56C303.97,387.32,302.58,385.39,300.92,385.94L300.92,385.94z"/>
            </g>
            <path class="st02" d="M89.01,303.34c-2.05,5.95-0.13,13.06,1.24,19.06c1.7,7.43,3.92,15.02,7.31,21.87&#10;              c6.19,12.52,15.65,23.62,27.89,30.53c11.56,6.52,24.74,8.85,37.75,5.77c11.05-2.62,27.91-10.22,31.03-22.35&#10;              c1.26-4.88-3.11-10.42-8.39-7.82c-4.66,2.29-7.86,6.33-12.23,9.09c-4.03,2.54-8.53,4.38-13.18,5.36&#10;              c-10.62,2.25-21.71-0.25-30.72-6.2c-9.57-6.31-16.42-15.08-21.92-25.03c-2.82-5.1-5.15-10.41-7.21-15.86&#10;              c-1.92-5.06-3-11.16-6.64-15.23C92.55,300.96,89.75,301.2,89.01,303.34L89.01,303.34z"/>
            <path class="st02" d="M188.73,354.93c13.85,19.3,36.05,30.39,59.69,30.06c8.78-0.12,17.64-1.22,25.55-5.3&#10;              c6.63-3.42,14.68-10.08,14.86-18.14c0.06-2.54-2.46-3.64-4.47-2.37c-6.52,4.12-10.88,7.95-18.81,9.42&#10;              c-6.48,1.2-13.31,1.37-19.88,0.99c-9.25-0.54-17.96-2.52-26.38-6.41c-8.94-4.13-16.73-11.54-26.16-14.38&#10;              C189.34,347.65,186.41,351.69,188.73,354.93L188.73,354.93z"/>
            <path class="st01" d="M282.11,370.63c-9.32,3.06-19.84,3.4-29.55,4.32c-4.25,0.4-8.63,1.05-12.9,0.43&#10;              c-4.48-0.66-7.95-3.58-12.44-3.79c-3.13-0.15-5.73,2.43-5.2,5.63c1.93,11.86,18.63,11.1,27.6,9.62&#10;              c12.63-2.09,24.51-4.82,34.15-13.56C285.16,372.01,283.76,370.08,282.11,370.63L282.11,370.63z"/>
            <path class="st02" d="M395.86,282.64c0.58-3.01,0.68,0.21,1,1.76c0.36,1.78,0.5,3.5,0.6,5.32c0.21,3.79,0.04,7.55-0.52,11.3&#10;              c-1.25,8.28-3.21,17.85-7.96,24.89c-4.67,6.93-12.65,10.53-20.28,13.3c-8.68,3.15-17.79,3.16-26.43,5.8&#10;              c-5.45,1.67-5.78,9.44,0.41,10.35c10.22,1.49,22.42-3.08,31.7-7.11c9-3.91,17.87-9.21,23.06-17.79&#10;              c8.25-13.64,11.81-39.72-0.85-51.93c-0.44-0.42-1.15-0.15-1.08,0.5c0.08,1.21,0.16,2.42,0.24,3.63&#10;              C395.76,282.69,395.85,282.7,395.86,282.64L395.86,282.64z"/>
            <path class="st02" d="M271.97,119.9c17.59,3.19,34.21,2.18,49.03,14.08c14.43,11.58,8.66,27.25,10.14,43.05&#10;              c0.63,6.68,10.6,7.1,12.76,1.22c6.75-18.45,2.83-43.16-13.56-55.18c-15.23-11.16-43-18.26-58.98-5.14&#10;              C270.57,118.58,271.06,119.73,271.97,119.9L271.97,119.9z"/>
            <path class="st02" d="M232.73,148.86c-1.14-8.83-14.67-15.12-21.98-18.23c-10.84-4.6-22.64-6.93-34.41-6.92&#10;              c-10.74,0.01-21.95,1.66-31.68,6.45c-7.75,3.82-17.45,11.41-17.19,20.94c0.08,3.08,3.07,6.38,6.39,4.52&#10;              c6.82-3.81,11.87-9.38,19.29-12.47c8.31-3.45,17.96-4.58,26.9-4.46c9.7,0.13,19.26,2.02,28.43,5.1&#10;              c6.68,2.25,15.61,8.44,22.68,7.29C232.23,150.92,232.86,149.88,232.73,148.86L232.73,148.86z"/>
            <path class="st01" d="M232.56,141.44c0.86-6.72-8.92-9.96-13.43-12.39c-6.74-3.64-14.24-8.64-22.09-8.81&#10;              c-4.26-0.09-6.94,4.51-4.26,8.03C196.79,133.54,230.82,154.99,232.56,141.44L232.56,141.44z"/>
            <path class="st02" d="M53.46,225.74c-12.45,13.1-8.13,36.08,1.6,49.41c11.32,15.51,31.36,22.61,49.14,15&#10;              c-1.89-3.01-3.79-6.01-5.68-9.02c-6.72,6.69-19.51,6.43-27.68,2.75c-8-3.61-12.04-10.76-13.54-19.06&#10;              c-1.21-6.71-11.9-6.65-12.26,0.49c-0.66,13.14,8.4,24.57,20.32,29.32c11.74,4.68,30.53,4.13,40-5.2c3.13-3.09,2.06-9.14-2.91-9.5&#10;              c-12.12-0.85-25.99-4.66-34.18-14.17c-9.5-11.04-7.87-23.1-8.11-36.45C60.11,226.24,56.2,222.85,53.46,225.74L53.46,225.74z"/>
            <path class="st03" d="M238.79,138.09c-23.2-22.16-62.88-25.27-91.67-13.75c-32.33,12.93-36.98,58.82-27.53,88.07&#10;              c2.44-2.62,4.88-5.23,7.31-7.85c-17.34-7.86-36.31-9.83-53.93-1.21c-15.69,7.67-27.77,22.58-32.25,39.43&#10;              c-4.37,16.46-2.13,35.59,9.35,48.8c11.05,12.71,29.57,18,44.42,8.96c3.7-2.25,2.51-9.63-2.53-8.06&#10;              c-12.13,3.77-26.47,0.06-34.42-10.09c-8.7-11.11-9.22-27.09-4.64-39.98c9.31-26.24,42.98-45.15,68.55-27.73&#10;              c3.98,2.71,10.23-0.59,9.09-5.7c-3.55-15.85-5.17-31.1-0.92-47.05c3.98-14.92,11.78-24.56,26.92-29.19&#10;              c12.52-3.83,26.1-4.7,39.05-3c14.26,1.87,26.55,7.66,39.42,13.62C237.94,144.71,241.21,140.4,238.79,138.09L238.79,138.09z"/>
            <path class="st03" d="M87.7,296.1c-7.41,32.67,3.63,72.02,34.1,89.15c25.87,14.54,62.81,5.78,72.35-24.51&#10;              c-3.44,0.57-6.89,1.13-10.33,1.7c10.7,12.93,22.19,26.13,38.08,32.7c14.82,6.13,31.93,4.58,46.19-2.37&#10;              c29.18-14.21,46.77-53.72,34.63-84.51c-1.36-3.45-7.13-2.5-7.24,1.24c-0.42,14.1,0.38,28.06-4.79,41.51&#10;              c-5.13,13.35-14.74,24.5-27.76,30.6c-28.59,13.39-52.28-5.33-69.76-26.9c-2.81-3.47-8.83-2.61-10.33,1.7&#10;              c-8.7,25.04-39.71,28.33-59.1,14.01c-23.67-17.47-26.39-46.41-27.34-73.51C96.19,291.29,88.95,290.58,87.7,296.1L87.7,296.1z"/>
            <path class="st03" d="M234.65,160.34c10.42-31.71,39.74-46.8,72.22-43.46c14.63,1.5,26.6,8.61,31.72,22.79&#10;              c4.44,12.27,3.53,25.95,1,38.52c-0.94,4.69,4.65,7.54,8.43,5.97c29.51-12.3,66.72-4.41,79.24,27.63&#10;              c5.14,13.16,4.14,28.55-5.05,39.67c-9.51,11.51-24.66,15.71-39.13,14.51c-4.83-0.4-5.74,5.83-1.83,7.83&#10;              c16.72,8.55,36.23,0.52,48.36-12.44c12.72-13.59,16.53-32.31,11.29-50.05c-12.4-42.04-60.82-53.51-97.89-37.96&#10;              c2.81,1.99,5.62,3.98,8.43,5.97c3.09-15.55,3.29-32.73-3.41-47.44c-7.21-15.83-21.93-24.28-38.82-26.28&#10;              c-33.15-3.92-81.58,13.19-81.82,53.05C227.38,162.61,233.24,164.64,234.65,160.34L234.65,160.34z"/>
            <path class="st03" d="M298.7,343.15c5.9,12.75,25.52,19.51,38.35,21.47c15.91,2.44,31.67-2.27,44.43-11.87&#10;              c12.7-9.56,22.58-23.02,26.16-38.62c1.79-7.79,2.12-15.9,0.93-23.82c-1-6.64-2.58-15.23-8.29-19.32&#10;              c-2.93-2.1-7.21-0.19-7.53,3.42c-0.55,6.14,2.89,11.9,3.6,18.05c0.71,6.23,0.3,12.65-1.27,18.73&#10;              c-3.31,12.87-11.82,23.15-22.37,30.94c-10.89,8.04-23.51,11.26-36.9,9.28c-6.02-0.89-12.05-2.8-17.67-5.13&#10;              c-5.54-2.3-10.69-5.99-16.59-7.15C299.37,338.7,297.87,341.35,298.7,343.15L298.7,343.15z"/>
          </g>
        </g>
        <g>
          <g>
            <g>
              <path class="st02" d="M183.62,195.99c2.34,34.36,4.86,68.15,11.38,101.97c0,0,30.72,13.16,60.08,10.91&#10;                c29.36-2.25,49.09-25.59,49.09-25.59c-1.66-34.1-3.1-68.22-4.31-102.34"/>
              <path class="st02" d="M180.65,195.67c0.32,13.76,1.28,27.54,2.39,41.26c1.09,13.47,2.43,26.93,4.38,40.31&#10;                c0.98,6.68,2.08,13.34,3.33,19.97c0.38,2,0.79,3.6,2.8,4.52c0.15,0.07,0.31,0.13,0.46,0.19c0.73,0.3,1.47,0.59,2.21,0.87&#10;                c7.82,3,15.91,5.33,24.08,7.15c11.71,2.61,23.82,3.89,35.81,2.85c9.98-0.86,19.75-4.21,28.45-9.12&#10;                c6.39-3.61,12.38-7.94,17.72-12.98c1.53-1.44,3.01-2.95,4.42-4.51c0.18-0.2,0.39-0.41,0.55-0.63c1.17-1.57,0.64-3.98,0.55-5.83&#10;                c-0.09-1.79-0.18-3.59-0.28-5.38c-1.42-27.9-2.59-55.8-3.64-83.72c-0.13-3.46-0.33-6.78-1-10.18c-0.67-3.37-5.63-3.31-6.07,0.18&#10;                c-0.84,6.77-0.15,13.71,0.11,20.52c0.25,6.69,0.51,13.39,0.78,20.08c0.54,13.39,1.13,26.77,1.7,40.16&#10;                c0.32,7.51,0.65,15.02,0.99,22.53c0.23-0.96,0.46-1.93,0.69-2.89c-0.16,0.19-0.32,0.37-0.49,0.55&#10;                c-0.19,0.21-0.39,0.42-0.59,0.63c-0.57,0.62,0.58-0.59,0.24-0.25c-0.17,0.17-0.34,0.35-0.51,0.52&#10;                c-1.73,1.76-3.55,3.43-5.44,5.02c-2.71,2.29-5.55,4.42-8.52,6.37c-0.4,0.26-0.8,0.52-1.2,0.78c-0.25,0.16-0.49,0.31-0.74,0.46&#10;                c0.73-0.45,0.25-0.16,0.1-0.06c-0.95,0.56-1.91,1.13-2.88,1.66c-1.99,1.1-4.04,2.11-6.12,3.03c-2.2,0.97-4.45,1.83-6.74,2.57&#10;                c-0.22,0.07-0.44,0.14-0.66,0.21c-1.1,0.35,0.77-0.21-0.34,0.1c-0.56,0.16-1.12,0.32-1.69,0.46c-1.26,0.33-2.53,0.62-3.81,0.87&#10;                c-2.55,0.5-5.13,0.83-7.72,1.01c-0.72,0.05-1.44,0.09-2.16,0.12c0.03,0-1.39,0.05-0.65,0.03c-0.29,0.01-0.58,0.01-0.86,0.02&#10;                c-1.58,0.02-3.16,0.01-4.75-0.04c-5.94-0.19-11.85-0.9-17.7-1.91c-2.74-0.47-5.47-1.03-8.18-1.65c-0.6-0.14-1.2-0.28-1.79-0.42&#10;                c0.16,0.04,0.79,0.2,0.01,0c-0.35-0.09-0.69-0.17-1.04-0.26c-1.22-0.31-2.43-0.63-3.64-0.97c-5.66-1.58-11.34-3.35-16.76-5.65&#10;                c0.84,1.03,1.67,2.07,2.51,3.1c-5.08-26.21-7.74-52.74-10.29-79.29c-0.72-7.5-1.28-15.02-2.13-22.51&#10;                c-0.17-1.46-1.63-2.54-3.04-2.47C182.21,193.08,180.61,194.17,180.65,195.67L180.65,195.67z"/>
            </g>
            <g>
              <path class="st02" d="M184.9,197.15c8.54,0.64,17.07,1.27,25.61,1.91c6.48,0.48,12.97,0.97,19.47,0.92&#10;                c6.34-0.05,12.67-0.61,18.99-1.18c8.86-0.79,17.77-1.58,26.38-3.81c8.61-2.22,17-5.96,23.54-11.98c0.33-0.31,0.68-0.64,0.8-1.08&#10;                c0.29-1-0.66-1.9-1.53-2.46c-5.07-3.26-11.18-4.43-17.16-5.24c-27.51-3.73-55.85-1.15-82.23,7.49&#10;                c-6.32,2.07-13.38,5.39-14.93,11.86"/>
              <path class="st02" d="M184.69,199.15c4.39,1.05,8.94,1.47,13.44,1.89c4.42,0.41,8.84,0.88,13.27,1.24&#10;                c9.05,0.74,18.1,1.06,27.17,0.5c8.76-0.54,17.59-1.27,26.27-2.58c8-1.21,16.01-3.14,23.35-6.65c3.49-1.67,6.84-3.69,9.84-6.13&#10;                c1.4-1.13,3.32-2.47,4.05-4.17c0.96-2.23-0.23-4.39-2-5.77c-3.18-2.47-7.34-3.82-11.19-4.77c-4.04-0.99-8.16-1.58-12.29-2.08&#10;                c-16.83-2.01-33.99-1.77-50.72,0.97c-8.33,1.37-16.57,3.31-24.66,5.75c-6.63,2-14.21,4.32-18.41,10.27&#10;                c-1,1.42-1.79,3.02-2.2,4.71c-0.45,1.81,0.05,3.73,1.95,4.48c1.58,0.62,3.99-0.14,4.48-1.95c0.19-0.71,0.44-1.38,0.74-2.05&#10;                c0.16-0.36-0.02,0-0.05,0.06c0.08-0.14,0.17-0.28,0.26-0.42c0.21-0.32,0.42-0.64,0.66-0.94c0.12-0.16,0.69-0.82,0.55-0.67&#10;                c-0.16,0.17,0.4-0.38,0.52-0.49c0.54-0.5,1.11-0.96,1.71-1.39c0.33-0.24,0.66-0.46,1-0.68c0.34-0.21,0.05-0.03-0.02,0.01&#10;                c0.15-0.09,0.3-0.18,0.46-0.26c0.72-0.41,1.46-0.78,2.21-1.13c1.39-0.65,2.83-1.2,4.28-1.71c7.25-2.52,14.74-4.39,22.28-5.84&#10;                c15.31-2.94,31.06-4.13,46.63-3.24c3.99,0.23,7.98,0.58,11.94,1.07c3.6,0.44,7.23,0.94,10.7,2.06c1.67,0.54,3.32,1.19,4.86,2.03&#10;                c0.35,0.19,0.68,0.47,1.04,0.63c0.47,0.21,0.31,0.55,0.34-0.38c0.03-0.87,0.03-0.62-0.45-0.21c-0.36,0.31-0.72,0.61-1.09,0.9&#10;                c-2.7,2.16-5.66,3.97-8.76,5.48c-6.67,3.26-13.87,5.05-21.19,6.17c-8.05,1.23-16.23,1.84-24.34,2.47&#10;                c-8.33,0.65-16.58,0.6-24.91,0.04c-8.47-0.57-16.97-1.19-25.46-1.34c-2.15-0.04-4.25-0.02-6.4,0.16&#10;                c-0.98,0.09-1.7,1.12-1.66,2.04C182.96,198.29,183.68,198.91,184.69,199.15L184.69,199.15z"/>
            </g>
            <path class="st02" d="M192.91,200.53c1.37,13.18,3.58,26.29,5.8,39.35c2.2,12.91,4.39,25.82,6.66,38.71&#10;              c1.31,7.41,2.62,14.83,3.93,22.24c2.25-1.01,4.5-2.02,6.74-3.03c-4.48-6.44-8.16-13.43-10.91-21.02&#10;              c-1.36-3.75-7.6-1.89-6.73,2.03c1.35,6.04,2.97,11.98,4.95,17.84c0.13-1.2,0.25-2.4,0.38-3.61c0.07-0.08,0.52-0.53,0.04-0.09&#10;              c0.02-0.02,0.57-0.32,0.21-0.16c-0.36,0.17,0.24-0.07,0.28-0.07c-0.15,0-0.37,0.05-0.53,0.07c0.1-0.02,0.59-0.17,0.29-0.04&#10;              c-0.1,0.04-0.74-0.14-0.21-0.01c0.46,0.11-0.45-0.22-0.61-0.26c0.66,0.2-0.03-0.04-0.3-0.23c-0.1-0.07-0.52-0.51-0.21-0.17&#10;              c0.29,0.32-0.01-0.06-0.06-0.11c-0.16-0.16-0.27-0.54,0.01,0.07c-0.07-0.15-0.15-0.29-0.21-0.44c-0.24-0.64-0.16-0.31-0.28-0.98&#10;              c-0.08-0.45-0.14-0.91-0.15-1.37c0.01,0.43,0.04-0.67,0.05-0.83c0.05-0.95,0.16-1.89,0.26-2.84c0.22-2.03,0.32-4.07,0.28-6.11&#10;              c-0.14-8.3-1.97-16.42-2.48-24.69c-0.23-3.74,0.06-8.79,1.15-12.4c-2.24,0.05-4.48,0.11-6.72,0.16&#10;              c1.86,5.99,2.68,12.44,3.55,18.69c0.94,6.8,1.89,13.6,2.83,20.4c2.3-0.7,4.61-1.39,6.91-2.09&#10;              c-6.56-19.81-10.13-40.66-12.46-61.45c-0.32-2.89-0.62-5.78-0.9-8.68c-0.14-1.52-0.28-3.05-0.42-4.57&#10;              c-0.07-0.76-0.14-1.52-0.19-2.29c-0.03-0.43,0.18-0.62,0-0.05c-0.11,0.37-0.28,0.89-0.63,1.11c-0.57,0.26-1.14,0.51-1.7,0.77&#10;              c-0.17,0.01-0.35,0.01-0.52,0.02c-0.59-0.23-1.19-0.46-1.78-0.69c-0.51-0.8-0.6-0.89-0.27-0.28c0.12,0.26,0.24,0.52,0.35,0.78&#10;              c0.22,0.52,0.43,1.06,0.62,1.6c0.31,0.89,0.53,1.72,0.77,2.81c0.46,2.11,0.74,4.26,0.94,6.41c0.43,4.75,0.68,9.52,0.85,14.28&#10;              c0.16,4.53,0.23,9.3,0.16,13.97c-0.03,2.04-0.1,4.09-0.45,6.1c-0.27,1.57-0.94,3.38-1.91,4.71c2.31,0.89,4.61,1.79,6.92,2.68&#10;              c-0.08-5.99-0.15-11.99-0.23-17.98c-0.02-1.92-1.12-3.92-3.27-4.05c-2.08-0.13-3.72,1.23-4.05,3.27c-0.63,4.01-1.36,8-2.05,12&#10;              c2.44,0.26,4.87,0.52,7.31,0.77c0.35-3.56,0.32-7.16,0.1-10.72c-0.12-1.92-2.33-3.22-4.08-2.93c-2.1,0.34-2.99,2.16-2.93,4.08&#10;              c0.09,2.84-0.11,5.89-0.4,8.79c-0.19,1.91,1.27,3.92,3.27,4.04c2.09,0.13,3.69-1.23,4.04-3.27c0.68-4,1.32-8.01,2.06-11.99&#10;              c-2.44-0.26-4.88-0.52-7.32-0.78c-0.03,5.98-0.07,11.97-0.1,17.95c-0.01,1.65,0.72,3.4,2.42,3.99c1.64,0.56,3.44,0.1,4.51-1.3&#10;              c2.91-3.83,3.65-8.66,3.73-13.35c0.08-5.17-0.08-10.36-0.3-15.53c-0.22-5.1-0.53-10.2-1.02-15.28c-0.46-4.72-1.2-9.51-3.18-13.86&#10;              c-0.63-1.39-1.49-2.68-2.97-3.27c-1.76-0.69-3.88-0.05-5.01,1.45c-1.64,2.19-1.09,4.92-0.89,7.45c0.4,4.88,0.86,9.76,1.4,14.63&#10;              c1.08,9.73,2.52,19.43,4.41,29.04c2.17,11.03,4.99,21.93,8.55,32.59c0.57,1.7,2.79,2.46,4.36,1.96c1.74-0.55,2.81-2.21,2.55-4.05&#10;              c-0.99-6.96-1.97-13.92-2.96-20.88c-0.96-6.77-1.96-13.47-3.95-20.03c-0.41-1.35-2.16-2.17-3.43-2.11&#10;              c-1.35,0.06-2.86,0.89-3.29,2.28c-3.66,11.82-0.35,23.75,0.63,35.7c0.23,2.83,0.3,5.05,0.06,7.98c-0.23,2.85-0.77,5.77-0.21,8.62&#10;              c0.62,3.17,2.39,5.7,5.3,7.14c2.46,1.22,5.55,1.18,7.81-0.45c0.78-0.56,1.53-1.32,1.88-2.22c0.5-1.27,0.05-2.45-0.38-3.66&#10;              c-0.57-1.6-1.11-3.21-1.6-4.84c-1.02-3.4-1.91-6.85-2.6-10.33c-2.24,0.68-4.48,1.36-6.73,2.03c2.73,8.11,6.57,15.86,11.43,22.91&#10;              c0.95,1.38,3.09,1.74,4.54,1.08c1.53-0.69,2.49-2.44,2.2-4.11c-4.47-25.96-8.73-51.99-13.8-77.84&#10;              c-1.45-7.39-2.92-14.8-4.72-22.11C197.48,196.22,192.54,196.98,192.91,200.53L192.91,200.53z"/>
            <path class="st02" d="M180.65,195.67c0.32,13.76,1.28,27.54,2.39,41.26c1.09,13.47,2.43,26.93,4.38,40.31&#10;              c0.98,6.68,2.08,13.34,3.33,19.97c0.38,2,0.79,3.6,2.8,4.52c0.15,0.07,0.31,0.13,0.46,0.19c0.73,0.3,1.47,0.59,2.21,0.87&#10;              c7.82,3,15.91,5.33,24.08,7.15c11.71,2.61,23.82,3.89,35.81,2.85c9.98-0.86,19.75-4.21,28.45-9.12&#10;              c6.39-3.61,12.38-7.94,17.72-12.98c1.53-1.44,3.01-2.95,4.42-4.51c0.18-0.2,0.39-0.41,0.55-0.63c1.17-1.57,0.64-3.98,0.55-5.83&#10;              c-0.09-1.79-0.18-3.59-0.28-5.38c-1.42-27.9-2.59-55.8-3.64-83.72c-0.13-3.46-0.33-6.78-1-10.18c-0.67-3.37-5.63-3.31-6.07,0.18&#10;              c-0.84,6.77-0.15,13.71,0.11,20.52c0.25,6.69,0.51,13.39,0.78,20.08c0.54,13.39,1.13,26.77,1.7,40.16&#10;              c0.32,7.51,0.65,15.02,0.99,22.53c0.23-0.96,0.46-1.93,0.69-2.89c-0.16,0.19-0.32,0.37-0.49,0.55c-0.19,0.21-0.39,0.42-0.59,0.63&#10;              c-0.57,0.62,0.58-0.59,0.24-0.25c-0.17,0.17-0.34,0.35-0.51,0.52c-1.73,1.76-3.55,3.43-5.44,5.02c-2.71,2.29-5.55,4.42-8.52,6.37&#10;              c-0.4,0.26-0.8,0.52-1.2,0.78c-0.25,0.16-0.49,0.31-0.74,0.46c0.73-0.45,0.25-0.16,0.1-0.06c-0.95,0.56-1.91,1.13-2.88,1.66&#10;              c-1.99,1.1-4.04,2.11-6.12,3.03c-2.2,0.97-4.45,1.83-6.74,2.57c-0.22,0.07-0.44,0.14-0.66,0.21c-1.1,0.35,0.77-0.21-0.34,0.1&#10;              c-0.56,0.16-1.12,0.32-1.69,0.46c-1.26,0.33-2.53,0.62-3.81,0.87c-2.55,0.5-5.13,0.83-7.72,1.01c-0.72,0.05-1.44,0.09-2.16,0.12&#10;              c0.03,0-1.39,0.05-0.65,0.03c-0.29,0.01-0.58,0.01-0.86,0.02c-1.58,0.02-3.16,0.01-4.75-0.04c-5.94-0.19-11.85-0.9-17.7-1.91&#10;              c-2.74-0.47-5.47-1.03-8.18-1.65c-0.6-0.14-1.2-0.28-1.79-0.42c0.16,0.04,0.79,0.2,0.01,0c-0.35-0.09-0.69-0.17-1.04-0.26&#10;              c-1.22-0.31-2.43-0.63-3.64-0.97c-5.66-1.58-11.34-3.35-16.76-5.65c0.84,1.03,1.67,2.07,2.51,3.1&#10;              c-5.08-26.21-7.74-52.74-10.29-79.29c-0.72-7.5-1.28-15.02-2.13-22.51c-0.17-1.46-1.63-2.54-3.04-2.47&#10;              C182.21,193.08,180.61,194.17,180.65,195.67L180.65,195.67z"/>
            <path class="st02" d="M184.69,199.15c4.39,1.05,8.94,1.47,13.44,1.89c4.42,0.41,8.84,0.88,13.27,1.24&#10;              c9.05,0.74,18.1,1.06,27.17,0.5c8.76-0.54,17.59-1.27,26.27-2.58c8-1.21,16.01-3.14,23.35-6.65c3.49-1.67,6.84-3.69,9.84-6.13&#10;              c1.4-1.13,3.32-2.47,4.05-4.17c0.96-2.23-0.23-4.39-2-5.77c-3.18-2.47-7.34-3.82-11.19-4.77c-4.04-0.99-8.16-1.58-12.29-2.08&#10;              c-16.83-2.01-33.99-1.77-50.72,0.97c-8.33,1.37-16.57,3.31-24.66,5.75c-6.63,2-14.21,4.32-18.41,10.27&#10;              c-1,1.42-1.79,3.02-2.2,4.71c-0.45,1.81,0.05,3.73,1.95,4.48c1.58,0.62,3.99-0.14,4.48-1.95c0.19-0.71,0.44-1.38,0.74-2.05&#10;              c0.16-0.36-0.02,0-0.05,0.06c0.08-0.14,0.17-0.28,0.26-0.42c0.21-0.32,0.42-0.64,0.66-0.94c0.12-0.16,0.69-0.82,0.55-0.67&#10;              c-0.16,0.17,0.4-0.38,0.52-0.49c0.54-0.5,1.11-0.96,1.71-1.39c0.33-0.24,0.66-0.46,1-0.68c0.34-0.21,0.05-0.03-0.02,0.01&#10;              c0.15-0.09,0.3-0.18,0.46-0.26c0.72-0.41,1.46-0.78,2.21-1.13c1.39-0.65,2.83-1.2,4.28-1.71c7.25-2.52,14.74-4.39,22.28-5.84&#10;              c15.31-2.94,31.06-4.13,46.63-3.24c3.99,0.23,7.98,0.58,11.94,1.07c3.6,0.44,7.23,0.94,10.7,2.06c1.67,0.54,3.32,1.19,4.86,2.03&#10;              c0.35,0.19,0.68,0.47,1.04,0.63c0.47,0.21,0.31,0.55,0.34-0.38c0.03-0.87,0.03-0.62-0.45-0.21c-0.36,0.31-0.72,0.61-1.09,0.9&#10;              c-2.7,2.16-5.66,3.97-8.76,5.48c-6.67,3.26-13.87,5.05-21.19,6.17c-8.05,1.23-16.23,1.84-24.34,2.47&#10;              c-8.33,0.65-16.58,0.6-24.91,0.04c-8.47-0.57-16.97-1.19-25.46-1.34c-2.15-0.04-4.25-0.02-6.4,0.16&#10;              c-0.98,0.09-1.7,1.12-1.66,2.04C182.96,198.29,183.68,198.91,184.69,199.15L184.69,199.15z"/>
            <g>
              <path class="st02" d="M269.23,272.93c-2.64,3.81-6.72,6.5-11.12,7.94s-9.13,1.7-13.75,1.3c-1.57-0.14-3.18-0.95-4.69-1.39&#10;                c0.52-9.76,1.4-19.64,2.17-29.39c-2.84-1.62-5.63-3.41-7.96-5.71c-2.33-2.3-4.21-5.15-4.93-8.34&#10;                c-0.91-4.05,0.11-8.39,2.29-11.91c2.18-3.53,5.43-6.3,9-8.42c3.89-2.3,8.32-3.9,12.84-3.76c5.58,0.18,10.98,3.18,14.14,7.78&#10;                c1.39,2.03,2.37,4.35,2.84,6.76c0.83,4.25,0.11,8.7-1.51,12.71c-1.61,4.01-4.08,7.63-6.79,11.01&#10;                C264.53,258.09,267.22,266.06,269.23,272.93z"/>
              <g>
                <path class="st03" d="M267.51,271.92c-6.24,8.22-17.97,10.11-27.3,6.92c0.49,0.64,0.98,1.29,1.47,1.93&#10;                  c0.54-9.81,1.39-19.6,2.17-29.39c0.05-0.69-0.42-1.39-0.99-1.73c-7.08-4.14-14.36-10.28-11.61-19.46&#10;                  c2.33-7.75,11.02-13.61,18.74-14.72c8.16-1.18,16.08,4.01,17.97,12.12c1.93,8.32-2.67,16.19-7.61,22.49&#10;                  c-0.41,0.52-0.8,1.25-0.51,1.95c2.89,7,5.32,14.17,7.48,21.43c0.73,2.46,4.59,1.41,3.86-1.06c-2.16-7.26-4.59-14.43-7.48-21.43&#10;                  c-0.17,0.65-0.34,1.3-0.51,1.95c6.94-8.84,12.84-20.76,6.55-31.65c-6.29-10.88-19.5-12.12-29.75-6.41&#10;                  c-9.49,5.29-17.15,16.51-11.28,27.27c1.53,2.81,3.74,5.13,6.24,7.1c2.91,2.29,4.75,2.23,4.6,6.06&#10;                  c-0.35,8.5-1.39,16.99-1.86,25.48c-0.05,0.91,0.66,1.65,1.47,1.93c11.22,3.84,24.5,0.89,31.82-8.76&#10;                  C272.51,271.88,269.04,269.89,267.51,271.92z"/>
              </g>
            </g>
            <g>
              <path class="st02" d="M262.8,275.42c2.49-0.99,3.3-2.02,4.07-4.59c-1.83,0.5-2.43,0.05-4.13,0.89c0.82-0.93,1.64-1.86,2.46-2.8&#10;                c-1.03,1.4-2.07,2.81-3.1,4.21c-2.09-6.3-3.55-12.81-4.34-19.4c0.11,0.24,0.12,0.53,0.03,0.79c-0.72-0.5-1.44-1-2.16-1.5&#10;                c1.18,3.21,2.59,6.34,4.21,9.35c1.24,2.3,2.7,4.63,4.97,5.93c-1.19-5.32-2.65-10.57-4.38-15.74c0.56,6.01,1.72,11.95,3.45,17.73&#10;                c0.19,0.63,0.17,1.6-0.49,1.63c-0.5,0.03-0.76-0.56-0.88-1.05c-1.4-5.76-3.02-11.5-2.31-17.38c0.12-1.01,0.45-1.75,0-2.67&#10;                c0.02,0.38-1.03,0.54-0.67,0.67"/>
              <g>
                <path class="st04" d="M264.32,278c2.97-1.35,4.41-3.35,5.45-6.38c0.79-2.32-1.61-4.1-3.69-3.69c-1.44,0.29-2.75,0.36-4.13,0.89&#10;                  c0.97,1.67,1.95,3.34,2.92,5.01c0.82-0.93,1.64-1.86,2.46-2.8c-1.57-1.21-3.14-2.42-4.71-3.63c-1.03,1.4-2.07,2.81-3.1,4.21&#10;                  c1.83,0.24,3.65,0.48,5.48,0.72c-1.96-6.08-3.41-12.26-4.23-18.6c-0.48-3.7-6.15-3.97-6,0c0.01,0.26,0.02,0.52,0.03,0.79&#10;                  c1.5-0.86,3.01-1.73,4.51-2.59c-0.72-0.5-1.44-1-2.16-1.5c-2.07-1.44-5.32,0.98-4.41,3.39c2.37,6.23,4.94,13.11,10.56,17.08&#10;                  c2.27,1.6,4.95-1.04,4.41-3.39c-1.22-5.32-2.68-10.56-4.38-15.74c-0.99-3.03-6.26-2.74-5.89,0.8c0.31,2.97,0.69,5.92,1.23,8.86&#10;                  c0.16,0.88,2.18,8.84,2.61,8.38c1.21-0.16,2.42-0.31,3.63-0.47c0.73,1.28,0.76,0.95,0.07-0.98c-0.14-0.58-0.28-1.15-0.42-1.73&#10;                  c-0.51-2.17-1-4.32-1.27-6.53c-0.41-3.4,0.35-6.73-0.19-10.06c-0.35-2.11-3.68-3.03-5.01-1.32c-0.82,1.05-1.38,1.34-1.54,2.79&#10;                  c-0.44,3.83,5.56,3.8,6,0c0.01-0.05,0.01-0.1,0.02-0.14c-0.5,0.86-0.99,1.73-1.49,2.59c0.5-0.26,0.91-0.55,1.26-0.99&#10;                  c-1.67-0.44-3.34-0.88-5.01-1.32c0.33,1.99-0.33,4.21-0.23,6.26c0.11,2.31,0.47,4.62,0.92,6.88c0.61,3.11,0.85,8.02,3.88,9.75&#10;                  c1.13,0.65,2.72,0.5,3.63-0.47c2.14-2.26,1.26-4.39,0.52-7.16c-1.26-4.71-2.11-9.48-2.61-14.32c-1.96,0.27-3.93,0.53-5.89,0.8&#10;                  c1.7,5.18,3.15,10.42,4.38,15.74c1.47-1.13,2.94-2.26,4.41-3.39c-4.04-2.85-6.11-9.06-7.8-13.49&#10;                  c-1.47,1.13-2.94,2.26-4.41,3.39c0.72,0.5,1.44,1,2.16,1.5c1.86,1.29,4.6-0.42,4.51-2.59c-0.01-0.26-0.02-0.52-0.03-0.79&#10;                  c-2,0-4,0-6,0c0.89,6.89,2.31,13.58,4.44,20.19c0.84,2.62,3.97,2.77,5.48,0.72c1.03-1.4,2.07-2.81,3.1-4.21&#10;                  c2.01-2.73-2.47-6.18-4.71-3.63c-0.82,0.93-1.64,1.86-2.46,2.8c-1.79,2.03-0.11,6.17,2.92,5.01c1.35-0.52,2.71-0.61,4.13-0.89&#10;                  c-1.23-1.23-2.46-2.46-3.69-3.69c-0.56,1.65-1.15,2.1-2.69,2.8C257.78,274.41,260.82,279.59,264.32,278L264.32,278z"/>
              </g>
            </g>
            <g>
              <path class="st02" d="M261.01,247.8c0.8-1.66,1.59-3.32,2.39-4.98c-0.97,3.49-4.29,6.18-7.9,6.43c2.51-1.85,4.79-4,6.79-6.4&#10;                c-1.77,2.21-3.56,4.44-5.79,6.19c3.54-4.91,6.26-10.4,8.03-16.19c-0.37,0.74-0.74,1.48-1.11,2.23&#10;                c-0.14-2.49-0.29-4.97-0.43-7.46c-0.14-2.52-0.34-5.2-1.84-7.23c-1.4-1.91-3.75-2.96-5.12-4.9c3.24,1.55,6.64,3.23,8.68,6.19&#10;                c0.87,1.26,1.45,2.7,1.86,4.17c1.78,6.41,0.19,13.65-4.12,18.72c2.2-4.26,3.56-8.94,3.98-13.71c0.1-1.18,0.01-2.63-1.05-3.17&#10;                c-1.33,4.87-3.48,9.52-6.33,13.69c0.89-2.14,1.78-4.28,2.67-6.42"/>
              <g>
                <path class="st04" d="M263.6,249.31c0.8-1.66,1.59-3.32,2.39-4.98c-1.83-0.77-3.65-1.54-5.48-2.31&#10;                  c-1.03,2.77-3.04,3.91-5.81,4.33c0.77,1.83,1.54,3.65,2.31,5.48c2.71-2.09,5.15-4.28,7.39-6.87c-1.41-1.41-2.83-2.83-4.24-4.24&#10;                  c-1.8,2.23-3.61,4.32-5.79,6.19c1.57,1.21,3.14,2.42,4.71,3.63c3.65-5.22,6.38-10.84,8.33-16.9c1.03-3.2-3.95-5.37-5.48-2.31&#10;                  c-0.37,0.74-0.74,1.48-1.11,2.23c1.86,0.5,3.73,1.01,5.59,1.51c-0.25-4.35,0.08-9.33-1.37-13.5c-1.3-3.73-4.44-5.37-6.89-8.22&#10;                  c-1.21,1.57-2.42,3.14-3.63,4.71c4.68,2.27,8.51,4.52,9.52,10.06c0.93,5.07-0.55,10.29-3.7,14.31&#10;                  c1.57,1.21,3.14,2.42,4.71,3.63c2.55-5.24,7.3-15.46,2.46-20.52c-1.59-1.66-4.39-0.8-5.01,1.32&#10;                  c-1.37,4.67-3.36,8.91-6.03,12.97c1.83,0.77,3.65,1.54,5.48,2.31c0.89-2.14,1.78-4.28,2.67-6.42c1.48-3.56-4.32-5.11-5.78-1.59&#10;                  c-0.89,2.14-1.78,4.28-2.67,6.42c-1.36,3.27,3.72,5,5.48,2.31c2.95-4.49,5.12-9.25,6.63-14.41c-1.67,0.44-3.34,0.88-5.01,1.32&#10;                  c1.87,1.95-2.58,11.56-3.4,13.25c-1.38,2.83,2.47,6.49,4.71,3.63c4.21-5.37,6.42-11.78,5.48-18.63&#10;                  c-1.06-7.71-5.76-11.88-12.51-15.15c-3.09-1.5-5.89,2.08-3.63,4.71c2.23,2.6,4.93,3.78,5.78,7.38&#10;                  c0.75,3.19,0.53,6.84,0.72,10.09c0.16,2.76,4.17,4.35,5.59,1.51c0.37-0.74,0.74-1.48,1.11-2.23c-1.83-0.77-3.65-1.54-5.48-2.31&#10;                  c-1.8,5.59-4.36,10.66-7.72,15.47c-2.06,2.95,2.28,5.72,4.71,3.63c2.18-1.87,3.99-3.96,5.79-6.19c2.38-2.95-1.68-7.2-4.24-4.24&#10;                  c-1.89,2.18-3.89,4.17-6.18,5.93c-2.73,2.1-1.15,6.01,2.31,5.48c4.93-0.75,8.3-3.94,10-8.52c1.18-3.16-4.01-5.37-5.48-2.31&#10;                  c-0.8,1.66-1.59,3.32-2.39,4.98C256.76,249.75,261.93,252.8,263.6,249.31L263.6,249.31z"/>
              </g>
            </g>
            <g>
              <path class="st02" d="M247,214.11c6.32,0.94,11.69,6.4,12.53,12.74c0.28,2.12,0.1,4.28-0.25,6.38&#10;                c-1.06,6.29-3.68,12.31-7.58,17.37c2.96,9.06,5.91,18.11,8.84,27.18"/>
              <g>
                <path class="st03" d="M246.47,216.04c15.22,3.07,11.83,20.43,5.76,30.27c-0.9,1.45-2.48,2.8-2.5,4.56&#10;                  c-0.02,2.5,1.92,6.03,2.7,8.42c2.07,6.34,4.13,12.68,6.18,19.03c0.79,2.44,4.65,1.4,3.86-1.06&#10;                  c-2.52-7.79-5.68-15.62-7.66-23.56c-0.94-3.78,1.17-5.51,2.8-8.85c1.35-2.78,2.42-5.72,3.12-8.73&#10;                  c2.47-10.63-1.57-21.58-13.19-23.92C245.02,211.68,243.95,215.53,246.47,216.04L246.47,216.04z"/>
              </g>
            </g>
            <g>
              <path class="st02" d="M253.66,251.04c2.85,0.13,5.71,0.14,8.57,0.02"/>
              <g>
                <path class="st03" d="M253.66,253.04c2.86,0.13,5.71,0.13,8.57,0.02c2.57-0.1,2.58-4.1,0-4c-2.86,0.11-5.71,0.1-8.57-0.02&#10;                  C251.09,248.92,251.09,252.92,253.66,253.04L253.66,253.04z"/>
              </g>
            </g>
            <g>
              <path class="st02" d="M269.23,272.93c-2.64,3.81-6.72,6.5-11.12,7.94s-9.13,1.7-13.75,1.3c-1.57-0.14-3.18-0.95-4.69-1.39&#10;                c0.52-9.76,1.4-19.64,2.17-29.39c-2.84-1.62-5.63-3.41-7.96-5.71c-2.33-2.3-4.21-5.15-4.93-8.34&#10;                c-0.91-4.05,0.11-8.39,2.29-11.91c2.18-3.53,5.43-6.3,9-8.42c3.89-2.3,8.32-3.9,12.84-3.76c5.58,0.18,10.98,3.18,14.14,7.78&#10;                c1.39,2.03,2.37,4.35,2.84,6.76c0.83,4.25,0.11,8.7-1.51,12.71c-1.61,4.01-4.08,7.63-6.79,11.01&#10;                C264.53,258.09,267.22,266.06,269.23,272.93z"/>
              <g>
                <path class="st03" d="M267.51,271.92c-6.24,8.22-17.97,10.11-27.3,6.92c0.49,0.64,0.98,1.29,1.47,1.93&#10;                  c0.54-9.81,1.39-19.6,2.17-29.39c0.05-0.69-0.42-1.39-0.99-1.73c-7.08-4.14-14.36-10.28-11.61-19.46&#10;                  c2.33-7.75,11.02-13.61,18.74-14.72c8.16-1.18,16.08,4.01,17.97,12.12c1.93,8.32-2.67,16.19-7.61,22.49&#10;                  c-0.41,0.52-0.8,1.25-0.51,1.95c2.89,7,5.32,14.17,7.48,21.43c0.73,2.46,4.59,1.41,3.86-1.06c-2.16-7.26-4.59-14.43-7.48-21.43&#10;                  c-0.17,0.65-0.34,1.3-0.51,1.95c6.94-8.84,12.84-20.76,6.55-31.65c-6.29-10.88-19.5-12.12-29.75-6.41&#10;                  c-9.49,5.29-17.15,16.51-11.28,27.27c1.53,2.81,3.74,5.13,6.24,7.1c2.91,2.29,4.75,2.23,4.6,6.06&#10;                  c-0.35,8.5-1.39,16.99-1.86,25.48c-0.05,0.91,0.66,1.65,1.47,1.93c11.22,3.84,24.5,0.89,31.82-8.76&#10;                  C272.51,271.88,269.04,269.89,267.51,271.92z"/>
              </g>
            </g>
          </g>
          <g>
            <g>
              <path class="st05" d="M176.62,195.99c2.34,34.36,4.86,68.15,11.38,101.97c0,0,30.72,13.16,60.08,10.91&#10;                c29.36-2.25,49.09-25.59,49.09-25.59c-1.66-34.1-3.1-68.22-4.31-102.34"/>
              <path class="st03" d="M173.65,195.67c0.32,13.76,1.28,27.54,2.39,41.26c1.09,13.47,2.43,26.93,4.38,40.31&#10;                c0.98,6.68,2.08,13.34,3.33,19.97c0.38,2,0.79,3.6,2.8,4.52c0.15,0.07,0.31,0.13,0.46,0.19c0.73,0.3,1.47,0.59,2.21,0.87&#10;                c7.82,3,15.91,5.33,24.08,7.15c11.71,2.61,23.82,3.89,35.81,2.85c9.98-0.86,19.75-4.21,28.45-9.12&#10;                c6.39-3.61,12.38-7.94,17.72-12.98c1.53-1.44,3.01-2.95,4.42-4.51c0.18-0.2,0.39-0.41,0.55-0.63c1.17-1.57,0.64-3.98,0.55-5.83&#10;                c-0.09-1.79-0.18-3.59-0.28-5.38c-1.42-27.9-2.59-55.8-3.64-83.72c-0.13-3.46-0.33-6.78-1-10.18c-0.67-3.37-5.63-3.31-6.07,0.18&#10;                c-0.84,6.77-0.15,13.71,0.11,20.52c0.25,6.69,0.51,13.39,0.78,20.08c0.54,13.39,1.13,26.77,1.7,40.16&#10;                c0.32,7.51,0.65,15.02,0.99,22.53c0.23-0.96,0.46-1.93,0.69-2.89c-0.16,0.19-0.32,0.37-0.49,0.55&#10;                c-0.19,0.21-0.39,0.42-0.59,0.63c-0.57,0.62,0.58-0.59,0.24-0.25c-0.17,0.17-0.34,0.35-0.51,0.52&#10;                c-1.73,1.76-3.55,3.43-5.44,5.02c-2.71,2.29-5.55,4.42-8.52,6.37c-0.4,0.26-0.8,0.52-1.2,0.78c-0.25,0.16-0.49,0.31-0.74,0.46&#10;                c0.73-0.45,0.25-0.16,0.1-0.06c-0.95,0.56-1.91,1.13-2.88,1.66c-1.99,1.1-4.04,2.11-6.12,3.03c-2.2,0.97-4.45,1.83-6.74,2.57&#10;                c-0.22,0.07-0.44,0.14-0.66,0.21c-1.1,0.35,0.77-0.21-0.34,0.1c-0.56,0.16-1.12,0.32-1.69,0.46c-1.26,0.33-2.53,0.62-3.81,0.87&#10;                c-2.55,0.5-5.13,0.83-7.72,1.01c-0.72,0.05-1.44,0.09-2.16,0.12c0.03,0-1.39,0.05-0.65,0.03c-0.29,0.01-0.58,0.01-0.86,0.02&#10;                c-1.58,0.02-3.16,0.01-4.75-0.04c-5.94-0.19-11.85-0.9-17.7-1.91c-2.74-0.47-5.47-1.03-8.18-1.65c-0.6-0.14-1.2-0.28-1.79-0.42&#10;                c0.16,0.04,0.79,0.2,0.01,0c-0.35-0.09-0.69-0.17-1.04-0.26c-1.22-0.31-2.43-0.63-3.64-0.97c-5.66-1.58-11.34-3.35-16.76-5.65&#10;                c0.84,1.03,1.67,2.07,2.51,3.1c-5.08-26.21-7.74-52.74-10.29-79.29c-0.72-7.5-1.28-15.02-2.13-22.51&#10;                c-0.17-1.46-1.63-2.54-3.04-2.47C175.21,193.08,173.61,194.17,173.65,195.67L173.65,195.67z"/>
            </g>
            <g>
              <path class="st04" d="M177.9,197.15c8.54,0.64,17.07,1.27,25.61,1.91c6.48,0.48,12.97,0.97,19.47,0.92&#10;                c6.34-0.05,12.67-0.61,18.99-1.18c8.86-0.79,17.77-1.58,26.38-3.81c8.61-2.22,17-5.96,23.54-11.98c0.33-0.31,0.68-0.64,0.8-1.08&#10;                c0.29-1-0.66-1.9-1.53-2.46c-5.07-3.26-11.18-4.43-17.16-5.24c-27.51-3.73-55.85-1.15-82.23,7.49&#10;                c-6.32,2.07-13.38,5.39-14.93,11.86"/>
              <path class="st03" d="M177.69,199.15c4.39,1.05,8.94,1.47,13.44,1.89c4.42,0.41,8.84,0.88,13.27,1.24&#10;                c9.05,0.74,18.1,1.06,27.17,0.5c8.76-0.54,17.59-1.27,26.27-2.58c8-1.21,16.01-3.14,23.35-6.65c3.49-1.67,6.84-3.69,9.84-6.13&#10;                c1.4-1.13,3.32-2.47,4.05-4.17c0.96-2.23-0.23-4.39-2-5.77c-3.18-2.47-7.34-3.82-11.19-4.77c-4.04-0.99-8.16-1.58-12.29-2.08&#10;                c-16.83-2.01-33.99-1.77-50.72,0.97c-8.33,1.37-16.57,3.31-24.66,5.75c-6.63,2-14.21,4.32-18.41,10.27&#10;                c-1,1.42-1.79,3.02-2.2,4.71c-0.45,1.81,0.05,3.73,1.95,4.48c1.58,0.62,3.99-0.14,4.48-1.95c0.19-0.71,0.44-1.38,0.74-2.05&#10;                c0.16-0.36-0.02,0-0.05,0.06c0.08-0.14,0.17-0.28,0.26-0.42c0.21-0.32,0.42-0.64,0.66-0.94c0.12-0.16,0.69-0.82,0.55-0.67&#10;                c-0.16,0.17,0.4-0.38,0.52-0.49c0.54-0.5,1.11-0.96,1.71-1.39c0.33-0.24,0.66-0.46,1-0.68c0.34-0.21,0.05-0.03-0.02,0.01&#10;                c0.15-0.09,0.3-0.18,0.46-0.26c0.72-0.41,1.46-0.78,2.21-1.13c1.39-0.65,2.83-1.2,4.28-1.71c7.25-2.52,14.74-4.39,22.28-5.84&#10;                c15.31-2.94,31.06-4.13,46.63-3.24c3.99,0.23,7.98,0.58,11.94,1.07c3.6,0.44,7.23,0.94,10.7,2.06c1.67,0.54,3.32,1.19,4.86,2.03&#10;                c0.35,0.19,0.68,0.47,1.04,0.63c0.47,0.21,0.31,0.55,0.34-0.38c0.03-0.87,0.03-0.62-0.45-0.21c-0.36,0.31-0.72,0.61-1.09,0.9&#10;                c-2.7,2.16-5.66,3.97-8.76,5.48c-6.67,3.26-13.87,5.05-21.19,6.17c-8.05,1.23-16.23,1.84-24.34,2.47&#10;                c-8.33,0.65-16.58,0.6-24.91,0.04c-8.47-0.57-16.97-1.19-25.46-1.34c-2.15-0.04-4.25-0.02-6.4,0.16&#10;                c-0.98,0.09-1.7,1.12-1.66,2.04C175.96,198.29,176.68,198.91,177.69,199.15L177.69,199.15z"/>
            </g>
            <path class="st04" d="M185.91,200.53c1.37,13.18,3.58,26.29,5.8,39.35c2.2,12.91,4.39,25.82,6.66,38.71&#10;              c1.31,7.41,2.62,14.83,3.93,22.24c2.25-1.01,4.5-2.02,6.74-3.03c-4.48-6.44-8.16-13.43-10.91-21.02&#10;              c-1.36-3.75-7.6-1.89-6.73,2.03c1.35,6.04,2.97,11.98,4.95,17.84c0.13-1.2,0.25-2.4,0.38-3.61c0.07-0.08,0.52-0.53,0.04-0.09&#10;              c0.02-0.02,0.57-0.32,0.21-0.16c-0.36,0.17,0.24-0.07,0.28-0.07c-0.15,0-0.37,0.05-0.53,0.07c0.1-0.02,0.59-0.17,0.29-0.04&#10;              c-0.1,0.04-0.74-0.14-0.21-0.01c0.46,0.11-0.45-0.22-0.61-0.26c0.66,0.2-0.03-0.04-0.3-0.23c-0.1-0.07-0.52-0.51-0.21-0.17&#10;              c0.29,0.32-0.01-0.06-0.06-0.11c-0.16-0.16-0.27-0.54,0.01,0.07c-0.07-0.15-0.15-0.29-0.21-0.44c-0.24-0.64-0.16-0.31-0.28-0.98&#10;              c-0.08-0.45-0.14-0.91-0.15-1.37c0.01,0.43,0.04-0.67,0.05-0.83c0.05-0.95,0.16-1.89,0.26-2.84c0.22-2.03,0.32-4.07,0.28-6.11&#10;              c-0.14-8.3-1.97-16.42-2.48-24.69c-0.23-3.74,0.06-8.79,1.15-12.4c-2.24,0.05-4.48,0.11-6.72,0.16&#10;              c1.86,5.99,2.68,12.44,3.55,18.69c0.94,6.8,1.89,13.6,2.83,20.4c2.3-0.7,4.61-1.39,6.91-2.09&#10;              c-6.56-19.81-10.13-40.66-12.46-61.45c-0.32-2.89-0.62-5.78-0.9-8.68c-0.14-1.52-0.28-3.05-0.42-4.57&#10;              c-0.07-0.76-0.14-1.52-0.19-2.29c-0.03-0.43,0.18-0.62,0-0.05c-0.11,0.37-0.28,0.89-0.63,1.11c-0.57,0.26-1.14,0.51-1.7,0.77&#10;              c-0.17,0.01-0.35,0.01-0.52,0.02c-0.59-0.23-1.19-0.46-1.78-0.69c-0.51-0.8-0.6-0.89-0.27-0.28c0.12,0.26,0.24,0.52,0.35,0.78&#10;              c0.22,0.52,0.43,1.06,0.62,1.6c0.31,0.89,0.53,1.72,0.77,2.81c0.46,2.11,0.74,4.26,0.94,6.41c0.43,4.75,0.68,9.52,0.85,14.28&#10;              c0.16,4.53,0.23,9.3,0.16,13.97c-0.03,2.04-0.1,4.09-0.45,6.1c-0.27,1.57-0.94,3.38-1.91,4.71c2.31,0.89,4.61,1.79,6.92,2.68&#10;              c-0.08-5.99-0.15-11.99-0.23-17.98c-0.02-1.92-1.12-3.92-3.27-4.05c-2.08-0.13-3.72,1.23-4.05,3.27c-0.63,4.01-1.36,8-2.05,12&#10;              c2.44,0.26,4.87,0.52,7.31,0.77c0.35-3.56,0.32-7.16,0.1-10.72c-0.12-1.92-2.33-3.22-4.08-2.93c-2.1,0.34-2.99,2.16-2.93,4.08&#10;              c0.09,2.84-0.11,5.89-0.4,8.79c-0.19,1.91,1.27,3.92,3.27,4.04c2.09,0.13,3.69-1.23,4.04-3.27c0.68-4,1.32-8.01,2.06-11.99&#10;              c-2.44-0.26-4.88-0.52-7.32-0.78c-0.03,5.98-0.07,11.97-0.1,17.95c-0.01,1.65,0.72,3.4,2.42,3.99c1.64,0.56,3.44,0.1,4.51-1.3&#10;              c2.91-3.83,3.65-8.66,3.73-13.35c0.08-5.17-0.08-10.36-0.3-15.53c-0.22-5.1-0.53-10.2-1.02-15.28c-0.46-4.72-1.2-9.51-3.18-13.86&#10;              c-0.63-1.39-1.49-2.68-2.97-3.27c-1.76-0.69-3.88-0.05-5.01,1.45c-1.64,2.19-1.09,4.92-0.89,7.45c0.4,4.88,0.86,9.76,1.4,14.63&#10;              c1.08,9.73,2.52,19.43,4.41,29.04c2.17,11.03,4.99,21.93,8.55,32.59c0.57,1.7,2.79,2.46,4.36,1.96c1.74-0.55,2.81-2.21,2.55-4.05&#10;              c-0.99-6.96-1.97-13.92-2.96-20.88c-0.96-6.77-1.96-13.47-3.95-20.03c-0.41-1.35-2.16-2.17-3.43-2.11&#10;              c-1.35,0.06-2.86,0.89-3.29,2.28c-3.66,11.82-0.35,23.75,0.63,35.7c0.23,2.83,0.3,5.05,0.06,7.98c-0.23,2.85-0.77,5.77-0.21,8.62&#10;              c0.62,3.17,2.39,5.7,5.3,7.14c2.46,1.22,5.55,1.18,7.81-0.45c0.78-0.56,1.53-1.32,1.88-2.22c0.5-1.27,0.05-2.45-0.38-3.66&#10;              c-0.57-1.6-1.11-3.21-1.6-4.84c-1.02-3.4-1.91-6.85-2.6-10.33c-2.24,0.68-4.48,1.36-6.73,2.03c2.73,8.11,6.57,15.86,11.43,22.91&#10;              c0.95,1.38,3.09,1.74,4.54,1.08c1.53-0.69,2.49-2.44,2.2-4.11c-4.47-25.96-8.73-51.99-13.8-77.84&#10;              c-1.45-7.39-2.92-14.8-4.72-22.11C190.48,196.22,185.54,196.98,185.91,200.53L185.91,200.53z"/>
            <path class="st03" d="M173.65,195.67c0.32,13.76,1.28,27.54,2.39,41.26c1.09,13.47,2.43,26.93,4.38,40.31&#10;              c0.98,6.68,2.08,13.34,3.33,19.97c0.38,2,0.79,3.6,2.8,4.52c0.15,0.07,0.31,0.13,0.46,0.19c0.73,0.3,1.47,0.59,2.21,0.87&#10;              c7.82,3,15.91,5.33,24.08,7.15c11.71,2.61,23.82,3.89,35.81,2.85c9.98-0.86,19.75-4.21,28.45-9.12&#10;              c6.39-3.61,12.38-7.94,17.72-12.98c1.53-1.44,3.01-2.95,4.42-4.51c0.18-0.2,0.39-0.41,0.55-0.63c1.17-1.57,0.64-3.98,0.55-5.83&#10;              c-0.09-1.79-0.18-3.59-0.28-5.38c-1.42-27.9-2.59-55.8-3.64-83.72c-0.13-3.46-0.33-6.78-1-10.18c-0.67-3.37-5.63-3.31-6.07,0.18&#10;              c-0.84,6.77-0.15,13.71,0.11,20.52c0.25,6.69,0.51,13.39,0.78,20.08c0.54,13.39,1.13,26.77,1.7,40.16&#10;              c0.32,7.51,0.65,15.02,0.99,22.53c0.23-0.96,0.46-1.93,0.69-2.89c-0.16,0.19-0.32,0.37-0.49,0.55c-0.19,0.21-0.39,0.42-0.59,0.63&#10;              c-0.57,0.62,0.58-0.59,0.24-0.25c-0.17,0.17-0.34,0.35-0.51,0.52c-1.73,1.76-3.55,3.43-5.44,5.02c-2.71,2.29-5.55,4.42-8.52,6.37&#10;              c-0.4,0.26-0.8,0.52-1.2,0.78c-0.25,0.16-0.49,0.31-0.74,0.46c0.73-0.45,0.25-0.16,0.1-0.06c-0.95,0.56-1.91,1.13-2.88,1.66&#10;              c-1.99,1.1-4.04,2.11-6.12,3.03c-2.2,0.97-4.45,1.83-6.74,2.57c-0.22,0.07-0.44,0.14-0.66,0.21c-1.1,0.35,0.77-0.21-0.34,0.1&#10;              c-0.56,0.16-1.12,0.32-1.69,0.46c-1.26,0.33-2.53,0.62-3.81,0.87c-2.55,0.5-5.13,0.83-7.72,1.01c-0.72,0.05-1.44,0.09-2.16,0.12&#10;              c0.03,0-1.39,0.05-0.65,0.03c-0.29,0.01-0.58,0.01-0.86,0.02c-1.58,0.02-3.16,0.01-4.75-0.04c-5.94-0.19-11.85-0.9-17.7-1.91&#10;              c-2.74-0.47-5.47-1.03-8.18-1.65c-0.6-0.14-1.2-0.28-1.79-0.42c0.16,0.04,0.79,0.2,0.01,0c-0.35-0.09-0.69-0.17-1.04-0.26&#10;              c-1.22-0.31-2.43-0.63-3.64-0.97c-5.66-1.58-11.34-3.35-16.76-5.65c0.84,1.03,1.67,2.07,2.51,3.1&#10;              c-5.08-26.21-7.74-52.74-10.29-79.29c-0.72-7.5-1.28-15.02-2.13-22.51c-0.17-1.46-1.63-2.54-3.04-2.47&#10;              C175.21,193.08,173.61,194.17,173.65,195.67L173.65,195.67z"/>
            <path class="st03" d="M177.69,199.15c4.39,1.05,8.94,1.47,13.44,1.89c4.42,0.41,8.84,0.88,13.27,1.24&#10;              c9.05,0.74,18.1,1.06,27.17,0.5c8.76-0.54,17.59-1.27,26.27-2.58c8-1.21,16.01-3.14,23.35-6.65c3.49-1.67,6.84-3.69,9.84-6.13&#10;              c1.4-1.13,3.32-2.47,4.05-4.17c0.96-2.23-0.23-4.39-2-5.77c-3.18-2.47-7.34-3.82-11.19-4.77c-4.04-0.99-8.16-1.58-12.29-2.08&#10;              c-16.83-2.01-33.99-1.77-50.72,0.97c-8.33,1.37-16.57,3.31-24.66,5.75c-6.63,2-14.21,4.32-18.41,10.27&#10;              c-1,1.42-1.79,3.02-2.2,4.71c-0.45,1.81,0.05,3.73,1.95,4.48c1.58,0.62,3.99-0.14,4.48-1.95c0.19-0.71,0.44-1.38,0.74-2.05&#10;              c0.16-0.36-0.02,0-0.05,0.06c0.08-0.14,0.17-0.28,0.26-0.42c0.21-0.32,0.42-0.64,0.66-0.94c0.12-0.16,0.69-0.82,0.55-0.67&#10;              c-0.16,0.17,0.4-0.38,0.52-0.49c0.54-0.5,1.11-0.96,1.71-1.39c0.33-0.24,0.66-0.46,1-0.68c0.34-0.21,0.05-0.03-0.02,0.01&#10;              c0.15-0.09,0.3-0.18,0.46-0.26c0.72-0.41,1.46-0.78,2.21-1.13c1.39-0.65,2.83-1.2,4.28-1.71c7.25-2.52,14.74-4.39,22.28-5.84&#10;              c15.31-2.94,31.06-4.13,46.63-3.24c3.99,0.23,7.98,0.58,11.94,1.07c3.6,0.44,7.23,0.94,10.7,2.06c1.67,0.54,3.32,1.19,4.86,2.03&#10;              c0.35,0.19,0.68,0.47,1.04,0.63c0.47,0.21,0.31,0.55,0.34-0.38c0.03-0.87,0.03-0.62-0.45-0.21c-0.36,0.31-0.72,0.61-1.09,0.9&#10;              c-2.7,2.16-5.66,3.97-8.76,5.48c-6.67,3.26-13.87,5.05-21.19,6.17c-8.05,1.23-16.23,1.84-24.34,2.47&#10;              c-8.33,0.65-16.58,0.6-24.91,0.04c-8.47-0.57-16.97-1.19-25.46-1.34c-2.15-0.04-4.25-0.02-6.4,0.16&#10;              c-0.98,0.09-1.7,1.12-1.66,2.04C175.96,198.29,176.68,198.91,177.69,199.15L177.69,199.15z"/>
            <g>
              <path class="st06" d="M262.23,272.93c-2.64,3.81-6.72,6.5-11.12,7.94s-9.13,1.7-13.75,1.3c-1.57-0.14-3.18-0.95-4.69-1.39&#10;                c0.52-9.76,1.4-19.64,2.17-29.39c-2.84-1.62-5.63-3.41-7.96-5.71c-2.33-2.3-4.21-5.15-4.93-8.34&#10;                c-0.91-4.05,0.11-8.39,2.29-11.91c2.18-3.53,5.43-6.3,9-8.42c3.89-2.3,8.32-3.9,12.84-3.76c5.58,0.18,10.98,3.18,14.14,7.78&#10;                c1.39,2.03,2.37,4.35,2.84,6.76c0.83,4.25,0.11,8.7-1.51,12.71c-1.61,4.01-4.08,7.63-6.79,11.01&#10;                C257.53,258.09,260.22,266.06,262.23,272.93z"/>
              <g>
                <path class="st03" d="M260.51,271.92c-6.24,8.22-17.97,10.11-27.3,6.92c0.49,0.64,0.98,1.29,1.47,1.93&#10;                  c0.54-9.81,1.39-19.6,2.17-29.39c0.05-0.69-0.42-1.39-0.99-1.73c-7.08-4.14-14.36-10.28-11.61-19.46&#10;                  c2.33-7.75,11.02-13.61,18.74-14.72c8.16-1.18,16.08,4.01,17.97,12.12c1.93,8.32-2.67,16.19-7.61,22.49&#10;                  c-0.41,0.52-0.8,1.25-0.51,1.95c2.89,7,5.32,14.17,7.48,21.43c0.73,2.46,4.59,1.41,3.86-1.06c-2.16-7.26-4.59-14.43-7.48-21.43&#10;                  c-0.17,0.65-0.34,1.3-0.51,1.95c6.94-8.84,12.84-20.76,6.55-31.65c-6.29-10.88-19.5-12.12-29.75-6.41&#10;                  c-9.49,5.29-17.15,16.51-11.28,27.27c1.53,2.81,3.74,5.13,6.24,7.1c2.91,2.29,4.75,2.23,4.6,6.06&#10;                  c-0.35,8.5-1.39,16.99-1.86,25.48c-0.05,0.91,0.66,1.65,1.47,1.93c11.22,3.84,24.5,0.89,31.82-8.76&#10;                  C265.51,271.88,262.04,269.89,260.51,271.92z"/>
              </g>
            </g>
            <g>
              <g>
                <path class="st04" d="M257.32,278c2.97-1.35,4.41-3.35,5.45-6.38c0.79-2.32-1.61-4.1-3.69-3.69c-1.44,0.29-2.75,0.36-4.13,0.89&#10;                  c0.97,1.67,1.95,3.34,2.92,5.01c0.82-0.93,1.64-1.86,2.46-2.8c-1.57-1.21-3.14-2.42-4.71-3.63c-1.03,1.4-2.07,2.81-3.1,4.21&#10;                  c1.83,0.24,3.65,0.48,5.48,0.72c-1.96-6.08-3.41-12.26-4.23-18.6c-0.48-3.7-6.15-3.97-6,0c0.01,0.26,0.02,0.52,0.03,0.79&#10;                  c1.5-0.86,3.01-1.73,4.51-2.59c-0.72-0.5-1.44-1-2.16-1.5c-2.07-1.44-5.32,0.98-4.41,3.39c2.37,6.23,4.94,13.11,10.56,17.08&#10;                  c2.27,1.6,4.95-1.04,4.41-3.39c-1.22-5.32-2.68-10.56-4.38-15.74c-0.99-3.03-6.26-2.74-5.89,0.8c0.31,2.97,0.69,5.92,1.23,8.86&#10;                  c0.16,0.88,2.18,8.84,2.61,8.38c1.21-0.16,2.42-0.31,3.63-0.47c0.73,1.28,0.76,0.95,0.07-0.98c-0.14-0.58-0.28-1.15-0.42-1.73&#10;                  c-0.51-2.17-1-4.32-1.27-6.53c-0.41-3.4,0.35-6.73-0.19-10.06c-0.35-2.11-3.68-3.03-5.01-1.32c-0.82,1.05-1.38,1.34-1.54,2.79&#10;                  c-0.44,3.83,5.56,3.8,6,0c0.01-0.05,0.01-0.1,0.02-0.14c-0.5,0.86-0.99,1.73-1.49,2.59c0.5-0.26,0.91-0.55,1.26-0.99&#10;                  c-1.67-0.44-3.34-0.88-5.01-1.32c0.33,1.99-0.33,4.21-0.23,6.26c0.11,2.31,0.47,4.62,0.92,6.88c0.61,3.11,0.85,8.02,3.88,9.75&#10;                  c1.13,0.65,2.72,0.5,3.63-0.47c2.14-2.26,1.26-4.39,0.52-7.16c-1.26-4.71-2.11-9.48-2.61-14.32c-1.96,0.27-3.93,0.53-5.89,0.8&#10;                  c1.7,5.18,3.15,10.42,4.38,15.74c1.47-1.13,2.94-2.26,4.41-3.39c-4.04-2.85-6.11-9.06-7.8-13.49&#10;                  c-1.47,1.13-2.94,2.26-4.41,3.39c0.72,0.5,1.44,1,2.16,1.5c1.86,1.29,4.6-0.42,4.51-2.59c-0.01-0.26-0.02-0.52-0.03-0.79&#10;                  c-2,0-4,0-6,0c0.89,6.89,2.31,13.58,4.44,20.19c0.84,2.62,3.97,2.77,5.48,0.72c1.03-1.4,2.07-2.81,3.1-4.21&#10;                  c2.01-2.73-2.47-6.18-4.71-3.63c-0.82,0.93-1.64,1.86-2.46,2.8c-1.79,2.03-0.11,6.17,2.92,5.01c1.35-0.52,2.71-0.61,4.13-0.89&#10;                  c-1.23-1.23-2.46-2.46-3.69-3.69c-0.56,1.65-1.15,2.1-2.69,2.8C250.78,274.41,253.82,279.59,257.32,278L257.32,278z"/>
              </g>
            </g>
            <g>
              <g>
                <path class="st04" d="M256.6,249.31c0.8-1.66,1.59-3.32,2.39-4.98c-1.83-0.77-3.65-1.54-5.48-2.31&#10;                  c-1.03,2.77-3.04,3.91-5.81,4.33c0.77,1.83,1.54,3.65,2.31,5.48c2.71-2.09,5.15-4.28,7.39-6.87c-1.41-1.41-2.83-2.83-4.24-4.24&#10;                  c-1.8,2.23-3.61,4.32-5.79,6.19c1.57,1.21,3.14,2.42,4.71,3.63c3.65-5.22,6.38-10.84,8.33-16.9c1.03-3.2-3.95-5.37-5.48-2.31&#10;                  c-0.37,0.74-0.74,1.48-1.11,2.23c1.86,0.5,3.73,1.01,5.59,1.51c-0.25-4.35,0.08-9.33-1.37-13.5c-1.3-3.73-4.44-5.37-6.89-8.22&#10;                  c-1.21,1.57-2.42,3.14-3.63,4.71c4.68,2.27,8.51,4.52,9.52,10.06c0.93,5.07-0.55,10.29-3.7,14.31&#10;                  c1.57,1.21,3.14,2.42,4.71,3.63c2.55-5.24,7.3-15.46,2.46-20.52c-1.59-1.66-4.39-0.8-5.01,1.32&#10;                  c-1.37,4.67-3.36,8.91-6.03,12.97c1.83,0.77,3.65,1.54,5.48,2.31c0.89-2.14,1.78-4.28,2.67-6.42c1.48-3.56-4.32-5.11-5.78-1.59&#10;                  c-0.89,2.14-1.78,4.28-2.67,6.42c-1.36,3.27,3.72,5,5.48,2.31c2.95-4.49,5.12-9.25,6.63-14.41c-1.67,0.44-3.34,0.88-5.01,1.32&#10;                  c1.87,1.95-2.58,11.56-3.4,13.25c-1.38,2.83,2.47,6.49,4.71,3.63c4.21-5.37,6.42-11.78,5.48-18.63&#10;                  c-1.06-7.71-5.76-11.88-12.51-15.15c-3.09-1.5-5.89,2.08-3.63,4.71c2.23,2.6,4.93,3.78,5.78,7.38&#10;                  c0.75,3.19,0.53,6.84,0.72,10.09c0.16,2.76,4.17,4.35,5.59,1.51c0.37-0.74,0.74-1.48,1.11-2.23c-1.83-0.77-3.65-1.54-5.48-2.31&#10;                  c-1.8,5.59-4.36,10.66-7.72,15.47c-2.06,2.95,2.28,5.72,4.71,3.63c2.18-1.87,3.99-3.96,5.79-6.19c2.38-2.95-1.68-7.2-4.24-4.24&#10;                  c-1.89,2.18-3.89,4.17-6.18,5.93c-2.73,2.1-1.15,6.01,2.31,5.48c4.93-0.75,8.3-3.94,10-8.52c1.18-3.16-4.01-5.37-5.48-2.31&#10;                  c-0.8,1.66-1.59,3.32-2.39,4.98C249.76,249.75,254.93,252.8,256.6,249.31L256.6,249.31z"/>
              </g>
            </g>
            <g>
              <g>
                <path class="st03" d="M239.47,216.04c15.22,3.07,11.83,20.43,5.76,30.27c-0.9,1.45-2.48,2.8-2.5,4.56&#10;                  c-0.02,2.5,1.92,6.03,2.7,8.42c2.07,6.34,4.13,12.68,6.18,19.03c0.79,2.44,4.65,1.4,3.86-1.06&#10;                  c-2.52-7.79-5.68-15.62-7.66-23.56c-0.94-3.78,1.17-5.51,2.8-8.85c1.35-2.78,2.42-5.72,3.12-8.73&#10;                  c2.47-10.63-1.57-21.58-13.19-23.92C238.02,211.68,236.95,215.53,239.47,216.04L239.47,216.04z"/>
              </g>
            </g>
            <g>
              <g>
                <path class="st03" d="M246.66,253.04c2.86,0.13,5.71,0.13,8.57,0.02c2.57-0.1,2.58-4.1,0-4c-2.86,0.11-5.71,0.1-8.57-0.02&#10;                  C244.09,248.92,244.09,252.92,246.66,253.04L246.66,253.04z"/>
              </g>
            </g>
            <g>
              <g>
                <path class="st03" d="M260.51,271.92c-6.24,8.22-17.97,10.11-27.3,6.92c0.49,0.64,0.98,1.29,1.47,1.93&#10;                  c0.54-9.81,1.39-19.6,2.17-29.39c0.05-0.69-0.42-1.39-0.99-1.73c-7.08-4.14-14.36-10.28-11.61-19.46&#10;                  c2.33-7.75,11.02-13.61,18.74-14.72c8.16-1.18,16.08,4.01,17.97,12.12c1.93,8.32-2.67,16.19-7.61,22.49&#10;                  c-0.41,0.52-0.8,1.25-0.51,1.95c2.89,7,5.32,14.17,7.48,21.43c0.73,2.46,4.59,1.41,3.86-1.06c-2.16-7.26-4.59-14.43-7.48-21.43&#10;                  c-0.17,0.65-0.34,1.3-0.51,1.95c6.94-8.84,12.84-20.76,6.55-31.65c-6.29-10.88-19.5-12.12-29.75-6.41&#10;                  c-9.49,5.29-17.15,16.51-11.28,27.27c1.53,2.81,3.74,5.13,6.24,7.1c2.91,2.29,4.75,2.23,4.6,6.06&#10;                  c-0.35,8.5-1.39,16.99-1.86,25.48c-0.05,0.91,0.66,1.65,1.47,1.93c11.22,3.84,24.5,0.89,31.82-8.76&#10;                  C265.51,271.88,262.04,269.89,260.51,271.92z"/>
              </g>
            </g>
          </g>
          <g>
            <g>
              <path class="st05" d="M252.22,182.8c3.09,2.38,7.17,3.45,11.04,2.9s7.47-2.74,9.77-5.9l-4.59-55.65&#10;                c-1.11-6.21-2.24-12.46-4.57-18.36c-2.33-5.9-5.97-11.5-11.3-15.35c-5.21-3.76-11.93-5.65-18.52-5.22&#10;                c-4.53,0.29-8.91,1.63-13.08,3.32c-4.54,1.83-8.93,4.12-12.55,7.26c-5.47,4.74-8.75,11-10.89,17.73&#10;                c-2.38,7.47-3.18,15.35-2.64,23.18l3.59,51.99c5.47,3.25,12.49,3.73,18.34,1.25c1.9-0.8,3.75-1.98,4.75-3.78&#10;                c0,0-2.74-26.35-4.76-43.52s1.41-34.63,14.02-36.38s18.66,7.71,19.68,16.19C253.54,147.52,252.22,182.8,252.22,182.8z"/>
              <g>
                <path class="st03" d="M251.21,184.53c3.7,2.56,8.07,3.83,12.58,3.1c3.57-0.58,9.54-3.08,10.96-6.82&#10;                  c0.95-2.49-0.17-6.42-0.38-8.97c-1.07-13-2.14-25.99-3.22-38.99c-1.15-13.99-3.01-29.3-12.93-40.04&#10;                  c-14.95-16.18-43.22-9.9-55.71,6.39c-9.8,12.77-10.21,29.04-9.15,44.37c0.9,12.98,1.79,25.96,2.69,38.94&#10;                  c0.17,2.4-0.31,6.07,1.42,7.91c5.06,5.38,22.91,4.3,25.83-3.25c0.48-1.25,0.11-2.58-0.03-3.89c-0.44-4.15-0.88-8.3-1.32-12.44&#10;                  c-1.06-9.92-2.35-19.83-3.3-29.76c-0.94-9.84-1.37-28.49,10.53-32.4c6.02-1.98,12.73,0.3,16.27,5.47&#10;                  c3.12,4.56,3.36,10.17,3.81,15.49c1.51,17.63,1.62,35.48,0.98,53.16c-0.09,2.57,3.91,2.57,4,0&#10;                  c0.48-13.18,0.42-26.41-0.13-39.58c-0.58-13.79,0.47-37.01-18.16-39.03c-19.09-2.07-22.45,20.29-21.47,34.55&#10;                  c0.65,9.59,2.1,19.17,3.13,28.73c0.42,3.85,0.83,7.71,1.24,11.56c0.17,1.61,1.31,5.28,0.72,6.82&#10;                  c-0.64,1.67-4.43,2.71-6.26,3.16c-3.25,0.79-6.72,0.63-9.92-0.33c2.3,0.69-4.19-2.41-2.88-0.05c-0.05-0.08,0.02-0.24-0.02-0.32&#10;                  c-0.2-0.41-0.09-1.25-0.12-1.69c-0.33-4.75-0.66-9.5-0.99-14.26c-0.78-11.26-1.58-22.52-2.34-33.79&#10;                  c-0.52-7.7-0.2-15.31,1.92-22.78c3.45-12.16,10.84-20.55,22.56-25.32c11.94-4.86,25.43-4.56,34.44,5.76&#10;                  c6.58,7.54,9.34,18.55,10.53,28.29c1.39,11.37,1.89,22.93,2.83,34.35c0.48,5.78,0.95,11.56,1.43,17.35&#10;                  c0.07,0.89,0.58,2.63,0.29,3.49c-0.35,1.05-5.45,3.43-6.86,3.78c-3.91,0.96-7.69-0.17-10.93-2.41&#10;                  C251.11,179.61,249.11,183.07,251.21,184.53z"/>
              </g>
            </g>
            <g>
              <g>
                <path class="st04" d="M254.06,143.03c1.72,11.97,2.64,24,2.82,36.09c0.04,2.57,4.04,2.58,4,0c-0.18-12.45-1.19-24.83-2.96-37.15&#10;                  C257.55,139.43,253.7,140.51,254.06,143.03L254.06,143.03z"/>
              </g>
            </g>
            <g>
              <path class="st04" d="M217.23,181.45c-3.6,3.48-8.33,4.77-12.91,3.62c0-0.06,0.01-0.11,0-0.17c-1.42-17.89-1.41-35.87,0.12-53.75&#10;                c1.3-15.16,4.28-34.58,20.38-41.09c2.36-0.95,1.33-4.82-1.06-3.86c-4.39,1.77-7.96,4.37-10.86,7.52&#10;                c-0.71-0.56-1.75-0.71-2.6,0.1c-2.59,2.48-4.46,5.46-5.93,8.66c-1.02-0.56-2.55-0.34-3.02,1.1c-2.24,6.84-4.17,13.78-5.7,20.81&#10;                c-1.43,6.57-2.67,12.86-0.57,19.43c0.28,0.89,0.97,1.31,1.7,1.38c-0.4,12.69,0.03,25.45,0.12,38.12c0,0.51,0.16,0.91,0.42,1.22&#10;                c-1.12,1.3-1.28,3.43,0.67,4.46c7.92,4.18,17.04,2.94,23.49-3.29C224.25,183,220.01,178.76,217.23,181.45z"/>
              <path class="st04" d="M269.12,175.29c-3.29,1.8-7.04,3.63-10.7,3.1c0-0.08,0-0.15-0.01-0.23c-1.01-6.35-0.12-12.89,0.17-19.28&#10;                c0.29-6.49,0.43-13,0.14-19.49c-0.46-10.29-1.04-23.2-7.81-31.58c-5.5-6.82-15.51-9.32-23.59-5.91&#10;                c-8.23,3.48-13.19,12.55-12.09,21.34c0.32,2.52,4.32,2.55,4,0c-1.06-8.39,4.14-16.98,12.75-18.6c5.27-0.99,9.89,0.54,13.43,3.57&#10;                c-0.47,0.71-0.56,1.68,0.14,2.5c7.56,8.77,7.34,20.85,6.81,31.75c-0.56,11.51-0.55,22.96,0.4,34.45&#10;                c-2.05,0.74-3.09,3.99-0.65,5.49c6.57,4.05,13.81,1.5,20.03-1.91C275.53,178.61,272.51,173.43,269.12,175.29z"/>
            </g>
            <g>
              <g>
                <path class="st03" d="M251.21,184.53c3.7,2.56,8.07,3.83,12.58,3.1c3.57-0.58,9.54-3.08,10.96-6.82&#10;                  c0.95-2.49-0.17-6.42-0.38-8.97c-1.07-13-2.14-25.99-3.22-38.99c-1.15-13.99-3.01-29.3-12.93-40.04&#10;                  c-14.95-16.18-43.22-9.9-55.71,6.39c-9.8,12.77-10.21,29.04-9.15,44.37c0.9,12.98,1.79,25.96,2.69,38.94&#10;                  c0.17,2.4-0.31,6.07,1.42,7.91c5.06,5.38,22.91,4.3,25.83-3.25c0.48-1.25,0.11-2.58-0.03-3.89c-0.44-4.15-0.88-8.3-1.32-12.44&#10;                  c-1.06-9.92-2.35-19.83-3.3-29.76c-0.94-9.84-1.37-28.49,10.53-32.4c6.02-1.98,12.73,0.3,16.27,5.47&#10;                  c3.12,4.56,3.36,10.17,3.81,15.49c1.51,17.63,1.62,35.48,0.98,53.16c-0.09,2.57,3.91,2.57,4,0&#10;                  c0.48-13.18,0.42-26.41-0.13-39.58c-0.58-13.79,0.47-37.01-18.16-39.03c-19.09-2.07-22.45,20.29-21.47,34.55&#10;                  c0.65,9.59,2.1,19.17,3.13,28.73c0.42,3.85,0.83,7.71,1.24,11.56c0.17,1.61,1.31,5.28,0.72,6.82&#10;                  c-0.64,1.67-4.43,2.71-6.26,3.16c-3.25,0.79-6.72,0.63-9.92-0.33c2.3,0.69-4.19-2.41-2.88-0.05c-0.05-0.08,0.02-0.24-0.02-0.32&#10;                  c-0.2-0.41-0.09-1.25-0.12-1.69c-0.33-4.75-0.66-9.5-0.99-14.26c-0.78-11.26-1.58-22.52-2.34-33.79&#10;                  c-0.52-7.7-0.2-15.31,1.92-22.78c3.45-12.16,10.84-20.55,22.56-25.32c11.94-4.86,25.43-4.56,34.44,5.76&#10;                  c6.58,7.54,9.34,18.55,10.53,28.29c1.39,11.37,1.89,22.93,2.83,34.35c0.48,5.78,0.95,11.56,1.43,17.35&#10;                  c0.07,0.89,0.58,2.63,0.29,3.49c-0.35,1.05-5.45,3.43-6.86,3.78c-3.91,0.96-7.69-0.17-10.93-2.41&#10;                  C251.11,179.61,249.11,183.07,251.21,184.53z"/>
              </g>
            </g>
          </g>
        </g>
        <g>
          <path class="st00" d="M159.55,310l32.09,0.06L249,338l28.11-27.76L315,300l1.08-23.78c0,0-27.59,5.27-45.25,17.36&#10;            c-17.67,12.09-9.61,16.74-25.73,8.99c-16.12-7.75-34.71-17.05-64.78-17.36c-30.07-0.31-21.7,8.06-21.7,8.06L159.55,310z"/>
          <path class="st03" d="M239.68,325.74c21.09-25.1,50.12-42.01,82.35-47.97c3.44-0.64,1.98-5.88-1.45-5.25&#10;            c-33.04,6.11-63.14,23.64-84.75,49.37C233.6,324.56,237.43,328.43,239.68,325.74L239.68,325.74z"/>
          <path class="st03" d="M159.79,288.08c32.15,0.59,63.21,5.07,91.68,20.86c3.07,1.7,5.81-3,2.75-4.7c-29.3-16.25-61.33-21-94.43-21.6&#10;            C156.29,282.57,156.29,288.02,159.79,288.08L159.79,288.08z"/>
        </g>
      </g>
      </svg>