<svg width="474" height="350" viewBox="0 0 474 350" fill="none" xmlns="http://www.w3.org/2000/svg">
<path d="M468.469 198.09C463.609 186.82 455.579 177.66 445.619 171.73C452.229 160.98 457.389 148.63 456.619 134.65C455.639 116.94 445.139 100.22 427.789 88.77C424.449 86.56 420.869 84.58 417.119 82.83C414.849 80.9 412.429 79.07 409.849 77.36C395.209 67.7 376.129 62.15 357.489 62.15C352.909 62.15 348.379 62.48 344.009 63.13C342.939 63.29 341.859 63.47 340.769 63.68C338.909 60.18 336.929 56.96 334.999 54.1C325.089 39.42 311.949 27.88 297.019 20.69C291.369 16.1 285.269 12.22 278.839 9.14999C266.289 3.15999 252.049 0 237.659 0C215.539 0 194.299 7.27999 177.859 20.51C168.009 28.43 157.789 40.43 153.459 53.51C150.069 52.73 146.859 52.23 143.999 51.93C141.659 51.68 139.249 51.56 136.859 51.56C130.579 51.56 119.989 52.48 110.659 57.58C99.0294 60.52 85.1294 69.19 75.2994 86.73C68.7494 98.42 66.1994 112.06 67.8094 125.64C33.5894 126.96 4.93945 152.56 0.579446 186.22C-1.95055 205.76 3.85945 225.56 16.9294 241.97C25.0694 252.2 35.7094 260.53 47.4894 266.16C58.0294 274.82 70.5994 281.05 83.6594 283.86C87.6294 284.72 91.6894 285.32 95.7994 285.7C98.6094 290.36 102.369 295.38 107.399 300.66C114.489 308.1 122.909 314.13 132.219 318.5C141.409 326.16 152.209 331.8 163.939 334.98C171.079 336.91 178.429 337.89 185.799 337.89C196.279 337.89 206.199 335.94 215.289 332.1C220.899 329.73 225.679 326.92 229.729 323.86C234.169 327.34 239.009 330.19 244.249 332.39C251.509 338.95 260.009 343.66 269.629 346.44C276.199 348.33 282.979 349.29 289.799 349.29C314.449 349.29 337.309 336.99 350.939 316.39C356.009 308.72 359.699 300.08 361.819 291.27C370.809 294.81 380.709 296.7 391.049 296.7C402.869 296.7 414.779 294.2 425.479 289.46C458.869 274.67 484.149 234.42 468.469 198.09Z" fill="white"/>
<path d="M453.82 208.449C449.55 196.789 439.92 191.449 429.98 187.559C425.25 185.709 420.41 184.489 415.45 183.499C415.44 183.499 415.42 183.499 415.41 183.489C419.31 179.969 422.64 175.519 425.19 171.189C431.36 160.719 436.37 148.299 436.99 136.039C437.7 121.929 429.83 109.319 417.77 102.619C412.34 99.5992 406.26 97.4792 400.3 95.7892C393.96 93.9892 388.92 91.4092 382.3 90.9192C379.61 90.7192 377.31 91.4292 375.45 92.7192C365.03 92.2692 354.42 94.6792 344.6 98.4192C341.26 99.6892 337.54 101.379 333.96 103.469C332.12 99.2792 330.07 95.1692 328.1 91.1092C324.18 83.0092 319.99 74.9692 314.92 67.5392C304.14 51.7692 288.77 36.1192 269.44 32.1692C250.33 28.2692 229 32.4092 212.01 41.9292C195.34 51.2592 185.01 67.2292 180.53 85.6292C178.84 85.0992 177.16 84.5392 175.5 83.9192C172.19 82.6792 166.75 80.3892 161.88 80.1992C160.96 80.1592 160.04 80.1892 159.12 80.2792C152.81 73.7692 139.97 76.2692 132.63 80.3992C123.91 85.3092 116.41 93.4092 112.14 102.519C107.35 112.739 105.24 124.069 106.15 135.369C106.61 141.069 107.5 146.809 108.93 152.339C109.16 153.229 109.43 154.109 109.69 154.989C108.44 154.999 107.19 155.009 105.94 155.039C98.5999 155.179 91.3299 155.669 84.0699 156.839C71.8499 158.809 60.1899 164.049 51.1899 172.749C42.2799 181.359 36.6299 193.859 37.6999 206.439C37.8199 207.799 38.0099 209.129 38.2299 210.439C37.8399 211.739 37.6499 213.099 37.7499 214.459C38.5999 226.049 42.2099 237.819 51.3499 247.319C60.1099 256.429 72.3699 261.629 84.5299 264.049C96.1499 266.359 108.41 267.709 120.27 267.259C120.56 267.249 120.85 267.229 121.15 267.219C123.85 276.639 129 285.659 134.6 293.069C143.47 304.819 155.89 314.019 170.53 316.719C185.66 319.519 200.32 317.519 214.02 310.369C220.04 307.219 225.67 302.949 230.64 298.309C230.74 298.219 230.83 298.119 230.93 298.029C234.82 300.809 239.01 303.259 242.6 305.839C248.64 310.179 254.17 315.209 260.12 319.679C273.21 329.499 289.36 334.719 305.38 329.269C320.08 324.269 332.27 313.189 339.52 299.399C343.22 292.359 346.07 284.589 347.65 276.779C348.31 273.499 348.83 270.109 349.21 266.739C350.89 267.819 352.61 268.819 354.3 269.729C362.99 274.389 372.25 277.219 382.03 278.199C401.35 280.129 420.69 272.999 435.05 260.069C448.51 247.929 460.63 227.069 453.82 208.449ZM165.6 252.169C164.15 253.539 164.57 252.849 165.6 252.169V252.169ZM148.1 260.769C148.15 261.009 148.2 261.249 148.25 261.499C148.14 261.289 148.03 261.089 147.92 260.879C147.98 260.839 148.04 260.799 148.1 260.769Z" fill="#D0CFCD"/>
<path d="M124.499 273.83C125.209 279.68 128.289 284 131.479 288.82C134.699 293.69 138.219 297.92 142.649 301.75C151.379 309.29 161.539 315.1 172.759 318.02C182.979 320.68 194.859 321.36 204.949 317.86C215.699 314.14 223.929 307.67 230.879 298.81C232.429 296.83 233.109 294.38 231.749 292.06C230.909 290.62 229.909 290.09 228.419 289.5C226.549 288.76 224.379 289.7 222.999 290.93C211.569 301.16 190.519 302.99 176.319 298.86C168.519 296.59 161.099 292.37 154.809 287.25C151.199 284.31 147.559 281.18 144.199 277.97C140.789 274.7 138.379 270.73 134.299 268.2C130.459 265.8 123.899 268.83 124.499 273.83Z" fill="#D0CFCD"/>
<path d="M277.659 330.94C281.979 331.63 285.249 333.49 289.819 333.2C294.189 332.92 298.669 331.88 302.819 330.53C311.829 327.6 319.729 322.58 326.489 315.95C333.459 309.11 338.429 300.12 342.079 291.14C343.849 286.79 345.289 282.31 346.349 277.73C347.589 272.41 346.799 268.23 345.839 262.98C344.779 257.17 335.809 256.23 333.199 261.33C331.169 265.29 329.159 268.3 327.989 272.67C327.079 276.08 326.029 279.45 324.719 282.73C321.869 289.86 317.859 296.38 313.089 302.39C308.779 307.83 303.599 312.79 297.949 316.84C294.989 318.96 291.829 320.73 288.539 322.26C285.109 323.85 281.249 326.75 277.659 327.59C276.059 327.95 275.929 330.67 277.659 330.94Z" fill="#D0CFCD"/>
<path d="M360.75 272.77C366.14 277.79 371.55 280.82 378.93 281.73C386.41 282.66 394.49 280.88 401.82 279.36C417.28 276.15 430.02 269.68 437.66 255.34C445.09 241.4 452.1 227.39 449.59 211.16C448.52 204.21 444.98 197.34 439.61 192.7C434.68 188.44 428.4 187.95 423.29 184.52C422.56 185.47 421.82 186.43 421.09 187.38C423.42 190.3 426.93 191.68 429.9 193.88C432.92 196.12 435.63 198.68 437.85 201.74C442.25 207.82 444.39 214.89 443.8 222.4C443.22 229.77 441.02 236.65 437.05 242.86C432.92 249.32 426.81 254.2 421.83 259.97C419.34 262.85 420.66 269.07 425.37 268.51C446.11 266.04 460.19 240.95 457.48 221.3C456.19 211.95 451.76 202.89 445.6 195.76C440.6 189.98 430.16 181.15 421.9 184.33C420.5 184.87 420.02 186.81 421.47 187.66C425.93 190.27 426.52 196.58 427.81 201.25C429.06 205.79 430.35 210.56 430.84 215.25C431.95 225.95 426.8 237.87 422.06 247.21C419.65 251.97 416.88 255.76 412.15 258.37C407.33 261.03 401.87 262.24 396.64 263.82C390.78 265.59 384.96 266.81 378.97 268.03C373.4 269.16 367.57 270.78 361.87 270.17C360.49 270.04 359.84 271.93 360.75 272.77Z" fill="#D0CFCD"/>
<path d="M138.439 258.919C135.109 258.489 132.269 257.519 128.869 257.289C125.939 257.089 123.039 256.769 120.099 256.699C113.919 256.539 107.779 255.999 101.669 255.059C90.8595 253.389 80.1495 250.979 70.5195 245.589C52.6595 235.589 39.6195 218.449 41.8095 197.349C42.0095 195.389 39.3395 195.109 38.4195 196.429C31.7895 206.009 31.5395 218.669 34.4595 229.629C37.9495 242.699 46.7295 252.879 58.3795 259.539C70.2795 266.339 83.9595 269.829 97.5295 271.079C104.649 271.739 111.959 271.449 119.029 270.409C122.969 269.829 126.539 268.869 130.229 267.359C134.189 265.739 135.809 264.029 139.129 261.479C140.239 260.609 139.829 259.099 138.439 258.919Z" fill="#D0CFCD"/>
<path d="M256.031 33.6597C263.101 37.2797 271.121 38.6097 277.981 42.6597C284.111 46.2797 290.231 51.4697 294.571 57.1397C305.131 70.9197 308.271 88.8597 318.121 103.08C324.621 112.46 337.621 104.48 333.181 94.2797C325.361 76.3297 320.061 56.4197 305.601 42.3697C294.051 31.1397 271.751 20.5497 256.031 28.6897C254.161 29.6597 254.151 32.6997 256.031 33.6597Z" fill="#D0CFCD"/>
<path d="M124.288 85.8197C113.088 91.0297 104.958 103.52 100.988 114.94C98.7676 121.31 98.1876 128.25 98.5276 134.95C98.9176 142.63 98.7876 151.61 101.888 158.67C104.448 164.49 113.428 162.44 114.918 156.97C116.648 150.6 115.008 143.38 114.768 136.84C114.558 131.16 114.768 125.47 115.708 119.86C116.598 114.53 117.388 109.53 119.788 104.63C122.298 99.4997 125.318 94.5797 128.048 89.5597C129.388 87.0297 126.698 84.6997 124.288 85.8197Z" fill="#D0CFCD"/>
<path d="M388.21 93.92C392.24 97.93 397.94 99.62 402.74 102.51C407.7 105.5 412.23 109.52 415.41 114.4C421.27 123.37 425.5 138.97 422.36 149.5C419.3 159.76 405.36 162.31 407.48 174.67C409.54 186.67 424.64 188.59 427 199.95C428.73 208.27 441.39 204.74 439.72 196.44C438.51 190.44 434.9 185.32 430.29 181.38C428.11 179.52 425.55 178.05 423.47 176.09C421.28 174.03 420.74 173.62 423.17 172.26C435.35 165.44 440.03 153.51 438.55 139.86C437.12 126.77 432.47 113.87 423.19 104.3C419.01 99.99 414.11 96.56 408.6 94.18C403.04 91.77 396.27 89.01 390.13 89.26C387.83 89.36 386.49 92.2 388.21 93.92Z" fill="#D0CFCD"/>
<path d="M321.98 113.549C328.83 110.119 334.84 105.199 341.71 101.689C347.72 98.6194 353.86 96.1394 360.47 94.7094C371.3 92.3694 382.67 92.8794 393.4 95.5094C411.2 99.8794 430.73 110.259 435.93 129.289C440.77 147.019 428.07 163.609 417.98 176.849C415.54 180.049 418.95 183.899 422.17 184.149C437.98 185.389 450.54 199.259 453.18 214.439C456.19 231.759 447.33 249.349 434.7 260.729C421.61 272.529 403.57 278.769 385.99 277.279C369.21 275.859 353.46 266.879 341.71 255.109C339.29 252.689 334.98 255.829 336.89 258.829C354.72 286.819 392.25 293.209 421.4 280.319C449.94 267.689 472.77 233.239 459.31 202.049C452.75 186.849 438.84 175.769 422.18 174.459C423.58 176.889 424.97 179.329 426.37 181.759C436.56 168.399 447.63 152.879 446.65 135.199C445.77 119.249 435.26 105.669 422.3 97.1194C405.55 86.0594 383.15 81.4994 363.45 84.4394C347.01 86.8994 327.35 95.5194 319.3 110.859C318.34 112.649 320.21 114.439 321.98 113.549Z" fill="#D0CFCD"/>
<path d="M141.709 78.149C125.119 75.469 109.519 89.509 101.939 103.039C92.5388 119.809 93.3588 140.899 102.659 157.479C104.489 155.099 106.309 152.729 108.139 150.349C72.6887 137.949 33.2688 161.379 28.4088 198.919C23.7888 234.619 51.9288 266.799 85.7288 274.089C106.329 278.529 129.479 275.799 148.009 265.609C152.229 263.289 149.349 255.859 144.649 257.639C129.099 263.549 113.339 267.599 96.5788 266.019C81.0788 264.559 66.2388 258.169 55.2388 247.059C33.7788 225.369 30.8688 190.359 54.5588 169.049C68.3988 156.609 88.2288 153.649 105.549 159.699C109.699 161.149 112.989 156.059 111.029 152.569C103.069 138.379 103.089 121.549 110.629 107.199C113.809 101.159 117.909 95.709 123.259 91.419C128.849 86.939 135.759 84.339 142.089 81.119C143.279 80.529 143.099 78.379 141.709 78.149Z" fill="#D0CFCD"/>
<path d="M115.827 270.099C114.677 282.509 124.447 296.679 132.547 305.179C141.757 314.849 153.637 321.829 166.517 325.319C181.117 329.279 197.357 328.799 211.347 322.879C223.197 317.869 236.497 307.239 238.067 293.659C238.557 289.389 232.847 289.049 230.857 291.709C227.257 296.539 224.597 301.709 220.137 305.889C215.437 310.289 209.657 313.489 203.537 315.439C191.467 319.279 178.227 318.659 166.267 314.699C155.827 311.239 146.087 305.049 138.537 297.049C134.697 292.979 131.507 288.379 129.057 283.349C126.637 278.389 125.757 272.989 123.587 267.999C121.777 263.799 116.157 266.489 115.827 270.099Z" fill="#D0CFCD"/>
<path d="M225.217 283.319C227.697 294.729 235.847 306.359 242.597 315.669C250.137 326.079 259.907 333.229 272.347 336.819C298.927 344.479 327.347 333.829 342.547 310.859C350.757 298.459 355.367 282.329 353.427 267.449C352.657 261.549 343.567 261.139 343.877 267.449C344.617 282.619 341.177 297.199 331.637 309.339C321.977 321.619 307.467 328.909 291.847 329.329C277.587 329.709 262.657 324.689 253.257 313.619C248.667 308.219 244.907 302.049 241.267 295.989C238.047 290.619 234.967 284.619 230.267 280.359C228.007 278.299 224.567 280.329 225.217 283.319Z" fill="#D0CFCD"/>
<path d="M130.048 84.7393C140.388 83.1893 149.678 80.5093 160.308 81.7993C170.708 83.0593 179.598 87.5493 188.118 93.4293C192.038 96.1293 196.668 90.0593 193.198 86.8493C184.448 78.7493 172.628 74.5393 160.888 73.3093C150.178 72.1893 136.388 73.8593 128.158 81.4893C126.578 82.9393 128.298 84.9993 130.048 84.7393Z" fill="#D0CFCD"/>
<path d="M183.427 83.1393C187.337 75.5993 189.517 67.5393 194.647 60.5793C199.977 53.3493 207.107 47.3993 214.807 42.8393C229.997 33.8693 248.527 30.4393 265.947 33.2293C282.917 35.9493 298.197 44.1993 309.757 56.9093C315.407 63.1193 319.997 70.2893 323.407 77.9593C326.827 85.6293 328.417 93.8793 331.197 101.759C332.427 105.239 338.687 106.269 339.337 101.759C341.467 87.0593 334.807 71.6993 326.697 59.6893C318.117 46.9793 306.347 36.2193 292.457 29.5893C263.607 15.8293 227.067 19.5893 202.037 39.7193C190.537 48.9693 176.117 66.6893 179.807 82.6693C180.187 84.2893 182.657 84.6393 183.427 83.1393Z" fill="#D0CFCD"/>
<path d="M435.878 197.039C431.608 185.379 421.978 180.039 412.038 176.149C407.308 174.299 402.468 173.079 397.508 172.089C397.498 172.089 397.478 172.089 397.468 172.079C401.368 168.559 404.698 164.109 407.248 159.779C413.418 149.309 418.428 136.889 419.048 124.629C419.758 110.519 411.888 97.9089 399.828 91.2089C394.398 88.1889 388.318 86.0689 382.358 84.3789C376.018 82.5789 370.978 79.9989 364.358 79.5089C361.668 79.3089 359.368 80.0188 357.508 81.3088C347.088 80.8588 336.478 83.2689 326.658 87.0089C323.318 88.2789 319.598 89.9688 316.018 92.0588C314.178 87.8688 312.128 83.7588 310.158 79.6988C306.238 71.5988 302.048 63.5588 296.978 56.1288C286.228 40.3688 270.858 24.7189 251.518 20.7689C232.408 16.8689 211.078 21.0089 194.088 30.5289C177.418 39.8589 167.088 55.8289 162.608 74.2289C160.918 73.6989 159.238 73.1388 157.578 72.5188C154.268 71.2788 148.828 68.9888 143.958 68.7988C143.038 68.7588 142.118 68.7888 141.198 68.8788C134.888 62.3688 122.048 64.8688 114.708 68.9988C105.988 73.9088 98.488 82.0089 94.218 91.1189C89.428 101.339 87.318 112.669 88.228 123.969C88.688 129.669 89.578 135.409 91.008 140.939C91.238 141.829 91.508 142.709 91.768 143.589C90.518 143.599 89.268 143.609 88.018 143.639C80.678 143.779 73.408 144.269 66.148 145.439C53.928 147.409 42.268 152.649 33.268 161.349C24.358 169.959 18.708 182.459 19.778 195.039C19.898 196.399 20.088 197.729 20.308 199.039C19.918 200.339 19.728 201.699 19.828 203.059C20.678 214.649 24.288 226.419 33.428 235.919C42.188 245.029 54.448 250.229 66.608 252.649C78.228 254.959 90.488 256.309 102.348 255.859C102.638 255.849 102.928 255.829 103.228 255.819C105.928 265.239 111.078 274.259 116.678 281.669C125.548 293.419 137.968 302.619 152.608 305.319C167.738 308.119 182.398 306.119 196.098 298.969C202.118 295.819 207.748 291.549 212.718 286.909C212.818 286.819 212.908 286.719 213.008 286.629C216.898 289.409 221.088 291.859 224.678 294.439C230.718 298.779 236.248 303.809 242.198 308.279C255.288 318.099 271.438 323.319 287.458 317.869C302.158 312.869 314.348 301.789 321.598 287.999C325.298 280.959 328.148 273.189 329.728 265.379C330.388 262.099 330.908 258.709 331.288 255.339C332.968 256.419 334.688 257.419 336.378 258.329C345.068 262.989 354.328 265.819 364.108 266.799C383.428 268.729 402.768 261.599 417.128 248.669C430.568 236.519 442.688 215.649 435.878 197.039ZM147.658 240.759C146.208 242.129 146.628 241.429 147.658 240.759V240.759ZM130.158 249.349C130.208 249.589 130.258 249.829 130.308 250.079C130.198 249.869 130.088 249.669 129.978 249.459C130.028 249.419 130.098 249.389 130.158 249.349Z" fill="white"/>
<path d="M106.558 262.409C107.268 268.259 110.348 272.579 113.538 277.399C116.758 282.269 120.278 286.499 124.708 290.329C133.438 297.869 143.598 303.679 154.818 306.599C165.038 309.259 176.918 309.939 187.008 306.439C197.758 302.719 205.988 296.249 212.938 287.389C214.488 285.409 215.168 282.959 213.808 280.639C212.968 279.199 211.968 278.669 210.478 278.079C208.608 277.339 206.438 278.279 205.058 279.509C193.628 289.739 172.578 291.569 158.378 287.439C150.578 285.169 143.158 280.949 136.868 275.829C133.258 272.889 129.618 269.759 126.258 266.549C122.848 263.279 120.438 259.309 116.358 256.779C112.518 254.389 105.958 257.419 106.558 262.409Z" fill="#D0CFCD"/>
<path d="M259.707 319.529C264.027 320.219 267.297 322.079 271.867 321.789C276.237 321.509 280.717 320.469 284.867 319.119C293.877 316.189 301.777 311.169 308.537 304.539C315.507 297.699 320.477 288.709 324.127 279.729C325.897 275.379 327.337 270.899 328.397 266.319C329.637 260.999 328.847 256.819 327.887 251.569C326.827 245.759 317.857 244.819 315.247 249.919C313.217 253.879 311.207 256.889 310.037 261.259C309.127 264.669 308.077 268.039 306.767 271.319C303.917 278.449 299.907 284.969 295.137 290.979C290.827 296.419 285.647 301.379 279.997 305.429C277.037 307.549 273.877 309.319 270.587 310.849C267.157 312.439 263.297 315.339 259.707 316.179C258.117 316.529 257.987 319.249 259.707 319.529Z" fill="#D0CFCD"/>
<path d="M342.808 261.35C348.198 266.37 353.608 269.4 360.988 270.31C368.468 271.24 376.548 269.46 383.878 267.94C399.338 264.73 412.078 258.26 419.718 243.92C427.148 229.98 434.158 215.97 431.648 199.74C430.578 192.79 427.038 185.92 421.668 181.28C416.738 177.02 410.458 176.53 405.348 173.1C404.618 174.05 403.878 175.01 403.148 175.96C405.478 178.88 408.988 180.26 411.958 182.46C414.978 184.7 417.688 187.26 419.908 190.32C424.308 196.4 426.448 203.47 425.858 210.98C425.278 218.35 423.078 225.23 419.108 231.44C414.978 237.9 408.868 242.78 403.888 248.55C401.398 251.43 402.718 257.65 407.428 257.09C428.168 254.62 442.248 229.53 439.538 209.88C438.248 200.53 433.818 191.47 427.658 184.34C422.658 178.56 412.218 169.73 403.958 172.91C402.558 173.45 402.078 175.39 403.528 176.24C407.988 178.85 408.578 185.16 409.868 189.83C411.118 194.37 412.408 199.14 412.898 203.83C414.008 214.53 408.858 226.45 404.118 235.79C401.708 240.55 398.938 244.34 394.208 246.95C389.388 249.61 383.928 250.82 378.698 252.4C372.838 254.17 367.018 255.39 361.028 256.61C355.458 257.74 349.628 259.36 343.928 258.75C342.548 258.63 341.898 260.51 342.808 261.35Z" fill="#D0CFCD"/>
<path d="M120.498 247.499C117.168 247.069 114.328 246.099 110.928 245.869C107.998 245.669 105.098 245.349 102.158 245.279C95.9781 245.119 89.8381 244.579 83.7281 243.639C72.9181 241.969 62.2081 239.559 52.5781 234.169C34.7181 224.169 21.6781 207.029 23.8681 185.929C24.0681 183.969 21.3981 183.689 20.4781 185.009C13.8481 194.589 13.5981 207.249 16.5181 218.209C20.0081 231.279 28.7881 241.459 40.4381 248.119C52.3381 254.919 66.0181 258.409 79.5881 259.659C86.7081 260.319 94.0181 260.029 101.088 258.989C105.028 258.409 108.598 257.449 112.288 255.939C116.248 254.319 117.868 252.609 121.188 250.059C122.298 249.189 121.888 247.679 120.498 247.499Z" fill="#D0CFCD"/>
<path d="M238.09 22.2496C245.16 25.8696 253.18 27.1996 260.04 31.2496C266.17 34.8696 272.29 40.0596 276.63 45.7296C287.19 59.5096 290.33 77.4496 300.18 91.6696C306.68 101.05 319.68 93.0696 315.24 82.8696C307.42 64.9196 302.12 45.0096 287.66 30.9596C276.11 19.7296 253.81 9.13957 238.09 17.2796C236.22 18.2396 236.21 21.2796 238.09 22.2496Z" fill="#D0CFCD"/>
<path d="M106.346 74.3998C95.1462 79.6098 87.0162 92.0998 83.0462 103.52C80.8262 109.89 80.2462 116.83 80.5862 123.53C80.9762 131.21 80.8462 140.19 83.9462 147.25C86.5062 153.07 95.4862 151.02 96.9762 145.55C98.7062 139.18 97.0662 131.96 96.8262 125.42C96.6162 119.74 96.8262 114.05 97.7662 108.44C98.6562 103.11 99.4462 98.1098 101.846 93.2098C104.356 88.0798 107.376 83.1598 110.106 78.1398C111.446 75.6098 108.756 73.2798 106.346 74.3998Z" fill="#D0CFCD"/>
<path d="M370.267 82.5098C374.297 86.5198 379.997 88.2098 384.797 91.0998C389.757 94.0898 394.287 98.1098 397.467 102.99C403.327 111.96 407.557 127.56 404.417 138.09C401.357 148.35 387.417 150.9 389.537 163.26C391.597 175.26 406.697 177.18 409.057 188.54C410.787 196.86 423.447 193.33 421.777 185.03C420.567 179.03 416.957 173.91 412.347 169.97C410.167 168.11 407.607 166.64 405.527 164.68C403.337 162.62 402.797 162.21 405.227 160.85C417.407 154.03 422.087 142.1 420.607 128.45C419.177 115.36 414.527 102.46 405.247 92.8898C401.067 88.5798 396.167 85.1498 390.657 82.7698C385.097 80.3598 378.327 77.5998 372.187 77.8498C369.877 77.9398 368.547 80.7898 370.267 82.5098Z" fill="#D0CFCD"/>
<path d="M304.038 102.139C310.888 98.7093 316.898 93.7893 323.768 90.2793C329.778 87.2093 335.918 84.7293 342.528 83.2993C353.358 80.9593 364.728 81.4693 375.458 84.0993C393.258 88.4693 412.788 98.8493 417.988 117.879C422.828 135.609 410.128 152.199 400.038 165.439C397.598 168.639 401.008 172.489 404.228 172.739C420.038 173.979 432.598 187.849 435.238 203.029C438.248 220.349 429.388 237.939 416.758 249.319C403.668 261.119 385.628 267.359 368.048 265.869C351.268 264.449 335.518 255.469 323.768 243.699C321.348 241.279 317.038 244.419 318.948 247.419C336.778 275.409 374.308 281.799 403.458 268.909C431.998 256.279 454.828 221.829 441.368 190.639C434.808 175.439 420.898 164.359 404.238 163.049C405.638 165.479 407.028 167.919 408.428 170.349C418.618 156.989 429.688 141.469 428.708 123.789C427.828 107.839 417.318 94.2593 404.358 85.7093C387.608 74.6493 365.208 70.0893 345.508 73.0293C329.068 75.4893 309.408 84.1093 301.358 99.4493C300.398 101.229 302.268 103.019 304.038 102.139Z" fill="#39404A"/>
<path d="M123.767 66.7389C107.177 64.0589 91.5773 78.0989 83.9973 91.6289C74.5973 108.399 75.4173 129.489 84.7173 146.069C86.5473 143.689 88.3673 141.319 90.1973 138.939C54.7473 126.539 15.3273 149.969 10.4673 187.509C5.84735 223.209 33.9873 255.389 67.7873 262.679C88.3873 267.119 111.537 264.389 130.067 254.199C134.287 251.879 131.407 244.449 126.707 246.229C111.157 252.139 95.3973 256.189 78.6373 254.609C63.1373 253.149 48.2973 246.759 37.2973 235.649C15.8373 213.959 12.9273 178.949 36.6173 157.639C50.4573 145.199 70.2873 142.239 87.6073 148.289C91.7573 149.739 95.0473 144.649 93.0873 141.159C85.1273 126.969 85.1473 110.139 92.6873 95.7889C95.8673 89.7489 99.9673 84.2989 105.317 80.0089C110.907 75.5289 117.817 72.9289 124.147 69.7089C125.337 69.1089 125.157 66.9589 123.767 66.7389Z" fill="#39404A"/>
<path d="M97.8857 258.679C96.7357 271.089 106.506 285.259 114.606 293.759C123.816 303.429 135.696 310.409 148.576 313.899C163.176 317.859 179.416 317.379 193.406 311.459C205.256 306.449 218.556 295.819 220.126 282.239C220.616 277.969 214.906 277.629 212.916 280.289C209.316 285.119 206.656 290.289 202.196 294.469C197.496 298.869 191.716 302.069 185.596 304.019C173.526 307.859 160.286 307.239 148.326 303.279C137.886 299.819 128.146 293.629 120.596 285.629C116.756 281.559 113.566 276.959 111.116 271.929C108.696 266.969 107.816 261.569 105.646 256.579C103.826 252.379 98.2157 255.069 97.8857 258.679Z" fill="#39404A"/>
<path d="M207.276 271.899C209.756 283.309 217.906 294.939 224.656 304.249C232.196 314.659 241.966 321.809 254.406 325.399C280.986 333.059 309.406 322.409 324.606 299.439C332.816 287.039 337.426 270.909 335.486 256.029C334.716 250.129 325.626 249.719 325.936 256.029C326.676 271.199 323.236 285.779 313.696 297.919C304.036 310.199 289.526 317.489 273.906 317.909C259.646 318.289 244.716 313.269 235.316 302.199C230.726 296.799 226.966 290.629 223.326 284.569C220.106 279.199 217.026 273.199 212.326 268.939C210.066 266.889 206.626 268.919 207.276 271.899Z" fill="#39404A"/>
<path d="M112.107 73.3194C122.447 71.7694 131.737 69.0894 142.367 70.3794C152.767 71.6394 161.657 76.1294 170.177 82.0094C174.097 84.7094 178.727 78.6394 175.257 75.4294C166.507 67.3294 154.687 63.1194 142.947 61.8894C132.237 60.7694 118.447 62.4394 110.217 70.0694C108.637 71.5194 110.357 73.5794 112.107 73.3194Z" fill="#39404A"/>
<path d="M165.486 71.7292C169.396 64.1892 171.576 56.1292 176.706 49.1692C182.036 41.9392 189.166 35.9892 196.866 31.4292C212.056 22.4592 230.586 19.0292 248.006 21.8192C264.976 24.5392 280.256 32.7892 291.816 45.4992C297.466 51.7092 302.056 58.8792 305.466 66.5492C308.886 74.2192 310.476 82.4692 313.256 90.3492C314.486 93.8292 320.746 94.8592 321.396 90.3492C323.526 75.6492 316.866 60.2892 308.756 48.2792C300.176 35.5692 288.406 24.8092 274.516 18.1792C245.666 4.41916 209.126 8.17916 184.096 28.3092C172.596 37.5592 158.176 55.2792 161.866 71.2592C162.246 72.8792 164.716 73.2292 165.486 71.7292Z" fill="#39404A"/>
<path d="M275.986 118.779L292.096 104.229C292.096 104.229 322.446 136.009 320.676 166.889C318.906 197.769 312.346 220.599 284.786 237.219L274.906 223.799C274.906 223.799 297.456 201.389 297.696 170.219C297.936 138.519 275.986 118.779 275.986 118.779Z" fill="#168BBD"/>
<path d="M286.967 179.92C274.787 174.97 262.227 170.99 249.417 168.02C242.157 166.34 234.677 164.97 227.277 165.86C222.007 166.49 216.497 168.32 213.037 172.34C210.607 175.16 208.277 179.07 207.457 182.71C206.457 187.14 207.297 191.77 209.167 195.91C211.057 200.07 214.997 203.05 219.327 204.51C223.657 205.96 228.337 206.02 232.867 205.5C236.877 205.04 240.837 204.14 244.657 202.82C248.767 201.4 252.687 199.49 256.607 197.6C267.277 192.42 277.977 187.24 288.057 180.99" fill="#D0CFCD"/>
<path d="M288.109 178.37C276.529 170.16 261.699 166.67 248.019 163.72C236.249 161.18 220.479 159.38 211.099 168.81C206.719 173.21 203.319 179.51 203.179 185.81C203.039 192.05 205.079 198.69 209.629 203.1C219.499 212.66 235.569 210.38 247.329 206.1C254.719 203.41 261.699 199.57 268.659 195.94C275.969 192.13 283.309 188.25 290.149 183.65C293.279 181.54 290.069 176.04 286.729 177.91C275.469 184.22 263.879 189.66 252.249 195.25C247.039 197.76 241.729 199.97 236.029 201.05C230.599 202.07 224.669 202.55 219.449 200.38C214.619 198.38 211.939 194.23 211.129 189.16C210.329 184.13 212.239 179.61 215.299 175.68C222.219 166.8 236.619 169.18 246.089 171.25C259.749 174.24 272.939 179.71 286.759 181.83C288.659 182.12 289.629 179.45 288.109 178.37Z" fill="#D0CFCD"/>
<path d="M239.85 177.55C237.17 176.05 234.08 175.27 231.01 175.32C228.19 175.37 225.29 176.17 223.17 178.04C219.78 181.05 219.15 186.5 221.23 190.52C223.65 195.2 229.5 197.85 234.59 196.48C239.68 195.11 243.43 189.81 242.95 184.56C242.46 179.31 237.72 174.77 232.45 174.59" fill="#D3D0CD"/>
<path d="M240.909 177.39C240.169 174.25 235.449 173.18 232.689 172.89C229.269 172.54 225.759 173.1 222.779 174.86C216.429 178.6 215.169 187.05 218.929 193.08C222.389 198.64 229.659 201.46 235.939 199.57C242.589 197.58 247.169 190.65 246.369 183.75C245.939 180.02 243.809 176.61 240.979 174.21C238.609 172.2 233.009 170.19 230.719 173.31C230.309 173.88 230.109 174.81 230.469 175.46C231.249 176.84 232.309 177.2 233.629 177.89C234.689 178.44 235.789 179.24 236.719 179.99C238.539 181.45 239.659 183.67 239.509 186.02C239.199 191 234.229 194.52 229.469 193.2C224.559 191.84 221.709 186.23 224.139 181.53C225.499 178.9 228.609 177.94 231.379 177.83C233.039 177.77 234.739 178.02 236.359 178.33C237.689 178.59 238.959 179.03 240.269 178.53C240.679 178.38 241.009 177.83 240.909 177.39Z" fill="#D3D0CD"/>
<path d="M286.027 238.83C313.937 225.33 325.727 190.6 323.107 161.41C321.767 146.46 317.017 131.96 308.707 119.41C300.477 106.99 289.247 96.7798 276.377 89.3198C250.637 74.3898 218.527 70.7198 190.887 82.5298C162.997 94.4498 141.537 120.62 134.677 150.1C127.257 181.97 138.727 215.99 163.737 237.09C166.837 239.7 169.947 241.97 173.547 243.84C175.587 244.9 177.877 242.26 176.087 240.55C170.487 235.23 164.757 230.12 159.827 224.15C154.977 218.28 150.707 211.78 147.317 204.96C140.637 191.5 137.937 176.41 139.487 161.47C142.407 133.38 160.127 107.23 184.367 93.0498C208.697 78.8198 238.687 78.6398 264.137 90.1698C289.677 101.74 309.947 124.04 316.187 151.68C319.267 165.34 318.977 179.81 315.327 193.33C311.617 207.06 304.367 219.11 294.227 229.02C291.257 231.93 288.027 234.61 284.787 237.21C283.817 237.99 285.047 239.31 286.027 238.83Z" fill="#39404A"/>
<path d="M287.549 176.579C275.369 171.629 262.809 167.649 249.999 164.679C242.739 162.999 235.259 161.629 227.859 162.519C222.589 163.149 217.079 164.979 213.619 168.999C211.189 171.819 208.859 175.729 208.039 179.369C207.039 183.799 207.879 188.429 209.749 192.569C211.639 196.729 215.579 199.709 219.909 201.169C224.239 202.619 228.919 202.679 233.449 202.159C237.459 201.699 241.419 200.799 245.239 199.479C249.349 198.059 253.269 196.149 257.189 194.259C267.859 189.079 278.559 183.899 288.639 177.649" fill="#22A7E0"/>
<path d="M288.189 175.71C275.979 168.82 262.039 165.05 248.409 162.08C237.139 159.62 221.689 157.62 212.709 166.8C208.669 170.93 205.559 176.8 205.439 182.65C205.319 188.36 207.219 194.51 211.379 198.55C220.709 207.59 236.159 205.21 247.219 201.16C254.589 198.46 261.599 194.64 268.579 191.07C275.809 187.37 283.009 183.56 289.819 179.14C291.609 177.98 289.749 174.82 287.889 175.9C276.849 182.35 265.379 187.8 253.869 193.34C248.399 195.97 242.849 198.28 236.859 199.4C231.149 200.47 224.889 200.91 219.409 198.63C214.249 196.48 211.159 192.12 210.139 186.71C209.059 181 211.009 175.84 214.519 171.34C221.709 162.11 236.099 163.95 246.119 166.06C260.059 169 273.399 174.01 287.159 177.59C288.219 177.87 289.349 176.37 288.189 175.71Z" fill="#39404A"/>
<path d="M240.428 174.21C237.748 172.71 234.658 171.93 231.588 171.98C228.768 172.03 225.868 172.83 223.748 174.7C220.358 177.71 219.728 183.16 221.808 187.18C224.228 191.86 230.078 194.51 235.168 193.14C240.258 191.77 244.008 186.47 243.528 181.22C243.038 175.97 238.298 171.43 233.028 171.25" fill="white"/>
<path d="M240.898 173.84C239.048 171.36 234.988 170.65 232.088 170.58C229.078 170.51 226.048 171.14 223.528 172.86C218.358 176.37 217.478 183.73 220.628 188.86C223.718 193.88 230.228 196.55 235.928 194.9C241.628 193.24 245.788 187.5 245.508 181.55C245.348 178.16 243.698 175.02 241.248 172.72C239.168 170.76 235.418 168.83 232.548 170.15C231.758 170.51 231.488 171.75 232.308 172.26C234.518 173.64 236.938 174.09 238.888 176C240.868 177.93 241.928 180.69 241.518 183.45C240.688 189.07 234.998 192.87 229.528 191.22C224.088 189.58 220.878 183.65 223.218 178.27C224.498 175.33 227.448 173.89 230.498 173.51C232.218 173.3 233.968 173.43 235.668 173.75C237.238 174.05 238.768 174.74 240.368 174.82C240.878 174.84 241.218 174.27 240.898 173.84Z" fill="#39404A"/>
<path d="M227.537 79.3301C226.427 83.5801 226.837 88.5201 226.967 92.8701C227.027 95.1301 227.097 97.4001 227.157 99.6601C227.207 101.54 227.217 103.33 228.847 104.5C229.307 104.83 229.887 104.62 230.277 104.32C231.817 103.11 231.587 101.02 231.567 99.2401C231.537 96.9801 231.507 94.7101 231.467 92.4501C231.407 88.2301 231.587 83.4001 230.347 79.3301C229.927 77.9901 227.907 77.9101 227.537 79.3301Z" fill="#39404A"/>
<path d="M136.377 171.69C138.457 172.44 140.937 172.33 143.127 172.36C145.537 172.39 147.947 172.37 150.367 172.35C152.637 172.33 154.907 172.3 157.177 172.28C159.427 172.26 161.877 172.47 163.907 171.35C164.877 170.82 164.917 169.25 163.907 168.73C161.957 167.73 159.757 167.92 157.607 167.95C155.197 167.99 152.777 168.03 150.367 168.07C148.097 168.11 145.827 168.14 143.557 168.24C141.257 168.33 138.557 168.24 136.387 169.09C135.137 169.58 135.077 171.22 136.377 171.69Z" fill="#39404A"/>
<path d="M320.676 165.77C319.636 164.42 317.536 164.49 315.946 164.36C313.866 164.19 311.766 164.21 309.686 164.22C305.506 164.23 301.236 164.08 297.106 164.77C294.916 165.14 295.696 168.18 297.596 168.37C301.726 168.79 305.966 168.4 310.106 168.35C312.046 168.33 314.006 168.34 315.946 168.2C317.516 168.09 319.606 168.18 320.676 166.88C320.966 166.52 320.956 166.13 320.676 165.77Z" fill="#39404A"/>
<path d="M290.558 108.17C290.648 108.2 290.738 108.23 290.828 108.26C291.388 108.44 292.218 108.27 292.598 107.79C293.588 106.56 293.498 105.11 292.098 104.23C291.418 103.8 290.388 103.94 289.838 104.52C287.308 107.21 284.588 109.76 281.788 112.16C279.168 114.4 275.798 116.46 274.048 119.49C273.468 120.5 274.438 121.85 275.588 121.49C278.958 120.46 281.808 117.61 284.418 115.32C287.318 112.79 290.038 110.12 292.478 107.14C291.728 107.24 290.978 107.33 290.218 107.43C290.298 107.47 290.388 107.52 290.468 107.56C290.188 107.19 289.898 106.82 289.618 106.45C289.638 106.55 289.668 106.64 289.688 106.74C289.748 106.27 289.808 105.79 289.878 105.32C289.828 105.4 289.778 105.48 289.738 105.56C290.258 105.26 290.788 104.96 291.308 104.66C291.218 104.67 291.118 104.68 291.028 104.68C289.068 104.86 288.598 107.53 290.558 108.17Z" fill="#39404A"/>
<path d="M163.077 105.13C163.167 106.62 164.337 107.38 165.387 108.32C166.907 109.69 168.497 110.97 170.077 112.27C171.497 113.44 172.937 114.58 174.397 115.7C175.927 116.88 177.407 118.31 179.387 118.6C180.987 118.83 182.127 117.46 181.427 115.95C180.117 113.13 176.257 111.2 173.797 109.46C171.147 107.59 168.407 105.08 165.417 103.8C164.417 103.37 162.997 103.83 163.077 105.13Z" fill="#39404A"/>
<path d="M174.539 243.21C176.119 243.45 176.979 242.7 178.119 241.68C179.559 240.39 180.969 239.069 182.339 237.699C184.969 235.069 188.459 232.42 189.919 228.94C190.519 227.5 188.669 226.659 187.579 227.139C184.549 228.489 182.189 231.779 179.939 234.129C177.809 236.369 175.519 238.649 173.689 241.139C173.209 241.829 173.699 243.08 174.539 243.21Z" fill="#39404A"/>
<path d="M286.438 238.45C286.438 237.01 285.388 235.94 284.558 234.84C283.608 233.59 282.608 232.38 281.638 231.14C279.738 228.72 277.718 225.19 274.908 223.79C273.678 223.18 272.518 224.18 272.728 225.47C273.228 228.61 276.338 231.57 278.458 233.78C280.158 235.54 283.128 239.18 285.778 239.12C286.128 239.11 286.438 238.82 286.438 238.45Z" fill="#39404A"/>
<path d="M134.789 221.76C157.849 219.67 182.179 231.21 195.849 250.7L191.049 267.79L126.109 235.89L134.789 221.76Z" fill="white"/>
<path d="M127.348 188.72C140.728 192.04 151.248 204.62 152.158 218.37L135.388 235.2L114.348 210.76L127.348 188.72Z" fill="white"/>
<path d="M198.817 249.49C187.807 233.89 170.407 222.89 151.507 219.91C146.217 219.08 140.877 218.81 135.537 219.28C134.147 219.4 132.957 220.38 132.957 221.86C132.957 223.16 134.137 224.56 135.537 224.44C153.107 222.91 170.977 229.24 184.177 240.84C187.987 244.19 191.437 247.95 194.367 252.1C195.167 253.24 196.617 253.77 197.897 253.02C199.017 252.36 199.617 250.63 198.817 249.49Z" fill="#39404A"/>
<path d="M155.707 220.73C154.617 205.77 143.607 192.32 129.007 188.59C125.787 187.77 124.417 192.74 127.637 193.56C139.917 196.69 149.637 208.02 150.557 220.73C150.657 222.12 151.667 223.31 153.137 223.31C154.447 223.31 155.807 222.13 155.707 220.73Z" fill="#39404A"/>
<path d="M323.177 221.759C300.117 219.669 275.787 231.209 262.117 250.699L266.917 267.789L290.437 244.519L305.437 232.519L331.857 235.889L323.177 221.759Z" fill="white"/>
<path d="M331.615 191.719C318.235 195.039 307.715 207.619 306.805 221.369L323.575 238.199L344.615 213.759L331.615 191.719Z" fill="white"/>
<path d="M262.596 254.09C272.826 239.59 289.166 229.72 306.646 226.91C311.526 226.13 316.516 225.999 321.436 226.429C322.826 226.549 324.016 225.159 324.016 223.849C324.016 222.359 322.836 221.389 321.436 221.269C302.436 219.609 283.196 226.77 269.006 239.31C264.916 242.92 261.296 247.029 258.156 251.489C257.356 252.629 257.956 254.359 259.076 255.019C260.366 255.769 261.796 255.23 262.596 254.09Z" fill="#39404A"/>
<path d="M308.417 223.729C309.337 211.029 319.057 199.699 331.337 196.559C334.547 195.739 333.187 190.769 329.967 191.589C315.367 195.309 304.347 208.759 303.267 223.729C303.167 225.119 304.527 226.309 305.847 226.309C307.317 226.309 308.317 225.129 308.417 223.729Z" fill="#39404A"/>
</svg>
