<svg id="Layer_1" xmlns="http://www.w3.org/2000/svg" viewBox="0 0 500 500">
      <style type="text/css">
        .st0{fill:#FFFFFF;}
        .st1{fill:#D0CFCD;}
        .st2{fill:#39404a;}
        .st3{fill:#93D500;}
        .st4{fill:#D3D0CD;}
      </style>
      <path class="st0" d="M478.03,263.57c-4.86-11.27-12.89-20.43-22.85-26.36c6.61-10.75,11.77-23.1,11-37.08&#10;        c-0.98-17.71-11.48-34.43-28.83-45.88c-3.34-2.21-6.92-4.19-10.67-5.94c-2.27-1.93-4.69-3.76-7.27-5.47&#10;        c-14.64-9.66-33.72-15.21-52.36-15.21c-4.58,0-9.11,0.33-13.48,0.98c-1.07,0.16-2.15,0.34-3.24,0.55c-1.86-3.5-3.84-6.72-5.77-9.58&#10;        c-9.91-14.68-23.05-26.22-37.98-33.41c-5.65-4.59-11.75-8.47-18.18-11.54c-12.55-5.99-26.79-9.15-41.18-9.15&#10;        c-22.12,0-43.36,7.28-59.8,20.51c-9.85,7.92-20.07,19.92-24.4,33c-3.39-0.78-6.6-1.28-9.46-1.58c-2.34-0.25-4.75-0.37-7.14-0.37&#10;        c-6.28,0-16.87,0.92-26.2,6.02c-11.63,2.94-25.53,11.61-35.36,29.15c-6.55,11.69-9.1,25.33-7.49,38.91&#10;        c-34.22,1.32-62.87,26.92-67.23,60.58c-2.53,19.54,3.28,39.34,16.35,55.75c8.14,10.23,18.78,18.56,30.56,24.19&#10;        c10.54,8.66,23.11,14.89,36.17,17.7c3.97,0.86,8.03,1.46,12.14,1.84c2.81,4.66,6.57,9.68,11.6,14.96&#10;        c7.09,7.44,15.51,13.47,24.82,17.84c9.19,7.66,19.99,13.3,31.72,16.48c7.14,1.93,14.49,2.91,21.86,2.91&#10;        c10.48,0,20.4-1.95,29.49-5.79c5.61-2.37,10.39-5.18,14.44-8.24c4.44,3.48,9.28,6.33,14.52,8.53c7.26,6.56,15.76,11.27,25.38,14.05&#10;        c6.57,1.89,13.35,2.85,20.17,2.85c24.65,0,47.51-12.3,61.14-32.9c5.07-7.67,8.76-16.31,10.88-25.12c8.99,3.54,18.89,5.43,29.23,5.43&#10;        c11.82,0,23.73-2.5,34.43-7.24C468.43,340.15,493.71,299.9,478.03,263.57z"/>
      <g>
        <g>
          <g>
            <g>
              <path class="st1" d="M463.38,273.93c-4.27-11.66-13.9-17-23.84-20.89c-4.73-1.85-9.57-3.07-14.53-4.06c-0.01,0-0.03,0-0.04-0.01&#10;                c3.9-3.52,7.23-7.97,9.78-12.3c6.17-10.47,11.18-22.89,11.8-35.15c0.71-14.11-7.16-26.72-19.22-33.42&#10;                c-5.43-3.02-11.51-5.14-17.47-6.83c-6.34-1.8-11.38-4.38-18-4.87c-2.69-0.2-4.99,0.51-6.85,1.8&#10;                c-10.42-0.45-21.03,1.96-30.85,5.7c-3.34,1.27-7.06,2.96-10.64,5.05c-1.84-4.19-3.89-8.3-5.86-12.36&#10;                c-3.92-8.1-8.11-16.14-13.18-23.57C313.7,117.25,298.33,101.6,279,97.65c-19.11-3.9-40.44,0.24-57.43,9.76&#10;                c-16.67,9.33-27,25.3-31.48,43.7c-1.69-0.53-3.37-1.09-5.03-1.71c-3.31-1.24-8.75-3.53-13.62-3.72&#10;                c-0.92-0.04-1.84-0.01-2.76,0.08c-6.31-6.51-19.15-4.01-26.49,0.12c-8.72,4.91-16.22,13.01-20.49,22.12&#10;                c-4.79,10.22-6.9,21.55-5.99,32.85c0.46,5.7,1.35,11.44,2.78,16.97c0.23,0.89,0.5,1.77,0.76,2.65c-1.25,0.01-2.5,0.02-3.75,0.05&#10;                c-7.34,0.14-14.61,0.63-21.87,1.8c-12.22,1.97-23.88,7.21-32.88,15.91c-8.91,8.61-14.56,21.11-13.49,33.69&#10;                c0.12,1.36,0.31,2.69,0.53,4c-0.39,1.3-0.58,2.66-0.48,4.02c0.85,11.59,4.46,23.36,13.6,32.86&#10;                c8.76,9.11,21.02,14.31,33.18,16.73c11.62,2.31,23.88,3.66,35.74,3.21c0.29-0.01,0.58-0.03,0.88-0.04&#10;                c2.7,9.42,7.85,18.44,13.45,25.85c8.87,11.75,21.29,20.95,35.93,23.65c15.13,2.8,29.79,0.8,43.49-6.35&#10;                c6.02-3.15,11.65-7.42,16.62-12.06c0.1-0.09,0.19-0.19,0.29-0.28c3.89,2.78,8.08,5.23,11.67,7.81&#10;                c6.04,4.34,11.57,9.37,17.52,13.84c13.09,9.82,29.24,15.04,45.26,9.59c14.7-5,26.89-16.08,34.14-29.87&#10;                c3.7-7.04,6.55-14.81,8.13-22.62c0.66-3.28,1.18-6.67,1.56-10.04c1.68,1.08,3.4,2.08,5.09,2.99c8.69,4.66,17.95,7.49,27.73,8.47&#10;                c19.32,1.93,38.66-5.2,53.02-18.13C458.07,313.41,470.19,292.55,463.38,273.93z M175.16,317.65&#10;                C173.71,319.02,174.13,318.33,175.16,317.65L175.16,317.65z M157.66,326.25c0.05,0.24,0.1,0.48,0.15,0.73&#10;                c-0.11-0.21-0.22-0.41-0.33-0.62C157.54,326.32,157.6,326.28,157.66,326.25z"/>
              <g>
                <path class="st1" d="M134.06,339.31c0.71,5.85,3.79,10.17,6.98,14.99c3.22,4.87,6.74,9.1,11.17,12.93&#10;                  c8.73,7.54,18.89,13.35,30.11,16.27c10.22,2.66,22.1,3.34,32.19-0.16c10.75-3.72,18.98-10.19,25.93-19.05&#10;                  c1.55-1.98,2.23-4.43,0.87-6.75c-0.84-1.44-1.84-1.97-3.33-2.56c-1.87-0.74-4.04,0.2-5.42,1.43&#10;                  c-11.43,10.23-32.48,12.06-46.68,7.93c-7.8-2.27-15.22-6.49-21.51-11.61c-3.61-2.94-7.25-6.07-10.61-9.28&#10;                  c-3.41-3.27-5.82-7.24-9.9-9.77C140.02,331.28,133.46,334.31,134.06,339.31L134.06,339.31z"/>
                <path class="st1" d="M287.22,396.42c4.32,0.69,7.59,2.55,12.16,2.26c4.37-0.28,8.85-1.32,13-2.67&#10;                  c9.01-2.93,16.91-7.95,23.67-14.58c6.97-6.84,11.94-15.83,15.59-24.81c1.77-4.35,3.21-8.83,4.27-13.41&#10;                  c1.24-5.32,0.45-9.5-0.51-14.75c-1.06-5.81-10.03-6.75-12.64-1.65c-2.03,3.96-4.04,6.97-5.21,11.34&#10;                  c-0.91,3.41-1.96,6.78-3.27,10.06c-2.85,7.13-6.86,13.65-11.63,19.66c-4.31,5.44-9.49,10.4-15.14,14.45&#10;                  c-2.96,2.12-6.12,3.89-9.41,5.42c-3.43,1.59-7.29,4.49-10.88,5.33C285.62,393.43,285.49,396.15,287.22,396.42L287.22,396.42z"/>
                <path class="st1" d="M370.31,338.25c5.39,5.02,10.8,8.05,18.18,8.96c7.48,0.93,15.56-0.85,22.89-2.37&#10;                  c15.46-3.21,28.2-9.68,35.84-24.02c7.43-13.94,14.44-27.95,11.93-44.18c-1.07-6.95-4.61-13.82-9.98-18.46&#10;                  c-4.93-4.26-11.21-4.75-16.32-8.18c-0.73,0.95-1.47,1.91-2.2,2.86c2.33,2.92,5.84,4.3,8.81,6.5c3.02,2.24,5.73,4.8,7.95,7.86&#10;                  c4.4,6.08,6.54,13.15,5.95,20.66c-0.58,7.37-2.78,14.25-6.75,20.46c-4.13,6.46-10.24,11.34-15.22,17.11&#10;                  c-2.49,2.88-1.17,9.1,3.54,8.54c20.74-2.47,34.82-27.56,32.11-47.21c-1.29-9.35-5.72-18.41-11.88-25.54&#10;                  c-5-5.78-15.44-14.61-23.7-11.43c-1.4,0.54-1.88,2.48-0.43,3.33c4.46,2.61,5.05,8.92,6.34,13.59c1.25,4.54,2.54,9.31,3.03,14&#10;                  c1.11,10.7-4.04,22.62-8.78,31.96c-2.41,4.76-5.18,8.55-9.91,11.16c-4.82,2.66-10.28,3.87-15.51,5.45&#10;                  c-5.86,1.77-11.68,2.99-17.67,4.21c-5.57,1.13-11.4,2.75-17.1,2.14C370.05,335.52,369.4,337.41,370.31,338.25L370.31,338.25z"/>
                <path class="st1" d="M148,324.4c-3.33-0.43-6.17-1.4-9.57-1.63c-2.93-0.2-5.83-0.52-8.77-0.59c-6.18-0.16-12.32-0.7-18.43-1.64&#10;                  c-10.81-1.67-21.52-4.08-31.15-9.47c-17.86-10-30.9-27.14-28.71-48.24c0.2-1.96-2.47-2.24-3.39-0.92&#10;                  c-6.63,9.58-6.88,22.24-3.96,33.2c3.49,13.07,12.27,23.25,23.92,29.91c11.9,6.8,25.58,10.29,39.15,11.54&#10;                  c7.12,0.66,14.43,0.37,21.5-0.67c3.94-0.58,7.51-1.54,11.2-3.05c3.96-1.62,5.58-3.33,8.9-5.88&#10;                  C149.8,326.09,149.39,324.58,148,324.4L148,324.4z"/>
                <path class="st1" d="M265.59,99.14c7.07,3.62,15.09,4.95,21.95,9c6.13,3.62,12.25,8.81,16.59,14.48&#10;                  c10.56,13.78,13.7,31.72,23.55,45.94c6.5,9.38,19.5,1.4,15.06-8.8c-7.82-17.95-13.12-37.86-27.58-51.91&#10;                  c-11.55-11.23-33.85-21.82-49.57-13.68C263.72,95.14,263.71,98.18,265.59,99.14L265.59,99.14z"/>
                <path class="st1" d="M133.85,151.3c-11.2,5.21-19.33,17.7-23.3,29.12c-2.22,6.37-2.8,13.31-2.46,20.01&#10;                  c0.39,7.68,0.26,16.66,3.36,23.72c2.56,5.82,11.54,3.77,13.03-1.7c1.73-6.37,0.09-13.59-0.15-20.13&#10;                  c-0.21-5.68,0-11.37,0.94-16.98c0.89-5.33,1.68-10.33,4.08-15.23c2.51-5.13,5.53-10.05,8.26-15.07&#10;                  C138.95,152.51,136.26,150.18,133.85,151.3L133.85,151.3z"/>
                <path class="st1" d="M397.77,159.4c4.03,4.01,9.73,5.7,14.53,8.59c4.96,2.99,9.49,7.01,12.67,11.89&#10;                  c5.86,8.97,10.09,24.57,6.95,35.1c-3.06,10.26-17,12.81-14.88,25.17c2.06,12,17.16,13.92,19.52,25.28&#10;                  c1.73,8.32,14.39,4.79,12.72-3.51c-1.21-6-4.82-11.12-9.43-15.06c-2.18-1.86-4.74-3.33-6.82-5.29&#10;                  c-2.19-2.06-2.73-2.47-0.3-3.83c12.18-6.82,16.86-18.75,15.38-32.4c-1.43-13.09-6.08-25.99-15.36-35.56&#10;                  c-4.18-4.31-9.08-7.74-14.59-10.12c-5.56-2.41-12.33-5.17-18.47-4.92C397.39,154.84,396.05,157.68,397.77,159.4L397.77,159.4z"/>
              </g>
              <g>
                <path class="st1" d="M331.54,179.03c6.85-3.43,12.86-8.35,19.73-11.86c6.01-3.07,12.15-5.55,18.76-6.98&#10;                  c10.83-2.34,22.2-1.83,32.93,0.8c17.8,4.37,37.33,14.75,42.53,33.78c4.84,17.73-7.86,34.32-17.95,47.56&#10;                  c-2.44,3.2,0.97,7.05,4.19,7.3c15.81,1.24,28.37,15.11,31.01,30.29c3.01,17.32-5.85,34.91-18.48,46.29&#10;                  c-13.09,11.8-31.13,18.04-48.71,16.55c-16.78-1.42-32.53-10.4-44.28-22.17c-2.42-2.42-6.73,0.72-4.82,3.72&#10;                  c17.83,27.99,55.36,34.38,84.51,21.49c28.54-12.63,51.37-47.08,37.91-78.27c-6.56-15.2-20.47-26.28-37.13-27.59&#10;                  c1.4,2.43,2.79,4.87,4.19,7.3c10.19-13.36,21.26-28.88,20.28-46.56c-0.88-15.95-11.39-29.53-24.35-38.08&#10;                  c-16.75-11.06-39.15-15.62-58.85-12.68c-16.44,2.46-36.1,11.08-44.15,26.42C327.9,178.13,329.77,179.92,331.54,179.03&#10;                  L331.54,179.03z"/>
                <path class="st1" d="M151.27,143.63c-16.59-2.68-32.19,11.36-39.77,24.89c-9.4,16.77-8.58,37.86,0.72,54.44&#10;                  c1.83-2.38,3.65-4.75,5.48-7.13c-35.45-12.4-74.87,11.03-79.73,48.57c-4.62,35.7,23.52,67.88,57.32,75.17&#10;                  c20.6,4.44,43.75,1.71,62.28-8.48c4.22-2.32,1.34-9.75-3.36-7.97c-15.55,5.91-31.31,9.96-48.07,8.38&#10;                  c-15.5-1.46-30.34-7.85-41.34-18.96c-21.46-21.69-24.37-56.7-0.68-78.01c13.84-12.44,33.67-15.4,50.99-9.35&#10;                  c4.15,1.45,7.44-3.64,5.48-7.13c-7.96-14.19-7.94-31.02-0.4-45.37c3.18-6.04,7.28-11.49,12.63-15.78&#10;                  c5.59-4.48,12.5-7.08,18.83-10.3C152.84,146.01,152.66,143.86,151.27,143.63L151.27,143.63z"/>
                <path class="st1" d="M125.39,335.58c-1.15,12.41,8.62,26.58,16.72,35.08c9.21,9.67,21.09,16.65,33.97,20.14&#10;                  c14.6,3.96,30.84,3.48,44.83-2.44c11.85-5.01,25.15-15.64,26.72-29.22c0.49-4.27-5.22-4.61-7.21-1.95&#10;                  c-3.6,4.83-6.26,10-10.72,14.18c-4.7,4.4-10.48,7.6-16.6,9.55c-12.07,3.84-25.31,3.22-37.27-0.74&#10;                  c-10.44-3.46-20.18-9.65-27.73-17.65c-3.84-4.07-7.03-8.67-9.48-13.7c-2.42-4.96-3.3-10.36-5.47-15.35&#10;                  C131.34,329.28,125.72,331.97,125.39,335.58L125.39,335.58z"/>
                <path class="st1" d="M234.78,348.8c2.48,11.41,10.63,23.04,17.38,32.35c7.54,10.41,17.31,17.56,29.75,21.15&#10;                  c26.58,7.66,55-2.99,70.2-25.96c8.21-12.4,12.82-28.53,10.88-43.41c-0.77-5.9-9.86-6.31-9.55,0&#10;                  c0.74,15.17-2.7,29.75-12.24,41.89c-9.66,12.28-24.17,19.57-39.79,19.99c-14.26,0.38-29.19-4.64-38.59-15.71&#10;                  c-4.59-5.4-8.35-11.57-11.99-17.63c-3.22-5.37-6.3-11.37-11-15.63C237.57,343.78,234.13,345.81,234.78,348.8L234.78,348.8z"/>
                <path class="st1" d="M139.61,150.22c10.34-1.55,19.63-4.23,30.26-2.94c10.4,1.26,19.29,5.75,27.81,11.63&#10;                  c3.92,2.7,8.55-3.37,5.08-6.58c-8.75-8.1-20.57-12.31-32.31-13.54c-10.71-1.12-24.5,0.55-32.73,8.18&#10;                  C136.14,148.42,137.86,150.48,139.61,150.22L139.61,150.22z"/>
                <path class="st1" d="M192.99,148.62c3.91-7.54,6.09-15.6,11.22-22.56c5.33-7.23,12.46-13.18,20.16-17.74&#10;                  c15.19-8.97,33.72-12.4,51.14-9.61c16.97,2.72,32.25,10.97,43.81,23.68c5.65,6.21,10.24,13.38,13.65,21.05&#10;                  c3.42,7.67,5.01,15.92,7.79,23.8c1.23,3.48,7.49,4.51,8.14,0c2.13-14.7-4.53-30.06-12.64-42.07&#10;                  c-8.58-12.71-20.35-23.47-34.24-30.1c-28.85-13.76-65.39-10-90.42,10.13c-11.5,9.25-25.92,26.97-22.23,42.95&#10;                  C189.75,149.77,192.22,150.12,192.99,148.62L192.99,148.62z"/>
              </g>
            </g>
          </g>
          <g>
            <g>
              <path class="st0" d="M445.44,262.52c-4.27-11.66-13.9-17-23.84-20.89c-4.73-1.85-9.57-3.07-14.53-4.06c-0.01,0-0.03,0-0.04-0.01&#10;                c3.9-3.52,7.23-7.97,9.78-12.3c6.17-10.47,11.18-22.89,11.8-35.15c0.71-14.11-7.16-26.72-19.22-33.42&#10;                c-5.43-3.02-11.51-5.14-17.47-6.83c-6.34-1.8-11.38-4.38-18-4.87c-2.69-0.2-4.99,0.51-6.85,1.8&#10;                c-10.42-0.45-21.03,1.96-30.85,5.7c-3.34,1.27-7.06,2.96-10.64,5.05c-1.84-4.19-3.89-8.3-5.86-12.36&#10;                c-3.92-8.1-8.11-16.14-13.18-23.57c-10.75-15.76-26.12-31.41-45.46-35.36c-19.11-3.9-40.44,0.24-57.43,9.76&#10;                c-16.67,9.33-27,25.3-31.48,43.7c-1.69-0.53-3.37-1.09-5.03-1.71c-3.31-1.24-8.75-3.53-13.62-3.72&#10;                c-0.92-0.04-1.84-0.01-2.76,0.08c-6.31-6.51-19.15-4.01-26.49,0.12c-8.72,4.91-16.22,13.01-20.49,22.12&#10;                c-4.79,10.22-6.9,21.55-5.99,32.85c0.46,5.7,1.35,11.44,2.78,16.97c0.23,0.89,0.5,1.77,0.76,2.65c-1.25,0.01-2.5,0.02-3.75,0.05&#10;                c-7.34,0.14-14.61,0.63-21.87,1.8c-12.22,1.97-23.88,7.21-32.88,15.91c-8.91,8.61-14.56,21.11-13.49,33.69&#10;                c0.12,1.36,0.31,2.69,0.53,4c-0.39,1.3-0.58,2.66-0.48,4.02c0.85,11.59,4.46,23.36,13.6,32.86&#10;                c8.76,9.11,21.02,14.31,33.18,16.73c11.62,2.31,23.88,3.66,35.74,3.21c0.29-0.01,0.58-0.03,0.88-0.04&#10;                c2.7,9.42,7.85,18.44,13.45,25.85c8.87,11.75,21.29,20.95,35.93,23.65c15.13,2.8,29.79,0.8,43.49-6.35&#10;                c6.02-3.15,11.65-7.42,16.62-12.06c0.1-0.09,0.19-0.19,0.29-0.28c3.89,2.78,8.08,5.23,11.67,7.81&#10;                c6.04,4.34,11.57,9.37,17.52,13.84c13.09,9.82,29.24,15.04,45.26,9.59c14.7-5,26.89-16.08,34.14-29.87&#10;                c3.7-7.04,6.55-14.81,8.13-22.62c0.66-3.28,1.18-6.67,1.56-10.04c1.68,1.08,3.4,2.08,5.09,2.99c8.69,4.66,17.95,7.49,27.73,8.47&#10;                c19.32,1.93,38.66-5.2,53.02-18.13C440.13,302,452.25,281.13,445.44,262.52z M157.22,306.24&#10;                C155.77,307.61,156.19,306.91,157.22,306.24L157.22,306.24z M139.72,314.83c0.05,0.24,0.1,0.48,0.15,0.73&#10;                c-0.11-0.21-0.22-0.41-0.33-0.62C139.59,314.9,139.66,314.87,139.72,314.83z"/>
              <g>
                <path class="st1" d="M116.12,327.89c0.71,5.85,3.79,10.17,6.98,14.99c3.22,4.87,6.74,9.1,11.17,12.93&#10;                  c8.73,7.54,18.89,13.35,30.11,16.27c10.22,2.66,22.1,3.34,32.19-0.16c10.75-3.72,18.98-10.19,25.93-19.05&#10;                  c1.55-1.98,2.23-4.43,0.87-6.75c-0.84-1.44-1.84-1.97-3.33-2.56c-1.87-0.74-4.04,0.2-5.42,1.43&#10;                  c-11.43,10.23-32.48,12.06-46.68,7.93c-7.8-2.27-15.22-6.49-21.51-11.61c-3.61-2.94-7.25-6.07-10.61-9.28&#10;                  c-3.41-3.27-5.82-7.24-9.9-9.77C122.08,319.87,115.52,322.9,116.12,327.89L116.12,327.89z"/>
                <path class="st1" d="M269.27,385.01c4.32,0.69,7.59,2.55,12.16,2.26c4.37-0.28,8.85-1.32,13-2.67&#10;                  c9.01-2.93,16.91-7.95,23.67-14.58c6.97-6.84,11.94-15.83,15.59-24.81c1.77-4.35,3.21-8.83,4.27-13.41&#10;                  c1.24-5.32,0.45-9.5-0.51-14.75c-1.06-5.81-10.03-6.75-12.64-1.65c-2.03,3.96-4.04,6.97-5.21,11.34&#10;                  c-0.91,3.41-1.96,6.78-3.27,10.06c-2.85,7.13-6.86,13.65-11.63,19.66c-4.31,5.44-9.49,10.4-15.14,14.45&#10;                  c-2.96,2.12-6.12,3.89-9.41,5.42c-3.43,1.59-7.29,4.49-10.88,5.33C267.68,382.01,267.55,384.73,269.27,385.01L269.27,385.01z"/>
                <path class="st1" d="M352.37,326.83c5.39,5.02,10.8,8.05,18.18,8.96c7.48,0.93,15.56-0.85,22.89-2.37&#10;                  c15.46-3.21,28.2-9.68,35.84-24.02c7.43-13.94,14.44-27.95,11.93-44.18c-1.07-6.95-4.61-13.82-9.98-18.46&#10;                  c-4.93-4.26-11.21-4.75-16.32-8.18c-0.73,0.95-1.47,1.91-2.2,2.86c2.33,2.92,5.84,4.3,8.81,6.5c3.02,2.24,5.73,4.8,7.95,7.86&#10;                  c4.4,6.08,6.54,13.15,5.95,20.66c-0.58,7.37-2.78,14.25-6.75,20.46c-4.13,6.46-10.24,11.34-15.22,17.11&#10;                  c-2.49,2.88-1.17,9.1,3.54,8.54c20.74-2.47,34.82-27.56,32.11-47.21c-1.29-9.35-5.72-18.41-11.88-25.54&#10;                  c-5-5.78-15.44-14.61-23.7-11.43c-1.4,0.54-1.88,2.48-0.43,3.33c4.46,2.61,5.05,8.92,6.34,13.59c1.25,4.54,2.54,9.31,3.03,14&#10;                  c1.11,10.7-4.04,22.62-8.78,31.96c-2.41,4.76-5.18,8.55-9.91,11.16c-4.82,2.66-10.28,3.87-15.51,5.45&#10;                  c-5.86,1.77-11.68,2.99-17.67,4.21c-5.57,1.13-11.4,2.75-17.1,2.14C352.11,324.11,351.46,325.99,352.37,326.83L352.37,326.83z"/>
                <path class="st1" d="M130.06,312.98c-3.33-0.43-6.17-1.4-9.57-1.63c-2.93-0.2-5.83-0.52-8.77-0.59&#10;                  c-6.18-0.16-12.32-0.7-18.43-1.64c-10.81-1.67-21.52-4.08-31.15-9.47c-17.86-10-30.9-27.14-28.71-48.24&#10;                  c0.2-1.96-2.47-2.24-3.39-0.92c-6.63,9.58-6.88,22.24-3.96,33.2c3.49,13.07,12.27,23.25,23.92,29.91&#10;                  c11.9,6.8,25.58,10.29,39.15,11.54c7.12,0.66,14.43,0.37,21.5-0.67c3.94-0.58,7.51-1.54,11.2-3.05&#10;                  c3.96-1.62,5.58-3.33,8.9-5.88C131.86,314.67,131.45,313.16,130.06,312.98L130.06,312.98z"/>
                <path class="st1" d="M247.65,87.73c7.07,3.62,15.09,4.95,21.95,9c6.13,3.62,12.25,8.81,16.59,14.48&#10;                  c10.56,13.78,13.7,31.72,23.55,45.94c6.5,9.38,19.5,1.4,15.06-8.8c-7.82-17.95-13.12-37.86-27.58-51.91&#10;                  c-11.55-11.23-33.85-21.82-49.57-13.68C245.78,83.72,245.77,86.76,247.65,87.73L247.65,87.73z"/>
                <path class="st1" d="M115.91,139.88c-11.2,5.21-19.33,17.7-23.3,29.12c-2.22,6.37-2.8,13.31-2.46,20.01&#10;                  c0.39,7.68,0.26,16.66,3.36,23.72c2.56,5.82,11.54,3.77,13.03-1.7c1.73-6.37,0.09-13.59-0.15-20.13&#10;                  c-0.21-5.68,0-11.37,0.94-16.98c0.89-5.33,1.68-10.33,4.08-15.23c2.51-5.13,5.53-10.05,8.26-15.07&#10;                  C121.01,141.09,118.32,138.76,115.91,139.88L115.91,139.88z"/>
                <path class="st1" d="M379.83,147.99c4.03,4.01,9.73,5.7,14.53,8.59c4.96,2.99,9.49,7.01,12.67,11.89&#10;                  c5.86,8.97,10.09,24.57,6.95,35.1c-3.06,10.26-17,12.81-14.88,25.17c2.06,12,17.16,13.92,19.52,25.28&#10;                  c1.73,8.32,14.39,4.79,12.72-3.51c-1.21-6-4.82-11.12-9.43-15.06c-2.18-1.86-4.74-3.33-6.82-5.29&#10;                  c-2.19-2.06-2.73-2.47-0.3-3.83c12.18-6.82,16.86-18.75,15.38-32.4c-1.43-13.09-6.08-25.99-15.36-35.56&#10;                  c-4.18-4.31-9.08-7.74-14.59-10.12c-5.56-2.41-12.33-5.17-18.47-4.92C379.44,143.42,378.11,146.27,379.83,147.99L379.83,147.99&#10;                  z"/>
              </g>
              <g>
                <path class="st2" d="M313.6,167.62c6.85-3.43,12.86-8.35,19.73-11.86c6.01-3.07,12.15-5.55,18.76-6.98&#10;                  c10.83-2.34,22.2-1.83,32.93,0.8c17.8,4.37,37.33,14.75,42.53,33.78c4.84,17.73-7.86,34.32-17.95,47.56&#10;                  c-2.44,3.2,0.97,7.05,4.19,7.3c15.81,1.24,28.37,15.11,31.01,30.29c3.01,17.32-5.85,34.91-18.48,46.29&#10;                  c-13.09,11.8-31.13,18.04-48.71,16.55c-16.78-1.42-32.53-10.4-44.28-22.17c-2.42-2.42-6.73,0.72-4.82,3.72&#10;                  c17.83,27.99,55.36,34.38,84.51,21.49c28.54-12.63,51.37-47.08,37.91-78.27c-6.56-15.2-20.47-26.28-37.13-27.59&#10;                  c1.4,2.43,2.79,4.87,4.19,7.3c10.19-13.36,21.26-28.88,20.28-46.56c-0.88-15.95-11.39-29.53-24.35-38.08&#10;                  c-16.75-11.06-39.15-15.62-58.85-12.68c-16.44,2.46-36.1,11.08-44.15,26.42C309.96,166.71,311.83,168.5,313.6,167.62&#10;                  L313.6,167.62z"/>
                <path class="st2" d="M133.33,132.22c-16.59-2.68-32.19,11.36-39.77,24.89c-9.4,16.77-8.58,37.86,0.72,54.44&#10;                  c1.83-2.38,3.65-4.75,5.48-7.13c-35.45-12.4-74.87,11.03-79.73,48.57c-4.62,35.7,23.52,67.88,57.32,75.17&#10;                  c20.6,4.44,43.75,1.71,62.28-8.48c4.22-2.32,1.34-9.75-3.36-7.97c-15.55,5.91-31.31,9.96-48.07,8.38&#10;                  c-15.5-1.46-30.34-7.85-41.34-18.96c-21.46-21.69-24.37-56.7-0.68-78.01c13.84-12.44,33.67-15.4,50.99-9.35&#10;                  c4.15,1.45,7.44-3.64,5.48-7.13c-7.96-14.19-7.94-31.02-0.4-45.37c3.18-6.04,7.28-11.49,12.63-15.78&#10;                  c5.59-4.48,12.5-7.08,18.83-10.3C134.9,134.59,134.72,132.44,133.33,132.22L133.33,132.22z"/>
                <path class="st2" d="M107.45,324.16c-1.15,12.41,8.62,26.58,16.72,35.08c9.21,9.67,21.09,16.65,33.97,20.14&#10;                  c14.6,3.96,30.84,3.48,44.83-2.44c11.85-5.01,25.15-15.64,26.72-29.22c0.49-4.27-5.22-4.61-7.21-1.95&#10;                  c-3.6,4.83-6.26,10-10.72,14.18c-4.7,4.4-10.48,7.6-16.6,9.55c-12.07,3.84-25.31,3.22-37.27-0.74&#10;                  c-10.44-3.46-20.18-9.65-27.73-17.65c-3.84-4.07-7.03-8.67-9.48-13.7c-2.42-4.96-3.3-10.36-5.47-15.35&#10;                  C113.39,317.86,107.78,320.55,107.45,324.16L107.45,324.16z"/>
                <path class="st2" d="M216.84,337.38c2.48,11.41,10.63,23.04,17.38,32.35c7.54,10.41,17.31,17.56,29.75,21.15&#10;                  c26.58,7.66,55-2.99,70.2-25.96c8.21-12.4,12.82-28.53,10.88-43.41c-0.77-5.9-9.86-6.31-9.55,0&#10;                  c0.74,15.17-2.7,29.75-12.24,41.89c-9.66,12.28-24.17,19.57-39.79,19.99c-14.26,0.38-29.19-4.64-38.59-15.71&#10;                  c-4.59-5.4-8.35-11.57-11.99-17.63c-3.22-5.37-6.3-11.37-11-15.63C219.63,332.37,216.19,334.4,216.84,337.38L216.84,337.38z"/>
                <path class="st2" d="M121.67,138.8c10.34-1.55,19.63-4.23,30.26-2.94c10.4,1.26,19.29,5.75,27.81,11.63&#10;                  c3.92,2.7,8.55-3.37,5.08-6.58c-8.75-8.1-20.57-12.31-32.31-13.54c-10.71-1.12-24.5,0.55-32.73,8.18&#10;                  C118.2,137,119.92,139.06,121.67,138.8L121.67,138.8z"/>
                <path class="st2" d="M175.05,137.21c3.91-7.54,6.09-15.6,11.22-22.56c5.33-7.23,12.46-13.18,20.16-17.74&#10;                  c15.19-8.97,33.72-12.4,51.14-9.61c16.97,2.72,32.25,10.97,43.81,23.68c5.65,6.21,10.24,13.38,13.65,21.05&#10;                  c3.42,7.67,5.01,15.92,7.79,23.8c1.23,3.48,7.49,4.51,8.14,0c2.13-14.7-4.53-30.06-12.64-42.07&#10;                  c-8.58-12.71-20.35-23.47-34.24-30.1c-28.85-13.76-65.39-10-90.42,10.13c-11.5,9.25-25.92,26.97-22.23,42.95&#10;                  C171.81,138.36,174.28,138.71,175.05,137.21L175.05,137.21z"/>
              </g>
            </g>
          </g>
        </g>
      </g>
      <g>
        <path class="st3" d="M285.55,184.26l16.11-14.55c0,0,30.35,31.78,28.58,62.66s-8.33,53.71-35.89,70.33l-9.88-13.42&#10;          c0,0,22.55-22.41,22.79-53.58C307.5,204,285.55,184.26,285.55,184.26z"/>
        <g>
          <path class="st1" d="M296.53,245.4c-12.18-4.95-24.74-8.93-37.55-11.9c-7.26-1.68-14.74-3.05-22.14-2.16&#10;            c-5.27,0.63-10.78,2.46-14.24,6.48c-2.43,2.82-4.76,6.73-5.58,10.37c-1,4.43-0.16,9.06,1.71,13.2c1.89,4.16,5.83,7.14,10.16,8.6&#10;            c4.33,1.45,9.01,1.51,13.54,0.99c4.01-0.46,7.97-1.36,11.79-2.68c4.11-1.42,8.03-3.33,11.95-5.22&#10;            c10.67-5.18,21.37-10.36,31.45-16.61"/>
          <path class="st1" d="M297.67,243.85c-11.58-8.21-26.41-11.7-40.09-14.65c-11.77-2.54-27.54-4.34-36.92,5.09&#10;            c-4.38,4.4-7.78,10.7-7.92,17c-0.14,6.24,1.9,12.88,6.45,17.29c9.87,9.56,25.94,7.28,37.7,3c7.39-2.69,14.37-6.53,21.33-10.16&#10;            c7.31-3.81,14.65-7.69,21.49-12.29c3.13-2.11-0.08-7.61-3.42-5.74c-11.26,6.31-22.85,11.75-34.48,17.34&#10;            c-5.21,2.51-10.52,4.72-16.22,5.8c-5.43,1.02-11.36,1.5-16.58-0.67c-4.83-2-7.51-6.15-8.32-11.22c-0.8-5.03,1.11-9.55,4.17-13.48&#10;            c6.92-8.88,21.32-6.5,30.79-4.43c13.66,2.99,26.85,8.46,40.67,10.58C298.22,247.6,299.19,244.93,297.67,243.85L297.67,243.85z"/>
        </g>
        <g>
          <path class="st4" d="M249.41,243.03c-2.68-1.5-5.77-2.28-8.84-2.23c-2.82,0.05-5.72,0.85-7.84,2.72&#10;            c-3.39,3.01-4.02,8.46-1.94,12.48c2.42,4.68,8.27,7.33,13.36,5.96c5.09-1.37,8.84-6.67,8.36-11.92c-0.49-5.25-5.23-9.79-10.5-9.97&#10;            "/>
          <path class="st4" d="M250.47,242.87c-0.74-3.14-5.46-4.21-8.22-4.5c-3.42-0.35-6.93,0.21-9.91,1.97&#10;            c-6.35,3.74-7.61,12.19-3.85,18.22c3.46,5.56,10.73,8.38,17.01,6.49c6.65-1.99,11.23-8.92,10.43-15.82&#10;            c-0.43-3.73-2.56-7.14-5.39-9.54c-2.37-2.01-7.97-4.02-10.26-0.9c-0.41,0.57-0.61,1.5-0.25,2.15c0.78,1.38,1.84,1.74,3.16,2.43&#10;            c1.06,0.55,2.16,1.35,3.09,2.1c1.82,1.46,2.94,3.68,2.79,6.03c-0.31,4.98-5.28,8.5-10.04,7.18c-4.91-1.36-7.76-6.97-5.33-11.67&#10;            c1.36-2.63,4.47-3.59,7.24-3.7c1.66-0.06,3.36,0.19,4.98,0.5c1.33,0.26,2.6,0.7,3.91,0.2&#10;            C250.24,243.86,250.57,243.31,250.47,242.87L250.47,242.87z"/>
        </g>
        <path class="st2" d="M295.59,304.31c27.91-13.5,39.7-48.23,37.08-77.42c-1.34-14.95-6.09-29.45-14.4-42&#10;          c-8.23-12.42-19.46-22.63-32.33-30.09c-25.74-14.93-57.85-18.6-85.49-6.79c-27.89,11.92-49.35,38.09-56.21,67.57&#10;          c-7.42,31.87,4.05,65.89,29.06,86.99c3.1,2.61,6.21,4.88,9.81,6.75c2.04,1.06,4.33-1.58,2.54-3.29&#10;          c-5.6-5.32-11.33-10.43-16.26-16.4c-4.85-5.87-9.12-12.37-12.51-19.19c-6.68-13.46-9.38-28.55-7.83-43.49&#10;          c2.92-28.09,20.64-54.24,44.88-68.42c24.33-14.23,54.32-14.41,79.77-2.88c25.54,11.57,45.81,33.87,52.05,61.51&#10;          c3.08,13.66,2.79,28.13-0.86,41.65c-3.71,13.73-10.96,25.78-21.1,35.69c-2.97,2.91-6.2,5.59-9.44,8.19&#10;          C293.38,303.47,294.61,304.79,295.59,304.31L295.59,304.31z"/>
        <g>
          <path class="st3" d="M297.11,242.06c-12.18-4.95-24.74-8.93-37.55-11.9c-7.26-1.68-14.74-3.05-22.14-2.16&#10;            c-5.27,0.63-10.78,2.46-14.24,6.48c-2.43,2.82-4.76,6.73-5.58,10.37c-1,4.43-0.16,9.06,1.71,13.2c1.89,4.16,5.83,7.14,10.16,8.6&#10;            c4.33,1.45,9.01,1.51,13.54,0.99c4.01-0.46,7.97-1.36,11.79-2.68c4.11-1.42,8.03-3.33,11.95-5.22&#10;            c10.67-5.18,21.37-10.36,31.45-16.61"/>
          <path class="st2" d="M297.75,241.19c-12.21-6.89-26.15-10.66-39.78-13.63c-11.27-2.46-26.72-4.46-35.7,4.72&#10;            c-4.04,4.13-7.15,10-7.27,15.85c-0.12,5.71,1.78,11.86,5.94,15.9c9.33,9.04,24.78,6.66,35.84,2.61&#10;            c7.37-2.7,14.38-6.52,21.36-10.09c7.23-3.7,14.43-7.51,21.24-11.93c1.79-1.16-0.07-4.32-1.93-3.24&#10;            c-11.04,6.45-22.51,11.9-34.02,17.44c-5.47,2.63-11.02,4.94-17.01,6.06c-5.71,1.07-11.97,1.51-17.45-0.77&#10;            c-5.16-2.15-8.25-6.51-9.27-11.92c-1.08-5.71,0.87-10.87,4.38-15.37c7.19-9.23,21.58-7.39,31.6-5.28&#10;            c13.94,2.94,27.28,7.95,41.04,11.53C297.78,243.35,298.91,241.85,297.75,241.19L297.75,241.19z"/>
        </g>
        <g>
          <path class="st0" d="M249.99,239.69c-2.68-1.5-5.77-2.28-8.84-2.23c-2.82,0.05-5.72,0.85-7.84,2.72&#10;            c-3.39,3.01-4.02,8.46-1.94,12.48c2.42,4.68,8.27,7.33,13.36,5.96c5.09-1.37,8.84-6.67,8.36-11.92c-0.49-5.25-5.23-9.79-10.5-9.97&#10;            "/>
          <path class="st2" d="M250.46,239.32c-1.85-2.48-5.91-3.19-8.81-3.26c-3.01-0.07-6.04,0.56-8.56,2.28c-5.17,3.51-6.05,10.87-2.9,16&#10;            c3.09,5.02,9.6,7.69,15.3,6.04c5.7-1.66,9.86-7.4,9.58-13.35c-0.16-3.39-1.81-6.53-4.26-8.83c-2.08-1.96-5.83-3.89-8.7-2.57&#10;            c-0.79,0.36-1.06,1.6-0.24,2.11c2.21,1.38,4.63,1.83,6.58,3.74c1.98,1.93,3.04,4.69,2.63,7.45c-0.83,5.62-6.52,9.42-11.99,7.77&#10;            c-5.44-1.64-8.65-7.57-6.31-12.95c1.28-2.94,4.23-4.38,7.28-4.76c1.72-0.21,3.47-0.08,5.17,0.24c1.57,0.3,3.1,0.99,4.7,1.07&#10;            C250.44,240.32,250.78,239.75,250.46,239.32L250.46,239.32z"/>
        </g>
        <path class="st2" d="M237.1,144.81c-1.11,4.25-0.7,9.19-0.57,13.54c0.06,2.26,0.13,4.53,0.19,6.79c0.05,1.88,0.06,3.67,1.69,4.84&#10;          c0.46,0.33,1.04,0.12,1.43-0.18c1.54-1.21,1.31-3.3,1.29-5.08c-0.03-2.26-0.06-4.53-0.1-6.79c-0.06-4.22,0.12-9.05-1.12-13.12&#10;          C239.49,143.47,237.47,143.39,237.1,144.81L237.1,144.81z"/>
        <path class="st2" d="M145.94,237.17c2.08,0.75,4.56,0.64,6.75,0.67c2.41,0.03,4.82,0.01,7.24-0.01c2.27-0.02,4.54-0.05,6.81-0.07&#10;          c2.25-0.02,4.7,0.19,6.73-0.93c0.97-0.53,1.01-2.1,0-2.62c-1.95-1-4.15-0.81-6.3-0.78c-2.41,0.04-4.83,0.08-7.24,0.12&#10;          c-2.27,0.04-4.54,0.07-6.81,0.17c-2.3,0.09-5,0-7.17,0.85C144.7,235.06,144.64,236.7,145.94,237.17L145.94,237.17z"/>
        <path class="st2" d="M330.24,231.25c-1.04-1.35-3.14-1.28-4.73-1.41c-2.08-0.17-4.18-0.15-6.26-0.14&#10;          c-4.18,0.01-8.45-0.14-12.58,0.55c-2.19,0.37-1.41,3.41,0.49,3.6c4.13,0.42,8.37,0.03,12.51-0.02c1.94-0.02,3.9-0.01,5.84-0.15&#10;          c1.57-0.11,3.66-0.02,4.73-1.32C330.53,232,330.52,231.61,330.24,231.25L330.24,231.25z"/>
        <path class="st2" d="M300.12,173.65c0.09,0.03,0.18,0.06,0.27,0.09c0.56,0.18,1.39,0.01,1.77-0.47c0.99-1.23,0.9-2.68-0.5-3.56&#10;          c-0.68-0.43-1.71-0.29-2.26,0.29c-2.53,2.69-5.25,5.24-8.05,7.64c-2.62,2.24-5.99,4.3-7.74,7.33c-0.58,1.01,0.39,2.36,1.54,2&#10;          c3.37-1.03,6.22-3.88,8.83-6.17c2.9-2.53,5.62-5.2,8.06-8.18c-0.75,0.1-1.5,0.19-2.26,0.29c0.08,0.04,0.17,0.09,0.25,0.13&#10;          c-0.28-0.37-0.57-0.74-0.85-1.11c0.02,0.1,0.05,0.19,0.07,0.29c0.06-0.47,0.12-0.95,0.19-1.42c-0.05,0.08-0.1,0.16-0.14,0.24&#10;          c0.52-0.3,1.05-0.6,1.57-0.9c-0.09,0.01-0.19,0.02-0.28,0.02C298.63,170.34,298.16,173.01,300.12,173.65L300.12,173.65z"/>
        <path class="st2" d="M172.64,170.61c0.09,1.49,1.26,2.25,2.31,3.19c1.52,1.37,3.11,2.65,4.69,3.95c1.42,1.17,2.86,2.31,4.32,3.43&#10;          c1.53,1.18,3.01,2.61,4.99,2.9c1.6,0.23,2.74-1.14,2.04-2.65c-1.31-2.82-5.17-4.75-7.63-6.49c-2.65-1.87-5.39-4.38-8.38-5.66&#10;          C173.98,168.85,172.56,169.31,172.64,170.61L172.64,170.61z"/>
        <path class="st2" d="M184.1,308.69c1.58,0.24,2.44-0.51,3.58-1.53c1.44-1.29,2.85-2.61,4.22-3.98c2.63-2.63,6.12-5.28,7.58-8.76&#10;          c0.6-1.44-1.25-2.28-2.34-1.8c-3.03,1.35-5.39,4.64-7.64,6.99c-2.13,2.24-4.42,4.52-6.25,7.01&#10;          C182.77,307.31,183.26,308.56,184.1,308.69L184.1,308.69z"/>
        <path class="st2" d="M296,303.93c0-1.44-1.05-2.51-1.88-3.61c-0.95-1.25-1.95-2.46-2.92-3.7c-1.9-2.42-3.92-5.95-6.73-7.35&#10;          c-1.23-0.61-2.39,0.39-2.18,1.68c0.5,3.14,3.61,6.1,5.73,8.31c1.7,1.76,4.67,5.4,7.32,5.34C295.69,304.59,296,304.3,296,303.93&#10;          L296,303.93z"/>
      </g>
      <g>
        <g>
          <path class="st0" d="M144.35,287.24c23.06-2.09,47.39,9.45,61.06,28.94l-4.8,17.09l-64.94-31.9L144.35,287.24z"/>
        </g>
        <g>
          <path class="st0" d="M136.91,254.2c13.38,3.32,23.9,15.9,24.81,29.65l-16.77,16.83l-21.04-24.44L136.91,254.2z"/>
        </g>
        <path class="st2" d="M208.38,314.97c-11.01-15.6-28.41-26.6-47.31-29.58c-5.29-0.83-10.63-1.1-15.97-0.63&#10;          c-1.39,0.12-2.58,1.1-2.58,2.58c0,1.3,1.18,2.7,2.58,2.58c17.57-1.53,35.44,4.8,48.64,16.4c3.81,3.35,7.26,7.11,10.19,11.26&#10;          c0.8,1.14,2.25,1.67,3.53,0.92C208.58,317.84,209.18,316.11,208.38,314.97L208.38,314.97z"/>
        <path class="st2" d="M165.27,286.21c-1.09-14.96-12.1-28.41-26.7-32.14c-3.22-0.82-4.59,4.15-1.37,4.97&#10;          c12.28,3.13,22,14.46,22.92,27.17c0.1,1.39,1.11,2.58,2.58,2.58C164.01,288.79,165.37,287.61,165.27,286.21L165.27,286.21z"/>
      </g>
      <g>
        <g>
          <path class="st0" d="M332.74,287.24c-23.06-2.09-47.39,9.45-61.06,28.94l4.8,17.09L300,310l15-12l26.42,3.37L332.74,287.24z"/>
        </g>
        <g>
          <path class="st0" d="M341.18,257.2c-13.38,3.32-23.9,15.9-24.81,29.65l16.77,16.83l21.04-24.44L341.18,257.2z"/>
        </g>
        <path class="st2" d="M272.16,319.57c10.23-14.5,26.57-24.37,44.05-27.18c4.88-0.78,9.87-0.91,14.79-0.48&#10;          c1.39,0.12,2.58-1.27,2.58-2.58c0-1.49-1.18-2.46-2.58-2.58c-19-1.66-38.24,5.5-52.43,18.04c-4.09,3.61-7.71,7.72-10.85,12.18&#10;          c-0.8,1.14-0.2,2.87,0.92,3.53C269.93,321.25,271.36,320.71,272.16,319.57L272.16,319.57z"/>
        <path class="st2" d="M317.98,289.21c0.92-12.7,10.64-24.03,22.92-27.17c3.21-0.82,1.85-5.79-1.37-4.97&#10;          c-14.6,3.72-25.62,17.17-26.7,32.14c-0.1,1.39,1.26,2.58,2.58,2.58C316.88,291.79,317.88,290.61,317.98,289.21L317.98,289.21z"/>
      </g>
      </svg>